<svg width="223" height="48" viewBox="0 0 223 48" fill="none"
	xmlns="http://www.w3.org/2000/svg">
	<path d="M0.854023 30.3588C0.288116 28.2979 0 26.1573 0 24.0013C0 14.1592 6.18126 5.16 15.3824 1.61121L16.5888 4.73343C8.66867 7.78884 3.34915 15.5314 3.34915 24.0013C3.34915 25.8592 3.59608 27.6991 4.08225 29.4722L0.854023 30.3588Z" fill="#69D3A7"/>
	<path d="M42.4507 14.4933C38.8701 7.61925 31.822 3.34836 24.0613 3.34836C21.3115 3.34836 18.6389 3.87772 16.1232 4.91846L14.8396 1.82707C17.7643 0.616732 20.8665 0 24.0613 0C33.0772 0 41.2623 4.95958 45.4217 12.9463L42.4507 14.4933Z" fill="url(#paint0_linear_11832_19895)"/>
	<path d="M16.8771 19.0494C18.8192 19.0494 20.4011 20.085 21.214 21.8915L21.2783 22.0329L24.5399 20.9253L24.4705 20.7583C23.2075 17.6823 20.2982 15.7704 16.8771 15.7704C14.472 15.7704 12.517 16.5414 10.9016 18.1243C9.29647 19.697 8.48364 21.6757 8.48364 24.0064C8.48364 26.3166 9.29647 28.285 10.9016 29.8577C12.517 31.4407 14.472 32.2116 16.8771 32.2116C20.2982 32.2116 23.2075 30.2997 24.4705 27.2263L24.5399 27.0593L21.2731 25.9491L21.2114 26.0956C20.4834 27.8713 18.8629 28.9326 16.8771 28.9326C15.524 28.9326 14.3819 28.4598 13.4765 27.5295C12.5607 26.5864 12.0977 25.4018 12.0977 24.009C12.0977 22.6059 12.5504 21.4444 13.4765 20.4576C14.3793 19.5223 15.524 19.0494 16.8771 19.0494Z" fill="white"/>
	<path d="M57.0691 18.1269C55.5643 16.5645 53.6865 15.7704 51.4846 15.7704C49.2981 15.7704 47.4975 16.5491 46.1291 18.0832V16.0737H42.605V37.9703H46.1291V29.8988C47.4975 31.433 49.2955 32.2116 51.4846 32.2116C53.6865 32.2116 55.5668 31.4175 57.0716 29.8526C58.5533 28.2799 59.3018 26.314 59.3018 24.0064C59.2992 21.6757 58.5507 19.6996 57.0691 18.1269ZM54.3064 27.5244C53.4035 28.4572 52.2588 28.9275 50.9084 28.9275C49.5373 28.9275 48.4261 28.4675 47.5078 27.5244C46.5921 26.5813 46.1291 25.3967 46.1291 24.0039C46.1291 22.57 46.5792 21.4084 47.5078 20.4525C48.4235 19.5068 49.5348 19.0494 50.9084 19.0494C52.2614 19.0494 53.4035 19.5223 54.3064 20.4525C55.2144 21.3879 55.6543 22.5494 55.6543 24.0039C55.6543 25.4378 55.2118 26.589 54.3064 27.5244Z" fill="white"/>
	<path d="M65.038 17.9599V16.0737H61.5139V31.9058H65.038V22.9734C65.038 21.5421 65.6142 20.4474 66.7511 19.7201C67.8804 18.998 69.236 18.8644 70.8951 19.3167L71.1086 19.3758V15.9889L70.9774 15.958C68.7498 15.4261 66.5145 16.1919 65.038 17.9599Z" fill="white"/>
	<path d="M80.2506 15.7704C77.9278 15.7704 75.9574 16.5619 74.3935 18.1243C72.8089 19.7073 72.0063 21.686 72.0063 24.0064C72.0063 26.3166 72.8192 28.285 74.4243 29.8577C76.0397 31.4407 77.9947 32.2116 80.3998 32.2116C83.6589 32.2116 86.4601 30.5567 87.8955 27.7839L87.9778 27.6246L84.9965 26.3038L84.9245 26.4451C84.0602 28.1154 82.401 29.1125 80.4924 29.1125C78.0127 29.1125 76.1143 27.5989 75.5999 25.2373H88.3842L88.3996 25.0857C88.6775 22.5314 88.019 20.3163 86.4473 18.4995C84.8833 16.6878 82.7972 15.7704 80.2506 15.7704ZM75.7053 22.4106C76.3304 20.2495 78.095 18.867 80.2506 18.867C82.4654 18.867 84.2299 20.2495 84.801 22.4106H75.7053Z" fill="white"/>
	<path d="M97.8146 22.4954C95.8931 22.1356 94.234 21.8221 94.234 20.4859C94.234 19.4246 95.3632 18.6845 96.9786 18.6845C98.7612 18.6845 99.7387 19.4503 99.9676 21.0255L99.9934 21.2028L103.517 20.4653L103.492 20.306C103.018 17.5076 100.523 15.7679 96.9812 15.7679C95.2037 15.7679 93.6989 16.2278 92.5105 17.135C91.2964 18.0369 90.6816 19.2139 90.6816 20.6375C90.6816 22.6984 91.9883 24.2454 94.1825 24.7748C94.751 24.9084 95.3529 25.0163 95.9343 25.1242C98.1181 25.5225 100.181 25.9003 100.181 27.3702C100.181 28.5034 98.8641 29.2923 96.9812 29.2923C95.0648 29.2923 94.0076 28.5266 93.7478 26.9488L93.7195 26.774L90.198 27.5115L90.2263 27.6734C90.7382 30.513 93.2616 32.209 96.9786 32.209C98.8667 32.209 100.485 31.7387 101.781 30.8136C103.078 29.8988 103.733 28.7193 103.733 27.3085C103.733 23.6081 100.454 22.9914 97.8146 22.4954Z" fill="white"/>
	<path d="M113.081 22.4954C111.16 22.1356 109.501 21.8221 109.501 20.4859C109.501 19.4246 110.63 18.6845 112.245 18.6845C114.028 18.6845 115.005 19.4503 115.234 21.0255L115.26 21.2028L118.784 20.4653L118.758 20.306C118.285 17.5076 115.79 15.7679 112.248 15.7679C110.47 15.7679 108.966 16.2278 107.777 17.135C106.563 18.0369 105.948 19.2139 105.948 20.6375C105.948 22.6984 107.255 24.2454 109.449 24.7748C110.018 24.9084 110.62 25.0163 111.201 25.1242C113.385 25.5225 115.448 25.9003 115.448 27.3702C115.448 28.5034 114.131 29.2923 112.248 29.2923C110.331 29.2923 109.274 28.5266 109.014 26.9488L108.986 26.774L105.465 27.5115L105.493 27.6734C106.005 30.513 108.528 32.209 112.245 32.209C114.133 32.209 115.751 31.7387 117.048 30.8136C118.344 29.8988 119 28.7193 119 27.3085C119 23.6081 115.72 22.9914 113.081 22.4954Z" fill="white"/>
	<path d="M37.3061 16.0737L32.658 27.8353L27.979 16.0737H24.1514L30.7133 32.1268L26.0446 43.449L29.3912 44.1146L40.9228 16.0737H37.3061Z" fill="white"/>
	<path d="M26.6434 41.9894L25.828 43.963C25.6659 44.3536 25.2955 44.6182 24.8788 44.6362C24.6036 44.6465 24.3258 44.6542 24.0454 44.6542C14.4481 44.6491 5.95693 37.883 3.85278 28.56L0.585938 29.2975C1.76663 34.5269 4.72994 39.2732 8.93051 42.6653C13.18 46.0958 18.5329 47.9897 24.0094 48C24.0171 48 24.0582 48 24.0582 48C24.3798 48 24.6987 47.9923 25.0177 47.9795C26.736 47.9075 28.2717 46.8308 28.9276 45.235L29.9925 42.655L26.6434 41.9894Z" fill="url(#paint1_linear_11832_19895)"/>
	<path d="M140.469 19.135C139.105 17.213 136.935 16.004 134.3 16.004C129.774 16.004 126.364 19.538 126.364 24.157C126.364 28.807 129.774 32.31 134.3 32.31C136.935 32.31 139.105 31.101 140.469 29.179V32H142.794V9.06H140.469V19.135ZM134.61 30.14C131.293 30.14 128.751 27.567 128.751 24.157C128.751 20.747 131.293 18.174 134.61 18.174C137.958 18.174 140.469 20.747 140.469 24.157C140.469 27.567 137.958 30.14 134.61 30.14ZM154.224 16.004C149.636 16.004 146.133 19.538 146.133 24.157C146.133 28.807 149.698 32.31 154.379 32.31C157.851 32.31 160.548 30.419 161.819 27.722L159.835 26.885C158.843 28.931 156.859 30.233 154.41 30.233C151.217 30.233 148.799 27.97 148.458 24.87H162.253C162.625 19.848 159.029 16.004 154.224 16.004ZM154.224 18.081C157.2 18.081 159.432 20.189 159.897 22.948H148.52C149.047 20.127 151.341 18.081 154.224 18.081ZM164.743 27.939C165.239 30.574 167.533 32.31 171.16 32.31C174.818 32.31 177.577 30.388 177.577 27.691C177.577 21.398 167.533 24.467 167.533 20.468C167.533 18.98 169.052 17.988 171.16 17.988C173.299 17.988 174.632 19.011 174.973 20.84L177.298 20.375C176.802 17.74 174.632 16.004 171.16 16.004C167.688 16.004 165.208 17.926 165.208 20.561C165.208 26.606 175.221 23.444 175.221 27.753C175.221 29.272 173.547 30.357 171.16 30.357C168.835 30.357 167.409 29.303 167.099 27.474L164.743 27.939ZM180.288 11.664C180.288 12.47 180.939 13.152 181.807 13.152C182.644 13.152 183.326 12.47 183.326 11.664C183.326 10.796 182.644 10.145 181.807 10.145C180.939 10.145 180.288 10.796 180.288 11.664ZM182.954 32V16.314H180.629V32H182.954ZM200.41 19.104C199.046 17.182 196.876 16.004 194.241 16.004C189.715 16.004 186.305 19.476 186.305 24.064C186.305 28.652 189.715 32.124 194.241 32.124C196.876 32.124 199.046 30.946 200.41 29.024V30.357C200.41 33.798 197.837 36.371 194.489 36.371C192.071 36.371 190.149 35.007 189.188 32.93L187.08 33.922C188.351 36.619 191.048 38.51 194.489 38.51C199.17 38.51 202.735 35.007 202.735 30.357V16.314H200.41V19.104ZM194.551 29.985C191.234 29.985 188.692 27.412 188.692 24.064C188.692 20.716 191.234 18.174 194.551 18.174C197.899 18.174 200.41 20.716 200.41 24.064C200.41 27.412 197.899 29.985 194.551 29.985ZM214.413 16.004C212.088 16.004 210.166 17.089 209.019 18.763V16.314H206.694V32H209.019V23.041C209.019 20.251 211.127 18.143 213.917 18.143C216.738 18.143 218.815 20.251 218.815 23.041V32H221.14V22.762C221.14 18.887 218.319 16.004 214.413 16.004Z" fill="white"/>
	<defs>
		<linearGradient id="paint0_linear_11832_19895" x1="21.5576" y1="-1.54942" x2="39.8225" y2="17.9723" gradientUnits="userSpaceOnUse">
			<stop offset="0.0939" stop-color="#58D09E"/>
			<stop offset="0.9883" stop-color="#58D09E" stop-opacity="0"/>
		</linearGradient>
		<linearGradient id="paint1_linear_11832_19895" x1="-0.256416" y1="34.9215" x2="34.638" y2="44.2092" gradientUnits="userSpaceOnUse">
			<stop offset="0.0774" stop-color="#58D09E"/>
			<stop offset="0.7617" stop-color="white"/>
		</linearGradient>
	</defs>
</svg>
