<svg width="16" height="16" viewBox="0 0 16 16" fill="none" xmlns="http://www.w3.org/2000/svg">
<path d="M13.6569 13.6569C10.5327 16.781 5.46734 16.781 2.34315 13.6569C-0.781048 10.5327 -0.781048 5.46734 2.34315 2.34315C5.46734 -0.781048 10.5327 -0.781048 13.6569 2.34315C16.781 5.46734 16.781 10.5327 13.6569 13.6569Z" fill="currentColor" class="icon-dark-fill"/>
<path class="question-mark-path" fill-rule="evenodd" clip-rule="evenodd" d="M6.8448 5.53525L6.84396 5.53644C6.5525 5.99535 5.94587 6.13804 5.47965 5.85394C5.00803 5.56655 4.85869 4.95125 5.14608 4.47963L6.00002 5C5.14608 4.47963 5.14634 4.4792 5.14661 4.47877L5.14714 4.47789L5.14827 4.47605L5.15072 4.47208L5.15641 4.463L5.17096 4.44042C5.18207 4.42347 5.19608 4.40275 5.21304 4.37881C5.24691 4.33103 5.29293 4.2699 5.35169 4.20004C5.46863 4.06102 5.63977 3.88294 5.87021 3.70632C6.33802 3.34776 7.04659 3 8.00002 3C9.09905 3 9.911 3.43152 10.4141 4.1133C10.8791 4.74355 11 5.47764 11 6C11 6.62988 10.8269 7.14716 10.5374 7.57449C10.2654 7.97613 9.91793 8.25422 9.66583 8.44689C9.05787 8.9115 9.01126 8.9631 8.99317 9.11684C8.92864 9.66534 8.43168 10.0577 7.88318 9.99315C7.33468 9.92862 6.94234 9.43166 7.00687 8.88316C7.13173 7.8219 7.92231 7.24504 8.33395 6.94468C8.37783 6.91266 8.4174 6.88379 8.45141 6.8578C8.67977 6.68328 8.80302 6.56879 8.88155 6.45286C8.94269 6.3626 9.00002 6.23731 9.00002 6C9.00002 5.74111 8.93345 5.4752 8.80473 5.30076C8.71404 5.17785 8.526 5 8.00002 5C7.56283 5 7.2714 5.15224 7.08687 5.29368C6.99114 5.36706 6.92301 5.43898 6.88224 5.48746C6.86214 5.51135 6.8497 5.52835 6.8448 5.53525ZM8.00002 13C8.55231 13 9.00002 12.5523 9.00002 12C9.00002 11.4477 8.55231 11 8.00002 11C7.44774 11 7.00002 11.4477 7.00002 12C7.00002 12.5523 7.44774 13 8.00002 13Z" fill="white"/>
</svg>
