<svg width="20" height="20" viewBox="0 0 20 20" fill="none" xmlns="http://www.w3.org/2000/svg">
<path d="M7.35999 16.4053C7.65288 16.6982 8.12776 16.6982 8.42065 16.4053C8.71354 16.1124 8.71354 15.6376 8.42065 15.3447L7.35999 16.4053ZM4.28783 11.2119C3.99494 10.919 3.52006 10.919 3.22717 11.2119C2.93428 11.5047 2.93428 11.9796 3.22717 12.2725L4.28783 11.2119ZM8.42065 15.3447L4.28783 11.2119L3.22717 12.2725L7.35999 16.4053L8.42065 15.3447Z" fill="currentColor"/>
<path d="M17.1986 7.62744C17.4914 7.33454 17.4914 6.85967 17.1986 6.56678C16.9057 6.27388 16.4308 6.27388 16.1379 6.56678L17.1986 7.62744ZM7.35998 15.3447C7.06709 15.6376 7.06709 16.1125 7.35998 16.4053C7.65288 16.6982 8.12775 16.6982 8.42064 16.4053L7.35998 15.3447ZM16.1379 6.56678L7.35998 15.3447L8.42064 16.4053L17.1986 7.62744L16.1379 6.56678Z" fill="currentColor"/>
</svg>
