<svg width="20" height="20" viewBox="0 0 20 20" fill="none" xmlns="http://www.w3.org/2000/svg">
<path d="M1.5 10.5H6.5V15.5H1.5V10.5Z" fill="currentColor"/>
<path d="M10.5 1.5H15.5V6.5H10.5V1.5Z" fill="currentColor"/>
<path d="M1.5 5.5V4.75C1.08579 4.75 0.75 5.08579 0.75 5.5H1.5ZM6.5 5.5H7.25V4.75H6.5V5.5ZM1.5 15.5H0.75C0.75 15.9142 1.08579 16.25 1.5 16.25L1.5 15.5ZM10.5 1.5V0.75H9.75V1.5H10.5ZM15.5 1.5H16.25C16.25 1.08579 15.9142 0.75 15.5 0.75V1.5ZM15.5 6.5V7.25H16.25V6.5H15.5ZM10.5 6.5H9.75V7.25H10.5V6.5ZM11.5 10.5H12.25V9.75H11.5V10.5ZM11.5 15.5V16.25C11.9142 16.25 12.25 15.9142 12.25 15.5H11.5ZM1.5 6.25H6.5V4.75H1.5V6.25ZM5.75 5.5V10.5H7.25V5.5H5.75ZM6.5 9.75H1.5V11.25H6.5V9.75ZM2.25 10.5V5.5H0.75V10.5H2.25ZM5.75 10.5V15.5H7.25V10.5H5.75ZM6.5 14.75H1.5V16.25H6.5V14.75ZM2.25 15.5V10.5H0.75V15.5H2.25ZM10.5 2.25H15.5V0.75H10.5V2.25ZM14.75 1.5V6.5H16.25V1.5H14.75ZM15.5 5.75H10.5V7.25H15.5V5.75ZM11.25 6.5V1.5H9.75V6.5H11.25ZM6.5 11.25H11.5V9.75H6.5V11.25ZM10.75 10.5V15.5H12.25V10.5H10.75ZM11.5 14.75H6.5V16.25H11.5V14.75Z" fill="#9095AD"/>
</svg>
