<svg width="20" height="20" viewBox="0 0 20 20" fill="none" xmlns="http://www.w3.org/2000/svg">
<rect x="1" y="1" width="18" height="18" rx="9" stroke="currentColor" stroke-width="1.5" stroke-linecap="round" stroke-linejoin="round"/>
<path d="M6.78711 11.5752C7.09961 11.5752 7.35352 11.4893 7.54883 11.3174C7.74414 11.1455 7.8457 10.917 7.85352 10.6318H9.44141C9.4375 11.0615 9.32031 11.4561 9.08984 11.8154C8.85938 12.1709 8.54297 12.4482 8.14062 12.6475C7.74219 12.8428 7.30078 12.9404 6.81641 12.9404C5.91016 12.9404 5.19531 12.6533 4.67188 12.0791C4.14844 11.501 3.88672 10.7041 3.88672 9.68848V9.57715C3.88672 8.60059 4.14648 7.82129 4.66602 7.23926C5.18555 6.65723 5.89844 6.36621 6.80469 6.36621C7.59766 6.36621 8.23242 6.59277 8.70898 7.0459C9.18945 7.49512 9.43359 8.09473 9.44141 8.84473H7.85352C7.8457 8.5166 7.74414 8.25098 7.54883 8.04785C7.35352 7.84082 7.0957 7.7373 6.77539 7.7373C6.38086 7.7373 6.08203 7.88184 5.87891 8.1709C5.67969 8.45605 5.58008 8.9209 5.58008 9.56543V9.74121C5.58008 10.3936 5.67969 10.8623 5.87891 11.1475C6.07812 11.4326 6.38086 11.5752 6.78711 11.5752Z" fill="currentColor"/>
<path d="M12.7754 10.4268L13.9473 6.4834H15.7637L13.2148 13.8076L13.0742 14.1416C12.6953 14.9697 12.0703 15.3838 11.1992 15.3838C10.9531 15.3838 10.7031 15.3467 10.4492 15.2725V13.9893L10.707 13.9951C11.0273 13.9951 11.2656 13.9463 11.4219 13.8486C11.582 13.751 11.707 13.5889 11.7969 13.3623L11.9961 12.8408L9.77539 6.4834H11.5977L12.7754 10.4268Z" fill="currentColor"/>
</svg>
