<svg width="20" height="20" viewBox="0 0 20 20" fill="none" xmlns="http://www.w3.org/2000/svg">
<path d="M2.40862 8.49243C1.9944 8.49243 1.65862 8.82822 1.65862 9.24243C1.65862 9.65665 1.9944 9.99243 2.40862 9.99243V8.49243ZM17.5914 8.49243H2.40862V9.99243H17.5914V8.49243Z" fill="currentColor"/>
<path d="M6.14149 6.24695C6.14149 6.66116 6.47727 6.99695 6.89149 6.99695C7.3057 6.99695 7.64149 6.66116 7.64149 6.24695L6.14149 6.24695ZM7.64149 3.46863C7.64149 3.05441 7.3057 2.71863 6.89149 2.71863C6.47727 2.71863 6.14149 3.05441 6.14149 3.46863L7.64149 3.46863ZM7.64149 6.24695L7.64149 3.46863L6.14149 3.46863L6.14149 6.24695L7.64149 6.24695Z" fill="currentColor"/>
<path d="M12.3585 6.24695C12.3585 6.66116 12.6943 6.99695 13.1085 6.99695C13.5227 6.99695 13.8585 6.66116 13.8585 6.24695L12.3585 6.24695ZM13.8585 3.46863C13.8585 3.05441 13.5227 2.71863 13.1085 2.71863C12.6943 2.71863 12.3585 3.05441 12.3585 3.46863L13.8585 3.46863ZM13.8585 6.24695L13.8585 3.46863L12.3585 3.46863L12.3585 6.24695L13.8585 6.24695Z" fill="currentColor"/>
<path d="M2.40862 4.85779H17.5914V17.75H2.40862V4.85779Z" stroke="currentColor" stroke-width="1.5" stroke-linecap="round" stroke-linejoin="round"/>
<path d="M13.875 14.0242C14.2892 14.0242 14.625 13.6884 14.625 13.2742C14.625 12.86 14.2892 12.5242 13.875 12.5242L13.875 14.0242ZM6.12434 12.5242C5.71013 12.5242 5.37434 12.86 5.37434 13.2742C5.37434 13.6884 5.71013 14.0242 6.12434 14.0242L6.12434 12.5242ZM13.875 12.5242L6.12434 12.5242L6.12434 14.0242L13.875 14.0242L13.875 12.5242Z" fill="currentColor"/>
</svg>
