<svg width="20" height="20" viewBox="0 0 20 20" fill="none" xmlns="http://www.w3.org/2000/svg">
<path d="M2.40862 8.49237C1.9944 8.49237 1.65862 8.82816 1.65862 9.24237C1.65862 9.65658 1.9944 9.99237 2.40862 9.99237V8.49237ZM17.5914 8.49237H2.40862V9.99237H17.5914V8.49237Z" fill="currentColor"/>
<path d="M6.14149 6.24689C6.14149 6.6611 6.47727 6.99689 6.89149 6.99689C7.3057 6.99689 7.64149 6.6611 7.64149 6.24689L6.14149 6.24689ZM7.64149 3.46857C7.64149 3.05435 7.3057 2.71857 6.89149 2.71857C6.47727 2.71857 6.14149 3.05435 6.14149 3.46857L7.64149 3.46857ZM7.64149 6.24689L7.64149 3.46857L6.14149 3.46857L6.14149 6.24689L7.64149 6.24689Z" fill="currentColor"/>
<path d="M9.96986 15.1322C9.96986 15.5464 10.3056 15.8822 10.7199 15.8822C11.1341 15.8822 11.4699 15.5464 11.4699 15.1322L9.96986 15.1322ZM11.4699 11.8601C11.4699 11.4458 11.1341 11.1101 10.7199 11.1101C10.3056 11.1101 9.96986 11.4458 9.96986 11.8601L11.4699 11.8601ZM11.4699 15.1322L11.4699 11.8601L9.96986 11.8601L9.96986 15.1322L11.4699 15.1322Z" fill="currentColor"/>
<path d="M8.78992 12.5359C8.47643 12.8066 8.44178 13.2802 8.71252 13.5937C8.98326 13.9072 9.45686 13.9419 9.77035 13.6711L8.78992 12.5359ZM11.2101 12.4277C11.5236 12.157 11.5582 11.6834 11.2875 11.3699C11.0168 11.0564 10.5432 11.0217 10.2297 11.2925L11.2101 12.4277ZM9.77035 13.6711L11.2101 12.4277L10.2297 11.2925L8.78992 12.5359L9.77035 13.6711Z" fill="currentColor"/>
<path d="M12.3585 6.24689C12.3585 6.6611 12.6943 6.99689 13.1085 6.99689C13.5227 6.99689 13.8585 6.6611 13.8585 6.24689L12.3585 6.24689ZM13.8585 3.46857C13.8585 3.05435 13.5227 2.71857 13.1085 2.71857C12.6943 2.71857 12.3585 3.05435 12.3585 3.46857L13.8585 3.46857ZM13.8585 6.24689L13.8585 3.46857L12.3585 3.46857L12.3585 6.24689L13.8585 6.24689Z" fill="currentColor"/>
<rect x="2.40862" y="4.85773" width="15.1827" height="12.8922" stroke="currentColor" stroke-width="1.5" stroke-linecap="round" stroke-linejoin="round"/>
</svg>
