<svg width="20" height="21" viewBox="0 0 20 21" fill="none" xmlns="http://www.w3.org/2000/svg">
<path d="M11.8321 2.54755C12.2463 2.54755 12.5821 2.21176 12.5821 1.79755C12.5821 1.38333 12.2463 1.04755 11.8321 1.04755V2.54755ZM8.02692 1.04755C7.6127 1.04755 7.27692 1.38333 7.27692 1.79755C7.27692 2.21176 7.6127 2.54755 8.02692 2.54755V1.04755ZM11.8321 1.04755L8.02692 1.04755V2.54755H11.8321V1.04755Z" fill="currentColor"/>
<rect x="2.54907" y="4.86438" width="14.9019" height="14.9019" rx="7.45095" stroke="currentColor" stroke-width="1.5" stroke-linecap="round" stroke-linejoin="round"/>
<path d="M9.21473 4.3717C9.21473 4.78592 9.55052 5.1217 9.96473 5.1217C10.3789 5.1217 10.7147 4.78592 10.7147 4.3717L9.21473 4.3717ZM10.7147 2.21976C10.7147 1.80555 10.3789 1.46976 9.96473 1.46976C9.55052 1.46976 9.21473 1.80555 9.21473 2.21976L10.7147 2.21976ZM10.7147 4.3717L10.7147 2.21976L9.21473 2.21976L9.21473 4.3717L10.7147 4.3717Z" fill="currentColor"/>
<path d="M9.46968 12.1894C9.17679 12.4823 9.17679 12.9572 9.46968 13.2501C9.76258 13.543 10.2375 13.543 10.5303 13.2501L9.46968 12.1894ZM13.3761 10.4043C13.669 10.1114 13.669 9.63654 13.3761 9.34365C13.0832 9.05076 12.6083 9.05076 12.3154 9.34365L13.3761 10.4043ZM10.5303 13.2501L13.3761 10.4043L12.3154 9.34365L9.46968 12.1894L10.5303 13.2501Z" fill="currentColor"/>
<path d="M15.1279 5.95259C14.835 6.24548 14.835 6.72035 15.1279 7.01325C15.4208 7.30614 15.8956 7.30614 16.1885 7.01325L15.1279 5.95259ZM17.2675 5.93424C17.5604 5.64135 17.5604 5.16647 17.2675 4.87358C16.9747 4.58069 16.4998 4.58069 16.2069 4.87358L17.2675 5.93424ZM16.1885 7.01325L17.2675 5.93424L16.2069 4.87358L15.1279 5.95259L16.1885 7.01325Z" fill="currentColor"/>
<path d="M2.91999 5.93426C2.6271 5.64136 2.6271 5.16649 2.91999 4.8736C3.21289 4.5807 3.68776 4.5807 3.98065 4.8736L2.91999 5.93426ZM5.05966 5.9526C5.35255 6.2455 5.35255 6.72037 5.05966 7.01326C4.76676 7.30616 4.29189 7.30616 3.999 7.01326L5.05966 5.9526ZM3.98065 4.8736L5.05966 5.9526L3.999 7.01326L2.91999 5.93426L3.98065 4.8736Z" fill="currentColor"/>
<circle cx="10" cy="12.7197" r="1.97304" transform="rotate(-90 10 12.7197)" fill="currentColor"/>
</svg>
