<svg width="20" height="21" viewBox="0 0 20 21" fill="none" xmlns="http://www.w3.org/2000/svg">
<path d="M11.3246 5.03583C11.7389 5.03583 12.0746 4.70004 12.0746 4.28583C12.0746 3.87161 11.7389 3.53583 11.3246 3.53583V5.03583ZM8.57334 3.53583C8.15912 3.53583 7.82334 3.87161 7.82334 4.28583C7.82334 4.70004 8.15912 5.03583 8.57334 5.03583V3.53583ZM11.3246 3.53583H8.57334V5.03583H11.3246V3.53583Z" fill="currentColor"/>
<rect x="4.61261" y="6.50323" width="10.7747" height="10.7747" rx="5.38736" stroke="currentColor" stroke-width="1.5" stroke-linecap="round" stroke-linejoin="round"/>
<path d="M9.22449 6.14703C9.22449 6.56125 9.56028 6.89703 9.9745 6.89703C10.3887 6.89703 10.7245 6.56125 10.7245 6.14703L9.22449 6.14703ZM10.7245 4.59109C10.7245 4.17687 10.3887 3.84109 9.97449 3.84109C9.56028 3.84109 9.22449 4.17687 9.22449 4.59109L10.7245 4.59109ZM10.7245 6.14703L10.7245 4.59109L9.22449 4.59109L9.22449 6.14703L10.7245 6.14703Z" fill="currentColor"/>
<path d="M9.46967 11.6527C9.17678 11.9456 9.17678 12.4205 9.46967 12.7134C9.76256 13.0063 10.2374 13.0063 10.5303 12.7134L9.46967 11.6527ZM12.5879 10.6558C12.8808 10.3629 12.8808 9.888 12.5879 9.59511C12.295 9.30221 11.8202 9.30221 11.5273 9.59511L12.5879 10.6558ZM10.5303 12.7134L12.5879 10.6558L11.5273 9.59511L9.46967 11.6527L10.5303 12.7134Z" fill="currentColor"/>
<path d="M13.5608 7.14326C13.2679 7.43615 13.2679 7.91102 13.5608 8.20392C13.8537 8.49681 14.3286 8.49681 14.6215 8.20392L13.5608 7.14326ZM15.4016 7.42375C15.6945 7.13086 15.6945 6.65598 15.4016 6.36309C15.1087 6.0702 14.6339 6.0702 14.341 6.36309L15.4016 7.42375ZM14.6215 8.20392L15.4016 7.42375L14.341 6.36309L13.5608 7.14326L14.6215 8.20392Z" fill="currentColor"/>
<path d="M4.73396 7.4237C4.44106 7.1308 4.44106 6.65593 4.73396 6.36304C5.02685 6.07014 5.50172 6.07014 5.79462 6.36304L4.73396 7.4237ZM6.57478 7.14321C6.86768 7.4361 6.86768 7.91097 6.57478 8.20387C6.28189 8.49676 5.80702 8.49676 5.51412 8.20387L6.57478 7.14321ZM5.79462 6.36304L6.57478 7.14321L5.51412 8.20387L4.73396 7.4237L5.79462 6.36304Z" fill="currentColor"/>
<circle cx="10" cy="12.183" r="1.42659" transform="rotate(-90 10 12.183)" fill="currentColor"/>
</svg>
