<svg width="20" height="20" viewBox="0 0 20 20" fill="none" xmlns="http://www.w3.org/2000/svg">
<path d="M3 4.625V13.5625H13.5625V4.625H3Z" fill="white"/>
<path d="M3 13.5625H2.25C2.25 13.9767 2.58579 14.3125 3 14.3125V13.5625ZM13.5625 13.5625V14.3125H14.3125V13.5625H13.5625ZM3 4.625V3.875C2.58579 3.875 2.25 4.21079 2.25 4.625H3ZM13.5625 4.625H14.3125C14.3125 4.21079 13.9767 3.875 13.5625 3.875V4.625ZM3.75 13.5625V4.625H2.25V13.5625H3.75ZM3 5.375H13.5625V3.875H3V5.375ZM12.8125 4.625V13.5625H14.3125V4.625H12.8125ZM13.5625 12.8125H3V14.3125H13.5625V12.8125Z" fill="currentColor"/>
<path d="M4.30005 6.9C4.30005 6.40294 4.70299 6 5.20005 6V6C5.6971 6 6.10005 6.40294 6.10005 6.9V6.9C6.10005 7.39706 5.6971 7.8 5.20005 7.8V7.8C4.70299 7.8 4.30005 7.39706 4.30005 6.9V6.9Z" fill="currentColor"/>
<path d="M6.6001 6.9C6.6001 6.40294 7.00304 6 7.5001 6V6C7.99715 6 8.4001 6.40294 8.4001 6.9V6.9C8.4001 7.39706 7.99715 7.8 7.5001 7.8V7.8C7.00304 7.8 6.6001 7.39706 6.6001 6.9V6.9Z" fill="currentColor"/>
<path d="M8.90002 6.9C8.90002 6.40294 9.30297 6 9.80002 6V6C10.2971 6 10.7 6.40294 10.7 6.9V6.9C10.7 7.39706 10.2971 7.8 9.80002 7.8V7.8C9.30297 7.8 8.90002 7.39706 8.90002 6.9V6.9Z" fill="currentColor"/>
<path d="M16 16V7.0625H13.5625V13.5625H5.4375V16H16Z" fill="white"/>
<path d="M16 7.0625H16.75C16.75 6.64829 16.4142 6.3125 16 6.3125V7.0625ZM5.4375 16H4.6875C4.6875 16.4142 5.02329 16.75 5.4375 16.75V16ZM16 16V16.75C16.4142 16.75 16.75 16.4142 16.75 16H16ZM13.5625 13.5625V14.3125H14.3125V13.5625H13.5625ZM5.4375 13.5625V12.8125C5.02329 12.8125 4.6875 13.1483 4.6875 13.5625H5.4375ZM13.5625 7.0625V6.3125C13.1483 6.3125 12.8125 6.64829 12.8125 7.0625H13.5625ZM15.25 7.0625V16H16.75V7.0625H15.25ZM13.5625 12.8125H5.4375V14.3125H13.5625V12.8125ZM6.1875 16V13.5625H4.6875V16H6.1875ZM13.5625 7.8125H16V6.3125H13.5625V7.8125ZM12.8125 7.0625V13.5625H14.3125V7.0625H12.8125ZM16 15.25H5.4375V16.75H16V15.25Z" fill="currentColor"/>
</svg>
