<svg width="21" height="21" viewBox="0 0 21 21" fill="none" xmlns="http://www.w3.org/2000/svg">
<path d="M10.2866 18.1563L10.2866 18.3359C10.2866 18.5819 10.486 18.7812 10.7319 18.7812V18.7812C10.9779 18.7812 11.1772 18.5819 11.1772 18.3359L11.1772 18.1563" stroke="currentColor" stroke-width="1.5" stroke-linecap="round" stroke-linejoin="round"/>
<path d="M6.81201 9.31254C6.81201 7.1476 8.56704 5.39258 10.732 5.39258V5.39258C12.8969 5.39258 14.6519 7.1476 14.6519 9.31254V9.38914C14.6519 10.1124 14.4557 10.8221 14.0841 11.4425L13.6719 12.1307C13.0306 13.2015 12.6919 14.4263 12.6919 15.6744V17.5852H10.732H8.77199V15.6744C8.77199 14.4263 8.43329 13.2015 7.792 12.1307L7.37986 11.4425C7.00827 10.8221 6.81201 10.1124 6.81201 9.38914V9.31254Z" stroke="currentColor" stroke-width="1.5" stroke-linecap="round" stroke-linejoin="round"/>
<path d="M12.3633 15.2771C12.7775 15.2771 13.1133 14.9413 13.1133 14.5271C13.1133 14.1129 12.7775 13.7771 12.3633 13.7771L12.3633 15.2771ZM8.77764 13.7771C8.36343 13.7771 8.02764 14.1129 8.02764 14.5271C8.02764 14.9413 8.36343 15.2771 8.77764 15.2771L8.77764 13.7771ZM12.3633 13.7771L8.77764 13.7771L8.77764 15.2771L12.3633 15.2771L12.3633 13.7771Z" fill="currentColor"/>
<path d="M17.442 4.52569C17.7348 4.2328 17.7348 3.75792 17.442 3.46503C17.1491 3.17214 16.6742 3.17214 16.3813 3.46503L17.442 4.52569ZM15.113 4.73335C14.8201 5.02625 14.8201 5.50112 15.113 5.79401C15.4059 6.08691 15.8807 6.08691 16.1736 5.79401L15.113 4.73335ZM16.3813 3.46503L15.113 4.73335L16.1736 5.79401L17.442 4.52569L16.3813 3.46503Z" fill="currentColor"/>
<path d="M4.0224 4.52569C3.72951 4.2328 3.72951 3.75792 4.0224 3.46503C4.3153 3.17214 4.79017 3.17214 5.08306 3.46503L4.0224 4.52569ZM6.35139 4.73335C6.64428 5.02625 6.64428 5.50112 6.35139 5.79401C6.05849 6.08691 5.58362 6.08691 5.29073 5.79401L6.35139 4.73335ZM5.08306 3.46503L6.35139 4.73335L5.29073 5.79401L4.0224 4.52569L5.08306 3.46503Z" fill="currentColor"/>
<path d="M18.5835 11.0159C18.9977 11.0159 19.3335 10.6801 19.3335 10.2659C19.3335 9.85166 18.9977 9.51587 18.5835 9.51587V11.0159ZM16.7898 9.51587C16.3756 9.51587 16.0398 9.85166 16.0398 10.2659C16.0398 10.6801 16.3756 11.0159 16.7898 11.0159V9.51587ZM18.5835 9.51587H16.7898V11.0159H18.5835V9.51587Z" fill="currentColor"/>
<path d="M4.18652 11.0159C4.60074 11.0159 4.93652 10.6801 4.93652 10.2659C4.93652 9.85166 4.60074 9.51587 4.18652 9.51587V11.0159ZM2.39285 9.51587C1.97863 9.51587 1.64285 9.85166 1.64285 10.2659C1.64285 10.6801 1.97863 11.0159 2.39285 11.0159V9.51587ZM4.18652 9.51587H2.39285V11.0159H4.18652V9.51587Z" fill="currentColor"/>
<path d="M11.4819 1.00537C11.4819 0.591158 11.1461 0.255371 10.7319 0.255371C10.3177 0.255371 9.98193 0.591158 9.98193 1.00537L11.4819 1.00537ZM9.98193 2.79905C9.98193 3.21326 10.3177 3.54905 10.7319 3.54905C11.1461 3.54905 11.4819 3.21326 11.4819 2.79905H9.98193ZM9.98193 1.00537V2.79905H11.4819V1.00537L9.98193 1.00537Z" fill="currentColor"/>
</svg>
