<svg width="20" height="21" viewBox="0 0 20 21" fill="none" xmlns="http://www.w3.org/2000/svg">
<rect x="4.75" y="5.53198" width="10.5" height="10.5" rx="5.25" stroke="currentColor" stroke-width="1.5" stroke-linecap="round" stroke-linejoin="round"/>
<path d="M9.07227 7.8327C9.07227 7.61407 9.15122 7.43491 9.30912 7.29522C9.46703 7.15554 9.672 7.08569 9.92404 7.08569C10.1761 7.08569 10.3811 7.15554 10.539 7.29522C10.6969 7.43491 10.7758 7.61407 10.7758 7.8327C10.7758 8.05134 10.6969 8.2305 10.539 8.37019C10.3811 8.50987 10.1761 8.57971 9.92404 8.57971C9.672 8.57971 9.46703 8.50987 9.30912 8.37019C9.15122 8.2305 9.07227 8.05134 9.07227 7.8327Z" fill="currentColor"/>
<path d="M9.16333 14.3445H10.7029V9.41602H9.16333V14.3445Z" fill="currentColor"/>
</svg>
