<svg width="14" height="14" viewBox="0 0 14 14" fill="none" xmlns="http://www.w3.org/2000/svg">
<path d="M11 6C11 7.38071 10.4404 8.63071 9.53553 9.53553C8.63071 10.4404 7.38071 11 6 11C3.23858 11 1 8.76142 1 6C1 3.23858 3.23858 1 6 1C8.76142 1 11 3.23858 11 6Z" fill="#F3F4FA"/>
<path d="M9.53553 9.53553C10.4404 8.63071 11 7.38071 11 6C11 3.23858 8.76142 1 6 1C3.23858 1 1 3.23858 1 6C1 8.76142 3.23858 11 6 11C7.38071 11 8.63071 10.4404 9.53553 9.53553ZM9.53553 9.53553L13 13" stroke="#9095AD" stroke-width="2" stroke-linecap="round" stroke-linejoin="round"/>
</svg>
