<svg width="20" height="21" viewBox="0 0 20 21" fill="none" xmlns="http://www.w3.org/2000/svg">
<g clip-path="url(#jira-icon-clip-path)">
<path d="M9.99293 1.78039C9.99683 1.77648 10.0032 1.77648 10.0071 1.78039L18.3015 10.0748C18.692 10.4653 18.692 11.0985 18.3015 11.489L10.0707 19.7198C10.0317 19.7588 9.96834 19.7588 9.92929 19.7198L1.69853 11.489C1.30801 11.0985 1.30801 10.4653 1.69853 10.0748L9.99293 1.78039Z" stroke="currentColor" stroke-width="1.5"/>
<path d="M9.99293 8.28393C9.99683 8.28002 10.0032 8.28002 10.0071 8.28393L12.498 10.7748C12.5019 10.7787 12.5019 10.7851 12.498 10.789L10.0071 13.2799C10.0032 13.2838 9.99683 13.2838 9.99293 13.2799L7.50203 10.789C7.49812 10.7851 7.49812 10.7787 7.50203 10.7748L9.99293 8.28393Z" stroke="currentColor" stroke-width="1.5"/>
</g>
<defs>
<clipPath id="jira-icon-clip-path">
<rect width="20" height="20" fill="white" transform="translate(0 0.781921)"/>
</clipPath>
</defs>
</svg>
