<svg width="20" height="20" viewBox="0 0 20 20" fill="none" xmlns="http://www.w3.org/2000/svg">
<path d="M14.7305 5.08257V1.44202H2.08887V17.1616H4.6725" stroke="currentColor" stroke-width="1.5" stroke-linecap="round" stroke-linejoin="round"/>
<path d="M8.14795 5.90063C8.56216 5.90063 8.89795 5.56485 8.89795 5.15063C8.89795 4.73642 8.56216 4.40063 8.14795 4.40063V5.90063ZM4.71501 4.40063C4.30079 4.40063 3.96501 4.73642 3.96501 5.15063C3.96501 5.56485 4.30079 5.90063 4.71501 5.90063V4.40063ZM8.14795 4.40063H4.71501V5.90063H8.14795V4.40063Z" fill="currentColor"/>
<path d="M5.44482 8.93115C5.85904 8.93115 6.19482 8.59537 6.19482 8.18115C6.19482 7.76694 5.85904 7.43115 5.44482 7.43115V8.93115ZM4.71519 7.43115C4.30098 7.43115 3.96519 7.76694 3.96519 8.18115C3.96519 8.59537 4.30098 8.93115 4.71519 8.93115V7.43115ZM5.44482 7.43115H4.71519V8.93115H5.44482V7.43115Z" fill="currentColor"/>
<rect x="7.00537" y="7.65234" width="10.9056" height="10.9056" rx="5.4528" stroke="currentColor" stroke-width="1.5" stroke-linecap="round" stroke-linejoin="round"/>
<path d="M13.8331 14.7118C14.1965 14.9105 14.6522 14.777 14.8509 14.4136C15.0496 14.0501 14.9161 13.5944 14.5527 13.3957L13.8331 14.7118ZM12.8178 12.4472C12.4544 12.2485 11.9987 12.382 11.7999 12.7454C11.6012 13.1089 11.7348 13.5646 12.0982 13.7633L12.8178 12.4472ZM14.5527 13.3957L12.8178 12.4472L12.0982 13.7633L13.8331 14.7118L14.5527 13.3957Z" fill="currentColor"/>
<path d="M14.6377 11.082C14.8604 10.7327 14.7579 10.2691 14.4086 10.0463C14.0594 9.82363 13.5957 9.92621 13.373 10.2755L14.6377 11.082ZM11.8256 12.7019C11.6029 13.0511 11.7055 13.5148 12.0547 13.7375C12.404 13.9602 12.8677 13.8577 13.0904 13.5084L11.8256 12.7019ZM13.373 10.2755L11.8256 12.7019L13.0904 13.5084L14.6377 11.082L13.373 10.2755Z" fill="currentColor"/>
<path d="M7.56785 13.8552C7.15364 13.8552 6.81786 13.5194 6.81787 13.1052C6.81788 12.691 7.15367 12.3552 7.56789 12.3552L7.56785 13.8552ZM8.33351 12.3552C8.74773 12.3552 9.08351 12.691 9.0835 13.1052C9.08349 13.5194 8.74769 13.8552 8.33348 13.8552L8.33351 12.3552ZM7.56789 12.3552L8.33351 12.3552L8.33348 13.8552L7.56785 13.8552L7.56789 12.3552Z" fill="currentColor"/>
<path d="M11.8335 8.05858C11.8335 7.64436 12.1693 7.30858 12.5835 7.30859C12.9977 7.3086 13.3335 7.6444 13.3335 8.05861L11.8335 8.05858ZM13.3335 8.82424C13.3335 9.23845 12.9977 9.57423 12.5835 9.57422C12.1693 9.57421 11.8335 9.23842 11.8335 8.8242L13.3335 8.82424ZM13.3335 8.05861L13.3335 8.82424L11.8335 8.8242L11.8335 8.05858L13.3335 8.05861Z" fill="currentColor"/>
<path d="M16.6616 12.3552C16.2474 12.3552 15.9116 12.691 15.9116 13.1052C15.9116 13.5195 16.2474 13.8552 16.6616 13.8552L16.6616 12.3552ZM17.9111 13.8552C18.3254 13.8552 18.6611 13.5194 18.6611 13.1052C18.6611 12.691 18.3253 12.3552 17.9111 12.3552L17.9111 13.8552ZM16.6616 13.8552L17.9111 13.8552L17.9111 12.3552L16.6616 12.3552L16.6616 13.8552Z" fill="currentColor"/>
<path d="M13.3335 17.4287C13.3335 17.0145 12.9977 16.6787 12.5835 16.6787C12.1693 16.6787 11.8335 17.0145 11.8335 17.4287L13.3335 17.4287ZM11.8335 18.4331C11.8335 18.8473 12.1693 19.1831 12.5835 19.183C12.9977 19.183 13.3335 18.8472 13.3335 18.433L11.8335 18.4331ZM11.8335 17.4287L11.8335 18.4331L13.3335 18.433L13.3335 17.4287L11.8335 17.4287Z" fill="currentColor"/>
</svg>
