<svg width="20" height="21" viewBox="0 0 20 21" fill="none" xmlns="http://www.w3.org/2000/svg">
<path d="M8.9706 13.282H6.41528V14.782H8.9706V13.282ZM13.642 13.282H11.1883V14.782H13.642V13.282ZM6.41528 8.28198H7.50784V6.78198H6.41528V8.28198ZM7.50784 8.28198H8.9706V6.78198H7.50784V8.28198ZM11.1883 8.28198H13.5848V6.78198H11.1883V8.28198ZM2.41528 10.782C2.41528 12.9911 4.20614 14.782 6.41528 14.782V13.282C5.03457 13.282 3.91528 12.1627 3.91528 10.782H2.41528ZM16.0848 10.8108C16.0848 12.1686 14.9825 13.282 13.642 13.282V14.782C15.8281 14.782 17.5848 12.9797 17.5848 10.8108H16.0848ZM17.5848 10.8108C17.5848 8.61035 15.8025 6.78198 13.5848 6.78198V8.28198C14.9569 8.28198 16.0848 9.42148 16.0848 10.8108H17.5848ZM3.91528 10.782C3.91528 9.40127 5.03457 8.28198 6.41528 8.28198V6.78198C4.20614 6.78198 2.41528 8.57284 2.41528 10.782H3.91528Z" fill="currentColor"/>
<path d="M7.31732 10.782L12.7627 10.782" stroke="currentColor" stroke-width="1.5" stroke-linecap="round" stroke-linejoin="round"/>
</svg>
