<svg width="21" height="21" viewBox="0 0 21 21" fill="none" xmlns="http://www.w3.org/2000/svg">
<path d="M18.662 10.782V11.5371H20.162V10.782H18.662ZM1.75 11.5371V10.782H0.25V11.5371H1.75ZM8.81942 14.7871H5V16.2871H8.81942V14.7871ZM15.412 14.7871H15.1115V16.2871H15.412V14.7871ZM15.1115 14.7871H11.8066V16.2871H15.1115V14.7871ZM5 7.53198H6.84917V6.03198H5V7.53198ZM6.84917 7.53198H8.81942V6.03198H6.84917V7.53198ZM11.8066 7.53198H15.412V6.03198H11.8066V7.53198ZM0.25 11.5371C0.25 14.1605 2.37665 16.2871 5 16.2871V14.7871C3.20508 14.7871 1.75 13.332 1.75 11.5371H0.25ZM18.662 11.5371C18.662 13.332 17.2069 14.7871 15.412 14.7871V16.2871C18.0353 16.2871 20.162 14.1605 20.162 11.5371H18.662ZM20.162 10.782C20.162 8.15863 18.0353 6.03198 15.412 6.03198V7.53198C17.2069 7.53198 18.662 8.98706 18.662 10.782H20.162ZM1.75 10.782C1.75 8.98705 3.20507 7.53198 5 7.53198V6.03198C2.37665 6.03198 0.25 8.15863 0.25 10.782H1.75Z" fill="currentColor"/>
<path d="M6.5387 11.1595L13.8733 11.1595" stroke="currentColor" stroke-width="1.5" stroke-linecap="round" stroke-linejoin="round"/>
</svg>
