<svg width="14" height="16" viewBox="0 0 14 16" fill="none" xmlns="http://www.w3.org/2000/svg">
<path fill-rule="evenodd" clip-rule="evenodd" d="M1 13C1 14.1046 1.89543 15 3 15H11C12.1046 15 13 14.1046 13 13V8C13 6.89543 12.1046 6 11 6H10H4H3C1.89543 6 1 6.89544 1 8V13Z" fill="#F3F4FA"/>
<path d="M4 6H3C1.89543 6 1 6.89544 1 8V13C1 14.1046 1.89543 15 3 15H11C12.1046 15 13 14.1046 13 13V8C13 6.89543 12.1046 6 11 6H10M4 6V4C4 2.34315 5.34315 1 7 1V1C8.65685 1 10 2.34315 10 4V6M4 6H10M7 10V11" stroke="#AFB3C7" stroke-width="2" stroke-linecap="round" stroke-linejoin="round"/>
</svg>
