<svg width="20" height="21" viewBox="0 0 20 21" fill="none" xmlns="http://www.w3.org/2000/svg">
<path d="M6.04118 15.8638C6.00047 16.276 6.30124 16.6469 6.71297 16.6922C7.1247 16.7375 7.49148 16.44 7.53219 16.0278L6.04118 15.8638ZM8.61854 5.02779C8.65925 4.61558 8.35848 4.24471 7.94675 4.19943C7.53502 4.15415 7.16824 4.4516 7.12753 4.86381L8.61854 5.02779ZM7.53219 16.0278L8.61854 5.02779L7.12753 4.86381L6.04118 15.8638L7.53219 16.0278Z" fill="currentColor"/>
<path d="M4.68103 7.58717C4.26734 7.58889 3.93323 7.92645 3.93478 8.34113C3.93633 8.75581 4.27295 9.09057 4.68664 9.08885L4.68103 7.58717ZM15.1667 9.04527C15.5804 9.04355 15.9145 8.70599 15.913 8.29131C15.9114 7.87664 15.5748 7.54187 15.1611 7.54359L15.1667 9.04527ZM4.68664 9.08885L15.1667 9.04527L15.1611 7.54359L4.68103 7.58717L4.68664 9.08885Z" fill="currentColor"/>
<path d="M10.3534 15.8638C10.3127 16.276 10.6134 16.6469 11.0252 16.6922C11.4369 16.7375 11.8037 16.44 11.8444 16.0278L10.3534 15.8638ZM12.9307 5.02779C12.9714 4.61558 12.6707 4.24471 12.2589 4.19943C11.8472 4.15415 11.4804 4.4516 11.4397 4.86381L12.9307 5.02779ZM11.8444 16.0278L12.9307 5.02779L11.4397 4.86381L10.3534 15.8638L11.8444 16.0278Z" fill="currentColor"/>
<path d="M4.16108 12.1115C3.74738 12.1132 3.41328 12.4507 3.41482 12.8654C3.41637 13.2801 3.75299 13.6149 4.16668 13.6131L4.16108 12.1115ZM14.6468 13.5696C15.0604 13.5678 15.3946 13.2303 15.393 12.8156C15.3915 12.4009 15.0548 12.0662 14.6411 12.0679L14.6468 13.5696ZM4.16668 13.6131L14.6468 13.5696L14.6411 12.0679L4.16108 12.1115L4.16668 13.6131Z" fill="currentColor"/>
</svg>
