<svg width="20" height="21" viewBox="0 0 20 21" fill="none" xmlns="http://www.w3.org/2000/svg">
<path d="M4.95875 18.4848C4.91582 18.8967 5.21499 19.2655 5.62697 19.3085C6.03895 19.3514 6.40774 19.0522 6.45067 18.6402L4.95875 18.4848ZM8.07244 3.07921C8.11537 2.66723 7.8162 2.29844 7.40422 2.2555C6.99224 2.21257 6.62345 2.51174 6.58052 2.92372L8.07244 3.07921ZM6.45067 18.6402L8.07244 3.07921L6.58052 2.92372L4.95875 18.4848L6.45067 18.6402Z" fill="currentColor"/>
<path d="M2.56254 7.05018C2.14832 7.05181 1.81386 7.38892 1.8155 7.80313C1.81713 8.21734 2.15424 8.5518 2.56845 8.55017L2.56254 7.05018ZM18.2136 8.48851C18.6279 8.48688 18.9623 8.14977 18.9607 7.73556C18.959 7.32135 18.6219 6.98689 18.2077 6.98852L18.2136 8.48851ZM2.56845 8.55017L18.2136 8.48851L18.2077 6.98852L2.56254 7.05018L2.56845 8.55017Z" fill="currentColor"/>
<path d="M11.3963 18.4848C11.3533 18.8967 11.6525 19.2655 12.0645 19.3085C12.4765 19.3514 12.8452 19.0522 12.8882 18.6402L11.3963 18.4848ZM14.5099 3.07921C14.5529 2.66723 14.2537 2.29844 13.8417 2.2555C13.4297 2.21257 13.061 2.51174 13.018 2.92372L14.5099 3.07921ZM12.8882 18.6402L14.5099 3.07921L13.018 2.92372L11.3963 18.4848L12.8882 18.6402Z" fill="currentColor"/>
<path d="M1.78635 13.4503C1.37214 13.452 1.03768 13.7891 1.03931 14.2033C1.04094 14.6175 1.37805 14.9519 1.79226 14.9503L1.78635 13.4503ZM17.4375 14.8887C17.8517 14.887 18.1861 14.5499 18.1845 14.1357C18.1829 13.7215 17.8458 13.387 17.4315 13.3887L17.4375 14.8887ZM1.79226 14.9503L17.4375 14.8887L17.4315 13.3887L1.78635 13.4503L1.79226 14.9503Z" fill="currentColor"/>
</svg>
