<svg width="16" height="16" viewBox="0 0 16 16" fill="none" xmlns="http://www.w3.org/2000/svg">
<path fill-rule="evenodd" clip-rule="evenodd" d="M6.49998 1H9.49998C9.77612 1 9.99998 1.22386 9.99998 1.5V2.87494C10.5227 3.07907 11.0065 3.36085 11.4372 3.7061L12.6291 3.01794C12.8683 2.87987 13.1741 2.96181 13.3122 3.20096L14.8122 5.79903C14.9502 6.03818 14.8683 6.34398 14.6291 6.48205L13.4377 7.1699C13.4787 7.44063 13.5 7.71783 13.5 8C13.5 8.28217 13.4787 8.55937 13.4377 8.8301L14.6291 9.51795C14.8683 9.65602 14.9502 9.96182 14.8122 10.201L13.3122 12.799C13.1741 13.0382 12.8683 13.1201 12.6291 12.9821L11.4372 12.2939C11.0065 12.6392 10.5227 12.9209 9.99998 13.1251V14.5C9.99998 14.7761 9.77612 15 9.49998 15H6.49998C6.22383 15 5.99998 14.7761 5.99998 14.5V13.1251C5.47728 12.9209 4.99347 12.6391 4.56273 12.2939L3.37081 12.982C3.13166 13.1201 2.82587 13.0382 2.6878 12.799L1.1878 10.201C1.04973 9.96181 1.13166 9.65602 1.37081 9.51794L2.56221 8.83009C2.52122 8.55937 2.49998 8.28216 2.49998 8C2.49998 7.71784 2.52122 7.44063 2.56221 7.16991L1.37081 6.48206C1.13167 6.34398 1.04973 6.03819 1.1878 5.79904L2.6878 3.20097C2.82587 2.96182 3.13167 2.87988 3.37081 3.01795L4.56273 3.70611C4.99347 3.36085 5.47728 3.07907 5.99998 2.87494V1.5C5.99998 1.22386 6.22383 1 6.49998 1ZM7.99998 10C9.10455 10 9.99998 9.10457 9.99998 8C9.99998 6.89543 9.10455 6 7.99998 6C6.89541 6 5.99998 6.89543 5.99998 8C5.99998 9.10457 6.89541 10 7.99998 10Z" fill="var(--icon-light)" class="icon-light-fill"/>
<path d="M13.3122 3.20096L12.4461 3.70096L12.4461 3.70096L13.3122 3.20096ZM14.8122 5.79903L15.6782 5.29903L15.6782 5.29903L14.8122 5.79903ZM2.6878 12.799L1.82177 13.299H1.82177L2.6878 12.799ZM1.1878 10.201L2.05382 9.70096H2.05382L1.1878 10.201ZM1.1878 5.79904L2.05382 6.29904H2.05382L1.1878 5.79904ZM2.6878 3.20097L3.55382 3.70097H3.55382L2.6878 3.20097ZM14.8122 10.201L15.6782 10.701H15.6782L14.8122 10.201ZM13.3122 12.799L12.4461 12.299H12.4461L13.3122 12.799ZM5.99998 2.87494L6.36375 3.80643C6.74742 3.65659 6.99998 3.28683 6.99998 2.87494H5.99998ZM4.56273 3.70611L4.06273 4.57213C4.41969 4.77822 4.86653 4.74418 5.18815 4.48639L4.56273 3.70611ZM3.37081 3.01795L2.87081 3.88398H2.87081L3.37081 3.01795ZM2.56221 7.16991L3.55094 7.31959C3.61254 6.91271 3.41859 6.50964 3.06221 6.30388L2.56221 7.16991ZM1.37081 6.48206L1.87081 5.61603H1.87081L1.37081 6.48206ZM2.56221 8.83009L3.06221 9.69612C3.41859 9.49036 3.61254 9.08729 3.55094 8.68041L2.56221 8.83009ZM1.37081 9.51794L1.87081 10.384L1.87081 10.384L1.37081 9.51794ZM4.56273 12.2939L5.18815 11.5136C4.86653 11.2558 4.41969 11.2218 4.06273 11.4279L4.56273 12.2939ZM3.37081 12.982L3.87081 13.8481L3.87081 13.8481L3.37081 12.982ZM5.99998 13.1251H6.99998C6.99998 12.7132 6.74742 12.3434 6.36375 12.1936L5.99998 13.1251ZM9.99998 13.1251L9.6362 12.1936C9.25253 12.3434 8.99998 12.7132 8.99998 13.1251H9.99998ZM11.4372 12.2939L11.9372 11.4279C11.5803 11.2218 11.1334 11.2558 10.8118 11.5136L11.4372 12.2939ZM12.6291 12.9821L12.1291 13.8481V13.8481L12.6291 12.9821ZM13.4377 8.8301L12.449 8.68042C12.3874 9.0873 12.5814 9.49037 12.9377 9.69613L13.4377 8.8301ZM14.6291 9.51795L15.1291 8.65193L14.6291 9.51795ZM14.6291 6.48205L14.1291 5.61602L14.6291 6.48205ZM13.4377 7.1699L12.9377 6.30387C12.5814 6.50963 12.3874 6.9127 12.449 7.31958L13.4377 7.1699ZM11.4372 3.7061L10.8118 4.48639C11.1334 4.74418 11.5803 4.77822 11.9372 4.57213L11.4372 3.7061ZM12.6291 3.01794L12.1291 2.15192V2.15192L12.6291 3.01794ZM9.99998 2.87494H8.99998C8.99998 3.28683 9.25253 3.65659 9.6362 3.80643L9.99998 2.87494ZM6.49998 2H9.49998V0H6.49998V2ZM9.49998 14H6.49998V16H9.49998V14ZM12.4461 3.70096L13.9461 6.29903L15.6782 5.29903L14.1782 2.70096L12.4461 3.70096ZM3.55382 12.299L2.05382 9.70096L0.321773 10.701L1.82177 13.299L3.55382 12.299ZM2.05382 6.29904L3.55382 3.70097L1.82177 2.70097L0.321774 5.29904L2.05382 6.29904ZM13.9461 9.70097L12.4461 12.299L14.1782 13.299L15.6782 10.701L13.9461 9.70097ZM6.99998 2.87494V1.5H4.99998V2.87494H6.99998ZM5.18815 4.48639C5.541 4.20357 5.9368 3.97317 6.36375 3.80643L5.6362 1.94345C5.01776 2.18497 4.44594 2.51813 3.9373 2.92582L5.18815 4.48639ZM2.87081 3.88398L4.06273 4.57213L5.06273 2.84008L3.87081 2.15193L2.87081 3.88398ZM3.49998 8C3.49998 7.76811 3.51743 7.54094 3.55094 7.31959L1.57347 7.02023C1.52502 7.34033 1.49998 7.66756 1.49998 8H3.49998ZM3.06221 6.30388L1.87081 5.61603L0.870812 7.34808L2.06221 8.03593L3.06221 6.30388ZM3.55094 8.68041C3.51743 8.45906 3.49998 8.23189 3.49998 8H1.49998C1.49998 8.33244 1.52502 8.65967 1.57347 8.97977L3.55094 8.68041ZM1.87081 10.384L3.06221 9.69612L2.06221 7.96407L0.870811 8.65192L1.87081 10.384ZM4.06273 11.4279L2.87081 12.116L3.87081 13.8481L5.06273 13.1599L4.06273 11.4279ZM6.36375 12.1936C5.9368 12.0268 5.541 11.7964 5.18815 11.5136L3.9373 13.0742C4.44594 13.4819 5.01776 13.815 5.6362 14.0565L6.36375 12.1936ZM6.99998 14.5V13.1251H4.99998V14.5H6.99998ZM8.99998 13.1251V14.5H11V13.1251H8.99998ZM10.8118 11.5136C10.459 11.7964 10.0632 12.0268 9.6362 12.1936L10.3638 14.0565C10.9822 13.815 11.554 13.4819 12.0626 13.0742L10.8118 11.5136ZM13.1291 12.116L11.9372 11.4279L10.9372 13.1599L12.1291 13.8481L13.1291 12.116ZM12.5 8C12.5 8.23189 12.4825 8.45907 12.449 8.68042L14.4265 8.97978C14.4749 8.65968 14.5 8.33244 14.5 8H12.5ZM12.9377 9.69613L14.1291 10.384L15.1291 8.65193L13.9377 7.96407L12.9377 9.69613ZM14.1291 5.61602L12.9377 6.30387L13.9377 8.03592L15.1291 7.34807L14.1291 5.61602ZM12.449 7.31958C12.4825 7.54093 12.5 7.76811 12.5 8H14.5C14.5 7.66756 14.4749 7.34032 14.4265 7.02022L12.449 7.31958ZM11.9372 4.57213L13.1291 3.88397L12.1291 2.15192L10.9372 2.84008L11.9372 4.57213ZM9.6362 3.80643C10.0632 3.97316 10.459 4.20357 10.8118 4.48639L12.0626 2.92582C11.554 2.51813 10.9822 2.18497 10.3637 1.94345L9.6362 3.80643ZM8.99998 1.5V2.87494H11V1.5H8.99998ZM12.4461 12.299C12.5842 12.0599 12.89 11.978 13.1291 12.116L12.1291 13.8481C12.8466 14.2623 13.764 14.0165 14.1782 13.299L12.4461 12.299ZM15.6782 10.701C16.0924 9.98353 15.8466 9.06614 15.1291 8.65193L14.1291 10.384C13.89 10.2459 13.8081 9.94011 13.9461 9.70097L15.6782 10.701ZM3.55382 3.70097C3.41575 3.94011 3.10996 4.02205 2.87081 3.88398L3.87081 2.15193C3.15337 1.73771 2.23599 1.98353 1.82177 2.70097L3.55382 3.70097ZM0.321774 5.29904C-0.0924398 6.01648 0.153373 6.93387 0.870812 7.34808L1.87081 5.61603C2.10996 5.7541 2.1919 6.0599 2.05382 6.29904L0.321774 5.29904ZM2.05382 9.70096C2.19189 9.9401 2.10996 10.2459 1.87081 10.384L0.870811 8.65192C0.153372 9.06613 -0.0924404 9.98352 0.321773 10.701L2.05382 9.70096ZM1.82177 13.299C2.23599 14.0165 3.15337 14.2623 3.87081 13.8481L2.87081 12.116C3.10996 11.9779 3.41575 12.0599 3.55382 12.299L1.82177 13.299ZM13.9461 6.29903C13.8081 6.05989 13.89 5.75409 14.1291 5.61602L15.1291 7.34807C15.8466 6.93386 16.0924 6.01647 15.6782 5.29903L13.9461 6.29903ZM14.1782 2.70096C13.764 1.98352 12.8466 1.73771 12.1291 2.15192L13.1291 3.88397C12.89 4.02204 12.5842 3.9401 12.4461 3.70096L14.1782 2.70096ZM6.49998 14C6.77612 14 6.99998 14.2239 6.99998 14.5H4.99998C4.99998 15.3284 5.67155 16 6.49998 16V14ZM9.49998 16C10.3284 16 11 15.3284 11 14.5H8.99998C8.99998 14.2239 9.22383 14 9.49998 14V16ZM9.49998 2C9.22383 2 8.99998 1.77614 8.99998 1.5H11C11 0.671573 10.3284 0 9.49998 0V2ZM6.49998 0C5.67155 0 4.99998 0.671575 4.99998 1.5H6.99998C6.99998 1.77614 6.77612 2 6.49998 2V0ZM8.99998 8C8.99998 8.55228 8.55226 9 7.99998 9V11C9.65683 11 11 9.65685 11 8H8.99998ZM7.99998 9C7.44769 9 6.99998 8.55228 6.99998 8H4.99998C4.99998 9.65685 6.34312 11 7.99998 11V9ZM6.99998 8C6.99998 7.44772 7.44769 7 7.99998 7V5C6.34312 5 4.99998 6.34315 4.99998 8H6.99998ZM7.99998 7C8.55226 7 8.99998 7.44772 8.99998 8H11C11 6.34315 9.65683 5 7.99998 5V7Z" fill="currentColor" class="icon-dark-fill"/>
</svg>
