<svg width="20" height="21" viewBox="0 0 20 21" fill="none" xmlns="http://www.w3.org/2000/svg">
<path d="M11.2969 2.87573H3.64191V18.6882H16.3583V7.86014M11.2969 2.87573V7.86014H16.3583M11.2969 2.87573L16.3583 7.86014" stroke="currentColor" stroke-width="1.5" stroke-linecap="round" stroke-linejoin="round"/>
<path d="M13.098 15.7837C13.5122 15.7837 13.848 15.4479 13.848 15.0337C13.848 14.6195 13.5122 14.2837 13.098 14.2837V15.7837ZM6.68749 14.2837C6.27327 14.2837 5.93749 14.6195 5.93749 15.0337C5.93749 15.4479 6.27327 15.7837 6.68749 15.7837V14.2837ZM13.098 14.2837H6.68749V15.7837H13.098V14.2837Z" fill="currentColor"/>
<path d="M13.098 12.282C13.5122 12.282 13.848 11.9462 13.848 11.532C13.848 11.1178 13.5122 10.782 13.098 10.782V12.282ZM6.68749 10.782C6.27327 10.782 5.93749 11.1178 5.93749 11.532C5.93749 11.9462 6.27327 12.282 6.68749 12.282V10.782ZM13.098 10.782H6.68749V12.282H13.098V10.782Z" fill="currentColor"/>
</svg>
