<svg width="20" height="21" viewBox="0 0 20 21" fill="none" xmlns="http://www.w3.org/2000/svg">
<path d="M10.9085 5.24292H5.54547V16.321H14.4545V8.73496M10.9085 5.24292V8.73496H14.4545M10.9085 5.24292L14.4545 8.73496" stroke="currentColor" stroke-width="1.5" stroke-linecap="round" stroke-linejoin="round"/>
<path d="M11.8167 14.5106C12.2309 14.5106 12.5667 14.1748 12.5667 13.7606C12.5667 13.3464 12.2309 13.0106 11.8167 13.0106V14.5106ZM8.18335 13.0106C7.76914 13.0106 7.43335 13.3464 7.43335 13.7606C7.43335 14.1748 7.76914 14.5106 8.18335 14.5106V13.0106ZM11.8167 13.0106H8.18335V14.5106H11.8167V13.0106Z" fill="currentColor"/>
<path d="M11.8167 12.0574C12.2309 12.0574 12.5667 11.7216 12.5667 11.3074C12.5667 10.8932 12.2309 10.5574 11.8167 10.5574V12.0574ZM8.18335 10.5574C7.76914 10.5574 7.43335 10.8932 7.43335 11.3074C7.43335 11.7216 7.76914 12.0574 8.18335 12.0574V10.5574ZM11.8167 10.5574H8.18335V12.0574H11.8167V10.5574Z" fill="currentColor"/>
</svg>
