<svg width="20" height="21" viewBox="0 0 20 21" fill="none" xmlns="http://www.w3.org/2000/svg">
<path d="M6.3125 15.032C6.3125 15.4462 6.64829 15.782 7.0625 15.782C7.47671 15.782 7.8125 15.4462 7.8125 15.032L6.3125 15.032ZM6.3125 5.40698L6.3125 15.032L7.8125 15.032L7.8125 5.40698L6.3125 5.40698Z" fill="currentColor"/>
<path d="M15.0781 15.0319C15.0781 15.4462 15.4139 15.7819 15.8281 15.7819C16.2423 15.7819 16.5781 15.4462 16.5781 15.0319L15.0781 15.0319ZM12.5938 4.2507C12.6801 4.99571 12.6798 4.99575 12.6794 4.99578C12.6794 4.9958 12.679 4.99583 12.6788 4.99585C12.6785 4.9959 12.6781 4.99594 12.6778 4.99597C12.6773 4.99603 12.6769 4.99608 12.6767 4.9961C12.6762 4.99614 12.6766 4.99611 12.6776 4.99601C12.6796 4.9958 12.6845 4.99533 12.6919 4.99472C12.7069 4.99348 12.7322 4.99165 12.7663 4.99012C12.8349 4.98704 12.9373 4.98525 13.0617 4.99146C13.3154 5.00413 13.6359 5.04886 13.9435 5.16625C14.2468 5.28201 14.5179 5.46024 14.7159 5.73295C14.911 6.00155 15.0781 6.42036 15.0781 7.09445L16.5781 7.09445C16.5781 6.15915 16.3409 5.41781 15.9296 4.85145C15.5212 4.2892 14.9836 3.95767 14.4784 3.76484C13.9773 3.57363 13.4893 3.51094 13.1365 3.49333C12.9578 3.4844 12.8074 3.48676 12.6991 3.49162C12.6448 3.49406 12.6006 3.49714 12.5682 3.49983C12.552 3.50117 12.5387 3.50241 12.5285 3.50343C12.5234 3.50394 12.5191 3.5044 12.5155 3.50478C12.5138 3.50497 12.5122 3.50514 12.5108 3.50529C12.5102 3.50537 12.5095 3.50544 12.509 3.50551C12.5087 3.50554 12.5083 3.50558 12.5081 3.5056C12.5077 3.50564 12.5074 3.50569 12.5938 4.2507ZM15.0781 7.09445C15.0781 8.70382 15.0781 10.6882 15.0781 12.2702C15.0781 13.0612 15.0781 13.7517 15.0781 14.2443C15.0781 14.4907 15.0781 14.6876 15.0781 14.8229C15.0781 14.8906 15.0781 14.9428 15.0781 14.9782C15.0781 14.9958 15.0781 15.0093 15.0781 15.0183C15.0781 15.0228 15.0781 15.0262 15.0781 15.0285C15.0781 15.0297 15.0781 15.0305 15.0781 15.0311C15.0781 15.0313 15.0781 15.0316 15.0781 15.0317C15.0781 15.0318 15.0781 15.0319 15.0781 15.0319C15.0781 15.0319 15.0781 15.0319 15.8281 15.0319C16.5781 15.0319 16.5781 15.0319 16.5781 15.0319C16.5781 15.0319 16.5781 15.0318 16.5781 15.0317C16.5781 15.0316 16.5781 15.0314 16.5781 15.0311C16.5781 15.0305 16.5781 15.0296 16.5781 15.0285C16.5781 15.0262 16.5781 15.0228 16.5781 15.0183C16.5781 15.0093 16.5781 14.9958 16.5781 14.9782C16.5781 14.9428 16.5781 14.8906 16.5781 14.8229C16.5781 14.6876 16.5781 14.4907 16.5781 14.2443C16.5781 13.7517 16.5781 13.0612 16.5781 12.2702C16.5781 10.6882 16.5781 8.70382 16.5781 7.09445L15.0781 7.09445Z" fill="currentColor"/>
<circle cx="7.0625" cy="3.71948" r="1.75" stroke="currentColor" stroke-width="1.5"/>
<circle cx="15.8281" cy="17.2195" r="1.75" stroke="currentColor" stroke-width="1.5"/>
<circle cx="7.0625" cy="17.2195" r="1.75" stroke="currentColor" stroke-width="1.5"/>
<path d="M13.5469 2.30847L11.618 4.23734L13.5469 6.16621" stroke="currentColor" stroke-width="1.5" stroke-linecap="round" stroke-linejoin="round"/>
</svg>
