<svg width="20" height="21" viewBox="0 0 20 21" fill="none" xmlns="http://www.w3.org/2000/svg">
<path d="M6.54034 13.6027C6.54034 14.0169 6.87613 14.3527 7.29034 14.3527C7.70456 14.3527 8.04034 14.0169 8.04034 13.6027L6.54034 13.6027ZM6.54034 7.6521L6.54034 13.6027L8.04034 13.6027L8.04034 7.6521L6.54034 7.6521Z" fill="currentColor"/>
<path d="M12.5489 13.6027C12.5489 14.0169 12.8847 14.3527 13.2989 14.3527C13.7131 14.3527 14.0489 14.0169 14.0489 13.6027L12.5489 13.6027ZM11.0625 6.85064C11.1111 7.59906 11.1108 7.59908 11.1105 7.5991C11.1104 7.59911 11.1101 7.59913 11.1099 7.59914C11.1095 7.59916 11.1092 7.59918 11.1089 7.5992C11.1083 7.59924 11.1078 7.59927 11.1074 7.59929C11.1067 7.59933 11.1065 7.59934 11.1068 7.59932C11.1073 7.5993 11.1098 7.59918 11.114 7.59903C11.1226 7.59873 11.1381 7.59831 11.1596 7.59828C11.2029 7.59823 11.2689 7.59972 11.3496 7.60645C11.5154 7.62028 11.7209 7.65438 11.9143 7.72788C12.1067 7.80101 12.2577 7.90153 12.3602 8.03168C12.4551 8.15214 12.5489 8.34821 12.5489 8.69542L14.0489 8.69542C14.0489 8.04765 13.8631 7.51563 13.5387 7.10363C13.2218 6.70133 12.8137 6.46502 12.4471 6.3257C12.0814 6.18675 11.7278 6.13278 11.4743 6.11164C11.3453 6.10089 11.2366 6.09818 11.1576 6.09829C11.1179 6.09834 11.0854 6.0991 11.0612 6.09996C11.0491 6.10039 11.039 6.10084 11.031 6.10124C11.0271 6.10144 11.0237 6.10163 11.0208 6.10179C11.0194 6.10187 11.0181 6.10195 11.0169 6.10202C11.0164 6.10206 11.0158 6.10209 11.0153 6.10212C11.0151 6.10214 11.0147 6.10216 11.0146 6.10217C11.0142 6.10219 11.0139 6.10221 11.0625 6.85064ZM12.5489 8.69542C12.5489 9.69041 12.5489 10.9172 12.5489 11.8953C12.5489 12.3844 12.5489 12.8112 12.5489 13.1158C12.5489 13.2681 12.5489 13.3898 12.5489 13.4735C12.5489 13.5153 12.5489 13.5476 12.5489 13.5695C12.5489 13.5804 12.5489 13.5887 12.5489 13.5943C12.5489 13.5971 12.5489 13.5992 12.5489 13.6006C12.5489 13.6013 12.5489 13.6018 12.5489 13.6022C12.5489 13.6023 12.5489 13.6025 12.5489 13.6026C12.5489 13.6026 12.5489 13.6027 12.5489 13.6027C12.5489 13.6027 12.5489 13.6027 13.2989 13.6027C14.0489 13.6027 14.0489 13.6027 14.0489 13.6027C14.0489 13.6027 14.0489 13.6026 14.0489 13.6026C14.0489 13.6025 14.0489 13.6023 14.0489 13.6022C14.0489 13.6019 14.0489 13.6013 14.0489 13.6006C14.0489 13.5992 14.0489 13.5971 14.0489 13.5943C14.0489 13.5887 14.0489 13.5804 14.0489 13.5695C14.0489 13.5476 14.0489 13.5153 14.0489 13.4735C14.0489 13.3898 14.0489 13.2681 14.0489 13.1158C14.0489 12.8112 14.0489 12.3844 14.0489 11.8953C14.0489 10.9172 14.0489 9.69041 14.0489 8.69542L12.5489 8.69542Z" fill="currentColor"/>
<path d="M11.2993 5.73645L10.1067 6.92896L11.2993 8.12147" stroke="currentColor" stroke-width="1.5" stroke-linecap="round" stroke-linejoin="round"/>
<circle cx="7.29033" cy="6.64556" r="1.53655" fill="currentColor"/>
<circle cx="7.29033" cy="14.9461" r="1.53655" fill="currentColor"/>
<circle cx="13.3353" cy="14.9185" r="1.53655" fill="currentColor"/>
</svg>
