<svg width="20" height="20" viewBox="0 0 20 20" fill="none" xmlns="http://www.w3.org/2000/svg">
<path d="M14.5 9.40796C14.9142 9.40796 15.25 9.07217 15.25 8.65796C15.25 8.24375 14.9142 7.90796 14.5 7.90796V9.40796ZM10.5625 7.90796C10.1483 7.90796 9.8125 8.24375 9.8125 8.65796C9.8125 9.07217 10.1483 9.40796 10.5625 9.40796V7.90796ZM14.5 7.90796H10.5625V9.40796H14.5V7.90796Z" fill="currentColor"/>
<path d="M14.5166 12.7241C14.9308 12.7241 15.2666 12.3883 15.2666 11.9741C15.2666 11.5599 14.9308 11.2241 14.5166 11.2241V12.7241ZM10.5791 11.2241C10.1649 11.2241 9.8291 11.5599 9.8291 11.9741C9.8291 12.3883 10.1649 12.7241 10.5791 12.7241V11.2241ZM14.5166 11.2241H10.5791V12.7241H14.5166V11.2241Z" fill="currentColor"/>
<path d="M14.5 5.90625C14.9142 5.90625 15.25 5.57046 15.25 5.15625C15.25 4.74204 14.9142 4.40625 14.5 4.40625V5.90625ZM10.5625 4.40625C10.1483 4.40625 9.8125 4.74204 9.8125 5.15625C9.8125 5.57046 10.1483 5.90625 10.5625 5.90625V4.40625ZM14.5 4.40625H10.5625V5.90625H14.5V4.40625Z" fill="currentColor"/>
<path d="M8.23328 9.40796C7.81906 9.40797 7.48328 9.07219 7.48328 8.65798C7.48328 8.24376 7.81906 7.90797 8.23328 7.90796L8.23328 9.40796ZM8.25 7.90796C8.66421 7.90795 9 8.24373 9 8.65794C9 9.07216 8.66421 9.40795 8.25 9.40796L8.25 7.90796ZM8.23328 7.90796L8.25 7.90796L8.25 9.40796L8.23328 9.40796L8.23328 7.90796Z" fill="currentColor"/>
<path d="M8.2666 12.7241C7.85239 12.7241 7.5166 12.3884 7.5166 11.9741C7.5166 11.5599 7.85239 11.2241 8.2666 11.2241L8.2666 12.7241ZM8.28333 11.2241C8.69754 11.2241 9.03333 11.5599 9.03333 11.9741C9.03333 12.3883 8.69754 12.7241 8.28333 12.7241L8.28333 11.2241ZM8.2666 11.2241L8.28333 11.2241L8.28333 12.7241L8.2666 12.7241L8.2666 11.2241Z" fill="currentColor"/>
<path d="M8.25 5.90625C7.83579 5.90626 7.5 5.57048 7.5 5.15627C7.5 4.74205 7.83579 4.40626 8.25 4.40625L8.25 5.90625ZM8.26672 4.40625C8.68094 4.40624 9.01672 4.74202 9.01672 5.15623C9.01672 5.57045 8.68094 5.90624 8.26672 5.90625L8.26672 4.40625ZM8.25 4.40625L8.26672 4.40625L8.26672 5.90625L8.25 5.90625L8.25 4.40625Z" fill="currentColor"/>
<path d="M14.0561 18.9742L2.55613 18.9742L2.55613 4.97424" stroke="currentColor" stroke-width="1.5" stroke-linecap="round" stroke-linejoin="round"/>
<rect x="5.16843" y="1.02588" width="12.2754" height="15.2642" stroke="currentColor" stroke-width="1.5" stroke-linecap="round" stroke-linejoin="round"/>
</svg>
