<svg width="20" height="20" viewBox="0 0 20 20" fill="none" xmlns="http://www.w3.org/2000/svg">
<path d="M12.9713 11.0225C13.3855 11.0225 13.7213 10.6867 13.7213 10.2725C13.7213 9.85825 13.3855 9.52246 12.9713 9.52246V11.0225ZM11.2513 9.52246C10.8371 9.52246 10.5013 9.85825 10.5013 10.2725C10.5013 10.6867 10.8371 11.0225 11.2513 11.0225V9.52246ZM12.9713 9.52246H11.2513V11.0225H12.9713V9.52246Z" fill="currentColor"/>
<path d="M12.9713 8.15894C13.3855 8.15894 13.7213 7.82315 13.7213 7.40894C13.7213 6.99472 13.3855 6.65894 12.9713 6.65894V8.15894ZM11.2513 6.65894C10.8371 6.65894 10.5013 6.99472 10.5013 7.40894C10.5013 7.82315 10.8371 8.15894 11.2513 8.15894V6.65894ZM12.9713 6.65894H11.2513V8.15894H12.9713V6.65894Z" fill="currentColor"/>
<path d="M9.30756 11.0225C8.89334 11.0225 8.55756 10.6867 8.55756 10.2725C8.55756 9.85826 8.89334 9.52247 9.30756 9.52246L9.30756 11.0225ZM9.31755 9.52246C9.73176 9.52245 10.0675 9.85823 10.0675 10.2724C10.0675 10.6867 9.73176 11.0225 9.31755 11.0225L9.31755 9.52246ZM9.30756 9.52246L9.31755 9.52246L9.31755 11.0225L9.30756 11.0225L9.30756 9.52246Z" fill="currentColor"/>
<path d="M9.29755 8.15894C8.88333 8.15894 8.54755 7.82317 8.54755 7.40895C8.54755 6.99474 8.88333 6.65894 9.29755 6.65894L9.29755 8.15894ZM9.30754 6.65894C9.72175 6.65893 10.0575 6.99471 10.0575 7.40892C10.0575 7.82313 9.72175 8.15893 9.30754 8.15894L9.30754 6.65894ZM9.29755 6.65894L9.30754 6.65894L9.30754 8.15894L9.29755 8.15894L9.29755 6.65894Z" fill="currentColor"/>
<rect x="7.32758" y="4.06995" width="7.65521" height="9.51907" stroke="currentColor" stroke-width="1.5" stroke-linecap="round" stroke-linejoin="round"/>
<path d="M12.369 15.9299L5.01721 15.9299L5.01721 6.97989" stroke="currentColor" stroke-width="1.5" stroke-linecap="round" stroke-linejoin="round"/>
</svg>
