<svg width="16" height="16" viewBox="0 0 16 16" fill="none" xmlns="http://www.w3.org/2000/svg">
<path fill-rule="evenodd" clip-rule="evenodd" d="M2 13C2 14.1046 2.89543 15 4 15H12C13.1046 15 14 14.1046 14 13V8C14 6.89543 13.1046 6 12 6H11H5H4C2.89543 6 2 6.89544 2 8V13Z" fill="var(--icon-light)" class="icon-light"/>
<path d="M5 6H4C2.89543 6 2 6.89544 2 8V13C2 14.1046 2.89543 15 4 15H12C13.1046 15 14 14.1046 14 13V8C14 6.89543 13.1046 6 12 6H11M5 6V4C5 2.34315 6.34315 1 8 1V1C9.65685 1 11 2.34315 11 4V6M5 6H11M8 10V11" stroke="currentColor" class="icon-dark" stroke-width="2" stroke-linecap="round" stroke-linejoin="round"/>
</svg>
