<svg width="20" height="20" viewBox="0 0 20 20" fill="none" xmlns="http://www.w3.org/2000/svg">
<path d="M11.2969 2.09375H3.64188V17.9062H16.3583V7.07816M11.2969 2.09375V7.07816H16.3583M11.2969 2.09375L16.3583 7.07816" stroke="currentColor" stroke-width="1.5" stroke-linecap="round" stroke-linejoin="round"/>
<path d="M8.0431 14.9369C7.90471 15.3273 8.109 15.756 8.49941 15.8944C8.88982 16.0328 9.3185 15.8285 9.4569 15.4381L8.0431 14.9369ZM11.4775 9.73805C11.6159 9.34764 11.4116 8.91896 11.0212 8.78056C10.6308 8.64216 10.2021 8.84646 10.0637 9.23687L11.4775 9.73805ZM9.4569 15.4381L11.4775 9.73805L10.0637 9.23687L8.0431 14.9369L9.4569 15.4381Z" fill="currentColor"/>
<path d="M7.23273 10.8611L6.09377 12L7.23273 13.139" stroke="currentColor" stroke-width="1.5" stroke-linecap="round" stroke-linejoin="round"/>
<path d="M12.2877 13.1389L13.4266 12L12.2877 10.861" stroke="currentColor" stroke-width="1.5" stroke-linecap="round" stroke-linejoin="round"/>
</svg>
