<svg width="20" height="20" viewBox="0 0 20 20" fill="none" xmlns="http://www.w3.org/2000/svg">
<path d="M10.9191 3.79688H5.01146V16H14.8252V7.64354M10.9191 3.79688V7.64354H14.8252M10.9191 3.79688L14.8252 7.64354" stroke="currentColor" stroke-width="1.5" stroke-linecap="round" stroke-linejoin="round"/>
<path d="M8.43173 13.6513C8.29333 14.0417 8.49763 14.4704 8.88804 14.6088C9.27845 14.7472 9.70713 14.5429 9.84552 14.1524L8.43173 13.6513ZM11.4049 9.7535C11.5433 9.36309 11.339 8.93441 10.9486 8.79601C10.5582 8.65761 10.1295 8.86191 9.99112 9.25232L11.4049 9.7535ZM9.84552 14.1524L11.4049 9.7535L9.99112 9.25232L8.43173 13.6513L9.84552 14.1524Z" fill="currentColor"/>
<path d="M7.78265 10.5629L6.90368 11.4418L7.78265 12.3208" stroke="currentColor" stroke-width="1.5" stroke-linecap="round" stroke-linejoin="round"/>
<path d="M12.09 12.3208L12.9689 11.4418L12.09 10.5628" stroke="currentColor" stroke-width="1.5" stroke-linecap="round" stroke-linejoin="round"/>
</svg>
