<svg width="20" height="20" viewBox="0 0 20 20" fill="none" xmlns="http://www.w3.org/2000/svg">
<path d="M13.7957 7.9303C14.21 7.9303 14.5457 7.59451 14.5457 7.1803C14.5457 6.76608 14.21 6.4303 13.7957 6.4303L13.7957 7.9303ZM12 6.4303C11.5858 6.4303 11.25 6.76608 11.25 7.1803C11.25 7.59451 11.5858 7.9303 12 7.9303L12 6.4303ZM13.7957 6.4303L12 6.4303L12 7.9303L13.7957 7.9303L13.7957 6.4303Z" fill="currentColor"/>
<path d="M9.71786 6.29901C10.0108 6.00611 10.0108 5.53124 9.71786 5.23835C9.42497 4.94545 8.95009 4.94545 8.6572 5.23835L9.71786 6.29901ZM5.83408 8.06147C5.54119 8.35436 5.54119 8.82923 5.83408 9.12213C6.12697 9.41502 6.60185 9.41502 6.89474 9.12213L5.83408 8.06147ZM8.6572 5.23835L5.83408 8.06147L6.89474 9.12213L9.71786 6.29901L8.6572 5.23835Z" fill="currentColor"/>
<path d="M8.6572 9.12213C8.95009 9.41502 9.42497 9.41502 9.71786 9.12213C10.0108 8.82923 10.0108 8.35436 9.71786 8.06147L8.6572 9.12213ZM6.89474 5.23835C6.60185 4.94545 6.12697 4.94545 5.83408 5.23835C5.54119 5.53124 5.54119 6.00611 5.83408 6.29901L6.89474 5.23835ZM9.71786 8.06147L6.89474 5.23835L5.83408 6.29901L8.6572 9.12213L9.71786 8.06147Z" fill="currentColor"/>
<path d="M6.82865 14.5303C7.12154 14.8232 7.59642 14.8232 7.88931 14.5303C8.1822 14.2374 8.1822 13.7626 7.88931 13.4697L6.82865 14.5303ZM6.89477 12.4751C6.60188 12.1822 6.127 12.1822 5.83411 12.4751C5.54122 12.768 5.54122 13.2429 5.83411 13.5358L6.89477 12.4751ZM7.88931 13.4697L6.89477 12.4751L5.83411 13.5358L6.82865 14.5303L7.88931 13.4697Z" fill="currentColor"/>
<path d="M10.1263 12.418C10.4192 12.1251 10.4192 11.6503 10.1263 11.3574C9.83341 11.0645 9.35854 11.0645 9.06565 11.3574L10.1263 12.418ZM6.9533 13.4697C6.6604 13.7626 6.6604 14.2375 6.9533 14.5304C7.24619 14.8233 7.72106 14.8233 8.01396 14.5304L6.9533 13.4697ZM9.06565 11.3574L6.9533 13.4697L8.01396 14.5304L10.1263 12.418L9.06565 11.3574Z" fill="currentColor"/>
<path d="M13.7957 13.7555C14.21 13.7555 14.5457 13.4197 14.5457 13.0055C14.5457 12.5913 14.21 12.2555 13.7957 12.2555L13.7957 13.7555ZM12 12.2555C11.5858 12.2555 11.25 12.5913 11.25 13.0055C11.25 13.4197 11.5858 13.7555 12 13.7555L12 12.2555ZM13.7957 12.2555L12 12.2555L12 13.7555L13.7957 13.7555L13.7957 12.2555Z" fill="currentColor"/>
<rect x="3.64189" y="1.9375" width="12.9832" height="15.8125" stroke="currentColor" stroke-width="1.5" stroke-linecap="round" stroke-linejoin="round"/>
</svg>
