<svg width="17" height="16" viewBox="0 0 17 16" fill="none" xmlns="http://www.w3.org/2000/svg">
<path d="M5.89494 1.09067H10.2346L5.7296 14.4385C5.6833 14.5757 5.59515 14.6948 5.47756 14.7793C5.35997 14.8637 5.21887 14.9091 5.0741 14.9092H1.69677C1.58709 14.9092 1.47898 14.8831 1.38139 14.833C1.2838 14.783 1.19953 14.7104 1.13555 14.6213C1.07158 14.5322 1.02973 14.4292 1.01348 14.3207C0.997233 14.2122 1.00705 14.1014 1.04211 13.9975L5.23927 1.56133C5.28555 1.42412 5.37372 1.30488 5.49134 1.22041C5.60897 1.13595 5.75013 1.09051 5.89494 1.0905V1.09067Z" fill="url(#paint0_linear_4115_6071)"/>
<path d="M12.2011 10.0435H5.31946C5.25548 10.0434 5.19297 10.0626 5.14006 10.0986C5.08715 10.1346 5.04629 10.1856 5.02282 10.2451C4.99935 10.3047 4.99434 10.3699 5.00846 10.4323C5.02258 10.4947 5.05516 10.5514 5.10196 10.595L9.52397 14.7223C9.65271 14.8424 9.82223 14.9092 9.9983 14.9092H13.895L12.2011 10.0435Z" fill="#0078D4"/>
<path d="M5.89497 1.09067C5.74858 1.09011 5.60584 1.13637 5.48761 1.22269C5.36938 1.30902 5.28185 1.43089 5.23781 1.5705L1.04731 13.9862C1.00989 14.0905 0.998138 14.2022 1.01306 14.3121C1.02797 14.4219 1.06912 14.5265 1.13301 14.617C1.1969 14.7075 1.28166 14.7814 1.38012 14.8322C1.47857 14.8831 1.58783 14.9095 1.69864 14.9092H5.16314C5.29217 14.8861 5.41277 14.8292 5.51262 14.7443C5.61247 14.6594 5.68799 14.5495 5.73147 14.4258L6.56714 11.963L9.55214 14.7472C9.67723 14.8506 9.83414 14.9078 9.99647 14.9092H13.8786L12.176 10.0435L7.21247 10.0447L10.2503 1.09067H5.89497Z" fill="url(#paint1_linear_4115_6071)"/>
<path d="M11.4378 1.56067C11.3915 1.42367 11.3035 1.30463 11.1861 1.22031C11.0686 1.136 10.9277 1.09065 10.7831 1.09067H5.94659C6.09117 1.09068 6.2321 1.13603 6.34954 1.22035C6.46698 1.30466 6.55502 1.42369 6.60126 1.56067L10.7986 13.9973C10.8337 14.1013 10.8435 14.2121 10.8273 14.3206C10.811 14.4291 10.7692 14.5322 10.7052 14.6213C10.6413 14.7104 10.557 14.783 10.4594 14.8331C10.3618 14.8832 10.2536 14.9093 10.1439 14.9093H14.9806C15.0903 14.9093 15.1984 14.8832 15.296 14.8331C15.3936 14.783 15.4778 14.7103 15.5418 14.6212C15.6057 14.5321 15.6476 14.429 15.6638 14.3206C15.68 14.2121 15.6702 14.1013 15.6351 13.9973L11.4378 1.56067Z" fill="url(#paint2_linear_4115_6071)"/>
<defs>
<linearGradient id="paint0_linear_4115_6071" x1="7.4766" y1="2.11467" x2="2.96977" y2="15.429" gradientUnits="userSpaceOnUse">
<stop stop-color="#114A8B"/>
<stop offset="1" stop-color="#0669BC"/>
</linearGradient>
<linearGradient id="paint1_linear_4115_6071" x1="8.88447" y1="8.3195" x2="7.84197" y2="8.672" gradientUnits="userSpaceOnUse">
<stop stop-opacity="0.3"/>
<stop offset="0.071" stop-opacity="0.2"/>
<stop offset="0.321" stop-opacity="0.1"/>
<stop offset="0.623" stop-opacity="0.05"/>
<stop offset="1" stop-opacity="0"/>
</linearGradient>
<linearGradient id="paint2_linear_4115_6071" x1="8.31109" y1="1.72633" x2="13.2583" y2="14.9065" gradientUnits="userSpaceOnUse">
<stop stop-color="#3CCBF4"/>
<stop offset="1" stop-color="#2892DF"/>
</linearGradient>
</defs>
</svg>
