<svg width="16" height="16" viewBox="0 0 16 16" fill="none" xmlns="http://www.w3.org/2000/svg">
    <path d="M3 13H6V11H3V13ZM6 13H13V11H6V13ZM10.386 5H13V3H10.386V5ZM6.93633 12.3511L9.44967 5.64888L7.57701 4.94663L5.06367 11.6489L6.93633 12.3511ZM14 4V6C15.1046 6 16 5.10457 16 4H14ZM14 4H12C12 5.10457 12.8954 6 14 6V4ZM14 4V2C12.8954 2 12 2.89543 12 4H14ZM14 4H16C16 2.89543 15.1046 2 14 2V4ZM14 12V14C15.1046 14 16 13.1046 16 12H14ZM14 12H12C12 13.1046 12.8954 14 14 14V12ZM14 12V10C12.8954 10 12 10.8954 12 12H14ZM14 12H16C16 10.8954 15.1046 10 14 10V12ZM2 12V14C3.10457 14 4 13.1046 4 12H2ZM2 12H0C0 13.1046 0.89543 14 2 14V12ZM2 12V10C0.89543 10 0 10.8954 0 12H2ZM2 12H4C4 10.8954 3.10457 10 2 10V12ZM10.386 3C9.13547 3 8.01611 3.77572 7.57701 4.94663L9.44967 5.64888C9.59604 5.25857 9.96916 5 10.386 5V3Z" fill="currentColor" class="icon-dark-fill"/>
</svg>
