<svg width="16" height="16" viewBox="0 0 16 16" fill="none" xmlns="http://www.w3.org/2000/svg">
<path d="M3.79801 10.0233L2.7898 9.86133L1 10.0115L1.8804 12.9579L3.79801 10.0233Z" fill="#B7CA9D"/>
<path d="M1 6.65937V9.33458L1.9052 9.45758L3.6702 8.08398L1.9052 6.53857L1 6.65937Z" fill="#4B612C"/>
<path d="M1.90529 10.2048L3.7981 10.0234V12.7044L1.90529 12.8332L1.17529 11.436L1.90529 10.2048Z" fill="#759C3E"/>
<path d="M2.8144 6.14045L3.7978 5.98445L1.905 3.01465L1 5.98825L2.8144 6.14045Z" fill="#3C4929"/>
<path d="M1.90527 2.88184L3.79808 3.30324V5.98424L1.90527 5.80464V2.88184ZM1.90527 6.54424L3.79808 6.66324V9.34625L1.90527 9.46725V6.54424Z" fill="#759C3E"/>
<path d="M3.79808 5.18865L5.24548 4.86865L3.26188 2.30664L1.90527 4.93685L3.79808 5.18865Z" fill="#3C4929"/>
<path d="M3.26172 2.24414L5.24532 2.77094V4.86854L3.26172 4.55234V2.24414Z" fill="#759C3E"/>
<path d="M5.24548 11.1276L3.80208 10.8076L1.90527 11.0612L3.26208 13.7656L5.24568 11.1276H5.24548Z" fill="#B7CA9D"/>
<path d="M3.26182 11.448L5.24542 11.1318V13.2372L3.26182 13.766L1.46802 12.449L3.26182 11.448Z" fill="#759C3E"/>
<path d="M14.9857 5.98653L13.1713 6.13874L10.7527 5.75633L12.7239 2.23633L14.9857 5.98653Z" fill="#3C4929"/>
<path d="M14.9899 10.0135L13.1755 9.86133L10.7527 10.2457L12.7239 13.6935L14.9899 10.0135Z" fill="#B7CA9D"/>
<path d="M12.7239 2.23633L10.7527 2.76113V5.75633L12.7239 5.53193L14.8683 4.30653L12.7239 2.23633ZM12.7239 6.33573L10.7527 6.48793V9.48314L12.7239 9.63154L14.8683 8.05494L12.7239 6.33593V6.33573ZM12.7239 10.4841L10.7527 10.2577V13.2529L12.7239 13.7797L14.7073 11.6393L12.7239 10.4841Z" fill="#4B612C"/>
<path d="M5.91964 1.37549L3.93823 4.36089L5.95464 4.71009L7.99804 4.25929L5.91964 1.37549Z" fill="#3C4929"/>
<path d="M12.0497 5.39134L10.0311 5.64114L5.91968 4.98954L7.99808 0.0195312L12.0497 5.39134Z" fill="#3C4929"/>
<path d="M7.99808 10.2793L11.8889 8.00614L7.99808 5.71533L5.91968 5.99633V10.0001L7.99808 10.2791V10.2793Z" fill="#4B612C"/>
<path d="M12.0494 10.611L10.0308 10.3594L5.91943 11.013L7.99784 15.9982L12.0494 10.6108V10.611Z" fill="#B7CA9D"/>
<path d="M7.9855 11.7349L5.96909 11.2881L3.94629 11.6393L5.84329 14.9037L7.9855 11.7349Z" fill="#B7CA9D"/>
<path d="M1.9052 11.061V10.1966L1 10.0112V12.6864L3.2618 13.7576V11.4454L1.9052 11.061Z" fill="#4B612C"/>
<path d="M3.936 11.6364V14.0774L7.99781 15.9994L11.7854 12.4482L7.99781 11.4356L5.91941 11.0122V12.1986L3.936 11.6364ZM3.2618 4.55163V2.24342L1 3.31262V5.98783L1.9052 5.80443V4.93603L3.262 4.55163H3.2618ZM5.91961 3.79863V4.98883L7.99801 4.56743L11.7382 3.55482L7.99781 0.00341797L3.936 1.92342V4.36043L5.91961 3.79863Z" fill="#4B612C"/>
<path d="M7.99805 5.71521V10.279L12.0497 9.73262V6.26161L7.99805 5.71521Z" fill="#759C3E"/>
<path d="M7.99805 0V4.56781L12.0497 5.39121V1.9162L7.99805 0ZM15.0001 5.99041V3.31321L12.7239 2.2362V5.52801L15.0001 5.99041ZM15.0001 9.33461V6.66161L12.7239 6.35341V9.64322L15.0001 9.33461ZM7.99805 11.4362V15.9982L12.0497 14.0802V10.6108L7.99805 11.4362ZM15.0001 12.685V10.0118L12.7239 10.4742V13.762L15.0001 12.685Z" fill="#759C3E"/>
</svg>
