<svg width="16" height="17" viewBox="0 0 16 17" fill="none" xmlns="http://www.w3.org/2000/svg">
<path d="M15 3.5C15 2.39543 14.1046 1.5 13 1.5H3C1.89543 1.5 1 2.39543 1 3.5V4.5H15V3.5Z" fill="#E1E3ED"/>
<path fill-rule="evenodd" clip-rule="evenodd" d="M15 3.5C15 2.39543 14.1046 1.5 13 1.5H3C1.89543 1.5 1 2.39543 1 3.5V4.5H15V3.5Z" fill="#E1E3ED"/>
<path d="M1 4.5V13.5C1 14.6046 1.89543 15.5 3 15.5H13C14.1046 15.5 15 14.6046 15 13.5V4.5M1 4.5V3.5C1 2.39543 1.89543 1.5 3 1.5H13C14.1046 1.5 15 2.39543 15 3.5V4.5M1 4.5H15M5 8.5L6.5 10L5 11.5" stroke="#9095AD" stroke-width="2" stroke-linecap="round" stroke-linejoin="round"/>
</svg>
