<svg width="16" height="16" viewBox="0 0 16 16" fill="none" xmlns="http://www.w3.org/2000/svg">
<g clip-path="url(#clip0_4549_15565)">
<path d="M7.99945 15.3685L10.9471 6.30176H5.05615L7.99945 15.3685Z" fill="#E24329"/>
<path d="M0.927519 6.30176L0.0299048 9.05635C-0.0513216 9.30647 0.0363973 9.58257 0.25079 9.73848L7.99948 15.3685L0.927519 6.30176Z" fill="#FCA326"/>
<path d="M0.92749 6.30182H5.05611L3.27926 0.841359C3.18832 0.561995 2.792 0.561995 2.69779 0.841359L0.92749 6.30182Z" fill="#E24329"/>
<path d="M15.0758 6.30176L15.9702 9.05635C16.0514 9.30647 15.9637 9.58257 15.7493 9.73848L7.99951 15.3685L15.0758 6.30176Z" fill="#FCA326"/>
<path d="M15.0756 6.30182H10.947L12.7206 0.841359C12.8115 0.561995 13.2079 0.561995 13.3021 0.841359L15.0756 6.30182Z" fill="#E24329"/>
<path d="M7.99951 15.3685L10.9471 6.30176H15.0758L7.99951 15.3685Z" fill="#FC6D26"/>
<path d="M7.9994 15.3685L0.92749 6.30176H5.05611L7.9994 15.3685Z" fill="#FC6D26"/>
</g>
<defs>
<clipPath id="clip0_4549_15565">
<rect width="16" height="16" fill="white"/>
</clipPath>
</defs>
</svg>
