<svg width="17" height="16" viewBox="0 0 17 16" fill="none" xmlns="http://www.w3.org/2000/svg">
<g clip-path="url(#clip0_4115_5741)">
<path fill-rule="evenodd" clip-rule="evenodd" d="M13.9681 7.71C13.9681 10.88 11.4478 13.4498 8.3387 13.4498C5.22968 13.4498 2.70929 10.88 2.70929 7.71C2.70929 4.53994 5.22968 1.9701 8.3387 1.9701C11.4478 1.9701 13.9681 4.53994 13.9681 7.71Z" fill="#D33833"/>
<path d="M2.9387 9.13156C2.9387 9.13156 2.53117 3.1459 8.06414 2.97486L7.67815 2.33354L4.67579 3.3383L3.81795 4.32164L3.06737 5.75397L2.63843 7.42141L2.7671 8.53302" fill="#EF3D3A"/>
<path d="M4.48301 3.79441C3.49531 4.8018 2.88412 6.1927 2.88412 7.73143C2.88412 9.26984 3.49531 10.6609 4.48301 11.6681C5.47118 12.6753 6.83303 13.2968 8.33861 13.2968C9.84422 13.2968 11.2062 12.6753 12.1942 11.6681C13.1819 10.6609 13.7932 9.26984 13.7932 7.73143C13.7932 6.1927 13.1819 4.8018 12.1942 3.79441C11.2062 2.78741 9.84422 2.1659 8.33861 2.16577C6.83303 2.1659 5.47118 2.78741 4.48301 3.79441ZM4.233 11.9118C3.18331 10.8417 2.53436 9.36277 2.53436 7.73143C2.53436 6.09984 3.18331 4.62108 4.233 3.5509C5.28244 2.48053 6.73514 1.81709 8.33861 1.81728C9.94208 1.81709 11.3949 2.48053 12.4442 3.5509C13.494 4.62108 14.143 6.09997 14.1429 7.73143C14.143 9.36277 13.494 10.8417 12.4442 11.9118C11.3949 12.9821 9.94208 13.6455 8.33861 13.6455C6.73514 13.6455 5.28244 12.9821 4.233 11.9118Z" fill="#231F20"/>
<path fill-rule="evenodd" clip-rule="evenodd" d="M10.7084 7.74181L9.85057 7.87008L8.6925 7.99834L7.94187 8.0197L7.21276 7.99834L6.65514 7.8273L6.16188 7.29289L5.77586 6.20264L5.69009 5.96746L5.1754 5.79649L4.87515 5.30478L4.66071 4.59933L4.89664 3.97936L5.45418 3.78697L5.90454 4.00078L6.11904 4.47106L6.37638 4.42829L6.46213 4.32144L6.37638 3.82974L6.35489 3.20978L6.48357 2.3547L6.47854 1.86627L6.86959 1.24309L7.55585 0.751392L8.75684 0.238334L10.0864 0.430731L11.2445 1.26445L11.7807 2.11953L12.1238 2.73949L12.2095 4.27867L11.9522 5.60409L11.4804 6.77983L11.0301 7.39979" fill="#F0D6B7"/>
<path fill-rule="evenodd" clip-rule="evenodd" d="M9.97917 11.4401L6.91241 11.5683V12.0814L7.16976 13.8771L7.04109 14.0268L4.89657 13.2999L4.74641 13.0434L4.53196 10.6278L4.03878 9.17408L3.93152 8.83206L5.64712 7.65632L6.1833 7.44251L6.65507 8.0197L7.06252 8.38314L7.53437 8.53276L7.74879 8.59689L8.00614 9.70849L8.19915 9.94365L8.69243 9.77263L8.34926 10.4354L10.215 11.3118L9.97917 11.4401Z" fill="#335061"/>
<path fill-rule="evenodd" clip-rule="evenodd" d="M4.89662 3.97936L5.45416 3.78696L5.90451 4.00078L6.11901 4.47106L6.37636 4.42829L6.44069 4.17176L6.31202 3.68012L6.44069 2.50432L6.33343 1.863L6.71945 1.41407L7.55583 0.75139L7.31992 0.430728L6.14042 1.00792L5.64717 1.39271L5.36838 1.99126L4.93946 2.56845L4.81079 3.25255L4.89662 3.97936Z" fill="#6D6B6D"/>
<path fill-rule="evenodd" clip-rule="evenodd" d="M5.7758 1.96991C5.7758 1.96991 6.09748 1.17897 7.38421 0.794173C8.67094 0.409379 7.44855 0.516223 7.44855 0.516223L6.05463 1.0507L5.51845 1.58512L5.28259 2.01269L5.7758 1.96991Z" fill="#DCD9D8"/>
<path fill-rule="evenodd" clip-rule="evenodd" d="M5.13233 3.82981C5.13233 3.82981 4.68218 2.33404 6.39703 2.12039L6.33273 1.86398L5.1538 2.1418L4.81079 3.25289L4.89658 3.97936L5.13233 3.82981Z" fill="#DCD9D8"/>
<path fill-rule="evenodd" clip-rule="evenodd" d="M5.81873 5.81785L6.09952 5.54663C6.09952 5.54663 6.22626 5.56132 6.24767 5.71094C6.26908 5.86062 6.33342 7.2074 7.25557 7.93428C7.33968 8.00059 6.56935 7.8273 6.56935 7.8273L5.88306 6.75848" fill="#F7E4CD"/>
<path fill-rule="evenodd" clip-rule="evenodd" d="M9.76486 5.4117C9.76486 5.4117 9.81482 4.76401 9.9898 4.81381C10.1648 4.86362 10.1648 5.03805 10.1648 5.03805C10.1648 5.03805 9.73984 5.31208 9.76486 5.4117Z" fill="#F7E4CD"/>
<path d="M11.5446 3.03905C11.5446 3.03905 11.1913 3.11341 11.1587 3.42366C11.1262 3.73399 11.5446 3.48777 11.6089 3.46642" fill="#F7E4CD"/>
<path d="M8.94959 3.0605C8.94959 3.0605 8.47797 3.1246 8.47797 3.42371C8.47797 3.72287 9.01391 3.70153 9.16394 3.57332" fill="#F7E4CD"/>
<path fill-rule="evenodd" clip-rule="evenodd" d="M6.03255 4.45031C6.03255 4.45031 5.21797 3.95883 5.13226 4.42896C5.04652 4.89902 4.85355 5.24095 5.26087 5.73236L4.98222 5.64691L4.72499 4.98454L4.63928 4.34351L5.13226 3.83063L5.68959 3.87338L6.01113 4.12979L6.03255 4.45031Z" fill="#F7E4CD"/>
<path fill-rule="evenodd" clip-rule="evenodd" d="M6.41919 3.10294C6.41919 3.10294 6.78378 1.22174 8.62813 0.858305C10.1465 0.559128 10.9442 0.922437 11.2445 1.26445C11.2445 1.26445 9.89338 -0.338788 8.60664 0.15285C7.31991 0.644552 6.37635 1.5424 6.39776 2.11953C6.43427 3.10255 6.41919 3.10294 6.41919 3.10294Z" fill="#F7E4CD"/>
<path fill-rule="evenodd" clip-rule="evenodd" d="M11.3944 1.47853C11.3944 1.47853 10.7728 1.45718 10.7513 2.01276C10.7513 2.01276 10.7512 2.09821 10.7941 2.18366C10.7941 2.18366 11.2872 1.62808 11.5873 1.92725" fill="#F7E4CD"/>
<path fill-rule="evenodd" clip-rule="evenodd" d="M8.67077 2.24189C8.67077 2.24189 8.56375 1.38913 7.8344 1.8849C7.36282 2.20541 7.40573 2.65413 7.49143 2.73958C7.57717 2.82509 7.55386 2.99721 7.61912 2.87907C7.68435 2.76092 7.66288 2.37631 7.8987 2.26951C8.1345 2.16265 8.52105 2.0433 8.67077 2.24189Z" fill="#F7E4CD"/>
<path fill-rule="evenodd" clip-rule="evenodd" d="M6.65507 8.01971L4.63922 8.91756C4.63922 8.91756 5.4756 12.2311 5.04665 13.2572L4.74641 13.1503L4.72497 11.889L4.16745 9.49481L3.93152 8.83207L6.03314 7.42122L6.65507 8.01971Z" fill="#49728B"/>
<path fill-rule="evenodd" clip-rule="evenodd" d="M6.86237 9.85317L7.14823 10.2008V11.4829H6.80522C6.80522 11.4829 6.76239 10.5855 6.76239 10.4786C6.76239 10.3717 6.80522 9.98713 6.80522 9.98713" fill="#49728B"/>
<path fill-rule="evenodd" clip-rule="evenodd" d="M6.86908 11.6755L5.90448 11.7182L6.18319 11.9105L6.86908 12.0173" fill="#49728B"/>
<path fill-rule="evenodd" clip-rule="evenodd" d="M10.1722 11.4624L10.9653 11.4411L11.1583 13.4069L10.3437 13.5137L10.1722 11.4624Z" fill="#335061"/>
<path fill-rule="evenodd" clip-rule="evenodd" d="M10.3867 11.4615L11.5876 11.3974C11.5876 11.3974 12.0808 10.1575 12.0808 10.0933C12.0808 10.0292 12.5098 8.29765 12.5098 8.29765L11.5447 7.29295L11.3517 7.12191L10.837 7.63497V9.62307L10.3867 11.4615Z" fill="#335061"/>
<path fill-rule="evenodd" clip-rule="evenodd" d="M10.9224 11.3122L10.1722 11.4618L10.2794 12.0601C10.558 12.1883 11.0296 11.8464 11.0296 11.8464" fill="#49728B"/>
<path fill-rule="evenodd" clip-rule="evenodd" d="M10.9443 7.57135L12.4447 8.68244L12.4876 8.16962L11.3515 7.12263L10.9443 7.57135Z" fill="#49728B"/>
<path fill-rule="evenodd" clip-rule="evenodd" d="M7.61382 15.673L7.16982 13.8771L6.94899 12.5519L6.91248 11.5683L8.92202 11.4617L10.1722 11.4615L10.0586 13.7063L10.2516 15.4379L10.2301 15.7586L8.60033 15.8868L7.61382 15.673Z" fill="white"/>
<path fill-rule="evenodd" clip-rule="evenodd" d="M9.89339 11.4401C9.89339 11.4401 9.78621 13.6634 10.1079 15.2453C10.1079 15.2453 9.46453 15.6515 8.52087 15.7584L10.3223 15.6942L10.5368 15.566L10.2794 12.0601L10.2151 11.3118" fill="#DCD9D8"/>
<path fill-rule="evenodd" clip-rule="evenodd" d="M11.1953 13.236L12.0316 13.0009L13.6186 12.9154L13.8545 12.1886L13.4255 10.9273L12.9323 10.8631L12.2461 11.0769L11.5876 11.3974L11.2381 11.3334L10.9657 11.4401" fill="white"/>
<path fill-rule="evenodd" clip-rule="evenodd" d="M11.1801 12.8083C11.1801 12.8083 11.7377 12.5518 11.8235 12.5732L11.5876 11.3974L11.8664 11.2905C11.8664 11.2905 12.0594 12.4021 12.0594 12.5304C12.0594 12.5304 13.2603 12.5945 13.3676 12.5945C13.3676 12.5945 13.6249 12.1028 13.5606 11.5898L13.7965 12.2738L13.8179 12.6586L13.4748 13.1717L13.0888 13.2572L12.4454 13.2358L12.231 12.958L11.4804 13.0648L11.2445 13.1503" fill="#DCD9D8"/>
<path d="M10.3374 11.2907L9.86558 10.0935L9.37231 9.38809C9.37231 9.38809 9.4795 9.08878 9.62966 9.08878C9.77982 9.08878 10.1229 9.08878 10.1229 9.08878L10.5947 9.25982L10.5519 10.0508L10.3374 11.2907Z" fill="white"/>
<path fill-rule="evenodd" clip-rule="evenodd" d="M10.4291 10.8844C10.4291 10.8844 9.82885 9.7306 9.82885 9.55965C9.82885 9.55965 9.93599 9.30324 10.0861 9.36734C10.2362 9.43145 10.5577 9.60234 10.5577 9.60234V9.19638L9.82885 9.04677L9.33588 9.11087L10.1719 11.0767L10.3433 11.0981" fill="#DCD9D8"/>
<path d="M7.80628 8.06303L7.21245 7.99867L6.65509 7.82771V8.02002L6.92742 8.31937L7.78483 8.70399" fill="white"/>
<path fill-rule="evenodd" clip-rule="evenodd" d="M6.84818 8.12702C6.84818 8.12702 7.51273 8.40484 7.72707 8.34074L7.7484 8.59689L7.14831 8.46894L6.78387 8.21253L6.84818 8.12702Z" fill="#DCD9D8"/>
<path fill-rule="evenodd" clip-rule="evenodd" d="M11.1925 9.16158C10.8287 9.15093 10.5001 9.10786 10.2124 9.02696C10.232 8.9094 10.1954 8.79401 10.2248 8.70933C10.305 8.65177 10.4394 8.65266 10.5606 8.63914C10.4558 8.58779 10.3085 8.56747 10.1875 8.59715C10.1847 8.51555 10.148 8.46497 10.1257 8.40113C10.3302 8.32837 10.813 7.85138 11.0845 8.00933C11.2139 8.08446 11.2689 8.51356 11.2789 8.72222C11.2873 8.89529 11.2632 9.06991 11.1925 9.16158Z" fill="#D33833"/>
<path fill-rule="evenodd" clip-rule="evenodd" d="M11.2564 9.2969L11.2979 9.24309C11.3519 9.17309 11.3809 9.08258 11.3965 8.99613C11.4125 8.9073 11.4166 8.81 11.412 8.71588M11.2564 9.2969L11.1884 9.29491L11.2564 9.2969ZM11.1884 9.29491C10.817 9.28405 10.4771 9.23998 10.1762 9.15538L11.1884 9.29491ZM10.3515 8.92553C10.351 8.9017 10.3497 8.87974 10.3486 8.86069C10.3484 8.85645 10.3481 8.85236 10.3479 8.84842C10.3468 8.82837 10.3462 8.81246 10.3461 8.79968C10.3596 8.7961 10.3762 8.7927 10.3966 8.78969C10.43 8.78477 10.4592 8.78232 10.4921 8.77957C10.5166 8.77751 10.5433 8.77528 10.5752 8.77171L11.0304 8.72093L10.6191 8.51946C10.5326 8.47709 10.425 8.45167 10.3176 8.45019C10.3448 8.43318 10.3718 8.41525 10.3978 8.3978C10.416 8.38555 10.4344 8.37311 10.4529 8.36058C10.5166 8.31744 10.5817 8.27334 10.6487 8.23298C10.7354 8.18073 10.8151 8.14116 10.8839 8.12238C10.9515 8.10394 10.9912 8.11001 11.0161 8.12389C11.016 8.12385 11.0159 8.12383 11.0159 8.12385C11.0156 8.1242 11.0279 8.13546 11.0457 8.17631C11.0644 8.21921 11.0815 8.27706 11.0961 8.34421C11.1253 8.47796 11.1409 8.62974 11.1456 8.72868L11.1457 8.72871C11.1495 8.80765 11.1457 8.88418 11.134 8.94885C11.1285 8.97928 11.1217 9.00468 11.1144 9.02538C10.8344 9.01311 10.5794 8.98042 10.3515 8.92553ZM10.0805 8.76073C10.078 8.79813 10.08 8.83293 10.0815 8.86003C10.0815 8.86114 10.0816 8.86224 10.0817 8.86333C10.0818 8.86533 10.0819 8.86732 10.082 8.86928C10.0851 8.92474 10.0874 8.96535 10.0808 9.00515L10.0612 9.12303L10.1762 9.15538M10.0805 8.76073L10.0598 8.7658L10.0542 8.60184C10.0535 8.58155 10.0489 8.56425 10.04 8.54201C10.0361 8.53218 10.032 8.523 10.0268 8.51135C10.0254 8.50814 10.0239 8.50474 10.0223 8.5011C10.0154 8.48548 10.0071 8.46632 9.99971 8.44507L9.95612 8.31998L10.0809 8.27557C10.1133 8.26406 10.1674 8.23124 10.2493 8.17633C10.2654 8.16551 10.2823 8.15403 10.2999 8.14213C10.3643 8.09846 10.4374 8.04899 10.511 8.00458C10.6046 7.94823 10.7092 7.89363 10.8137 7.86512C10.9182 7.8366 11.0405 7.82958 11.1515 7.89414C11.2225 7.93541 11.2644 8.01046 11.2903 8.06996C11.3186 8.13517 11.3401 8.21172 11.3566 8.28732C11.3898 8.43906 11.4067 8.60614 11.412 8.71585" fill="#D33833"/>
<path fill-rule="evenodd" clip-rule="evenodd" d="M9.45208 8.56918C9.45111 8.59661 9.44995 8.62424 9.44886 8.65193C9.33529 8.72629 9.15196 8.72539 9.02733 8.78789C9.21105 8.79591 9.35568 8.84001 9.48082 8.90219C9.47806 8.97129 9.47542 9.04033 9.47272 9.10943C9.26456 9.25148 9.0744 9.46302 8.82932 9.59623C8.71344 9.65923 8.30675 9.82134 8.18346 9.79269C8.1137 9.77655 8.10742 9.69026 8.07954 9.60893C8.02013 9.43475 7.88335 9.15751 7.87142 8.89533C7.85623 8.56417 7.82269 8.00917 8.1807 8.07738C8.46953 8.13232 8.80545 8.26494 9.02907 8.38674C9.16572 8.46123 9.24475 8.55328 9.45208 8.56918Z" fill="#D33833"/>
<path fill-rule="evenodd" clip-rule="evenodd" d="M8.89291 9.71345C8.82602 9.74981 8.68775 9.80889 8.55208 9.85511L8.89291 9.71345ZM8.55208 9.85511C8.48358 9.87844 8.41208 9.89977 8.34768 9.91344L8.55208 9.85511ZM8.34768 9.91344C8.29006 9.92566 8.2156 9.9371 8.15331 9.92266L8.34768 9.91344ZM8.1532 9.92263C8.05624 9.90014 8.01271 9.8258 7.99226 9.7757C7.98222 9.75109 7.97487 9.72555 7.96936 9.70607C7.96853 9.70314 7.96773 9.70031 7.96696 9.69757C7.96201 9.68002 7.95807 9.66607 7.95333 9.65223L7.95333 9.65223L7.95326 9.65203C7.94015 9.6136 7.9227 9.56901 7.90206 9.51631C7.90118 9.51405 7.90029 9.51177 7.89939 9.50948C7.87806 9.45497 7.85416 9.39363 7.83167 9.32903C7.78707 9.20091 7.74499 9.05175 7.73815 8.9015M8.23446 9.66193C8.23203 9.65452 8.22931 9.64535 8.22594 9.63342C8.22528 9.63108 8.22458 9.62862 8.22386 9.62604C8.21907 9.609 8.21295 9.58726 8.20562 9.56585C8.19052 9.52161 8.17105 9.47189 8.15137 9.42162C8.15015 9.41851 8.14893 9.4154 8.14771 9.41228C8.12632 9.35763 8.10414 9.30061 8.08352 9.24136C8.04189 9.12178 8.00963 9.00125 8.00453 8.88933L8.00453 8.88928C8.00431 8.88444 8.00409 8.87957 8.00386 8.87468C7.9961 8.70623 7.98709 8.5106 8.01675 8.36291C8.03207 8.28664 8.05411 8.24375 8.07405 8.22354C8.08566 8.21176 8.10376 8.19853 8.15566 8.20842L8.1557 8.20843C8.42858 8.26033 8.75143 8.38746 8.96517 8.50387C8.98765 8.51613 9.01136 8.53161 9.03725 8.54851C9.06761 8.56833 9.10097 8.59011 9.13887 8.61095C9.08352 8.62409 9.02183 8.64152 8.96748 8.66877L8.50878 8.89881L9.02144 8.92116C9.14818 8.92669 9.25252 8.9512 9.34396 8.98718C9.34332 9.00356 9.34269 9.01993 9.34205 9.03629C9.34202 9.03718 9.34198 9.03808 9.34195 9.03897C9.271 9.09162 9.20193 9.15015 9.1357 9.20627C9.11661 9.22245 9.09776 9.23843 9.07916 9.25401C8.976 9.34043 8.8757 9.41929 8.76556 9.47915L8.76555 9.47916C8.71656 9.50579 8.59355 9.55926 8.46609 9.60269C8.40302 9.62417 8.34249 9.64194 8.29233 9.65258C8.26611 9.65814 8.24718 9.66073 8.23446 9.66193ZM9.452 8.56924L9.46219 8.4363C9.3436 8.4272 9.29358 8.39473 9.21565 8.34416C9.18232 8.32252 9.14389 8.29758 9.0928 8.26973L9.09276 8.26971C8.85929 8.14255 8.51033 8.00444 8.20557 7.94647C8.07847 7.92225 7.9665 7.95282 7.88419 8.03627C7.8102 8.11129 7.77445 8.21506 7.7553 8.3104C7.71895 8.49142 7.72948 8.71641 7.73692 8.87522C7.73734 8.88418 7.73775 8.89293 7.73814 8.90145M8.18062 8.07741L8.18062 8.07744L8.18062 8.07741L9.58525 8.57392C9.58453 8.59442 9.5837 8.61516 9.58288 8.63555C9.58259 8.64284 9.58229 8.65008 9.58201 8.65725L9.5793 8.72591L9.52182 8.76354C9.51871 8.76558 9.51558 8.76757 9.51242 8.76951C9.52173 8.77387 9.53095 8.77831 9.54007 8.78285L9.61742 8.82128L9.61397 8.90758C9.61212 8.95392 9.61032 9.00016 9.60852 9.0465C9.60764 9.0692 9.60676 9.09193 9.60587 9.1147L9.60325 9.18179L9.5478 9.21963C9.46992 9.27277 9.39533 9.33592 9.31274 9.40584C9.2925 9.42298 9.27178 9.44052 9.25041 9.45842C9.14518 9.54657 9.02786 9.64009 8.89292 9.71344" fill="#D33833"/>
<path fill-rule="evenodd" clip-rule="evenodd" d="M9.65966 8.96393C9.62789 8.78354 9.59117 8.73207 9.60538 8.57469C10.088 8.25392 10.1786 9.12566 9.65966 8.96393Z" fill="#D33833"/>
<path fill-rule="evenodd" clip-rule="evenodd" d="M9.94993 8.40371C9.82405 8.34084 9.67577 8.36781 9.53149 8.46371L9.47825 8.4991L9.4725 8.56277C9.46408 8.65592 9.4709 8.72131 9.48461 8.7877C9.49045 8.816 9.49594 8.83865 9.50145 8.86135C9.50992 8.89624 9.51842 8.93126 9.52825 8.98711L9.54234 9.06711L9.61989 9.09128C9.78276 9.14204 9.92877 9.11864 10.0296 9.02307C10.1239 8.9337 10.1531 8.80451 10.1405 8.69451C10.1279 8.58495 10.0697 8.46352 9.94993 8.40371ZM9.77279 8.85083C9.81656 8.85261 9.83715 8.83807 9.84617 8.82952C9.86576 8.81095 9.88103 8.77258 9.87556 8.72495C9.87004 8.67689 9.84753 8.65064 9.83078 8.64228C9.82249 8.63814 9.79389 8.62771 9.73569 8.65389C9.73659 8.6831 9.74036 8.70759 9.74576 8.73378C9.7483 8.74604 9.75222 8.76258 9.75691 8.7823C9.76165 8.80228 9.76717 8.82551 9.77279 8.85083Z" fill="#D33833"/>
<path fill-rule="evenodd" clip-rule="evenodd" d="M10.3587 9.11021C10.3587 9.11021 10.2086 8.89649 10.3158 8.83239C10.423 8.76828 10.5302 8.83245 10.5945 8.72559C10.6588 8.61873 10.5945 8.55463 10.6159 8.42642C10.6373 8.29822 10.7446 8.27681 10.8517 8.25546C10.9588 8.23412 11.259 8.19136 11.3018 8.29822L11.1732 7.9136L10.916 7.82815L10.1014 8.29822L10.0585 8.53328V9.00335" fill="#EF3D3A"/>
<path fill-rule="evenodd" clip-rule="evenodd" d="M8.10683 9.81566C8.08108 9.4822 8.05383 9.14918 8.02351 8.81604C7.97814 8.31861 8.14338 8.4054 8.57594 8.4054C8.64201 8.4054 8.98274 8.48393 9.00711 8.53361C9.12402 8.77162 8.81162 8.71874 9.14177 8.89822C9.42048 9.0497 9.91281 8.80624 9.80021 8.46951C9.73719 8.39463 9.47186 8.44617 9.37675 8.39701C9.20929 8.31047 9.04184 8.22393 8.87436 8.13739C8.6613 8.0272 8.16887 7.86656 7.94172 8.02053C7.36614 8.41072 7.97804 9.38566 8.18337 9.7927" fill="#EF3D3A"/>
<path fill-rule="evenodd" clip-rule="evenodd" d="M8.67079 2.24187C8.08655 2.10623 7.79624 2.48559 7.61915 2.87905C7.46102 2.84084 7.52394 2.62648 7.56388 2.51725C7.66846 2.23059 8.08989 1.84898 8.43424 1.90071C8.58242 1.92296 8.78295 2.05802 8.67079 2.24187Z" fill="#231F20"/>
<path fill-rule="evenodd" clip-rule="evenodd" d="M11.5191 2.90559C11.5283 2.90598 11.5377 2.9063 11.5469 2.90668C11.6789 3.18008 11.7932 3.4697 11.9597 3.71104C11.8481 3.97008 11.1148 4.19931 11.1262 3.73418C11.2847 3.66508 11.5585 3.72008 11.6991 3.63181C11.6178 3.40944 11.5005 3.22014 11.5191 2.90559Z" fill="#231F20"/>
<path fill-rule="evenodd" clip-rule="evenodd" d="M8.9704 2.91278C9.09567 3.14169 9.13644 3.38221 9.3145 3.55522C9.3947 3.6331 9.55064 3.72804 9.47334 3.94464C9.45527 3.99573 9.32325 4.10964 9.24705 4.13201C8.96866 4.21394 8.31999 4.14894 8.53966 3.80298C8.76988 3.81368 9.07933 3.95201 9.25142 3.78541C9.11927 3.57483 8.88368 3.15823 8.9704 2.91278Z" fill="#231F20"/>
<path fill-rule="evenodd" clip-rule="evenodd" d="M11.4148 5.23982C10.9954 5.50835 10.5278 5.80034 9.8407 5.73262C9.69389 5.60538 9.63791 5.32223 9.78055 5.13522C9.85479 5.26246 9.80815 5.49648 10.0151 5.53169C10.4049 5.5982 10.8587 5.29395 11.1391 5.18762C11.313 4.89537 11.1242 4.78788 10.9675 4.59978C10.6468 4.21441 10.2166 3.73676 10.2322 3.15982C10.3618 3.06612 10.373 3.30284 10.3916 3.34593C10.5591 3.73663 10.9806 4.23628 11.2881 4.57067C11.3637 4.65301 11.488 4.73202 11.5019 4.78647C11.5418 4.94482 11.3981 5.13452 11.4148 5.23982Z" fill="#231F20"/>
<path fill-rule="evenodd" clip-rule="evenodd" d="M5.88601 4.95725C5.75463 4.88251 5.72336 4.55328 5.56912 4.54392C5.34869 4.53059 5.38888 4.97104 5.38976 5.2286C5.23804 5.09129 5.21136 4.66854 5.32282 4.45142C5.19579 4.38924 5.13906 4.52001 5.0686 4.5661C5.15916 3.91033 6.03095 4.26193 5.88601 4.95725Z" fill="#231F20"/>
<path fill-rule="evenodd" clip-rule="evenodd" d="M11.6813 5.51339C11.4861 5.88358 11.2101 6.29127 10.6376 6.30313C10.626 6.18358 10.617 6.00166 10.6383 5.92967C11.0759 5.88775 11.3462 5.6657 11.6813 5.51339Z" fill="#231F20"/>
<path fill-rule="evenodd" clip-rule="evenodd" d="M8.93756 5.7534C9.30272 5.94481 9.97383 5.96539 10.4701 5.9509C10.4968 6.0593 10.4961 6.19321 10.4972 6.32539C9.85917 6.35712 9.10485 6.19975 8.93756 5.7534Z" fill="#231F20"/>
<path fill-rule="evenodd" clip-rule="evenodd" d="M8.86807 6.11062C9.12058 6.74261 9.98846 6.66985 10.7203 6.65242C10.6881 6.73447 10.6183 6.83139 10.5315 6.86646C10.2969 6.96158 9.65008 7.03376 9.3245 6.86139C9.11801 6.75197 8.98534 6.50472 8.87221 6.35979C8.81757 6.28979 8.54552 6.11101 8.86807 6.11062Z" fill="#231F20"/>
<path fill-rule="evenodd" clip-rule="evenodd" d="M11.3838 9.5986C11.0875 10.1045 10.804 10.6241 10.4524 11.0704C10.5998 10.6384 10.6629 9.91533 10.6851 9.36413C10.9935 9.22028 11.2575 9.3965 11.3838 9.5986Z" fill="#81B0C4"/>
<path fill-rule="evenodd" clip-rule="evenodd" d="M12.9791 11.4172C12.6473 11.4834 12.4142 11.8048 12.0906 11.7842C12.2684 11.5343 12.5801 11.4289 12.9791 11.4172Z" fill="#231F20"/>
<path fill-rule="evenodd" clip-rule="evenodd" d="M13.1256 11.9349C12.8552 11.9633 12.5376 12.007 12.2633 11.9845C12.3931 11.7868 12.8934 11.855 13.1256 11.9349Z" fill="#231F20"/>
<path fill-rule="evenodd" clip-rule="evenodd" d="M13.2192 12.3813C12.9153 12.3878 12.5376 12.3818 12.2487 12.3576C12.4196 12.1747 13.0221 12.2897 13.2192 12.3813Z" fill="#231F20"/>
<path fill-rule="evenodd" clip-rule="evenodd" d="M10.812 13.6035C10.8556 13.984 11.0069 14.3695 10.9879 14.7861C10.8199 14.8426 10.7234 14.892 10.4982 14.8917C10.4823 14.5376 10.4348 13.9963 10.449 13.6587C10.5598 13.666 10.723 13.5799 10.812 13.6035Z" fill="#DCD9D8"/>
<path fill-rule="evenodd" clip-rule="evenodd" d="M10.3214 7.9933C10.1688 8.0926 10.0389 8.21657 9.89232 8.3226C9.56731 8.33863 9.38995 8.30016 9.15118 8.11414C9.15511 8.0992 9.17909 8.10587 9.17999 8.08754C9.52789 8.24209 9.97013 8.02459 10.3214 7.9933Z" fill="#F0D6B7"/>
<path fill-rule="evenodd" clip-rule="evenodd" d="M8.49481 10.3585C8.5904 9.94566 8.96493 9.73182 9.30504 9.50444C9.65609 9.94856 9.86959 10.5197 10.1047 11.0709C9.54921 10.9039 8.98164 10.6331 8.49481 10.3585Z" fill="#81B0C4"/>
<path fill-rule="evenodd" clip-rule="evenodd" d="M10.4491 13.6581C10.4348 13.9959 10.4824 14.5375 10.4983 14.8917C10.7235 14.892 10.8201 14.8426 10.9882 14.7861C11.0072 14.3692 10.8558 13.9836 10.8122 13.6029C10.7232 13.5793 10.5598 13.6655 10.4491 13.6581ZM6.9418 11.7375C7.09033 13.0985 7.30545 14.2427 7.70001 15.448C8.57572 15.713 9.6314 15.7361 10.4054 15.4969C10.2633 14.8167 10.3254 13.9885 10.2423 13.2626C10.1797 12.717 10.2116 12.168 10.1258 11.6113C9.18793 11.4168 7.86224 11.5658 6.9418 11.7375ZM10.3476 11.6198C10.3397 12.2044 10.3738 12.781 10.4186 13.3663C10.6438 13.3326 10.7966 13.3101 11.0058 13.2644C10.9379 12.7009 10.9462 12.0669 10.8079 11.5685C10.6479 11.57 10.5071 11.5666 10.3476 11.6198ZM11.4899 11.5256C11.383 11.5012 11.2586 11.5247 11.1565 11.5266C11.2045 12.0032 11.3209 12.529 11.3619 13.0291C11.5226 13.0341 11.6084 12.9586 11.7405 12.9332C11.7476 12.4941 11.7021 11.8892 11.4899 11.5256ZM13.2195 13.1009C13.5544 13.0198 13.765 12.611 13.6713 12.1911C13.6084 11.9089 13.4965 11.3776 13.3767 11.1971C13.2882 11.0635 13.0481 10.8887 12.8565 11.0111C12.5447 11.2101 11.9954 11.2679 11.7681 11.5088C11.8821 11.8871 11.9175 12.4069 11.9645 12.8863C12.354 12.9105 12.8332 12.7795 13.1572 12.9185C12.931 12.9915 12.6376 12.9921 12.4422 13.0985C12.6019 13.1754 12.9757 13.1599 13.2195 13.1009ZM10.1054 11.0709C9.87022 10.5194 9.65662 9.94804 9.3054 9.50372C8.96513 9.7312 8.59043 9.94514 8.4948 10.3582C8.98186 10.6329 9.54969 10.9039 10.1054 11.0709ZM10.6852 9.36334C10.663 9.9148 10.5999 10.6382 10.4524 11.0704C10.8041 10.6239 11.0878 10.1041 11.3842 9.59792C11.2579 9.39572 10.9937 9.21942 10.6852 9.36334ZM10.028 9.13054C9.89473 9.11623 9.78162 9.28323 9.60837 9.21102C9.56867 9.25476 9.53258 9.30215 9.49211 9.34486C9.87478 9.80457 10.0487 10.4568 10.3442 10.997C10.5028 10.4781 10.4846 9.90954 10.5195 9.34313C10.3016 9.35692 10.1807 9.1467 10.028 9.13054ZM9.60534 8.57451C9.59112 8.73195 9.62786 8.78345 9.65964 8.96392C10.1788 9.12573 10.0882 8.25359 9.60534 8.57451ZM9.02959 8.38609C8.80588 8.26424 8.46979 8.13155 8.18083 8.07659C7.82266 8.00828 7.85621 8.56361 7.87141 8.89491C7.88335 9.15721 8.02019 9.43459 8.07962 9.60884C8.10752 9.69021 8.11381 9.77654 8.18359 9.79269C8.30694 9.82136 8.71382 9.65917 8.82975 9.59614C9.07495 9.46287 9.26519 9.25123 9.47345 9.10911C9.47615 9.03998 9.47879 8.97091 9.48156 8.90177C9.35636 8.83957 9.21167 8.79544 9.02786 8.78743C9.15254 8.7249 9.33596 8.7258 9.44958 8.6514C9.45068 8.6237 9.45183 8.59606 9.4528 8.56861C9.24538 8.5527 9.16631 8.46061 9.02959 8.38609ZM6.89274 7.99918C6.70707 8.18709 7.41352 8.44323 7.63844 8.45702C7.63719 8.33812 7.70642 8.22601 7.69247 8.14072C7.42533 8.09397 7.07424 8.12481 6.89274 7.99918ZM9.18001 8.08742C9.17911 8.10577 9.15511 8.0991 9.15119 8.11404C9.39007 8.30015 9.56751 8.33863 9.89267 8.3226C10.0393 8.21652 10.1693 8.09249 10.322 7.99315C9.97052 8.02445 9.52807 8.24205 9.18001 8.08742ZM11.2794 8.72201C11.2694 8.51326 11.2144 8.08396 11.085 8.0088C10.8133 7.85071 10.3303 8.32798 10.1257 8.40077C10.148 8.46465 10.1847 8.51525 10.1875 8.59689C10.3085 8.5672 10.4559 8.58753 10.5607 8.6389C10.4395 8.65243 10.305 8.65153 10.2248 8.70912C10.1954 8.79384 10.232 8.90928 10.2124 9.0269C10.5003 9.10783 10.829 9.15093 11.1929 9.16158C11.2637 9.06987 11.2878 8.89517 11.2794 8.72201ZM6.58016 8.18093C6.52185 8.1395 6.12741 7.62792 6.07338 7.64914C5.35965 7.92972 4.69228 8.41488 4.09591 8.87375C4.66451 10.09 4.89404 11.58 4.93459 13.0162C5.58595 13.3198 6.15807 13.7576 7.04195 13.8033C6.93966 13.082 6.8463 12.4384 6.78824 11.7593C6.56616 11.6659 6.24754 11.7635 6.0397 11.7303C6.03794 11.4807 6.35711 11.621 6.3837 11.4531C6.40373 11.3261 6.20809 11.3165 6.27179 11.1165C6.43427 11.1754 6.51959 11.3054 6.69287 11.3543C6.8512 11.009 6.69066 10.398 6.71348 10.1095C6.7178 10.0553 6.74062 9.80925 6.86238 9.85242C6.97015 9.89062 6.85623 10.5067 6.86804 10.7798C6.87879 11.0315 6.83755 11.275 6.93979 11.433C7.79388 11.3171 8.66179 11.2422 9.58591 11.2169C9.38261 11.1299 9.14109 11.0476 8.87629 10.8989C8.73274 10.8182 8.28025 10.6503 8.23883 10.5144C8.17274 10.2979 8.41224 10.1825 8.4532 9.99684C8.02208 10.2312 7.93796 9.77218 7.83598 9.44696C7.74357 9.1524 7.69097 8.93237 7.66829 8.76248C7.29691 8.58599 6.89983 8.40725 6.58016 8.18093ZM10.9022 7.71103C11.4969 7.42359 11.6041 8.78531 11.371 9.22398C11.407 9.35481 11.5309 9.40489 11.5815 9.52251C11.2497 10.1151 10.8811 10.6682 10.5425 11.2538C10.7943 11.0975 11.1541 11.2259 11.4505 11.1089C11.5589 11.0662 11.6373 10.8189 11.7193 10.6212C11.9449 10.077 12.1818 9.39098 12.2872 8.8717C12.311 8.75337 12.3759 8.49556 12.3613 8.39026C12.3354 8.20171 12.0788 8.0619 11.9482 7.94531C11.7077 7.72995 11.5563 7.54044 11.3054 7.33906C11.2037 7.48875 10.9854 7.58931 10.9022 7.71103ZM5.22017 2.45424C4.93681 2.76502 4.99612 3.34734 5.03042 3.76164C5.5426 3.44046 6.22241 3.78703 6.216 4.33331C6.46053 4.32683 6.30735 4.02888 6.26312 3.83693C6.11857 3.20997 6.50665 2.52882 6.28072 1.95548C5.84204 1.98864 5.48165 2.16724 5.22017 2.45424ZM7.24765 0.650453C6.60617 0.83169 5.78404 1.29633 5.52044 1.87076C5.72455 1.8412 5.86625 1.73858 6.0676 1.72589C6.1437 1.72095 6.24339 1.7577 6.33085 1.73602C6.50514 1.69292 6.65223 1.30338 6.78372 1.15844C6.91189 1.0169 7.06594 0.956427 7.17137 0.827393C7.23911 0.794814 7.33925 0.797058 7.3431 0.695665C7.31374 0.664369 7.28283 0.640512 7.24765 0.650453ZM10.5869 0.820913C9.92111 0.446445 8.79411 0.164777 8.08586 0.516735C7.51437 0.800776 6.74187 1.27074 6.4785 1.86627C6.72453 2.44096 6.40562 2.96755 6.38526 3.55103C6.37445 3.86149 6.5319 4.13251 6.54397 4.47049C6.45978 4.60895 6.20255 4.62601 6.02449 4.61652C5.96456 4.31754 5.85963 3.98148 5.55077 3.94775C5.11373 3.9001 4.79419 4.26065 4.77433 4.63743C4.75084 5.08052 5.11574 5.8149 5.63295 5.76391C5.83275 5.74422 5.88183 5.54458 6.09952 5.54663C6.2175 5.78129 5.91752 5.85498 5.88665 6.02281C5.87861 6.06617 5.91153 6.2356 5.93068 6.31506C6.02462 6.70197 6.23405 7.20272 6.44017 7.49728C6.70179 7.87091 7.21578 7.92722 7.76875 7.96384C7.86751 7.75175 8.23134 7.7692 8.46841 7.82467C8.1843 7.71251 7.92017 7.44059 7.70127 7.1999C7.44983 6.92374 7.19512 6.62752 7.18226 6.26658C7.65742 6.92368 8.04997 7.49753 8.91399 7.78658C9.56777 8.00514 10.3313 7.6864 10.8337 7.33477C11.0421 7.18861 11.1665 6.95671 11.3147 6.74443C11.8691 5.94951 12.1278 4.81488 12.0709 3.71514C12.0475 3.2616 12.0485 2.80959 11.8959 2.50445C11.7363 2.18539 11.1966 1.89994 10.8808 2.18854C10.8222 1.87826 11.1434 1.68638 11.5208 1.79803C11.2517 1.45191 10.9693 1.03601 10.5869 0.820913ZM11.8274 11.0543C12.3477 10.7965 13.3198 10.3603 13.646 11.0553C13.7664 11.3114 13.9076 11.7444 13.9699 12.0089C14.058 12.3819 13.8745 13.166 13.4898 13.2912C13.15 13.4017 12.7536 13.395 12.3443 13.3131C12.2962 13.2731 12.2425 13.2035 12.205 13.1309C11.9128 13.1196 11.6391 13.1465 11.4083 13.2662C11.4302 13.4817 11.284 13.5162 11.147 13.5606C11.0454 13.9621 11.3502 14.4865 11.2773 14.8526C11.2252 15.1134 10.9033 15.1538 10.6666 15.2026C10.6589 15.3475 10.677 15.4685 10.6931 15.5912C10.639 15.7899 10.3964 15.903 10.1664 15.9307C9.40989 16.0214 8.2612 16.0622 7.53352 15.8013C7.33046 15.3048 7.17049 14.7009 7.00136 14.134C6.29165 14.2096 5.71764 13.8287 5.17651 13.5793C4.98916 13.4927 4.72998 13.445 4.65999 13.2963C4.59213 13.1524 4.6199 12.8766 4.60306 12.616C4.56021 11.9505 4.52352 11.3086 4.34722 10.6272C4.26806 10.3214 4.13008 10.0516 4.03383 9.75697C3.94487 9.4839 3.78943 9.14644 3.74889 8.87413C3.68878 8.47055 4.07002 8.4481 4.3138 8.27321C4.69064 8.00277 4.98644 7.85321 5.39458 7.60912C5.51546 7.53685 5.87999 7.35388 5.92146 7.26961C6.00389 7.10254 5.77997 6.86699 5.72011 6.73603C5.62541 6.52894 5.57602 6.35303 5.56245 6.1487C5.22009 6.09477 4.96055 5.89166 4.80379 5.66265C4.54446 5.28362 4.36461 4.5824 4.58898 4.04901C4.60658 4.00701 4.69434 3.9244 4.70728 3.85989C4.73282 3.73284 4.65923 3.56392 4.65465 3.42879C4.63108 2.73552 4.77232 2.13819 5.24052 1.92912C5.43059 1.17435 6.11087 0.923399 6.7518 0.548289C6.99138 0.408095 7.25549 0.318501 7.52824 0.218455C8.50668 -0.140493 10.0079 -0.072897 10.82 0.53931C11.1643 0.798918 11.7147 1.34706 11.9116 1.74391C12.4315 2.79164 12.3946 4.54264 12.0309 5.81714C11.982 5.98825 11.9111 6.23977 11.8121 6.44532C11.7431 6.58885 11.5285 6.87603 11.5545 7.00275C11.5814 7.13378 12.0438 7.48375 12.1429 7.57905C12.3214 7.75073 12.6606 7.97859 12.6881 8.19523C12.7176 8.42579 12.5862 8.74119 12.5196 8.96366C12.297 9.70612 12.0798 10.3924 11.8274 11.0543Z" fill="#231F20"/>
<path fill-rule="evenodd" clip-rule="evenodd" d="M8.35624 5.9151C8.38445 5.87766 8.53956 5.8208 8.7566 5.92497C8.7566 5.92497 8.49937 5.96773 8.52077 6.39523L8.41359 6.37382C8.41359 6.37382 8.30281 5.98619 8.35624 5.9151Z" fill="#F7E4CD"/>
<path fill-rule="evenodd" clip-rule="evenodd" d="M10.2364 9.59106C10.2364 9.65594 10.1836 9.70854 10.1185 9.70854C10.0534 9.70854 10.0006 9.65594 10.0006 9.59106C10.0006 9.52619 10.0534 9.4735 10.1185 9.4735C10.1836 9.4735 10.2364 9.52619 10.2364 9.59106Z" fill="#1D1919"/>
<path fill-rule="evenodd" clip-rule="evenodd" d="M10.3543 10.1362C10.3543 10.2011 10.3015 10.2537 10.2364 10.2537C10.1713 10.2537 10.1185 10.2011 10.1185 10.1362C10.1185 10.0713 10.1713 10.0186 10.2364 10.0186C10.3015 10.0186 10.3543 10.0713 10.3543 10.1362Z" fill="#1D1919"/>
</g>
<defs>
<clipPath id="clip0_4115_5741">
<rect width="16" height="16" fill="white" transform="translate(0.338623)"/>
</clipPath>
</defs>
</svg>
