<svg width="16" height="16" viewBox="0 0 16 16" fill="none" xmlns="http://www.w3.org/2000/svg">
<path d="M7.89064 9.66939C8.82476 9.66939 9.58202 8.92307 9.58202 8.00244C9.58202 7.0818 8.82476 6.33548 7.89064 6.33548C6.95652 6.33548 6.19927 7.0818 6.19927 8.00244C6.19927 8.92307 6.95652 9.66939 7.89064 9.66939Z" fill="#161616"/>
<path d="M7.89065 1.00244C4.58101 1.00244 1.80046 3.2336 1.01177 6.25244C1.00441 6.27954 1.00045 6.30743 1 6.33549C1 6.51867 1.15117 6.66888 1.33827 6.66888H4.20246C4.26729 6.6691 4.33079 6.65074 4.38523 6.61606C4.43968 6.58137 4.48273 6.53184 4.50914 6.47348C4.50914 6.47348 4.51347 6.46555 4.51533 6.46127C5.10577 5.20586 6.39505 4.33453 7.89189 4.33453C9.94694 4.33453 11.6129 5.97584 11.6129 8.00122C11.6129 10.0266 9.94756 11.6679 7.89251 11.6679C6.39629 11.6679 5.107 10.7966 4.51595 9.54117C4.51409 9.5369 4.50976 9.52896 4.50976 9.52896C4.45524 9.4105 4.33504 9.33357 4.20308 9.33357H1.33889C1.15179 9.33357 1.00062 9.48256 1.00062 9.66696C1.00094 9.69502 1.0049 9.72293 1.01239 9.75C1.80108 12.7688 4.58224 15 7.89127 15C11.8143 14.9994 15 11.8658 15 8C15 4.13425 11.8198 1 7.89746 1L7.89065 1.00244Z" fill="#161616"/>
</svg>
