<svg width="16" height="16" viewBox="0 0 16 16" fill="none" xmlns="http://www.w3.org/2000/svg">
<path d="M0.714669 1C0.40356 1 0.170229 1.28518 0.222078 1.57037L2.32208 14.4296C2.37393 14.7667 2.65912 15 2.99615 15H13.1591C13.3925 15 13.5999 14.8185 13.6517 14.5852L15.7776 1.5963C15.8295 1.28518 15.5962 1.02593 15.2851 1.02593L0.714669 1ZM9.63323 10.2815H6.39245L5.53688 5.69262H10.4369L9.63323 10.2815Z" fill="#2684FF"/>
<path d="M15.0779 5.69263H10.4112L9.6334 10.2815H6.39263L2.58154 14.8186C2.58154 14.8186 2.76302 14.9741 3.02228 14.9741H13.1853C13.4186 14.9741 13.626 14.7926 13.6779 14.5592L15.0779 5.69263Z" fill="url(#paint0_linear_4549_10708)"/>
<defs>
<linearGradient id="paint0_linear_4549_10708" x1="16.1695" y1="6.98572" x2="8.43607" y2="13.0224" gradientUnits="userSpaceOnUse">
<stop offset="0.176" stop-color="#0052CC"/>
<stop offset="1" stop-color="#2684FF"/>
</linearGradient>
</defs>
</svg>
