<svg width="20" height="21" viewBox="0 0 20 21" fill="none" xmlns="http://www.w3.org/2000/svg">
<rect x="1.19019" y="1.97223" width="17.6194" height="17.6194" rx="8.80968" stroke="currentColor" stroke-width="1.5" stroke-linecap="round" stroke-linejoin="round"/>
<path d="M13.1278 13.8081C13.4874 14.0136 13.9455 13.8887 14.1511 13.529C14.3566 13.1694 14.2316 12.7113 13.872 12.5057L13.1278 13.8081ZM10.372 10.5057C10.0124 10.3002 9.55425 10.4252 9.34874 10.7848C9.14323 11.1445 9.26818 11.6026 9.62781 11.8081L10.372 10.5057ZM13.872 12.5057L10.372 10.5057L9.62781 11.8081L13.1278 13.8081L13.872 12.5057Z" fill="currentColor"/>
<path d="M10.7499 5.65692C10.7499 5.24271 10.4141 4.90692 9.99985 4.90692C9.58564 4.90692 9.24985 5.24271 9.24985 5.65692L10.7499 5.65692ZM9.24985 11.157C9.24985 11.5712 9.58564 11.907 9.99985 11.907C10.4141 11.907 10.7499 11.5712 10.7499 11.157L9.24985 11.157ZM9.24985 5.65692L9.24985 11.157L10.7499 11.157L10.7499 5.65692L9.24985 5.65692Z" fill="currentColor"/>
</svg>
