<svg width="20" height="21" viewBox="0 0 20 21" fill="none" xmlns="http://www.w3.org/2000/svg">
<rect x="4.61005" y="5.39209" width="10.7799" height="10.7799" rx="5.38995" stroke="currentColor" stroke-width="1.5" stroke-linecap="round" stroke-linejoin="round"/>
<path d="M11.7692 12.8862C12.1289 13.0917 12.587 12.9667 12.7925 12.6071C12.998 12.2475 12.8731 11.7893 12.5135 11.5838L11.7692 12.8862ZM10.3721 10.3602C10.0125 10.1547 9.55434 10.2796 9.34883 10.6392C9.14332 10.9989 9.26826 11.457 9.6279 11.6625L10.3721 10.3602ZM12.5135 11.5838L10.3721 10.3602L9.6279 11.6625L11.7692 12.8862L12.5135 11.5838Z" fill="currentColor"/>
<path d="M10.75 7.64648C10.75 7.23227 10.4142 6.89648 9.99998 6.89648C9.58577 6.89648 9.24998 7.23227 9.24998 7.64648L10.75 7.64648ZM9.24999 11.0115C9.24999 11.4258 9.58577 11.7615 9.99999 11.7615C10.4142 11.7615 10.75 11.4258 10.75 11.0115L9.24999 11.0115ZM9.24998 7.64648L9.24999 11.0115L10.75 11.0115L10.75 7.64648L9.24998 7.64648Z" fill="currentColor"/>
</svg>
