<svg width="80" height="32" viewBox="0 0 80 32" fill="none"
	xmlns="http://www.w3.org/2000/svg">
	<path d="M0.569348 20.2393C0.192077 18.8653 0 17.4383 0 16.0009C0 9.43955 4.12084 3.44008 10.2549 1.07422L11.0592 3.1557C5.77911 5.19264 2.23276 10.3544 2.23276 16.0009C2.23276 17.2395 2.39739 18.4662 2.7215 19.6482L0.569348 20.2393Z" fill="#69D3A7"/>
	<path d="M28.3005 9.66218C25.9134 5.0795 21.2147 2.23224 16.0409 2.23224C14.2077 2.23224 12.426 2.58515 10.7488 3.27897L9.89313 1.21805C11.8429 0.411154 13.9111 0 16.0409 0C22.0516 0 27.5083 3.30639 30.2812 8.63087L28.3005 9.66218Z" fill="url(#paint0_linear_454_1823)"/>
	<path d="M11.2513 12.6997C12.546 12.6997 13.6007 13.3901 14.1426 14.5944L14.1854 14.6886L16.3599 13.9503L16.3136 13.8389C15.4716 11.7883 13.5321 10.5137 11.2513 10.5137C9.6479 10.5137 8.34458 11.0276 7.26765 12.0829C6.19757 13.1314 5.65569 14.4505 5.65569 16.0043C5.65569 17.5445 6.19757 18.8567 7.26765 19.9052C8.34458 20.9605 9.6479 21.4744 11.2513 21.4744C13.5321 21.4744 15.4716 20.1998 16.3136 18.1509L16.3599 18.0396L14.182 17.2995L14.1409 17.3971C13.6555 18.5809 12.5752 19.2884 11.2513 19.2884C10.3493 19.2884 9.58787 18.9732 8.98423 18.3531C8.37374 17.7243 8.06506 16.9346 8.06506 16.006C8.06506 15.0707 8.36688 14.2963 8.98423 13.6385C9.58615 13.0149 10.3493 12.6997 11.2513 12.6997Z" fill="#1B1E2E"/>
	<path d="M38.0461 12.0846C37.0429 11.043 35.7911 10.5137 34.3231 10.5137C32.8655 10.5137 31.6651 11.0328 30.7528 12.0555V10.7158H28.4034V25.3136H30.7528V19.9326C31.6651 20.9553 32.8638 21.4744 34.3231 21.4744C35.7911 21.4744 37.0446 20.9451 38.0478 19.9018C39.0356 18.8533 39.5346 17.5427 39.5346 16.0043C39.5329 14.4505 39.0339 13.1331 38.0461 12.0846ZM36.2043 18.3496C35.6024 18.9715 34.8393 19.285 33.939 19.285C33.025 19.285 32.2842 18.9784 31.6719 18.3496C31.0615 17.7209 30.7528 16.9311 30.7528 16.0026C30.7528 15.0467 31.0529 14.2723 31.6719 13.635C32.2824 13.0046 33.0233 12.6997 33.939 12.6997C34.841 12.6997 35.6024 13.0149 36.2043 13.635C36.8097 14.2586 37.1029 15.033 37.1029 16.0026C37.1029 16.9586 36.808 17.726 36.2043 18.3496Z" fill="#1B1E2E"/>
	<path d="M43.3587 11.9732V10.7157H41.0093V21.2704H43.3587V15.3155C43.3587 14.3613 43.7428 13.6315 44.5008 13.1467C45.2536 12.6653 46.1574 12.5762 47.2635 12.8777L47.4058 12.9171V10.6592L47.3183 10.6386C45.8333 10.284 44.3431 10.7945 43.3587 11.9732Z" fill="#1B1E2E"/>
	<path d="M53.5005 10.5137C51.9519 10.5137 50.6383 11.0413 49.5957 12.0829C48.5393 13.1382 48.0043 14.4573 48.0043 16.0043C48.0043 17.5445 48.5462 18.8567 49.6163 19.9052C50.6932 20.9605 51.9965 21.4744 53.5999 21.4744C55.7727 21.4744 57.6402 20.3712 58.5971 18.5227L58.6519 18.4164L56.6644 17.5359L56.6164 17.6301C56.0402 18.7437 54.9341 19.4084 53.6617 19.4084C52.0085 19.4084 50.7429 18.3993 50.4 16.8249H58.9229L58.9332 16.7239C59.1184 15.021 58.6794 13.5442 57.6316 12.333C56.5889 11.1253 55.1982 10.5137 53.5005 10.5137ZM50.4703 14.9405C50.887 13.4997 52.0634 12.578 53.5005 12.578C54.977 12.578 56.1534 13.4997 56.5341 14.9405H50.4703Z" fill="#1B1E2E"/>
	<path d="M65.2097 14.997C63.9287 14.7572 62.8226 14.5482 62.8226 13.6573C62.8226 12.9498 63.5754 12.4564 64.6524 12.4564C65.8408 12.4564 66.4924 12.9669 66.6451 14.0171L66.6622 14.1353L69.0116 13.6436L68.9944 13.5374C68.6789 11.6718 67.0155 10.512 64.6541 10.512C63.4691 10.512 62.4659 10.8186 61.6737 11.4234C60.8642 12.0247 60.4544 12.8093 60.4544 13.7584C60.4544 15.1323 61.3255 16.1637 62.7883 16.5166C63.1673 16.6057 63.5686 16.6776 63.9562 16.7496C65.4121 17.0151 66.7874 17.2669 66.7874 18.2468C66.7874 19.0023 65.9094 19.5283 64.6541 19.5283C63.3765 19.5283 62.6717 19.0178 62.4985 17.9659L62.4797 17.8494L60.132 18.3411L60.1508 18.449C60.4921 20.342 62.1744 21.4727 64.6524 21.4727C65.9111 21.4727 66.9898 21.1592 67.8541 20.5425C68.7183 19.9326 69.1556 19.1463 69.1556 18.2057C69.1556 15.7388 66.9692 15.3276 65.2097 14.997Z" fill="#1B1E2E"/>
	<path d="M75.3874 14.997C74.1064 14.7572 73.0003 14.5482 73.0003 13.6573C73.0003 12.9498 73.7532 12.4564 74.8301 12.4564C76.0185 12.4564 76.6702 12.9669 76.8228 14.0171L76.8399 14.1353L79.1893 13.6436L79.1722 13.5374C78.8566 11.6718 77.1932 10.512 74.8318 10.512C73.6468 10.512 72.6436 10.8186 71.8514 11.4234C71.0419 12.0247 70.6321 12.8093 70.6321 13.7584C70.6321 15.1323 71.5032 16.1637 72.966 16.5166C73.345 16.6057 73.7463 16.6776 74.1339 16.7496C75.5898 17.0151 76.9651 17.2669 76.9651 18.2468C76.9651 19.0023 76.0871 19.5283 74.8318 19.5283C73.5542 19.5283 72.8494 19.0178 72.6762 17.9659L72.6574 17.8494L70.3097 18.3411L70.3286 18.449C70.6698 20.342 72.3521 21.4727 74.8301 21.4727C76.0888 21.4727 77.1675 21.1592 78.0318 20.5425C78.8961 19.9326 79.3333 19.1463 79.3333 18.2057C79.3333 15.7388 77.1469 15.3276 75.3874 14.997Z" fill="#1B1E2E"/>
	<path d="M24.8708 10.7158L21.772 18.5569L18.6526 10.7158H16.1009L20.4755 21.4179L17.363 28.966L19.5941 29.4097L27.2819 10.7158H24.8708Z" fill="#1B1E2E"/>
	<path d="M17.7623 27.993L17.2186 29.3087C17.1106 29.5691 16.8637 29.7455 16.5859 29.7575C16.4024 29.7644 16.2172 29.7695 16.0302 29.7695C9.63206 29.7661 3.97127 25.2554 2.56851 19.04L0.390614 19.5317C1.17774 23.018 3.15328 26.1822 5.95366 28.4435C8.78663 30.7306 12.3553 31.9932 16.0062 32C16.0114 32 16.0388 32 16.0388 32C16.2532 32 16.4658 31.9949 16.6784 31.9863C17.824 31.9384 18.8478 31.2206 19.2851 30.1567L19.995 28.4367L17.7623 27.993Z" fill="url(#paint1_linear_454_1823)"/>
	<defs>
		<linearGradient id="paint0_linear_454_1823" x1="14.3718" y1="-1.03295" x2="26.5484" y2="11.9815" gradientUnits="userSpaceOnUse">
			<stop offset="0.0939" stop-color="#58D09E"/>
			<stop offset="0.9883" stop-color="#58D09E" stop-opacity="0"/>
		</linearGradient>
		<linearGradient id="paint1_linear_454_1823" x1="-0.170955" y1="23.281" x2="23.092" y2="29.4728" gradientUnits="userSpaceOnUse">
			<stop offset="0.0774" stop-color="#58D09E"/>
			<stop offset="0.7617" stop-color="#1B1E2E"/>
		</linearGradient>
	</defs>
</svg>
