<svg width="48" height="48" viewBox="0 0 48 48" fill="none" xmlns="http://www.w3.org/2000/svg">
<rect width="48" height="48" fill="white" />
<path d="M16.877 19.0495C18.819 19.0495 20.401 20.0851 21.2139 21.8916L21.2782 22.0329L24.5398 20.9254L24.4704 20.7584C23.2074 17.6824 20.2981 15.7705 16.877 15.7705C14.4719 15.7705 12.5169 16.5414 10.9015 18.1244C9.29635 19.6971 8.48353 21.6757 8.48353 24.0065C8.48353 26.3167 9.29635 28.2851 10.9015 29.8578C12.5169 31.4407 14.4719 32.2116 16.877 32.2116C20.2981 32.2116 23.2074 30.2998 24.4704 27.2264L24.5398 27.0593L21.273 25.9492L21.2113 26.0957C20.4833 27.8714 18.8628 28.9327 16.877 28.9327C15.5239 28.9327 14.3818 28.4598 13.4763 27.5296C12.5606 26.5865 12.0976 25.4018 12.0976 24.0091C12.0976 22.606 12.5503 21.4445 13.4763 20.4577C14.3792 19.5223 15.5239 19.0495 16.877 19.0495Z" fill="#1B1E2E"/>
<path d="M37.3061 16.0737L32.658 27.8354L27.979 16.0737H24.1514L30.7133 32.1268L26.0446 43.4491L25.828 43.963C25.6788 44.3224 25.3533 44.5752 24.9776 44.6273C24.6537 44.6424 24.3277 44.65 24 44.65C23.9323 44.65 23.8647 44.6497 23.7972 44.6491C12.4859 44.5402 3.35 35.3371 3.35 24.0001C3.35 12.5954 12.5953 3.35006 24 3.35006C35.4047 3.35006 44.65 12.5954 44.65 24.0001C44.65 32.572 39.4271 39.924 31.99 43.0475L30.7772 45.9959C30.5987 46.4301 30.3755 46.8378 30.1141 47.2143C40.4075 44.5106 48 35.142 48 24.0001C48 10.7452 37.2548 6.10352e-05 24 6.10352e-05C10.7452 6.10352e-05 0 10.7452 0 24.0001C0 37.1872 10.6357 47.8903 23.7972 47.9992C23.8247 47.9994 25.0196 47.9794 25.0177 47.9795C26.736 47.9075 28.2717 46.8308 28.9276 45.235L29.4694 43.918L40.9228 16.0737H37.3061Z" fill="#1B1E2E"/>
</svg>
