<svg width="160" height="160" viewBox="0 0 160 160" fill="none" xmlns="http://www.w3.org/2000/svg">
<path d="M71.401 47.3784H5.33334V127.263H71.401V47.3784Z" fill="#D0D2E0"/>
<path d="M58.3302 59.353H18.3878V64.7369H58.3302V59.353Z" fill="#9095AD"/>
<path d="M58.3302 71.2483H18.3878V76.6322H58.3302V71.2483Z" fill="#9095AD"/>
<path d="M58.3302 82.7786H18.3878V88.1624H58.3302V82.7786Z" fill="#9095AD"/>
<path d="M113.392 22.6665H49.0239V95.9762H113.392V22.6665Z" fill="#6470F3"/>
<path d="M128.689 106.013L123.186 111.516L129.902 118.231L135.404 112.728L128.689 106.013Z" fill="#6470F3"/>
<path d="M127.31 120.788L137.956 110.142L152.948 125.134C153.404 125.59 153.66 126.208 153.66 126.852C153.66 127.497 153.404 128.115 152.948 128.57L145.75 135.769C145.294 136.225 144.676 136.481 144.032 136.481C143.387 136.481 142.769 136.225 142.314 135.769L127.322 120.777L127.31 120.788Z" fill="#D0D2E0"/>
<circle cx="106.667" cy="89.3335" r="20" fill="#9095AD"/>
<path d="M125.955 70.3751C129.753 74.1729 132.34 79.012 133.389 84.2802C134.437 89.5485 133.9 95.0094 131.845 99.9722C129.789 104.935 126.309 109.177 121.842 112.161C117.376 115.146 112.125 116.739 106.754 116.739C101.382 116.739 96.1312 115.146 91.665 112.161C87.1988 109.177 83.7178 104.935 81.6625 99.9722C79.6072 95.0094 79.0699 89.5485 80.1183 84.2802C81.1667 79.012 83.754 74.1729 87.5527 70.3751C92.6456 65.2836 99.5521 62.4233 106.754 62.4233C113.955 62.4233 120.862 65.2836 125.955 70.3751ZM94.5247 77.3631C92.1058 79.7818 90.4584 82.8635 89.7909 86.2185C89.1235 89.5735 89.4658 93.0509 90.7748 96.2113C92.0838 99.3717 94.3005 102.073 97.1447 103.974C99.9889 105.874 103.333 106.888 106.754 106.888C110.174 106.888 113.518 105.874 116.362 103.974C119.207 102.073 121.423 99.3717 122.732 96.2113C124.041 93.0509 124.384 89.5735 123.716 86.2185C123.049 82.8635 121.401 79.7818 118.983 77.3631C117.378 75.7554 115.471 74.48 113.373 73.6097C111.275 72.7395 109.025 72.2915 106.754 72.2915C104.482 72.2915 102.233 72.7395 100.134 73.6097C98.0358 74.48 96.1296 75.7554 94.5247 77.3631Z" fill="#D0D2E0"/>
<path d="M69.7494 34.5145C70.4045 35.1168 70.9191 35.8558 71.2567 36.6792C71.5943 37.5026 71.7466 38.3902 71.7028 39.279C71.758 40.1443 71.6117 41.0104 71.2755 41.8096C70.9393 42.6088 70.4224 43.3191 69.7653 43.8847C68.2874 44.9972 66.4675 45.5589 64.6196 45.4728L64.4926 47.8392H60.7127L60.5539 42.6141H61.8086C63.2156 42.6829 64.6205 42.4388 65.922 41.8995C66.3961 41.6644 66.7878 41.2913 67.0458 40.8292C67.3038 40.3671 67.4158 39.8377 67.3671 39.3107C67.3896 38.9193 67.3323 38.5274 67.1985 38.1588C67.0647 37.7902 66.8573 37.4527 66.589 37.1667C66.3074 36.8903 65.9713 36.6755 65.6022 36.5361C65.233 36.3966 64.8389 36.3356 64.4449 36.3568C64.0459 36.3314 63.646 36.3873 63.2693 36.5211C62.8925 36.6548 62.5469 36.8637 62.2533 37.135C61.983 37.4136 61.7729 37.7451 61.6363 38.1085C61.4997 38.4719 61.4394 38.8595 61.4592 39.2472H57.3934C57.359 38.0779 57.6387 36.9208 58.2034 35.8962C58.7704 34.9016 59.6223 34.0996 60.6492 33.5934C61.8282 33.0112 63.1303 32.7224 64.4449 32.7516C66.3746 32.63 68.2763 33.2621 69.7494 34.5145ZM60.6651 54.4936C60.4195 54.2619 60.2259 53.9807 60.0972 53.6686C59.9685 53.3565 59.9077 53.0206 59.9186 52.6832C59.9079 52.3481 59.9689 52.0145 60.0977 51.705C60.2264 51.3955 60.4199 51.1171 60.6651 50.8885C61.1843 50.4011 61.8749 50.1385 62.5867 50.1579C62.9321 50.1485 63.2758 50.2083 63.5977 50.3338C63.9195 50.4592 64.2129 50.6479 64.4608 50.8885C64.7028 51.1196 64.8941 51.3984 65.0226 51.7073C65.1511 52.0163 65.214 52.3486 65.2073 52.6832C65.2143 53.0201 65.1516 53.3548 65.0232 53.6664C64.8947 53.9779 64.7032 54.2595 64.4608 54.4936C64.2122 54.7321 63.9182 54.9183 63.5963 55.0411C63.2744 55.1638 62.9311 55.2207 62.5867 55.2083C62.2221 55.2316 61.8566 55.1804 61.5125 55.0575C61.1684 54.9346 60.853 54.7427 60.5856 54.4936H60.6651Z" fill="#D0D2E0"/>
</svg>
