<svg width="16" height="16" viewBox="0 0 16 16" fill="none" xmlns="http://www.w3.org/2000/svg">
<path d="M8 0C3.58172 0 0 3.58172 0 8C0 12.4183 3.58172 16 8 16C12.4183 16 16 12.4183 16 8C16 3.58172 12.4183 0 8 0Z" fill="#E1E3ED"/>
<path d="M4.99997 7C4.99997 5.34315 6.34312 4 7.99997 4C9.65683 4 11 5.34315 11 7C11 7.95561 10.5532 8.80686 9.85708 9.35625C11.3991 9.97347 12.562 11.3365 12.8998 12.9992C11.6372 14.2369 9.9077 15 7.99997 15C6.09225 15 4.36277 14.2369 3.10016 12.9992C3.43796 11.3365 4.60088 9.97347 6.14287 9.35625C5.44677 8.80686 4.99997 7.95561 4.99997 7Z" fill="#D0D2E0"/>
<path d="M6.14287 9.35625C6.65368 9.7594 7.29873 10 7.99997 10C8.70122 10 9.34627 9.7594 9.85708 9.35625M6.14287 9.35625C5.44677 8.80686 4.99997 7.95561 4.99997 7C4.99997 5.34315 6.34312 4 7.99997 4C9.65683 4 11 5.34315 11 7C11 7.95561 10.5532 8.80686 9.85708 9.35625M6.14287 9.35625C4.60088 9.97347 3.43796 11.3365 3.10016 12.9992C4.36277 14.2369 6.09225 15 7.99997 15C9.9077 15 11.6372 14.2369 12.8998 12.9992C12.562 11.3365 11.3991 9.97347 9.85708 9.35625" stroke="#9095AD" stroke-width="2"/>
</svg>
