<svg width="24" height="24" viewBox="0 0 24 24" fill="none" xmlns="http://www.w3.org/2000/svg">
<path d="M11 4C11 3.44772 10.5523 3 10 3H6C4.34315 3 3 4.34315 3 6V18C3 19.6569 4.34315 21 6 21H10.0261C10.564 21 11 20.564 11 20.0261C10.9993 19.387 10.6933 18.7861 10.1763 18.4102L7.14731 16.2073C6.11234 15.4546 5.5 14.2521 5.5 12.9723V12.5C5.5 11.9477 5.94772 11.5 6.5 11.5C7.05228 11.5 7.5 11.9477 7.5 12.5V12.9723C7.5 13.6122 7.80617 14.2134 8.32366 14.5898L11 16.5362L11 12.9984C10.9993 12.3696 10.703 11.7773 10.2 11.4L8.6 10.2C7.59278 9.44458 7 8.25903 7 7V6.5C7 5.94772 7.44772 5.5 8 5.5C8.55228 5.5 9 5.94772 9 6.5V7C9 7.62952 9.29639 8.22229 9.8 8.6L11 9.5L11 4Z" fill="#2E3247"/>
<path d="M13 20C13 20.5523 13.4477 21 14 21H18C19.6569 21 21 19.6569 21 18V6C21 4.34315 19.6569 3 18 3H14C13.4477 3 13 3.44772 13 4V12.9554L14.7279 11.6115C15.2151 11.2325 15.5 10.6499 15.5 10.0328V9.5C15.5 8.94772 15.9477 8.5 16.5 8.5C17.0523 8.5 17.5 8.94772 17.5 9.5V10.0328C17.5 11.2671 16.9301 12.4323 15.9558 13.1902L13.7721 14.8885C13.2853 15.2672 13.0004 15.8493 13 16.4661V20Z" fill="#2E3247"/>
<path d="M16.5 10.0328L17.5 10.0328V10.0328H16.5ZM17.5 9.5C17.5 8.94772 17.0523 8.5 16.5 8.5C15.9477 8.5 15.5 8.94772 15.5 9.5H17.5ZM10.8 10.6L11.4 9.8L11.4 9.8L10.8 10.6ZM9.2 9.4L8.6 10.2V10.2L9.2 9.4ZM9 6.5C9 5.94772 8.55228 5.5 8 5.5C7.44772 5.5 7 5.94772 7 6.5H9ZM10.7645 17.6015L10.1763 18.4102L10.7645 17.6015ZM7.73548 15.3985L7.14731 16.2073H7.14731L7.73548 15.3985ZM7.5 12.5C7.5 11.9477 7.05228 11.5 6.5 11.5C5.94772 11.5 5.5 11.9477 5.5 12.5H7.5ZM15.3418 12.4008L14.7279 11.6115L15.3418 12.4008ZM13.1582 14.0992L13.7721 14.8885L13.1582 14.0992ZM6 3V4V3ZM18 3V2V3ZM20 6V18H22V6H20ZM4 18V6H2V18H4ZM17.5 10.0328V9.5H15.5V10.0328H17.5ZM11.4 9.8L9.8 8.6L8.6 10.2L10.2 11.4L11.4 9.8ZM9 7V6.5H7V7H9ZM11.3527 16.7927L8.32366 14.5898L7.14731 16.2073L10.1763 18.4102L11.3527 16.7927ZM7.5 12.9723V12.5H5.5V12.9723H7.5ZM14.7279 11.6115L12.5442 13.3098L13.7721 14.8885L15.9558 13.1902L14.7279 11.6115ZM13 12.9975L13 3L11 3L11 12.9975H13ZM12.5442 13.3098C11.5703 14.0673 11.0005 15.2319 11 16.4657L13 16.4664C13.0002 15.8496 13.2852 15.2673 13.7721 14.8885L12.5442 13.3098ZM8.32366 14.5898C7.80617 14.2134 7.5 13.6122 7.5 12.9723H5.5C5.5 14.2521 6.11234 15.4546 7.14731 16.2073L8.32366 14.5898ZM9.8 8.6C9.29639 8.22229 9 7.62952 9 7H7C7 8.25903 7.59278 9.44458 8.6 10.2L9.8 8.6ZM10.1763 18.4102C10.6934 18.7863 10.9995 19.3868 11 20.0261L13 20.0246C12.999 18.746 12.3868 17.5448 11.3527 16.7927L10.1763 18.4102ZM15.5 10.0327C15.5 10.6499 15.2151 11.2325 14.7279 11.6115L15.9558 13.1902C16.9301 12.4323 17.5 11.2671 17.5 10.0328L15.5 10.0327ZM10.2 11.4C10.7032 11.7774 10.9995 12.3695 11 12.9984L13 12.9967C12.999 11.7389 12.4063 10.5548 11.4 9.8L10.2 11.4ZM11 16.4661V20.0253H13V16.4661H11ZM13 21V20.0253H11V21H13ZM13 16.4661V12.9975H11V16.4661H13ZM6 4L12 4V2L6 2V4ZM12 4L18 4V2L12 2V4ZM18 20H12V22H18V20ZM12 20H6V22H12V20ZM4 6C4 4.89543 4.89543 4 6 4V2C3.79086 2 2 3.79086 2 6H4ZM2 18C2 20.2091 3.79086 22 6 22V20C4.89543 20 4 19.1046 4 18H2ZM20 18C20 19.1046 19.1046 20 18 20V22C20.2091 22 22 20.2091 22 18H20ZM22 6C22 3.79086 20.2091 2 18 2V4C19.1046 4 20 4.89543 20 6H22Z" fill="#747994"/>
</svg>
