<svg width="24" height="24" viewBox="0 0 24 24" fill="none" xmlns="http://www.w3.org/2000/svg">
<rect x="2" y="9" width="20" height="6" rx="2" fill="#D0D2E0"/>
<path fill-rule="evenodd" clip-rule="evenodd" d="M1 17C1 15.3431 2.34315 14 4 14H20C21.6569 14 23 15.3431 23 17V19C23 20.6569 21.6569 22 20 22H4C2.34315 22 1 20.6569 1 19V17ZM4 16C3.44772 16 3 16.4477 3 17V19C3 19.5523 3.44772 20 4 20H20C20.5523 20 21 19.5523 21 19V17C21 16.4477 20.5523 16 20 16H4ZM7 18C7 17.4477 7.44772 17 8 17H12C12.5523 17 13 17.4477 13 18C13 18.5523 12.5523 19 12 19H8C7.44772 19 7 18.5523 7 18ZM5 19C5.55228 19 6 18.5523 6 18C6 17.4477 5.55228 17 5 17C4.44772 17 4 17.4477 4 18C4 18.5523 4.44772 19 5 19Z" fill="#1B1E2E"/>
<path fill-rule="evenodd" clip-rule="evenodd" d="M1 11C1 9.34315 2.34315 8 4 8H20C21.6569 8 23 9.34315 23 11V13C23 14.6569 21.6569 16 20 16H4C2.34315 16 1 14.6569 1 13V11ZM4 10C3.44772 10 3 10.4477 3 11V13C3 13.5523 3.44772 14 4 14H20C20.5523 14 21 13.5523 21 13V11C21 10.4477 20.5523 10 20 10H4ZM7 12C7 11.4477 7.44772 11 8 11H19C19.5523 11 20 11.4477 20 12C20 12.5523 19.5523 13 19 13H8C7.44772 13 7 12.5523 7 12ZM5 13C5.55228 13 6 12.5523 6 12C6 11.4477 5.55228 11 5 11C4.44772 11 4 11.4477 4 12C4 12.5523 4.44772 13 5 13Z" fill="#1B1E2E"/>
<path fill-rule="evenodd" clip-rule="evenodd" d="M1 5C1 3.34315 2.34315 2 4 2H20C21.6569 2 23 3.34315 23 5V7C23 8.65685 21.6569 10 20 10H4C2.34315 10 1 8.65685 1 7V5ZM4 4C3.44772 4 3 4.44772 3 5V7C3 7.55228 3.44772 8 4 8H20C20.5523 8 21 7.55228 21 7V5C21 4.44772 20.5523 4 20 4H4ZM7 6C7 5.44772 7.44772 5 8 5H15C15.5523 5 16 5.44772 16 6C16 6.55228 15.5523 7 15 7H8C7.44772 7 7 6.55228 7 6ZM5 7C5.55228 7 6 6.55228 6 6C6 5.44772 5.55228 5 5 5C4.44772 5 4 5.44772 4 6C4 6.55228 4.44772 7 5 7Z" fill="#1B1E2E"/>
</svg>
