<svg width="24" height="24" viewBox="0 0 24 24" fill="none" xmlns="http://www.w3.org/2000/svg">
<path fill-rule="evenodd" clip-rule="evenodd" d="M9.99979 3.5C9.99979 3.22386 10.2237 3 10.4998 3H13.4998C13.7759 3 13.9998 3.22386 13.9998 3.5V4.91701C13.9998 5.13822 14.1458 5.3314 14.3542 5.40579C15.1581 5.69285 15.8942 6.12277 16.5318 6.66497C16.7003 6.80823 16.9406 6.83804 17.1321 6.72747L18.361 6.01795C18.6002 5.87988 18.906 5.96182 19.044 6.20096L20.544 8.79904C20.6821 9.03819 20.6002 9.34398 20.361 9.48205L19.1332 10.1909C18.9418 10.3014 18.8475 10.5241 18.887 10.7415C18.9611 11.1498 18.9998 11.5704 18.9998 12C18.9998 12.4296 18.9611 12.8502 18.887 13.2585C18.8475 13.4759 18.9418 13.6986 19.1332 13.8091L20.361 14.5179C20.6002 14.656 20.6821 14.9618 20.544 15.201L19.044 17.799C18.906 18.0382 18.6002 18.1201 18.361 17.982L17.1321 17.2725C16.9406 17.162 16.7003 17.1918 16.5318 17.335C15.8942 17.8772 15.1581 18.3071 14.3542 18.5942C14.1458 18.6686 13.9998 18.8618 13.9998 19.083V20.5C13.9998 20.7761 13.7759 21 13.4998 21H10.4998C10.2237 21 9.99979 20.7761 9.99979 20.5V19.083C9.99979 18.8618 9.85375 18.6686 9.64542 18.5942C8.84147 18.3071 8.10539 17.8772 7.46775 17.335C7.29927 17.1918 7.05902 17.162 6.8675 17.2725L5.63858 17.9821C5.39943 18.1201 5.09364 18.0382 4.95557 17.799L3.45557 15.201C3.3175 14.9618 3.39943 14.656 3.63858 14.5179L4.86639 13.8091C5.05777 13.6986 5.15208 13.4759 5.11261 13.2585C5.0385 12.8502 4.9998 12.4296 4.9998 12C4.9998 11.5704 5.0385 11.1498 5.11261 10.7415C5.15208 10.5241 5.05776 10.3014 4.86639 10.1909L3.63858 9.48205C3.39943 9.34398 3.3175 9.03818 3.45557 8.79904L4.95557 6.20096C5.09364 5.96182 5.39943 5.87988 5.63858 6.01795L6.8675 6.72747C7.05902 6.83804 7.29927 6.80823 7.46775 6.66497C8.10539 6.12277 8.84147 5.69285 9.64543 5.40579C9.85375 5.3314 9.99979 5.13822 9.99979 4.91701V3.5ZM11.9998 15C13.6566 15 14.9998 13.6569 14.9998 12C14.9998 10.3431 13.6566 9 11.9998 9C10.3429 9 8.99979 10.3431 8.99979 12C8.99979 13.6569 10.3429 15 11.9998 15Z" fill="#2E3247" stroke="#747994" stroke-width="2"/>
</svg>
