<svg viewBox="0 0 48 48" xmlns="http://www.w3.org/2000/svg">
  <path
    d="M16.7571,19.0494c1.942,0,3.524,1.036,4.337,2.842l0.064,0.142l3.262,-1.108l-0.07,-0.167c-1.263,-3.076,-4.172,-4.988,-7.593,-4.988c-2.405,0,-4.36,0.771,-5.976,2.354c-1.605,1.573,-2.417,3.551,-2.417,5.882c0,2.31,0.812,4.279,2.417,5.851c1.616,1.583,3.571,2.354,5.976,2.354c3.421,0,6.33,-1.912,7.593,-4.985l0.07,-0.167l-3.267,-1.11l-0.062,0.146c-0.728,1.776,-2.348,2.837,-4.334,2.837c-1.353,0,-2.495,-0.473,-3.401,-1.403c-0.915,-0.943,-1.378,-2.128,-1.378,-3.52c0,-1.403,0.452,-2.565,1.378,-3.552c0.903,-0.935,2.048,-1.408,3.401,-1.408z"
    stroke="none"
    fill="currentColor" />
  <path
    d="M37.1863,16.0737l-4.648,11.762l-4.679,-11.762h-3.828l6.562,16.053l-4.669,11.322l-0.216,0.514c-0.149,0.36,-0.475,0.612,-0.851,0.665c-0.324,0.015,-0.65,0.022,-0.977,0.022c-0.068,0,-0.136,0,-0.203,-0.001c-11.311,-0.109,-20.447,-9.312,-20.447,-20.649c0,-11.404,9.245,-20.65,20.65,-20.65c11.404,0,20.65,9.246,20.65,20.65c0,8.572,-5.223,15.924,-12.66,19.048l-1.213,2.948c-0.178,0.434,-0.402,0.842,-0.663,1.218c10.293,-2.703,17.886,-12.072,17.886,-23.214c0,-13.255,-10.745,-24,-24,-24c-13.255,0,-24,10.745,-24,24c0,13.187,10.636,23.89,23.797,23.999c0.027,0.001,1.222,-0.019,1.221,-0.019c1.718,-0.072,3.254,-1.149,3.909,-2.745l0.542,-1.317l11.454,-27.844h-3.617z"
    stroke="none"
    fill="currentColor" />
  <path
    d="M24.6648,47.9833c0.031,-0.001,0.061,-0.001,0.087,-0.001l0.011,-0.001c0.083,-0.001,0.135,-0.002,0.135,-0.002c0.078,-0.003,0.155,-0.008,0.232,-0.016l-0.465,0.02zm0,0c-0.008,-0.155,0.042,-0.331,0.212,-0.503l-0.212,0.503zm-7.908,-31.713c3.104,0,5.741,1.663,6.99,4.356l-2.326,0.79c-0.926,-1.816,-2.62,-2.867,-4.664,-2.867c-1.482,0,-2.758,0.523,-3.76,1.561l0,0l-0.005,0.005c-1.016,1.083,-1.514,2.368,-1.514,3.894c0,1.514,0.508,2.826,1.52,3.869l0,0c1.004,1.031,2.277,1.554,3.759,1.554c2.073,0,3.81,-1.062,4.671,-2.862l2.319,0.788c-1.249,2.69,-3.886,4.353,-6.99,4.353c-2.283,0,-4.109,-0.725,-5.625,-2.211l0,0c-1.506,-1.475,-2.268,-3.314,-2.268,-5.494c0,-2.202,0.763,-4.05,2.268,-5.525l0,0c1.516,-1.485,3.342,-2.211,5.625,-2.211zm23.3,0.303l-11.17,27.154l-0.542,1.317l0,0c-0.581,1.414,-1.942,2.369,-3.462,2.435l-0.007,0l-0.037,0.001l-0.136,0.002l-0.413,0.007l-0.418,0.007c-0.08,0.001,-0.137,0.002,-0.167,0.002c-0.016,0.001,-0.024,0.001,-0.024,0.001l-0.004,0.5l0.004,-0.5c-12.887,-0.107,-23.301,-10.587,-23.301,-23.499c0,-12.979,10.521,-23.5,23.5,-23.5c12.979,0,23.5,10.521,23.5,23.5c0,10.484,-6.867,19.366,-16.349,22.392c0.031,-0.068,0.06,-0.137,0.089,-0.206c0,0,0,0,0,-0.001l1.135,-2.758c7.514,-3.244,12.775,-10.721,12.775,-19.427c0,-11.681,-9.469,-21.15,-21.15,-21.15c-11.681,0,-21.15,9.469,-21.15,21.15c0,11.611,9.357,21.037,20.942,21.149c0.07,0,0.139,0.001,0.208,0.001c0.336,0,0.669,-0.008,1.001,-0.024l0.023,-0.001l0.022,-0.003c0.555,-0.077,1.027,-0.447,1.243,-0.966c0,-0.001,0.001,-0.001,0.001,-0.002l0.215,-0.511l0.002,-0.004l4.669,-11.322l0.078,-0.19l-0.078,-0.19l-6.28,-15.364h2.744l4.553,11.447l0.467,1.171l0.463,-1.172l4.523,-11.446h2.531z"
    fill="none"
  />
</svg>
  