<svg viewBox="0 0 48 48" fill="none" xmlns="http://www.w3.org/2000/svg">
  <path
    d="M17.7571 19.0494C19.6992 19.0494 21.2811 20.085 22.094 21.8915L22.1583 22.0329L25.42 20.9253L25.3505 20.7583C24.0875 17.6823 21.1783 15.7704 17.7571 15.7704C15.352 15.7704 13.397 16.5414 11.7816 18.1243C10.1765 19.697 9.36366 21.6757 9.36366 24.0064C9.36366 26.3166 10.1765 28.285 11.7816 29.8577C13.397 31.4407 15.352 32.2116 17.7571 32.2116C21.1783 32.2116 24.0875 30.2997 25.3505 27.2263L25.42 27.0593L22.1531 25.9491L22.0914 26.0956C21.3635 27.8713 19.7429 28.9326 17.7571 28.9326C16.4041 28.9326 15.2619 28.4598 14.3565 27.5295C13.4407 26.5864 12.9777 25.4018 12.9777 24.009C12.9777 22.6059 13.4304 21.4444 14.3565 20.4576C15.2594 19.5223 16.4041 19.0494 17.7571 19.0494Z"
    fill="white" />
  <path
    d="M38.1863 16.0737L33.5381 27.8353L28.8591 16.0737H25.0315L31.5934 32.1268L26.9247 43.449L26.7081 43.963C26.559 44.3224 26.2335 44.5752 25.8578 44.6273C25.5338 44.6424 25.2078 44.65 24.8801 44.65V48C25.2195 48 25.5587 47.9931 25.8978 47.9794C27.6161 47.9075 29.1518 46.8308 29.8077 45.235L41.8029 16.0737H38.1863Z"
    fill="white" />
  <path d="M4.35 24C4.35 12.5953 13.5953 3.35 25 3.35V0C11.7452 0 1 10.7452 1 24H4.35Z"
    fill="url(#paint0_linear_839_275)" />
  <path d="M25 44.65C13.5953 44.65 4.35 35.4047 4.35 24H1C1 37.2548 11.7452 48 25 48V44.65Z"
    fill="url(#paint1_linear_839_275)" />
  <path d="M25 3.35C36.4047 3.35 45.65 12.5953 45.65 24H49C49 10.7452 38.2548 0 25 0V3.35Z"
    fill="url(#paint2_linear_839_275)" />
  <path d="M45.65 24C45.65 35.4047 36.4047 44.65 25 44.65V48C38.2548 48 49 37.2548 49 24H45.65Z"
    fill="url(#paint3_linear_839_275)" />
  <defs>
    <linearGradient id="paint0_linear_839_275" x1="1" y1="24" x2="25" y2="0"
      gradientUnits="userSpaceOnUse">
      <stop stop-color="#ACE8CF" />
      <stop offset="1" stop-color="#58CE9D" />
    </linearGradient>
    <linearGradient id="paint1_linear_839_275" x1="1" y1="24" x2="25" y2="48"
      gradientUnits="userSpaceOnUse">
      <stop stop-color="#ACE8CF" />
      <stop offset="0.951184" stop-color="white" />
    </linearGradient>
    <linearGradient id="paint2_linear_839_275" x1="25" y1="0" x2="49" y2="24"
      gradientUnits="userSpaceOnUse">
      <stop stop-color="#59CE9D" />
      <stop offset="1" stop-color="#58D09E" stop-opacity="0.37" />
    </linearGradient>
    <linearGradient id="paint3_linear_839_275" x1="49" y1="24" x2="25" y2="48"
      gradientUnits="userSpaceOnUse">
      <stop stop-color="#58D09E" stop-opacity="0.41" />
      <stop offset="0.6875" stop-color="#58D09E" stop-opacity="0" />
    </linearGradient>
  </defs>
</svg>
  