<?xml version="1.0" encoding="utf-8"?>
<svg viewBox="0 0 48 48" fill="none" xmlns="http://www.w3.org/2000/svg">
  <path
    d="M16.7571,19.0494c1.942,0,3.524,1.036,4.337,2.842l0.064,0.142l3.262,-1.108l-0.07,-0.167c-1.263,-3.076,-4.172,-4.988,-7.593,-4.988c-2.405,0,-4.36,0.771,-5.976,2.354c-1.605,1.573,-2.417,3.551,-2.417,5.882c0,2.31,0.812,4.279,2.417,5.851c1.616,1.583,3.571,2.354,5.976,2.354c3.421,0,6.33,-1.912,7.593,-4.985l0.07,-0.167l-3.267,-1.11l-0.062,0.146c-0.728,1.776,-2.348,2.837,-4.334,2.837c-1.353,0,-2.495,-0.473,-3.401,-1.403c-0.915,-0.943,-1.378,-2.128,-1.378,-3.52c0,-1.403,0.452,-2.565,1.378,-3.552c0.903,-0.935,2.048,-1.408,3.401,-1.408z"
    fill="currentColor" />
  <path
    d="M37.1863,16.0737l-4.648,11.762l-4.679,-11.762h-3.828l6.562,16.053l-4.669,11.322l-0.216,0.514c-0.149,0.36,-0.475,0.612,-0.851,0.665c-0.324,0.015,-0.65,0.022,-0.977,0.022c-0.068,0,-0.136,0,-0.203,-0.001c-11.311,-0.109,-20.447,-9.312,-20.447,-20.649c0,-11.404,9.245,-20.65,20.65,-20.65c11.404,0,20.65,9.246,20.65,20.65c0,8.572,-5.223,15.924,-12.66,19.048l-1.213,2.948c-0.178,0.434,-0.402,0.842,-0.663,1.218c10.293,-2.703,17.886,-12.072,17.886,-23.214c0,-13.255,-10.745,-24,-24,-24c-13.255,0,-24,10.745,-24,24c0,13.187,10.636,23.89,23.797,23.999c0.027,0.001,1.222,-0.019,1.221,-0.019c1.718,-0.072,3.254,-1.149,3.909,-2.745l0.542,-1.317l11.454,-27.844h-3.617z"
    fill="currentColor" />
</svg>