<svg viewBox="0 0 48 48" fill="none" xmlns="http://www.w3.org/2000/svg">
  <path
    d="M17.7571 19.0494C19.6992 19.0494 21.2811 20.085 22.094 21.8915L22.1583 22.0329L25.42 20.9253L25.3505 20.7583C24.0875 17.6823 21.1783 15.7704 17.7571 15.7704C15.352 15.7704 13.397 16.5414 11.7816 18.1243C10.1765 19.697 9.36366 21.6757 9.36366 24.0064C9.36366 26.3166 10.1765 28.285 11.7816 29.8577C13.397 31.4407 15.352 32.2116 17.7571 32.2116C21.1783 32.2116 24.0875 30.2997 25.3505 27.2263L25.42 27.0593L22.1531 25.9491L22.0914 26.0956C21.3635 27.8713 19.7429 28.9326 17.7571 28.9326C16.4041 28.9326 15.2619 28.4598 14.3565 27.5295C13.4407 26.5864 12.9777 25.4018 12.9777 24.009C12.9777 22.6059 13.4304 21.4444 14.3565 20.4576C15.2594 19.5222 16.4041 19.0494 17.7571 19.0494Z"
    fill="currentColor" />
  <path
    d="M38.1863 16.0737L33.5381 27.8353L28.8591 16.0737H25.0315L31.5934 32.1268L26.9247 43.449L26.7081 43.963C26.559 44.3224 26.2335 44.5752 25.8578 44.6273C25.5338 44.6423 25.2078 44.65 24.8801 44.65C24.8124 44.65 24.7448 44.6497 24.6773 44.649C13.366 44.5402 4.23013 35.337 4.23013 24C4.23013 12.5953 13.4754 3.35 24.8801 3.35C36.2848 3.35 45.5301 12.5953 45.5301 24C45.5301 32.5719 40.3072 39.924 32.8701 43.0474L31.6574 45.9958C31.4788 46.43 31.2556 46.8377 30.9942 47.2142C41.2877 44.5105 48.8801 35.1419 48.8801 24C48.8801 10.7452 38.135 0 24.8801 0C11.6253 0 0.880127 10.7452 0.880127 24C0.880127 37.1872 11.5158 47.8902 24.6773 47.9992C24.7048 47.9994 25.8997 47.9794 25.8978 47.9794C27.6161 47.9075 29.1518 46.8308 29.8077 45.235L30.3495 43.9179L41.8029 16.0737H38.1863Z"
    fill="currentColor" />
</svg>
  