<svg width="20" height="20" viewBox="0 0 20 20" fill="none" xmlns="http://www.w3.org/2000/svg">
<rect x="1" y="1" width="18" height="18" rx="9" stroke="currentColor" stroke-width="1.5" stroke-linecap="round" stroke-linejoin="round"/>
<path d="M3.88672 10.2715C3.88672 9.64258 4.00781 9.08203 4.25 8.58984C4.49219 8.09766 4.83984 7.7168 5.29297 7.44727C5.75 7.17773 6.2793 7.04297 6.88086 7.04297C7.73633 7.04297 8.43359 7.30469 8.97266 7.82812C9.51562 8.35156 9.81836 9.0625 9.88086 9.96094L9.89258 10.3945C9.89258 11.3672 9.62109 12.1484 9.07812 12.7383C8.53516 13.3242 7.80664 13.6172 6.89258 13.6172C5.97852 13.6172 5.24805 13.3242 4.70117 12.7383C4.1582 12.1523 3.88672 11.3555 3.88672 10.3477V10.2715ZM5.58008 10.3945C5.58008 10.9961 5.69336 11.457 5.91992 11.7773C6.14648 12.0938 6.4707 12.252 6.89258 12.252C7.30273 12.252 7.62305 12.0957 7.85352 11.7832C8.08398 11.4668 8.19922 10.9629 8.19922 10.2715C8.19922 9.68164 8.08398 9.22461 7.85352 8.90039C7.62305 8.57617 7.29883 8.41406 6.88086 8.41406C6.4668 8.41406 6.14648 8.57617 5.91992 8.90039C5.69336 9.2207 5.58008 9.71875 5.58008 10.3945Z" fill="currentColor"/>
<path d="M14.3691 11.748C14.3691 11.541 14.2656 11.3789 14.0586 11.2617C13.8555 11.1406 13.5273 11.0332 13.0742 10.9395C11.5664 10.623 10.8125 9.98242 10.8125 9.01758C10.8125 8.45508 11.0449 7.98633 11.5098 7.61133C11.9785 7.23242 12.5898 7.04297 13.3438 7.04297C14.1484 7.04297 14.791 7.23242 15.2715 7.61133C15.7559 7.99023 15.998 8.48242 15.998 9.08789H14.3047C14.3047 8.8457 14.2266 8.64648 14.0703 8.49023C13.9141 8.33008 13.6699 8.25 13.3379 8.25C13.0527 8.25 12.832 8.31445 12.6758 8.44336C12.5195 8.57227 12.4414 8.73633 12.4414 8.93555C12.4414 9.12305 12.5293 9.27539 12.7051 9.39258C12.8848 9.50586 13.1855 9.60547 13.6074 9.69141C14.0293 9.77344 14.3848 9.86719 14.6738 9.97266C15.5684 10.3008 16.0156 10.8691 16.0156 11.6777C16.0156 12.2559 15.7676 12.7246 15.2715 13.084C14.7754 13.4395 14.1348 13.6172 13.3496 13.6172C12.8184 13.6172 12.3457 13.5234 11.9316 13.3359C11.5215 13.1445 11.1992 12.8848 10.9648 12.5566C10.7305 12.2246 10.6133 11.8672 10.6133 11.4844H12.2188C12.2344 11.7852 12.3457 12.0156 12.5527 12.1758C12.7598 12.3359 13.0371 12.416 13.3848 12.416C13.709 12.416 13.9531 12.3555 14.1172 12.2344C14.2852 12.1094 14.3691 11.9473 14.3691 11.748Z" fill="currentColor"/>
</svg>
