<svg viewBox="0 0 24 24" fill="none" xmlns="http://www.w3.org/2000/svg">
  <path
    d="M3.288 10.4342c-.866-.5-1.1118-1.4174-.6977-2.1348l1.5-2.5981c.4142-.7174 1.3316-.9632 2.049-.5491l.9369.5409c.5913-.4615 1.2402-.833 1.9244-1.1093 0 0 0 0 0 0 0 0 0 0 0 0l-0-1.0834c-.0001-.8284.6716-1.5 1.4999-1.5l3-0c.8284-.0001 1.5.6716 1.5 1.4999l-.0001 1.0829c.34.138.6741.3008 1 .4889.326.1882.6339.3962.9234.6216 0 0 0 0 0 0 0 0 0 0 0 0l.9379-.5414c.7174-.4142 1.6348-.1685 2.049.5491l1.5 2.5981c.4142.7174.1684 1.6348-.5491 2.049l-.9383.5417c.1028.7307.1054 1.4783.0014 2.2212 0 0 0 0 0 0 0 0 0 0 0 0l.9369.5409c.7175.4142.9632 1.3316.5491 2.049l-1.5 2.5981c-.4142.7174-1.3315.9633-2.049.5491l-.9369-.5409c-.5913.4615-1.2401.8332-1.9243 1.1094 0 0 0 0 0 0 0 0 0 0 0 0l0 1.0834c-0 .8285-.6716 1.5001-1.5 1.5001l-3 0c-.8284-0-1.5-.6716-1.4999-1.5l-.0001-1.0829c-.34-.1379-.674-.3007-1-.4889-.3259-.1881-.634-.3961-.9234-.6216 0 0 0 0 0 0 0 0 0 0 0 0l-.9378.5414c-.7175.4142-1.6348.1685-2.049-.549l-1.5-2.5981c-.4142-.7174-.1685-1.6348.5491-2.0491l.9383-.5417c-.1029-.7306-.1054-1.4784-.0015-2.2212 0 0 0 0 0 0 0 0 0 0 0 0l-.9369-.5409zm5.2492-.4335c1.1045-1.9132 3.5509-2.5687 5.4641-1.4641 1.9132 1.1045 2.5686 3.551 1.4641 5.4641-1.1046 1.9132-3.551 2.5686-5.4641 1.4641-1.9132-1.1046-2.5687-3.5509-1.4641-5.4641z"
    stroke="currentColor" stroke-linecap="round"
    stroke-linejoin="round" />
</svg>