<svg viewBox="0 0 24 24" fill="none" xmlns="http://www.w3.org/2000/svg">
  <path
    d="M10 3.7507c0-.4142.3358-.75.75-.75l2.5 0c.4142 0 .75.3358.75.75l0 .9806c0 .3318.2197.6203.5291.7403.6771.2625 1.3032.6272 1.8594 1.0753.2583.2081.6179.254.9052.0881l.851-.4913c.3587-.2071.8174-.0842 1.0245.2745l1.25 2.1651c.2072.3587.0842.8174-.2745 1.0245l-.85.4908c-.2871.1657-.4272.4997-.3767.8273.054.3504.082.7093.082 1.0748 0 .3655-.028.7245-.082 1.0749-.0505.3276.0896.6616.3767.8273l.85.4908c.3587.2071.4816.6658.2745 1.0245l-1.25 2.1651c-.2071.3587-.6658.4816-1.0245.2745l-.851-.4913c-.2873-.1659-.6469-.12-.9052.0881-.5562.4481-1.1823.8128-1.8594 1.0753-.3094.1199-.5291.4084-.5291.7403l0 .9805c0 .4142-.3358.75-.75.75l-2.5 0c-.4142 0-.75-.3358-.75-.75l0-.9805c0-.3319-.2197-.6204-.5291-.7403-.6771-.2625-1.3032-.6272-1.8594-1.0753-.2583-.2081-.6179-.254-.9052-.0881l-.851.4913c-.3587.2071-.8174.0842-1.0245-.2745l-1.25-2.1651c-.2071-.3587-.0842-.8174.2745-1.0245l.8501-.4908c.2871-.1657.4271-.4997.3766-.8273-.054-.3504-.082-.7094-.082-1.0749 0-.3655.028-.7244.082-1.0748.0505-.3276-.0896-.6616-.3766-.8273l-.8501-.4908c-.3587-.2071-.4816-.6658-.2745-1.0245l1.25-2.1651c.2071-.3587.6658-.4816 1.0245-.2745l.851.4913c.2873.1659.6469.12.9052-.0881.5562-.4481 1.1823-.8129 1.8594-1.0753.3094-.1199.5291-.4084.5291-.7403l0-.9806zM14 12c0 1.1046-.8954 2-2 2-1.1046 0-2-.8954-2-2 0-1.1046.8954-2 2-2 1.1046 0 2 .8954 2 2z"
    stroke="currentColor" stroke-linecap="round"
    stroke-linejoin="round" />
</svg>