<svg viewBox="0 0 24 24" fill="none" xmlns="http://www.w3.org/2000/svg">
  <path
    id="left"
    d="M11,3c0,-0.6,-0.4,-1,-1,-1h-5a3,3,0,0,0,-3,3v14a3,3,0,0,0,3,3h5c0.6,0,1,-0.4,1,-1v-0.5a2,2,0,0,0,-0.8,-1.6l-3,-2.2a4,4,0,0,1,-1.7,-3.3v-0.4a1,1,0,1,1,2,0v0.4c0,0.7,0.3,1.3,0.8,1.7l2.7,1.9v-4.5a2,2,0,0,0,-0.8,-1.6l-1.6,-1.2a4,4,0,0,1,-1.6,-3.2v-0.5a1,1,0,0,1,2,0v0.5c0,0.6,0.3,1.2,0.8,1.6l1.2,0.9v-6z"
    stroke="currentColor" stroke-linecap="round"
    stroke-linejoin="round" />
  <path
    id="right"
    d="M13 21C13 21.5523 13.4477 22 14 22H19C20.6569 22 22 20.6569 22 19V5C22 3.34315 20.6569 2 19 2H14C13.4477 2 13 2.44772 13 3V12.9554L14.7279 11.6115C15.2151 11.2325 15.5 10.6499 15.5 10.0328V9.5C15.5 8.94772 15.9477 8.5 16.5 8.5C17.0523 8.5 17.5 8.94772 17.5 9.5V10.0328C17.5 11.2671 16.9301 12.4323 15.9558 13.1902L13.7721 14.8885C13.2853 15.2672 13.0004 15.8493 13 16.4661V21Z"
    stroke="gray" stroke-linecap="round"
    stroke-linejoin="round" />
</svg>