<svg viewBox="0 0 24 24" fill="none" xmlns="http://www.w3.org/2000/svg">
  <path
    id="bottom"
    d="M12.4,21.6a9,9,0,0,0,9,-8.3c0,-0.4,-0.3,-0.7,-0.8,-0.7h-7.8a1,1,0,0,0,-0.7,0.3l-5.5,5.5c-0.3,0.3,-0.3,0.8,0,1a9,9,0,0,0,5.8,2.2z"
    stroke="currentColor" stroke-linecap="round"
    stroke-linejoin="round" />
  <path
    id="left"
    d="M10.9,2.6a9,9,0,0,0,-6.3,14.8c0.3,0.3,0.8,0.3,1,0l5.6,-5.5c0.2,-0.2,0.3,-0.4,0.3,-0.7v-7.8c0,-0.5,-0.3,-0.8,-0.7,-0.8z"
    stroke="currentColor" stroke-linecap="round"
    stroke-linejoin="round" />
  <path
    id="topRight"
    d="M 23 10.55 c -0.37 -4.93 -4.29 -8.85 -9.22 -9.22 c -0.45 0 -0.78 0.33 -0.78 0.89 l 0 8.33 c 0 0.45 0.33 0.78 0.89 0.78 l 8.22 0 c 0.56 0 0.89 -0.33 0.89 -0.78 z"
    stroke="currentColor" stroke-linecap="round"
    stroke-linejoin="round" />
</svg>