<svg viewBox="0 0 24 24" fill="none" xmlns="http://www.w3.org/2000/svg">
  <path
    id="small"
    d="M15 19 h-2 a3 3 0 0 1-3-3 v-1 h3 a5 5 0 0 0 5-5 V6 h3 a3 3 0 0 1 3 3 v7 a3 3 0 0 1-3 3 h-1 v1.7 c0 .6-.6 1-1.1.6Z"
    stroke="currentColor" stroke-linecap="round"
    stroke-linejoin="round" />
  <path
    id="big"
    d="M16 4a3 3 0 00-3-3h-10a3 3 0 00-3 3v6a3 3 0 003 3v1.8c0 .5.6 1 1 .7l5-2.5h4a3 3 0 003-3v-6zM5 7c0 .5523-.4477 1-1 1-.5523 0-1-.4477-1-1 0-.5523.4477-1 1-1 .5523 0 1 .4477 1 1zM9 7c0 .5523-.4477 1-1 1-.5523 0-1-.4477-1-1 0-.5523.4477-1 1-1 .5523 0 1 .4477 1 1zM13 7c0 .5523-.4477 1-1 1-.5523 0-1-.4477-1-1 0-.5523.4477-1 1-1 .5523 0 1 .4477 1 1z"
    stroke="gray" stroke-linecap="round"
    stroke-linejoin="round" />
</svg>