<svg viewBox="0 0 24 24" fill="none" xmlns="http://www.w3.org/2000/svg">
  <path
    id="left"
    d="M11,4c0,-0.6,-0.4,-1,-1,-1h-4a3,3,0,0,0,-3,3v12a3,3,0,0,0,3,3h4c0.6,0,1,-0.4,1,-1v0a2,2,0,0,0,-0.8,-1.6l-3,-2.2a4,4,0,0,1,-1.8,-3.2v-0.5a1,1,0,1,1,2,0v0.5c0,0.6,0.3,1.2,0.8,1.6l2.7,2v-3.6a2,2,0,0,0,-0.8,-1.6l-1.6,-1.2a4,4,0,0,1,-1.5,-3.2v-0.5a1,1,0,0,1,2,0v0.5c0,0.6,0.3,1.2,0.8,1.6l1.2,0.9v-5.5z"
    stroke="currentColor" stroke-linecap="round"
    stroke-linejoin="round" />
  <path
    id="right"
    d="M13 20C13 20.5523 13.4477 21 14 21H18C19.6569 21 21 19.6569 21 18V6C21 4.34315 19.6569 3 18 3H14C13.4477 3 13 3.44772 13 4V12.9554L14.7279 11.6115C15.2151 11.2325 15.5 10.6499 15.5 10.0328V9.5C15.5 8.94772 15.9477 8.5 16.5 8.5C17.0523 8.5 17.5 8.94772 17.5 9.5V10.0328C17.5 11.2671 16.9301 12.4323 15.9558 13.1902L13.7721 14.8885C13.2853 15.2672 13.0004 15.8493 13 16.4661V20Z"
    stroke="gray" stroke-linecap="round"
    stroke-linejoin="round" />
</svg>