<svg viewBox="0 0 24 24" fill="none" xmlns="http://www.w3.org/2000/svg">
  <path
    id="top"
    d="M 2 11 c 0 -1.1046 0.8954 -2 2 -2 h 16 c 1.1046 0 2 0.8954 2 2 v 2 c 0 1.1046 -0.8954 2 -2 2 h -16 c -1.1046 0 -2 -0.8954 -2 -2 v -2 z M 7 12 c 0 -0.5523 0.4477 -1 1 -1 h 11 c 0.5523 0 1 0.4477 1 1 c 0 0.5523 -0.4477 1 -1 1 h -11 c -0.5523 0 -1 -0.4477 -1 -1 z M 5 13 c 0.5523 0 1 -0.4477 1 -1 c 0 -0.5523 -0.4477 -1 -1 -1 c -0.5523 0 -1 0.4477 -1 1 c 0 0.5523 0.4477 1 1 1 z M 6.7011 9.7929 c -0.0156 -0.0156 -0.0409 -0.0156 -0.0566 0 c -0.0156 0.0156 -0.0156 0.0409 0 0.0566 l 0.0317 0.0317 l -0.0317 0.0317 c -0.0156 0.0156 -0.0156 0.0409 0 0.0566 c 0.0156 0.0156 0.0409 0.0156 0.0566 0 l 0.0317 -0.0317 l 0.0317 0.0317 c 0.0156 0.0156 0.0409 0.0156 0.0566 0 c 0.0156 -0.0156 0.0156 -0.0409 0 -0.0566 l -0.0317 -0.0317 l 0.0317 -0.0317 c 0.0156 -0.0156 0.0156 -0.0409 0 -0.0566 c -0.0156 -0.0156 -0.0409 -0.0156 -0.0566 0 l -0.0317 0.0317 l -0.0317 -0.0317 Z"
    stroke="currentColor" stroke-linecap="round"
    stroke-linejoin="round" />
  <path
    id="middle"
    d="M2 17C2 15.8954 2.89543 15 4 15H20C21.1046 15 22 15.8954 22 17V19C22 20.1046 21.1046 21 20 21H4C2.89543 21 2 20.1046 2 19V17ZM7 18C7 17.4477 7.44772 17 8 17H12C12.5523 17 13 17.4477 13 18C13 18.5523 12.5523 19 12 19H8C7.44772 19 7 18.5523 7 18ZM5 19C5.55228 19 6 18.5523 6 18C6 17.4477 5.55228 17 5 17C4.44772 17 4 17.4477 4 18C4 18.5523 4.44772 19 5 19Z"
    stroke="gray" stroke-linecap="round"
    stroke-linejoin="round" />
  <path
    id="bottom"
    d="M2 5C2 3.89543 2.89543 3 4 3H20C21.1046 3 22 3.89543 22 5V7C22 8.10457 21.1046 9 20 9H4C2.89543 9 2 8.10457 2 7V5ZM7 6C7 5.44772 7.44772 5 8 5H15C15.5523 5 16 5.44772 16 6C16 6.55228 15.5523 7 15 7H8C7.44772 7 7 6.55228 7 6ZM5 7C5.55228 7 6 6.55228 6 6C6 5.44772 5.55228 5 5 5C4.44772 5 4 5.44772 4 6C4 6.55228 4.44772 7 5 7Z"
    stroke="gray" stroke-linecap="round"
    stroke-linejoin="round" />
</svg>