<svg viewBox="0 0 24 24" fill="none" xmlns="http://www.w3.org/2000/svg">
  <path
    id="bottom"
    d="M12,21a9,9,0,0,0,9,-8.3c0,-0.4,-0.3,-0.7,-0.8,-0.7h-7.8a1,1,0,0,0,-0.7,0.3l-5.5,5.5c-0.3,0.3,-0.3,0.8,0,1a9,9,0,0,0,5.8,2.2z"
    stroke="currentColor" stroke-linecap="round"
    stroke-linejoin="round" />
  <path
    id="left"
    d="M11.4,3a9,9,0,0,0,-6.3,14.8c0.3,0.3,0.8,0.3,1,0l5.6,-5.5c0.2,-0.2,0.3,-0.4,0.3,-0.7v-7.8c0,-0.5,-0.3,-0.8,-0.7,-0.8z"
    stroke="currentColor" stroke-linecap="round"
    stroke-linejoin="round" />
  <path
    id="topRight"
    d="M 21 11.3 C 20.67 6.86 17.14 3.33 12.7 3 C 12.3 3 12 3.3 12 3.8 L 12 11.3 C 12 11.7 12.3 12 12.8 12 L 20.2 12 C 20.7 12 21 11.7 21 11.3 Z"
    stroke="currentColor" stroke-linecap="round"
    stroke-linejoin="round" />
</svg>