<svg width="12" height="12" viewBox="0 0 12 12" fill="none" xmlns="http://www.w3.org/2000/svg">
<circle cx="6" cy="6" r="5" fill="#E45770"/>
<path d="M5.20711 3.79289C4.81658 3.40237 4.18342 3.40237 3.79289 3.79289C3.40237 4.18342 3.40237 4.81658 3.79289 5.20711L5.20711 3.79289ZM6.79289 8.20711C7.18342 8.59763 7.81658 8.59763 8.20711 8.20711C8.59763 7.81658 8.59763 7.18342 8.20711 6.79289L6.79289 8.20711ZM8.20711 5.20711C8.59763 4.81658 8.59763 4.18342 8.20711 3.79289C7.81658 3.40237 7.18342 3.40237 6.79289 3.79289L8.20711 5.20711ZM3.79289 6.79289C3.40237 7.18342 3.40237 7.81658 3.79289 8.20711C4.18342 8.59763 4.81658 8.59763 5.20711 8.20711L3.79289 6.79289ZM3.79289 5.20711L6.79289 8.20711L8.20711 6.79289L5.20711 3.79289L3.79289 5.20711ZM6.79289 3.79289L3.79289 6.79289L5.20711 8.20711L8.20711 5.20711L6.79289 3.79289Z" fill="white"/>
</svg>
