<svg viewBox="0 0 24 24" fill="none"
  xmlns="http://www.w3.org/2000/svg">
  <path d="M3 8C3 6.89543 3.89543 6 5 6H14C15.1046 6 16 6.89543 16 8V9V16C16 17.1046 15.1046 18 14 18H5C3.89543 18 3 17.1046 3 16V8Z" fill="#D0D2E0" class="icon-light" />
  <path d="M16 9V15L19.8039 15.7608C20.4227 15.8845 21 15.4112 21 14.7802V9.2198C21 8.58876 20.4227 8.11546 19.8039 8.23922L16 9Z" fill="#D0D2E0" class="icon-light"/>
  <path d="M16 9V8C16 6.89543 15.1046 6 14 6H5C3.89543 6 3 6.89543 3 8V16C3 17.1046 3.89543 18 5 18H14C15.1046 18 16 17.1046 16 16V9ZM16 9L19.8039 8.23922C20.4227 8.11546 21 8.58876 21 9.2198V14.7802C21 15.4112 20.4227 15.8845 19.8039 15.7608L16 15V9Z" stroke="currentColor" class="icon-dark" stroke-width="2"/>
</svg>
