<svg viewBox="0 0 16 17" fill="none" xmlns="http://www.w3.org/2000/svg">
  <path class="icon-light" fill="#DADDFE" d="M13.5664 2.5C13.8152 2.5 14.0261 2.68296 14.0613 2.92929L14.9185 8.92929C14.9615 9.23051 14.7278 9.5 14.4235 9.5H10.1C10.0448 9.5 10 9.54477 10 9.6V14C10 14.2761 9.77614 14.5 9.5 14.5H8.30902C8.11963 14.5 7.9465 14.393 7.8618 14.2236L5.1382 8.77639C5.0535 8.607 4.88037 8.5 4.69098 8.5H4V2.5H13.5664Z" />
  <path class="icon-dark" stroke="currentColor" stroke-width="2" d="M4 8.5V9C4 9.27614 3.77614 9.5 3.5 9.5H1.5C1.22386 9.5 1 9.27614 1 9V3C1 2.72386 1.22386 2.5 1.5 2.5H3.33333H4M4 8.5V2.5M4 8.5H4.69098C4.88037 8.5 5.0535 8.607 5.1382 8.77639L7.8618 14.2236C7.9465 14.393 8.11963 14.5 8.30902 14.5H9.5C9.77614 14.5 10 14.2761 10 14V9.6C10 9.54477 10.0448 9.5 10.1 9.5H14.4235C14.7278 9.5 14.9615 9.23051 14.9185 8.92929L14.0613 2.92929C14.0261 2.68296 13.8152 2.5 13.5664 2.5H4" />
  <path class="icon-dark" fill="currentColor" fill-rule="evenodd" clip-rule="evenodd" d="M14 7.5H11V6.5H14V7.5ZM14 5.5H10V4.5H14V5.5Z"/>
</svg>
