<svg viewBox="0 0 16 16" xmlns="http://www.w3.org/2000/svg">
  <path fill-rule="evenodd" clip-rule="evenodd" d="M8 16C12.4183 16 16 12.4183 16 8C16 3.58172 12.4183 0 8 0C3.58172 0 0 3.58172 0 8C0 12.4183 3.58172 16 8 16ZM6.5 5C6.5 4.44772 6.05228 4 5.5 4C4.94772 4 4.5 4.44772 4.5 5V11C4.5 11.5523 4.94772 12 5.5 12C6.05228 12 6.5 11.5523 6.5 11V5ZM11.5 5C11.5 4.44772 11.0523 4 10.5 4C9.94772 4 9.5 4.44772 9.5 5V11C9.5 11.5523 9.94772 12 10.5 12C11.0523 12 11.5 11.5523 11.5 11V5Z" fill="currentColor" class="icon-dark"/>
</svg>
