<svg viewBox="0 0 16 17" fill="none" xmlns="http://www.w3.org/2000/svg">
  <path class="icon-light" fill="#DADDFE" d="M13.5664 14.5C13.8152 14.5 14.0261 14.317 14.0613 14.0707L14.9185 8.07071C14.9615 7.76949 14.7278 7.5 14.4235 7.5H10.1C10.0448 7.5 10 7.45523 10 7.4V3C10 2.72386 9.77614 2.5 9.5 2.5H8.30902C8.11963 2.5 7.9465 2.607 7.8618 2.77639L5.1382 8.22361C5.0535 8.393 4.88037 8.5 4.69098 8.5H4V14.5H13.5664Z" />
  <path class="icon-dark" stroke="currentColor" stroke-width="2" d="M4 8.5V8C4 7.72386 3.77614 7.5 3.5 7.5H1.5C1.22386 7.5 1 7.72386 1 8V14C1 14.2761 1.22386 14.5 1.5 14.5H3.33333H4M4 8.5V14.5M4 8.5H4.69098C4.88037 8.5 5.0535 8.393 5.1382 8.22361L7.8618 2.77639C7.9465 2.607 8.11963 2.5 8.30902 2.5H9.5C9.77614 2.5 10 2.72386 10 3V7.4C10 7.45523 10.0448 7.5 10.1 7.5H14.4235C14.7278 7.5 14.9615 7.76949 14.9185 8.07071L14.0613 14.0707C14.0261 14.317 13.8152 14.5 13.5664 14.5H4" />
  <path class="icon-dark" fill="currentColor" fill-rule="evenodd" clip-rule="evenodd" d="M14 9.5H11V10.5H14V9.5ZM14 11.5H10V12.5H14V11.5Z" />
</svg>
