<svg viewBox="0 0 12 12" fill="none" xmlns="http://www.w3.org/2000/svg">
  <path
    d="M10.2426 10.2426C7.8995 12.5858 4.10051 12.5858 1.75736 10.2426C-0.585787 7.8995 -0.585787 4.10051 1.75736 1.75736C4.10051 -0.585787 7.8995 -0.585787 10.2426 1.75736C12.5858 4.10051 12.5858 7.8995 10.2426 10.2426Z"
    fill="currentColor" class="icon-dark" />
  <path fill-rule="evenodd" clip-rule="evenodd"
    d="M7 5.5C7 4.94772 6.55228 4.5 6 4.5C5.44772 4.5 5 4.94772 5 5.5L5 9.5C5 10.0523 5.44772 10.5 6 10.5C6.55229 10.5 7 10.0523 7 9.5L7 5.5ZM6 1.5C5.44772 1.5 5 1.94771 5 2.5C5 3.05228 5.44772 3.5 6 3.5C6.55228 3.5 7 3.05228 7 2.5C7 1.94771 6.55228 1.5 6 1.5Z"
    fill="#F3F4FA" class="icon-light" />
</svg>
  