<svg viewBox="0 0 16 16" fill="none" xmlns="http://www.w3.org/2000/svg">
  <path
    d="M12.9497 12.9497C10.2161 15.6834 5.78392 15.6834 3.05025 12.9497C0.316582 10.2161 0.316582 5.78392 3.05025 3.05025C5.78392 0.316582 10.2161 0.316582 12.9497 3.05025C15.6834 5.78392 15.6834 10.2161 12.9497 12.9497Z"
    fill="transparent" stroke="currentColor" class="icon-dark-stroke icon-light-fill"
    stroke-width="2" />
  <path fill-rule="evenodd" clip-rule="evenodd"
    d="M9 7.5C9 6.94772 8.55228 6.5 8 6.5C7.44772 6.5 7 6.94772 7 7.5L7 11.5C7 12.0523 7.44772 12.5 8 12.5C8.55229 12.5 9 12.0523 9 11.5L9 7.5ZM8 3.5C7.44772 3.5 7 3.94771 7 4.5C7 5.05228 7.44772 5.5 8 5.5C8.55228 5.5 9 5.05228 9 4.5C9 3.94771 8.55228 3.5 8 3.5Z"
    fill="currentColor" class="icon-dark" />
</svg>
  