<svg viewBox="0 0 24 24" fill="none" xmlns="http://www.w3.org/2000/svg">
<path d="M20.3408 6.48633C21.388 8.06726 22 9.96169 22 12C22 17.5228 17.5228 22 12 22C9.96169 22 8.06726 21.388 6.48633 20.3408L7.93652 18.8906C9.12764 19.5946 10.5162 20 12 20C16.4183 20 20 16.4183 20 12C20 10.5162 19.5946 9.12764 18.8906 7.93652L20.3408 6.48633Z" fill="currentColor" class="icon-dark"/>
<path d="M12 2C14.0378 2 15.932 2.61149 17.5127 3.6582L16.0625 5.1084C14.8716 4.40489 13.4833 4 12 4C7.58172 4 4 7.58172 4 12C4 13.4833 4.40489 14.8716 5.1084 16.0625L3.6582 17.5127C2.61149 15.932 2 14.0378 2 12C2 6.47715 6.47715 2 12 2Z" fill="currentColor" class="icon-dark"/>
<path d="M15.8633 10.9639C15.9517 11.2944 16 11.6416 16 12C16 14.2091 14.2091 16 12 16C11.6416 16 11.2944 15.9517 10.9639 15.8633L15.8633 10.9639Z" fill="currentColor" class="icon-dark"/>
<path d="M12 8C12.358 8 12.7049 8.04751 13.0352 8.13574L8.13574 13.0352C8.04751 12.7049 8 12.358 8 12C8 9.79086 9.79086 8 12 8Z" fill="currentColor" class="icon-dark"/>
<path d="M20.3691 2.22461C20.7619 1.90426 21.3409 1.92685 21.707 2.29297C22.0731 2.65908 22.0957 3.23809 21.7754 3.63086L21.707 3.70703L3.70703 21.707C3.31651 22.0976 2.68349 22.0976 2.29297 21.707C1.90244 21.3165 1.90244 20.6835 2.29297 20.293L20.293 2.29297L20.3691 2.22461Z" fill="currentColor" class="icon-dark"/>
</svg>
