<svg viewBox="0 0 16 16" fill="none" xmlns="http://www.w3.org/2000/svg">
  <path
    d="M15 1.99976V4.99976H14.3264M12 4.99976H14.3264M14.3264 4.99976C13.2029 2.63481 10.7924 0.999756 8.00004 0.999756C4.13405 0.999756 1.00004 4.13376 1.00004 7.99976C1.00004 9.93275 1.78354 11.6828 3.05029 12.9495C4.31704 14.2163 6.06704 14.9998 8.00004 14.9998C10.7924 14.9998 13.2029 13.3647 14.3264 10.9998"
    stroke="currentColor"
    stroke-width="2"
    stroke-linecap="round"
    stroke-linejoin="round"
    class="icon-dark"
  />
  <path
    fill-rule="evenodd"
    clip-rule="evenodd"
    d="M5.47396 4.83571C5.18698 5.0014 5.08866 5.36835 5.25434 5.65533L5.4707 6.03008C5.28613 6.26662 5.13747 6.52614 5.02696 6.79982L4.59357 6.79982C4.2622 6.79982 3.99357 7.06845 3.99357 7.39982L3.99357 8.59982C3.99357 8.93119 4.2622 9.19982 4.59357 9.19982L5.02672 9.19982C5.0819 9.3358 5.14702 9.46945 5.22229 9.59982C5.29756 9.73019 5.38074 9.85341 5.47092 9.96919L5.25434 10.3443C5.08866 10.6313 5.18698 10.9982 5.47396 11.1639L6.51319 11.7639C6.80016 11.9296 7.16712 11.8313 7.3328 11.5443L7.5495 11.169C7.84176 11.2101 8.14085 11.2111 8.43798 11.1696L8.65434 11.5443C8.82003 11.8313 9.18698 11.9296 9.47396 11.7639L10.5132 11.1639C10.8002 10.9982 10.8985 10.6313 10.7328 10.3443L10.5164 9.96956C10.701 9.73301 10.8497 9.47349 10.9602 9.19982L11.3936 9.19982C11.7249 9.19982 11.9936 8.93119 11.9936 8.59982L11.9936 7.39982C11.9936 7.06844 11.7249 6.79982 11.3936 6.79982L10.9604 6.79982C10.9052 6.66383 10.8401 6.53019 10.7649 6.39982C10.6896 6.26945 10.6064 6.14622 10.5162 6.03045L10.7328 5.65533C10.8985 5.36835 10.8002 5.0014 10.5132 4.83571L9.47396 4.23571C9.18698 4.07003 8.82003 4.16835 8.65434 4.45533L8.43765 4.83065C8.14538 4.78952 7.8463 4.78851 7.54916 4.83008L7.3328 4.45533C7.16712 4.16835 6.80016 4.07003 6.51319 4.23571L5.47396 4.83571ZM7.19372 6.61443C6.42846 7.05625 6.16626 8.0348 6.60808 8.80007C7.04991 9.56534 8.02846 9.82754 8.79372 9.38571C9.55899 8.94388 9.82119 7.96534 9.37936 7.20007C8.93754 6.4348 7.95899 6.1726 7.19372 6.61443Z"
    fill="currentColor"
    class="icon-dark"
  />
  <path
    d="M8.56671 7.66892C8.7508 7.98778 8.64155 8.3955 8.32269 8.5796C8.00383 8.76369 7.5961 8.65444 7.41201 8.33558C7.22791 8.01672 7.33716 7.60899 7.65603 7.4249C7.97489 7.2408 8.38261 7.35005 8.56671 7.66892Z"
    fill="currentColor"
    class="icon-dark"
  />
</svg>
