<svg viewBox="0 0 16 16" fill="none" xmlns="http://www.w3.org/2000/svg">
<path d="M13 15H7H6.46837C6.1716 15 5.89015 14.8682 5.70015 14.6402L3.14466 11.5736C2.293 10.5516 3.01973 9 4.35006 9C4.76621 9 5.16531 9.16531 5.45957 9.45957L6.82929 10.8293C6.89229 10.8923 7 10.8477 7 10.7586V5.5C7 4.67157 7.67157 4 8.5 4C9.32843 4 10 4.67157 10 5.5V9H12C13.1046 9 14 9.89543 14 11V14C14 14.5523 13.5523 15 13 15Z" fill="currentColor" class="icon-light"/>
<path d="M3.5 4C5.5 -2.38419e-07 11.5 -2.38419e-07 13.5 4M7 15H13C13.5523 15 14 14.5523 14 14V11C14 9.89543 13.1046 9 12 9H10V5.5C10 4.67157 9.32843 4 8.5 4V4C7.67157 4 7 4.67157 7 5.5V10.7586C7 10.8477 6.89229 10.8923 6.82929 10.8293L5.45957 9.45957C5.16531 9.16531 4.76621 9 4.35006 9V9C3.01973 9 2.293 10.5516 3.14466 11.5736L5.70015 14.6402C5.89015 14.8682 6.1716 15 6.46837 15H7Z" stroke="currentColor" stroke-width="2" stroke-linecap="round" stroke-linejoin="round" class="icon-dark"/>
</svg>
