<svg width="24" height="24" viewBox="0 0 24 24" fill="none" xmlns="http://www.w3.org/2000/svg">
  <path id="Icon" fill-rule="evenodd" clip-rule="evenodd" d="M12 24C18.6274 24 24 18.6274 24 12C24 5.37258 18.6274 0 12 0C5.37258 0 0 5.37258 0 12C0 18.6274 5.37258 24 12 24ZM10 8C10 7.44772 9.55229 7 9 7C8.44771 7 8 7.44772 8 8V16C8 16.5523 8.44771 17 9 17C9.55229 17 10 16.5523 10 16V8ZM16 8C16 7.44772 15.5523 7 15 7C14.4477 7 14 7.44772 14 8V16C14 16.5523 14.4477 17 15 17C15.5523 17 16 16.5523 16 16V8Z" fill="#5A5F7A"/>
</svg>
