<svg viewBox="0 0 24 24" fill="none" xmlns="http://www.w3.org/2000/svg">
<path d="M19 22H10.7692H9.90754C9.33081 22 8.78216 21.751 8.40238 21.317L4.73033 17.1204C3.66589 15.9039 4.5298 14 6.14626 14C6.6888 14 7.20493 14.2342 7.56219 14.6425L8.82474 16.0854C8.88555 16.1549 9 16.1119 9 16.0196V8C9 6.89543 9.89543 6 11 6C12.1046 6 13 6.89543 13 8V14H18C19.6569 14 21 15.3431 21 17V20C21 21.1046 20.1046 22 19 22Z" fill="currentColor" class="icon-light"/>
<path d="M5 5C8 1 14 1 17 5M10.7692 22H19C20.1046 22 21 21.1046 21 20V17C21 15.3431 19.6569 14 18 14H13V8C13 6.89543 12.1046 6 11 6V6C9.89543 6 9 6.89543 9 8V16.0196C9 16.1119 8.88555 16.1549 8.82474 16.0854L7.56219 14.6425C7.20493 14.2342 6.6888 14 6.14626 14V14C4.5298 14 3.66589 15.9039 4.73033 17.1204L8.40238 21.317C8.78216 21.751 9.33081 22 9.90754 22H10.7692Z" stroke="currentColor" stroke-width="2" stroke-linecap="round" stroke-linejoin="round" class="icon-dark"/>
</svg>
