<svg viewBox="0 0 16 16" fill="none" xmlns="http://www.w3.org/2000/svg">
<path d="M14.1582 4.66895C14.6951 5.65948 15 6.79414 15 8C15 11.866 11.866 15 8 15C6.79414 15 5.65948 14.6951 4.66895 14.1582L6.17285 12.6543C6.73895 12.8767 7.35498 13 8 13C10.7614 13 13 10.7614 13 8C13 7.35498 12.8767 6.73895 12.6543 6.17285L14.1582 4.66895Z" fill="currentColor" class="icon-dark"/>
<path d="M8 1C9.20539 1 10.3398 1.30429 11.3301 1.84082L9.82617 3.34473C9.2604 3.12261 8.64457 3 8 3C5.23858 3 3 5.23858 3 8C3 8.64457 3.12261 9.2604 3.34473 9.82617L1.84082 11.3301C1.30429 10.3398 1 9.20539 1 8C1 4.13401 4.13401 1 8 1Z" fill="currentColor" class="icon-dark"/>
<path d="M10.9951 7.83301C10.9982 7.88829 11 7.94396 11 8C11 9.65685 9.65685 11 8 11C7.94396 11 7.88829 10.9982 7.83301 10.9951L10.9951 7.83301Z" fill="currentColor" class="icon-dark"/>
<path d="M8 5C8.05604 5 8.11171 5.00185 8.16699 5.00488L5.00488 8.16699C5.00185 8.11171 5 8.05604 5 8C5 6.34315 6.34315 5 8 5Z" fill="currentColor" class="icon-dark"/>
<path d="M13.293 1.29297C13.6835 0.902445 14.3165 0.902445 14.707 1.29297C15.0976 1.68349 15.0976 2.31651 14.707 2.70703L2.70703 14.707C2.31651 15.0976 1.68349 15.0976 1.29297 14.707C0.902445 14.3165 0.902445 13.6835 1.29297 13.293L13.293 1.29297Z" fill="currentColor" class="icon-dark"/>
</svg>
