<svg viewBox="0 0 16 16" fill="none" xmlns="http://www.w3.org/2000/svg">
  <mask id="path-1-inside-1_5338_135620" fill="currentColor" class="icon-light">
    <path
      fill-rule="evenodd"
      clip-rule="evenodd"
      d="M8 16C12.4183 16 16 12.4183 16 8C16 3.58172 12.4183 0 8 0C3.58172 0 0 3.58172 0 8C0 12.4183 3.58172 16 8 16ZM5 4C4.44772 4 4 4.44772 4 5V11C4 11.5523 4.44772 12 5 12H11C11.5523 12 12 11.5523 12 11V5C12 4.44772 11.5523 4 11 4H5Z"
    />
  </mask>
  <path
    fill-rule="evenodd"
    clip-rule="evenodd"
    d="M8 16C12.4183 16 16 12.4183 16 8C16 3.58172 12.4183 0 8 0C3.58172 0 0 3.58172 0 8C0 12.4183 3.58172 16 8 16ZM5 4C4.44772 4 4 4.44772 4 5V11C4 11.5523 4.44772 12 5 12H11C11.5523 12 12 11.5523 12 11V5C12 4.44772 11.5523 4 11 4H5Z"
    fill="currentColor"
    class="icon-light"
  />
  <path
    d="M16 8H15C15 11.866 11.866 15 8 15V16V17C12.9706 17 17 12.9706 17 8H16ZM8 0V1C11.866 1 15 4.13401 15 8H16H17C17 3.02944 12.9706 -1 8 -1V0ZM0 8H1C1 4.13401 4.13401 1 8 1V0V-1C3.02944 -1 -1 3.02944 -1 8H0ZM8 16V15C4.13401 15 1 11.866 1 8H0H-1C-1 12.9706 3.02944 17 8 17V16ZM4 5H5V4V3C3.89543 3 3 3.89543 3 5H4ZM4 11H5V5H4H3V11H4ZM5 12V11H4H3C3 12.1046 3.89543 13 5 13V12ZM11 12V11H5V12V13H11V12ZM12 11H11V12V13C12.1046 13 13 12.1046 13 11H12ZM12 5H11V11H12H13V5H12ZM11 4V5H12H13C13 3.89543 12.1046 3 11 3V4ZM5 4V5H11V4V3H5V4Z"
    fill="currentColor"
    mask="url(#path-1-inside-1_5338_135620)"
    class="icon-light"
  />
</svg>
