<svg viewBox="0 0 16 16" fill="none" xmlns="http://www.w3.org/2000/svg">
  <path
    d="M7.99687 12C10.206 12 11.9969 10.2091 11.9969 7.99994C11.9969 5.79078 10.206 3.9999 7.99687 3.9999C5.78771 3.9999 3.99684 5.79078 3.99684 7.99994C3.99684 10.2091 5.78771 12 7.99687 12Z"
    fill="white" />
  <path
    d="M5.99685 11.4625C5.38902 11.1123 4.88449 10.6078 4.53434 9.99996L1.07181 3.9999C0.36979 5.21583 0.000140667 6.59511 4.01392e-08 7.99914C-0.000140586 9.40318 0.369232 10.7825 1.07101 11.9986C1.77278 13.2147 2.78224 14.2246 3.99796 14.927C5.21368 15.6294 6.59284 15.9995 7.99687 16L11.4594 9.99996C10.9287 10.918 10.0552 11.5877 9.03088 11.862C8.00656 12.1362 6.91526 11.9925 5.99685 11.4625Z"
    fill="#669DF6" />
  <path
    d="M11.9969 7.99994C11.9973 8.70236 11.8119 9.39238 11.4594 9.99996L7.99687 16C9.40144 16.0006 10.7814 15.6313 11.998 14.9294C13.2146 14.2274 14.2249 13.2176 14.9274 12.0013C15.6299 10.785 15.9999 9.40527 16 8.0007C16.0001 6.59614 15.6305 5.21629 14.9282 3.9999H7.99062C9.0515 3.9999 10.0689 4.42133 10.8191 5.17149C11.5692 5.92164 11.9907 6.93907 11.9907 7.99994H11.9969Z"
    fill="#AECBFA" />
  <path
    d="M7.99687 11.25C9.79182 11.25 11.2469 9.79488 11.2469 7.99994C11.2469 6.205 9.79182 4.74991 7.99687 4.74991C6.20193 4.74991 4.74684 6.205 4.74684 7.99994C4.74684 9.79488 6.20193 11.25 7.99687 11.25Z"
    fill="#1A73E8" />
  <path
    d="M5.99685 4.53741C6.60444 4.18495 7.29446 3.9995 7.99687 3.9999H14.9219C14.2198 2.78377 13.2099 1.7739 11.9937 1.07177C10.7776 0.36964 9.39803 0 7.99375 0C6.58947 0 5.20993 0.36964 3.99378 1.07177C2.77763 1.7739 1.76772 2.78377 1.06556 3.9999L4.53434 9.99996C4.00428 9.08155 3.86058 7.99026 4.13482 6.96594C4.40907 5.94162 5.07882 5.06811 5.99685 4.53741Z"
    fill="#1967D2" />
</svg>
