<svg viewBox="0 0 16 16" fill="none" xmlns="http://www.w3.org/2000/svg">
<g clip-path="url(#clip0_18995_81634)">
<path d="M14.6666 12.2524C14.5166 12.5191 14.3566 12.7757 14.1833 13.0124L15.9866 12.2524H14.6666Z" fill="#202124"/>
<path d="M7.9964 11.9991C9.05715 11.9986 10.0743 11.5769 10.8241 10.8266C11.574 10.0763 11.9951 9.05885 11.9949 7.9981C11.9946 6.93734 11.5731 5.92011 10.823 5.17013C10.0728 4.42014 9.05549 3.99881 7.99474 3.99881C6.93398 3.99881 5.91666 4.42014 5.16652 5.17013C4.41638 5.92011 3.99484 6.93734 3.99462 7.9981C3.9944 9.05885 4.41551 10.0763 5.16534 10.8266C5.91517 11.5769 6.93232 11.9986 7.99307 11.9991H7.9964Z" fill="white"/>
<path d="M11.4665 10.0023L8.0064 15.9992C9.05719 16.0009 10.098 15.7951 11.069 15.3936C12.0401 14.9921 12.9223 14.4028 13.665 13.6595C14.4077 12.9161 14.9963 12.0335 15.397 11.0621C15.7977 10.0907 16.0026 9.04972 16 7.99893C16 6.59556 15.6266 5.21551 14.9233 3.99881H7.99974L7.99307 4.00215C8.69653 3.99906 9.38831 4.18186 9.99843 4.53203C10.6085 4.8822 11.1153 5.38733 11.4675 5.99628C11.8197 6.60524 12.0048 7.29643 12.004 7.99989C12.0032 8.70335 11.8167 9.39413 11.4632 10.0023H11.4665Z" fill="url(#paint0_linear_18995_81634)"/>
<path d="M4.53297 10.0023L1.07286 4.00548C0.37027 5.22105 0.00023693 6.60024 1.13741e-07 8.00425C-0.000236702 9.40827 0.369331 10.7876 1.07151 12.0034C1.7737 13.2192 2.78372 14.2286 3.99996 14.9301C5.21619 15.6315 6.59572 16.0003 7.99974 15.9992L11.4598 10.0023V9.99899C11.1099 10.6079 10.6057 11.1139 9.99804 11.4659C9.39036 11.818 8.70063 12.0037 7.99833 12.0044C7.29603 12.0051 6.60595 11.8207 5.99758 11.4698C5.38922 11.1189 4.88406 10.6139 4.53297 10.0057V10.0023Z" fill="url(#paint1_linear_18995_81634)"/>
<path d="M7.9964 11.169C8.83628 11.169 9.64176 10.8354 10.2356 10.2415C10.8295 9.64762 11.1632 8.84214 11.1632 8.00226C11.1632 7.16239 10.8295 6.35691 10.2356 5.76303C9.64176 5.16914 8.83628 4.8355 7.9964 4.8355C7.15652 4.8355 6.35105 5.16914 5.75716 5.76303C5.16328 6.35691 4.82964 7.16239 4.82964 8.00226C4.82964 8.84214 5.16328 9.64762 5.75716 10.2415C6.35105 10.8354 7.15652 11.169 7.9964 11.169Z" fill="#1A73E8"/>
<path d="M7.9964 3.99881H14.9166C14.2157 2.78263 13.2067 1.77265 11.9911 1.07063C10.7756 0.368602 9.3965 -0.000675065 7.99281 9.26425e-07C6.58911 0.000676918 5.21039 0.371282 3.99553 1.07448C2.78067 1.77767 1.7726 2.78862 1.07286 4.00548L4.53297 10.0057H4.53963C4.1872 9.39794 4.00104 8.70812 3.99986 8.0056C3.99869 7.30309 4.18256 6.61265 4.53296 6.00376C4.88336 5.39486 5.38794 4.88899 5.99593 4.53703C6.60392 4.18507 7.29388 3.99944 7.9964 3.99881Z" fill="url(#paint2_linear_18995_81634)"/>
<path d="M5.24965 7.49892C5.24965 7.36558 5.35966 7.25224 5.49966 7.25224H15.9966V12.2524H5.49633C5.4306 12.2515 5.36786 12.2248 5.3217 12.178C5.27553 12.1312 5.24965 12.0681 5.24965 12.0024V7.49892Z" fill="#3C4043"/>
<path d="M8.13974 9.60898C8.25667 9.55458 8.3552 9.46727 8.42328 9.35775C8.49137 9.24822 8.52605 9.12122 8.52308 8.99229C8.52642 8.84562 8.48975 8.70229 8.40975 8.57895C8.33253 8.45733 8.2244 8.3584 8.09641 8.29227C7.96973 8.22561 7.8264 8.19227 7.67973 8.19227H6.62303V11.1257H7.73639C7.88973 11.129 8.0364 11.0924 8.17307 11.019C8.3077 10.9493 8.42075 10.8441 8.50005 10.7149C8.57934 10.5857 8.62188 10.4373 8.62309 10.2857C8.6224 10.1367 8.57554 9.99168 8.48898 9.87049C8.40241 9.7493 8.2804 9.65793 8.13974 9.60898ZM8.0064 10.6923C7.92973 10.739 7.83973 10.7657 7.75306 10.7623H6.99971V9.80898H7.73973C7.83306 9.80898 7.92307 9.82899 8.00307 9.87565C8.07353 9.91861 8.13192 9.97877 8.17274 10.0505C8.21356 10.1222 8.23547 10.2031 8.23641 10.2857C8.23641 10.3657 8.21641 10.4423 8.17974 10.5123C8.13641 10.5857 8.07974 10.649 8.00307 10.6923H8.0064ZM8.08974 9.2123C8.04801 9.28461 7.98765 9.3444 7.91495 9.38545C7.84224 9.42649 7.75986 9.44728 7.67639 9.44564H6.99971V8.55561H7.69639C7.77973 8.55561 7.86306 8.57895 7.93307 8.62228C7.99703 8.66279 8.05017 8.71824 8.08792 8.78386C8.12567 8.84949 8.14688 8.92331 8.14974 8.99896C8.14974 9.0723 8.12974 9.14563 8.08974 9.20897V9.2123ZM10.5331 9.07896C10.3723 8.98256 10.1873 8.93399 9.99979 8.93896C9.814 8.94007 9.63241 8.99434 9.47647 9.09535C9.32053 9.19635 9.19676 9.33988 9.11977 9.50898C9.03552 9.68632 8.99265 9.88048 8.99438 10.0768C8.99612 10.2731 9.04241 10.4665 9.12977 10.6423C9.2141 10.8082 9.343 10.9472 9.502 11.0437C9.66099 11.1403 9.84377 11.1906 10.0298 11.189C10.2202 11.1935 10.408 11.1435 10.571 11.0449C10.734 10.9463 10.8654 10.8031 10.9498 10.6323L10.9598 10.6157L10.6398 10.4557L10.6298 10.4723C10.4965 10.7123 10.2965 10.839 10.0431 10.839C9.93014 10.8404 9.8188 10.8118 9.72044 10.7562C9.62208 10.7005 9.54019 10.6199 9.48311 10.5223C9.41744 10.4085 9.3808 10.2803 9.37644 10.149H10.9798L10.9832 10.1357C11.0091 9.90786 10.9722 9.67731 10.8765 9.46898C10.8017 9.30879 10.6826 9.17342 10.5331 9.07896ZM9.99979 9.2923C10.1165 9.28897 10.2331 9.31897 10.3331 9.37897C10.4165 9.42897 10.4831 9.50231 10.5298 9.59231C10.5631 9.66565 10.5898 9.74232 10.5965 9.82565H9.39644C9.42978 9.67898 9.49978 9.54564 9.60645 9.44564C9.71312 9.34564 9.85312 9.28897 9.99979 9.2923ZM12.1899 10.8323C12.1513 10.8351 12.1127 10.8291 12.0769 10.8146C12.041 10.8002 12.009 10.7777 11.9832 10.749C11.9432 10.699 11.9232 10.6157 11.9232 10.5057V9.37231H12.4232V9.02229H11.9232V8.43894H11.5432V9.02229H11.1832V9.37231H11.5432V10.5857C11.5432 10.6757 11.5532 10.7623 11.5832 10.8457C11.6115 10.9149 11.654 10.9773 11.708 11.029C11.7619 11.0807 11.8262 11.1204 11.8965 11.1457C11.9732 11.179 12.0532 11.1924 12.1332 11.189C12.1899 11.189 12.2432 11.189 12.2999 11.179C12.3399 11.169 12.3832 11.1557 12.4232 11.1357L12.4365 11.1324V10.749L12.4065 10.7657C12.3399 10.809 12.2665 10.8323 12.1899 10.8323ZM14.3766 9.16563C14.1919 9.00686 13.9531 8.92564 13.7099 8.93896C13.5432 8.93896 13.3766 8.97229 13.2299 9.04896C13.0966 9.11563 12.9766 9.21897 12.8932 9.34897L12.8832 9.36231L13.1699 9.58231L13.1799 9.56564C13.2366 9.47898 13.3132 9.40897 13.4032 9.36231C13.4966 9.3123 13.6032 9.28897 13.7099 9.28897C13.8532 9.2823 13.9932 9.3323 14.1033 9.42231C14.153 9.46791 14.1924 9.52363 14.2189 9.58573C14.2453 9.64782 14.2582 9.71485 14.2566 9.78232V9.87899C14.0782 9.79973 13.8851 9.75885 13.6899 9.75898C13.4399 9.75898 13.2266 9.82232 13.0599 9.94566C12.8932 10.069 12.8099 10.2523 12.8099 10.479C12.8084 10.6076 12.8433 10.7341 12.9106 10.8438C12.9778 10.9534 13.0746 11.0419 13.1899 11.099C13.3175 11.1614 13.4582 11.1924 13.6003 11.1895C13.7423 11.1866 13.8816 11.1499 14.0066 11.0824C14.1066 11.0257 14.1933 10.9457 14.2599 10.849V11.1257H14.6199V9.78898C14.6199 9.52898 14.5366 9.31897 14.3766 9.16897V9.16563ZM13.6299 10.8457C13.5166 10.8523 13.4066 10.8123 13.3166 10.7457C13.2773 10.7143 13.2459 10.6741 13.2251 10.6283C13.2042 10.5826 13.1945 10.5326 13.1966 10.4823C13.1945 10.4264 13.2054 10.3708 13.2286 10.3199C13.2517 10.269 13.2864 10.2242 13.3299 10.189C13.4232 10.1157 13.5632 10.0757 13.7432 10.0757C13.9247 10.0769 14.1027 10.1251 14.2599 10.2157C14.2571 10.326 14.2266 10.4339 14.1712 10.5294C14.1159 10.6249 14.0375 10.705 13.9432 10.7623C13.8499 10.819 13.7432 10.849 13.6299 10.8457Z" fill="white"/>
</g>
<defs>
<linearGradient id="paint0_linear_18995_81634" x1="-1.65861" y1="15.2792" x2="5.42766" y2="-3.10383" gradientUnits="userSpaceOnUse">
<stop stop-color="#FCC934"/>
<stop offset="1" stop-color="#FBBC04"/>
</linearGradient>
<linearGradient id="paint1_linear_18995_81634" x1="13.1377" y1="12.5797" x2="-0.667359" y2="4.23953" gradientUnits="userSpaceOnUse">
<stop stop-color="#1E8E3E"/>
<stop offset="1" stop-color="#34A853"/>
</linearGradient>
<linearGradient id="paint2_linear_18995_81634" x1="0.188779" y1="7.99855" x2="15.8228" y2="7.99855" gradientUnits="userSpaceOnUse">
<stop stop-color="#D93025"/>
<stop offset="1" stop-color="#EA4335"/>
</linearGradient>
<clipPath id="clip0_18995_81634">
<rect width="16" height="16" fill="white"/>
</clipPath>
</defs>
</svg>
