<svg viewBox="0 0 16 16" fill="none" xmlns="http://www.w3.org/2000/svg">
  <path
    d="M14.9666 5.3684C14.6297 4.55622 13.9438 3.67786 13.4064 3.40111C13.7893 4.14448 14.0545 4.94277 14.1925 5.76747L14.1939 5.7805C13.3155 3.59463 11.8275 2.71227 10.6043 0.787096C10.5427 0.689835 10.4811 0.592373 10.4212 0.490299C10.3869 0.431542 10.3594 0.378599 10.3355 0.329869C10.285 0.231801 10.2461 0.128153 10.2196 0.0210394C10.2197 0.0161126 10.2179 0.0113451 10.2146 0.00764641C10.2114 0.00394771 10.2069 0.00157665 10.202 0.000985546C10.1972 -0.000328515 10.1921 -0.000328515 10.1873 0.000985546C10.1863 0.000985546 10.1847 0.00279039 10.1835 0.00319147C10.1823 0.00359255 10.1797 0.00539739 10.1779 0.00619955L10.1809 0.000985546C8.22768 1.14405 7.57393 3.26976 7.51377 4.31256C6.73182 4.36491 5.98392 4.65219 5.36801 5.13678C5.30395 5.08252 5.23701 5.03178 5.16747 4.98477C4.99079 4.36503 4.98324 3.7093 5.14561 3.08567C4.42858 3.43294 3.79147 3.92529 3.27459 4.53155H3.27097C2.96215 4.1405 2.98421 2.85304 3.00225 2.58432C2.91141 2.621 2.82469 2.66718 2.74356 2.72209C2.47152 2.91581 2.21718 3.13324 1.98352 3.37184C1.71757 3.64181 1.47474 3.93362 1.25757 4.24418C0.758756 4.94992 0.404364 5.7471 0.214769 6.59028L0.204341 6.64161C0.189702 6.71 0.13696 7.05272 0.127936 7.12692C0.127936 7.13273 0.126733 7.13815 0.126131 7.14396C0.0580989 7.49738 0.0159408 7.85529 -7.62939e-06 8.21484V8.25495C0.0121384 10.196 0.749336 12.0624 2.06688 13.4878C3.38442 14.9132 5.18716 15.7946 7.12123 15.9592C9.0553 16.1237 10.981 15.5594 12.5204 14.377C14.0598 13.1946 15.1016 11.4796 15.4415 9.56847C15.4545 9.4682 15.4651 9.36894 15.4767 9.26767C15.6378 7.94259 15.4647 6.59828 14.9734 5.35717L14.9666 5.3684ZM6.00251 11.4447C6.03881 11.4622 6.0729 11.481 6.1102 11.4977L6.11561 11.5011C6.07791 11.483 6.04021 11.4642 6.00251 11.4447ZM14.2005 5.76346V5.75604L14.2019 5.76426L14.2005 5.76346Z"
    fill="url(#paint0_linear_18977_81553)" />
  <path
    d="M14.9666 5.3684C14.6297 4.55622 13.9438 3.67786 13.4064 3.40111C13.7893 4.14448 14.0545 4.94277 14.1925 5.76747V5.77489L14.1939 5.78311C14.795 7.50004 14.708 9.383 13.9513 11.0372C13.0609 12.9483 10.9031 14.9076 7.53402 14.8073C3.88422 14.7041 0.675606 11.9998 0.0739911 8.45027C-0.0353024 7.89077 0.0739911 7.60801 0.128939 7.15479C0.0539858 7.50775 0.012159 7.86694 0.00400314 8.22767V8.26778C0.0161491 10.2088 0.753347 12.0752 2.07089 13.5006C3.38844 14.926 5.19117 15.8075 7.12524 15.972C9.05931 16.1365 10.985 15.5722 12.5244 14.3898C14.0638 13.2074 15.1056 11.4924 15.4455 9.58131C15.4585 9.48104 15.4691 9.38177 15.4808 9.2805C15.6418 7.95542 15.4687 6.61111 14.9774 5.37L14.9666 5.3684Z"
    fill="url(#paint1_radial_18977_81553)" />
  <path
    d="M14.9666 5.3684C14.6297 4.55622 13.9438 3.67786 13.4064 3.40111C13.7893 4.14448 14.0545 4.94277 14.1925 5.76747V5.77489L14.1939 5.78311C14.795 7.50004 14.708 9.383 13.9513 11.0372C13.0609 12.9483 10.9031 14.9076 7.53402 14.8073C3.88422 14.7041 0.675606 11.9998 0.0739911 8.45027C-0.0353024 7.89077 0.0739911 7.60801 0.128939 7.15479C0.0539858 7.50775 0.012159 7.86694 0.00400314 8.22767V8.26778C0.0161491 10.2088 0.753347 12.0752 2.07089 13.5006C3.38844 14.926 5.19117 15.8075 7.12524 15.972C9.05931 16.1365 10.985 15.5722 12.5244 14.3898C14.0638 13.2074 15.1056 11.4924 15.4455 9.58131C15.4585 9.48104 15.4691 9.38177 15.4808 9.2805C15.6418 7.95542 15.4687 6.61111 14.9774 5.37L14.9666 5.3684Z"
    fill="url(#paint2_radial_18977_81553)" />
  <path
    d="M11.1965 6.29087C11.2133 6.30271 11.2289 6.31454 11.2448 6.32637C11.0496 5.97983 10.8066 5.66253 10.5228 5.38384C8.11639 2.97738 9.88914 0.149785 10.19 0.00940816L10.193 0.00499632C8.23972 1.14807 7.58596 3.27377 7.5258 4.31657C7.61644 4.31036 7.70628 4.30274 7.79853 4.30274C8.49173 4.30425 9.17221 4.48907 9.77093 4.83844C10.3697 5.18781 10.8653 5.68931 11.2077 6.29208L11.1965 6.29087Z"
    fill="url(#paint3_radial_18977_81553)" />
  <path
    d="M7.7873 6.77217C7.77447 6.96548 7.09143 7.63248 6.85279 7.63248C4.64687 7.63248 4.2859 8.97007 4.2859 8.97007C4.38376 10.0951 5.16827 11.0156 6.11682 11.5169C6.16013 11.5394 6.20405 11.5596 6.24797 11.5795C6.32404 11.6132 6.40024 11.6443 6.47658 11.6729C6.80183 11.7882 7.14253 11.8539 7.4873 11.868C11.3577 12.0497 12.1197 7.23561 9.31621 5.83184C9.97536 5.74673 10.6427 5.90892 11.1892 6.28706C10.8469 5.6843 10.3512 5.1828 9.75248 4.83343C9.15376 4.48405 8.47328 4.29924 7.78008 4.29772C7.68783 4.29772 7.59759 4.30534 7.50735 4.31156C6.72541 4.3639 5.9775 4.65118 5.36159 5.13577C5.48011 5.23604 5.61427 5.3704 5.89502 5.64715C6.42244 6.16654 7.77607 6.70599 7.77808 6.76815L7.7873 6.77217Z"
    fill="url(#paint4_radial_18977_81553)" />
  <path
    d="M7.7873 6.77217C7.77447 6.96548 7.09143 7.63248 6.85279 7.63248C4.64687 7.63248 4.2859 8.97007 4.2859 8.97007C4.38376 10.0951 5.16827 11.0156 6.11682 11.5169C6.16013 11.5394 6.20405 11.5596 6.24797 11.5795C6.32404 11.6132 6.40024 11.6443 6.47658 11.6729C6.80183 11.7882 7.14253 11.8539 7.4873 11.868C11.3577 12.0497 12.1197 7.23561 9.31621 5.83184C9.97536 5.74673 10.6427 5.90892 11.1892 6.28706C10.8469 5.6843 10.3512 5.1828 9.75248 4.83343C9.15376 4.48405 8.47328 4.29924 7.78008 4.29772C7.68783 4.29772 7.59759 4.30534 7.50735 4.31156C6.72541 4.3639 5.9775 4.65118 5.36159 5.13577C5.48011 5.23604 5.61427 5.3704 5.89502 5.64715C6.42244 6.16654 7.77607 6.70599 7.77808 6.76815L7.7873 6.77217Z"
    fill="url(#paint5_radial_18977_81553)" />
  <path
    d="M6.00251 11.4648C6.04021 11.4842 6.07791 11.5029 6.11561 11.5211L6.1102 11.5177C6.0735 11.5011 6.03881 11.4822 6.00251 11.4648Z"
    fill="url(#paint6_radial_18977_81553)" />
  <path
    d="M6.00251 11.4648C6.04021 11.4842 6.07791 11.5029 6.11561 11.5211L6.1102 11.5177C6.0735 11.5011 6.03881 11.4822 6.00251 11.4648Z"
    fill="url(#paint7_radial_18977_81553)" />
  <path
    d="M5.01987 4.8871C5.08284 4.92721 5.13478 4.96211 5.1803 4.99359C5.00363 4.37386 4.99608 3.71813 5.15844 3.09449C4.44142 3.44176 3.8043 3.93411 3.28742 4.54037C3.32532 4.53937 4.45255 4.51912 5.02007 4.88731L5.01987 4.8871Z"
    fill="url(#paint8_radial_18977_81553)" />
  <path
    d="M0.0774002 8.45669C0.67701 12.0062 3.88763 14.7135 7.53743 14.8138C10.9065 14.9092 13.0723 12.9508 13.9547 11.0436C14.7114 9.38942 14.7984 7.50645 14.1973 5.78953V5.78211C14.1973 5.77629 14.1961 5.77288 14.1973 5.77469L14.1987 5.78772C14.4755 7.58856 13.559 9.33725 12.1332 10.5204L12.1288 10.5305C9.34128 12.7965 6.67411 11.9001 6.13266 11.5331C6.09496 11.5151 6.05726 11.4963 6.01956 11.4768C4.39319 10.6987 3.71336 9.21071 3.87379 7.94732C3.48769 7.95297 3.10824 7.84646 2.78147 7.64071C2.45469 7.43497 2.19464 7.13883 2.03285 6.78821C2.45844 6.52812 2.94341 6.38106 3.44178 6.36099C3.94014 6.34092 4.43537 6.44849 4.8805 6.6735C5.8037 7.09396 6.85509 7.13515 7.80836 6.78821C7.80535 6.72504 6.45272 6.18659 5.9253 5.6672C5.64455 5.39046 5.51019 5.2561 5.39187 5.15583C5.32782 5.10158 5.26087 5.05083 5.19133 5.00382C5.14521 4.97233 5.09327 4.93824 5.0309 4.89733C4.46338 4.52834 3.33635 4.5484 3.29825 4.5504H3.29464C2.98581 4.15935 3.00787 2.87189 3.02592 2.60317C2.93507 2.63985 2.84836 2.68603 2.76722 2.74094C2.49519 2.93466 2.24085 3.15209 2.00718 3.39069C1.73994 3.65986 1.49576 3.951 1.27722 4.26102C0.778408 4.96677 0.424016 5.76395 0.234422 6.60712C0.230612 6.62297 -0.046332 7.83041 0.0906358 8.45609L0.0774002 8.45669Z"
    fill="url(#paint9_radial_18977_81553)" />
  <path
    d="M10.5146 5.38845C10.7984 5.66714 11.0414 5.98444 11.2366 6.33098C11.2793 6.36327 11.3192 6.39535 11.3531 6.42644C13.1158 8.0508 12.1913 10.357 12.1231 10.5174C13.555 9.33826 14.4694 7.58956 14.1887 5.78471C13.3103 3.59885 11.8223 2.71648 10.5991 0.791308C10.5375 0.694046 10.4759 0.596585 10.416 0.494511C10.3817 0.435753 10.3542 0.382811 10.3303 0.33408C10.2798 0.236012 10.2409 0.132364 10.2144 0.0252507C10.2145 0.0203239 10.2127 0.0155564 10.2094 0.0118577C10.2062 0.00815902 10.2017 0.00578796 10.1968 0.00519685C10.192 0.00388279 10.1869 0.00388279 10.1821 0.00519685C10.1811 0.00519685 10.1795 0.0070017 10.1783 0.00740278C10.1771 0.00780385 10.1745 0.0096087 10.1727 0.0104109C9.8719 0.152994 8.08711 2.97838 10.5056 5.38484L10.5146 5.38845Z"
    fill="url(#paint10_radial_18977_81553)" />
  <path
    d="M11.3569 6.4112C11.323 6.38011 11.2831 6.34803 11.2404 6.31574C11.2245 6.30391 11.2089 6.29208 11.192 6.28024C10.6455 5.9021 9.97817 5.73991 9.31901 5.82502C12.1065 7.22278 11.3645 12.0417 7.4901 11.8612C7.14534 11.8471 6.80464 11.7813 6.47939 11.6661C6.40332 11.6376 6.32711 11.6065 6.25078 11.5727C6.20686 11.5526 6.16294 11.5325 6.11962 11.5101L6.12504 11.5135C6.66449 11.8825 9.33365 12.7829 12.1211 10.5108L12.1256 10.5008C12.1951 10.3383 13.1182 8.03415 11.3555 6.40979L11.3569 6.4112Z"
    fill="url(#paint11_radial_18977_81553)" />
  <path
    d="M4.29793 8.95803C4.29793 8.95803 4.6569 7.62044 6.86482 7.62044C7.10347 7.62044 7.7873 6.95466 7.79933 6.76013C6.84606 7.10708 5.79468 7.06589 4.87147 6.64543C4.42635 6.42041 3.93111 6.31284 3.43275 6.33291C2.93439 6.35299 2.44941 6.50005 2.02383 6.76013C2.18562 7.11075 2.44567 7.40689 2.77244 7.61264C3.09921 7.81838 3.47866 7.92489 3.86477 7.91925C3.72078 9.19066 4.39219 10.6666 6.01053 11.4487C6.04683 11.4662 6.08092 11.485 6.11822 11.5017C5.16967 11.0124 4.38557 10.0839 4.2873 8.95483L4.29793 8.95803Z"
    fill="url(#paint12_radial_18977_81553)" />
  <path
    d="M14.9666 5.3684C14.6297 4.55622 13.9438 3.67786 13.4064 3.40111C13.7893 4.14448 14.0545 4.94277 14.1925 5.76747L14.1939 5.7805C13.3155 3.59463 11.8275 2.71227 10.6043 0.787096C10.5427 0.689835 10.4811 0.592373 10.4212 0.490299C10.3869 0.431542 10.3594 0.378599 10.3355 0.329869C10.285 0.231801 10.2461 0.128153 10.2196 0.0210394C10.2197 0.0161126 10.2179 0.0113451 10.2146 0.00764641C10.2114 0.00394771 10.2069 0.00157665 10.202 0.000985546C10.1972 -0.000328515 10.1921 -0.000328515 10.1873 0.000985546C10.1863 0.000985546 10.1847 0.00279039 10.1835 0.00319147C10.1823 0.00359255 10.1797 0.00539739 10.1779 0.00619955L10.1809 0.000985546C8.22768 1.14405 7.57393 3.26976 7.51377 4.31256C7.60441 4.30635 7.69425 4.29873 7.7865 4.29873C8.4797 4.30024 9.16017 4.48506 9.7589 4.83443C10.3576 5.1838 10.8533 5.6853 11.1957 6.28807C10.6491 5.90992 9.98178 5.74774 9.32263 5.83284C12.1101 7.2306 11.3681 12.0495 7.49371 11.8691C7.14895 11.8549 6.80825 11.7892 6.483 11.6739C6.40693 11.6455 6.33072 11.6143 6.25439 11.5805C6.21047 11.5604 6.16655 11.5404 6.12323 11.5179L6.12865 11.5213C6.09095 11.5033 6.05325 11.4845 6.01554 11.465C6.05184 11.4824 6.08593 11.5013 6.12323 11.5179C5.17469 11.0266 4.39058 10.1001 4.29232 8.97107C4.29232 8.97107 4.65128 7.63348 6.85921 7.63348C7.09785 7.63348 7.78169 6.96769 7.79372 6.77317C7.79071 6.71 6.43808 6.17155 5.91066 5.65216C5.62991 5.37542 5.49555 5.24106 5.37723 5.14079C5.31318 5.08654 5.24623 5.03579 5.17669 4.98878C5.00002 4.36904 4.99247 3.71331 5.15483 3.08968C4.43781 3.43695 3.80069 3.9293 3.28381 4.53556H3.2802C2.97137 4.14451 2.99343 2.85705 3.01148 2.58833C2.92063 2.62501 2.83392 2.67119 2.75278 2.7261C2.48075 2.91982 2.22641 3.13725 1.99274 3.37585C1.7268 3.64582 1.48397 3.93763 1.26679 4.24819V4.24939V4.24799C0.76798 4.95373 0.413588 5.75111 0.223994 6.59429L0.213566 6.64563C0.198927 6.71401 0.13335 7.06074 0.123925 7.13494C0.0639731 7.49328 0.0256677 7.8549 0.00921714 8.21785V8.25795C0.0213631 10.199 0.758561 12.0654 2.07611 13.4908C3.39365 14.9162 5.19639 15.7976 7.13046 15.9622C9.06453 16.1267 10.9903 15.5624 12.5296 14.38C14.069 13.1976 15.1109 11.4826 15.4507 9.57148C15.4637 9.47121 15.4743 9.37195 15.486 9.27067C15.647 7.94559 15.474 6.60128 14.9826 5.36018L14.9666 5.3684Z"
    fill="url(#paint13_linear_18977_81553)" />
  <defs>
    <linearGradient id="paint0_linear_18977_81553" x1="14.7547" y1="4.10748" x2="1.29705"
      y2="12.5945" gradientUnits="userSpaceOnUse">
      <stop stop-color="#3FE1B0" />
      <stop offset="0.406" stop-color="#00B3F4" />
      <stop offset="0.421" stop-color="#03B0F4" />
      <stop offset="0.818" stop-color="#5561E9" />
      <stop offset="1" stop-color="#7542E5" />
    </linearGradient>
    <radialGradient id="paint1_radial_18977_81553" cx="0" cy="0" r="1"
      gradientUnits="userSpaceOnUse"
      gradientTransform="translate(13.4465 -2.03485) scale(16.2131 20.5777)">
      <stop offset="0.108" stop-color="#3FE1B0" />
      <stop offset="0.122" stop-color="#3BDCB3" />
      <stop offset="0.254" stop-color="#1BB3D3" />
      <stop offset="0.358" stop-color="#0799E6" />
      <stop offset="0.42" stop-color="#0090ED" />
      <stop offset="0.487" stop-color="#2482F1" />
      <stop offset="0.64" stop-color="#7165FB" />
      <stop offset="0.71" stop-color="#9059FF" />
      <stop offset="0.795" stop-color="#7D49ED" />
      <stop offset="0.86" stop-color="#7542E5" />
    </radialGradient>
    <radialGradient id="paint2_radial_18977_81553" cx="0" cy="0" r="1"
      gradientUnits="userSpaceOnUse"
      gradientTransform="translate(7.42673 6.36941) scale(16.2131 20.5777)">
      <stop offset="0.3" stop-color="#45278D" />
      <stop offset="0.341" stop-color="#562896" stop-opacity="0.787" />
      <stop offset="0.43" stop-color="#782AA9" stop-opacity="0.364" />
      <stop offset="0.495" stop-color="#8D2BB5" stop-opacity="0.1" />
      <stop offset="0.53" stop-color="#952BB9" stop-opacity="0" />
    </radialGradient>
    <radialGradient id="paint3_radial_18977_81553" cx="0" cy="0" r="1"
      gradientUnits="userSpaceOnUse"
      gradientTransform="translate(7.96624 -4.59616) scale(49.0347 29.6935)">
      <stop offset="0.132" stop-color="#3FE1B0" />
      <stop offset="0.289" stop-color="#28D0C8" />
      <stop offset="0.526" stop-color="#00B3F4" />
    </radialGradient>
    <radialGradient id="paint4_radial_18977_81553" cx="0" cy="0" r="1"
      gradientUnits="userSpaceOnUse"
      gradientTransform="translate(3.00736 17.5943) scale(17.385 16.3071)">
      <stop offset="0.287" stop-color="#0060DF" />
      <stop offset="0.417" stop-color="#2357E1" />
      <stop offset="0.604" stop-color="#4F4CE3" />
      <stop offset="0.748" stop-color="#6B45E4" />
      <stop offset="0.833" stop-color="#7542E5" />
    </radialGradient>
    <radialGradient id="paint5_radial_18977_81553" cx="0" cy="0" r="1"
      gradientUnits="userSpaceOnUse"
      gradientTransform="translate(8.83607 -1.43206) rotate(-12.7774) scale(9.1812 10.1667)">
      <stop offset="0.206" stop-color="#45278D" stop-opacity="0" />
      <stop offset="0.251" stop-color="#44268A" stop-opacity="0.055" />
      <stop offset="0.725" stop-color="#371F6F" stop-opacity="0.591" />
      <stop offset="0.956" stop-color="#321C64" stop-opacity="0.8" />
    </radialGradient>
    <radialGradient id="paint6_radial_18977_81553" cx="0" cy="0" r="1"
      gradientUnits="userSpaceOnUse"
      gradientTransform="translate(2.75609 -11.3879) scale(17.2532 35.6441)">
      <stop offset="0.353" stop-color="#3A8EE6" />
      <stop offset="0.472" stop-color="#5C79F0" />
      <stop offset="0.669" stop-color="#9059FF" />
      <stop offset="1" stop-color="#C139E6" />
    </radialGradient>
    <radialGradient id="paint7_radial_18977_81553" cx="0" cy="0" r="1"
      gradientUnits="userSpaceOnUse"
      gradientTransform="translate(112.421 -795.73) rotate(-26.5413) scale(6.70772 13.7664)">
      <stop offset="0.206" stop-color="#9059FF" stop-opacity="0" />
      <stop offset="0.278" stop-color="#8C4FF3" stop-opacity="0.064" />
      <stop offset="0.747" stop-color="#7716A8" stop-opacity="0.45" />
      <stop offset="0.975" stop-color="#6E008B" stop-opacity="0.6" />
    </radialGradient>
    <radialGradient id="paint8_radial_18977_81553" cx="0" cy="0" r="1"
      gradientUnits="userSpaceOnUse"
      gradientTransform="translate(32.3421 -15.9848) scale(45.6172 46.8004)">
      <stop stop-color="#00DDFF" />
      <stop offset="0.235" stop-color="#00D6FD" />
      <stop offset="0.572" stop-color="#00C3F8" />
      <stop offset="0.792" stop-color="#00B3F4" />
    </radialGradient>
    <radialGradient id="paint9_radial_18977_81553" cx="0" cy="0" r="1"
      gradientUnits="userSpaceOnUse"
      gradientTransform="translate(12.3852 -6.57041) scale(25.2981 30.9987)">
      <stop offset="0.126" stop-color="#3FE1B0" />
      <stop offset="0.429" stop-color="#00DDFF" />
      <stop offset="0.479" stop-color="#1EC1FF" />
      <stop offset="0.624" stop-color="#7077FF" />
      <stop offset="0.69" stop-color="#9059FF" />
      <stop offset="0.904" stop-color="#B833E1" />
    </radialGradient>
    <radialGradient id="paint10_radial_18977_81553" cx="0" cy="0" r="1"
      gradientUnits="userSpaceOnUse"
      gradientTransform="translate(1.28717 -1.67953) rotate(77.7941) scale(26.8752 34.9235)">
      <stop stop-color="#54FFBD" />
      <stop offset="0.095" stop-color="#4CF3B8" />
      <stop offset="0.197" stop-color="#3FE1B0" />
      <stop offset="0.257" stop-color="#33D8BD" />
      <stop offset="0.369" stop-color="#12C0E1" />
      <stop offset="0.423" stop-color="#00B3F4" />
      <stop offset="0.737" stop-color="#0060DF" />
    </radialGradient>
    <radialGradient id="paint11_radial_18977_81553" cx="0" cy="0" r="1"
      gradientUnits="userSpaceOnUse"
      gradientTransform="translate(2.72535 -6.71044) scale(36.4139 38.1409)">
      <stop offset="0.137" stop-color="#3FE1B0" />
      <stop offset="0.435" stop-color="#00DDFF" />
      <stop offset="0.484" stop-color="#1EC1FF" />
      <stop offset="0.622" stop-color="#7077FF" />
      <stop offset="0.685" stop-color="#9059FF" />
    </radialGradient>
    <radialGradient id="paint12_radial_18977_81553" cx="0" cy="0" r="1"
      gradientUnits="userSpaceOnUse"
      gradientTransform="translate(24.2558 -7.19629) scale(43.5567 50.0733)">
      <stop offset="0.094" stop-color="#54FFBD" />
      <stop offset="0.242" stop-color="#41F7CC" />
      <stop offset="0.543" stop-color="#0FE3F3" />
      <stop offset="0.626" stop-color="#00DDFF" />
    </radialGradient>
    <linearGradient id="paint13_linear_18977_81553" x1="13.7835" y1="2.41966" x2="2.81403"
      y2="13.3891" gradientUnits="userSpaceOnUse">
      <stop offset="0.167" stop-color="#54FFBD" stop-opacity="0.8" />
      <stop offset="0.236" stop-color="#43F8CA" stop-opacity="0.639" />
      <stop offset="0.361" stop-color="#27EDE1" stop-opacity="0.368" />
      <stop offset="0.466" stop-color="#12E4F1" stop-opacity="0.169" />
      <stop offset="0.545" stop-color="#05DFFB" stop-opacity="0.046" />
      <stop offset="0.589" stop-color="#00DDFF" stop-opacity="0" />
    </linearGradient>
  </defs>
</svg>
