<svg viewBox="0 0 16 16" fill="none" xmlns="http://www.w3.org/2000/svg">
<mask id="mask0_0_1" style="mask-type:luminance" maskUnits="userSpaceOnUse" x="0" y="0" width="16" height="16">
<path d="M8.00851 15.4207C12.1021 15.4207 15.4207 12.1021 15.4207 8.00851C15.4207 3.9149 12.1021 0.596375 8.00851 0.596375C3.9149 0.596375 0.596375 3.9149 0.596375 8.00851C0.596375 12.1021 3.9149 15.4207 8.00851 15.4207Z" fill="white"/>
</mask>
<g mask="url(#mask0_0_1)">
<path d="M1.7738 0.596375V9.69371H5.09138L8.00852 4.63982H15.4207V0.596375H1.7738Z" fill="#DB4437"/>
<path d="M1.7738 0.596375V9.69371H5.09138L8.00852 4.63982H15.4207V0.596375H1.7738Z" fill="url(#paint0_linear_0_1)"/>
<path d="M5.17144 9.66306L1.81638 3.91055L1.76697 3.99405L5.09817 9.70565L5.17144 9.66306Z" fill="#3E2723" fill-opacity="0.1"/>
<path d="M0.596375 15.4206H7.65239L10.9274 12.1457V9.6937H5.09137L0.596375 1.98508V15.4206Z" fill="#0F9D58"/>
<path d="M0.596375 15.4206H7.65239L10.9274 12.1457V9.6937H5.09137L0.596375 1.98508V15.4206Z" fill="url(#paint1_linear_0_1)"/>
<path d="M10.8592 9.80448L10.7893 9.76529L7.55527 15.4207H7.65239L10.8609 9.80789L10.8592 9.80448Z" fill="#263238" fill-opacity="0.1"/>
<mask id="mask1_0_1" style="mask-type:luminance" maskUnits="userSpaceOnUse" x="0" y="1" width="11" height="15">
<path d="M0.596375 15.4206H7.65239L10.9274 12.1457V9.6937H5.09137L0.596375 1.98508V15.4206Z" fill="white"/>
</mask>
<g mask="url(#mask1_0_1)">
<path d="M8.00853 4.6398L10.9274 9.69369L7.6524 15.4206H15.4207V4.6398H8.00853Z" fill="#FFCD40"/>
<path d="M8.00853 4.6398L10.9274 9.69369L7.6524 15.4206H15.4207V4.6398H8.00853Z" fill="url(#paint2_linear_0_1)"/>
</g>
<path d="M8.00853 4.63983L10.9274 9.69372L7.6524 15.4207H15.4207V4.63983H8.00853Z" fill="#FFCD40"/>
<path d="M8.00853 4.63983L10.9274 9.69372L7.6524 15.4207H15.4207V4.63983H8.00853Z" fill="url(#paint3_linear_0_1)"/>
<mask id="mask2_0_1" style="mask-type:luminance" maskUnits="userSpaceOnUse" x="7" y="4" width="9" height="12">
<path d="M8.00853 4.63983L10.9274 9.69372L7.6524 15.4207H15.4207V4.63983H8.00853Z" fill="white"/>
</mask>
<g mask="url(#mask2_0_1)">
<path d="M1.7738 0.596375V9.69371H5.09138L8.00852 4.63982H15.4207V0.596375H1.7738Z" fill="#DB4437"/>
<path d="M1.7738 0.596375V9.69371H5.09138L8.00852 4.63982H15.4207V0.596375H1.7738Z" fill="url(#paint4_linear_0_1)"/>
</g>
<path d="M8.00851 4.63983V6.40341L14.6113 4.63983H8.00851Z" fill="url(#paint5_radial_0_1)"/>
<mask id="mask3_0_1" style="mask-type:luminance" maskUnits="userSpaceOnUse" x="1" y="0" width="15" height="10">
<path d="M1.7738 0.596375V3.99403L5.09138 9.69371L8.00852 4.63982H15.4207V0.596375H1.7738Z" fill="white"/>
</mask>
<g mask="url(#mask3_0_1)">
<path d="M0.596375 15.4206H7.65239L10.9274 12.1457V9.6937H5.09137L0.596375 1.98508V15.4206Z" fill="#0F9D58"/>
<path d="M0.596375 15.4206H7.65239L10.9274 12.1457V9.6937H5.09137L0.596375 1.98508V15.4206Z" fill="url(#paint6_linear_0_1)"/>
</g>
<path d="M1.7738 4.00427L6.59425 8.82472L5.09138 9.69373L1.7738 4.00427Z" fill="url(#paint7_radial_0_1)"/>
<path d="M7.6575 15.4121L9.42278 8.82471L10.9274 9.69372L7.6575 15.4121Z" fill="url(#paint8_radial_0_1)"/>
<path d="M8.00852 11.3772C9.869 11.3772 11.3772 9.869 11.3772 8.00852C11.3772 6.14805 9.869 4.63983 8.00852 4.63983C6.14805 4.63983 4.63983 6.14805 4.63983 8.00852C4.63983 9.869 6.14805 11.3772 8.00852 11.3772Z" fill="#F1F1F1"/>
<path d="M8.0085 10.7042C9.49726 10.7042 10.7041 9.49729 10.7041 8.00853C10.7041 6.51977 9.49726 5.3129 8.0085 5.3129C6.51974 5.3129 5.31287 6.51977 5.31287 8.00853C5.31287 9.49729 6.51974 10.7042 8.0085 10.7042Z" fill="#4285F4"/>
<path d="M8.00852 4.55463C7.566 4.55463 7.12781 4.64182 6.71899 4.81122C6.31017 4.98061 5.93873 5.2289 5.6259 5.5419C5.31306 5.85489 5.06496 6.22645 4.89577 6.63536C4.72658 7.04426 4.63961 7.48249 4.63983 7.92502V8.00851C4.63983 7.11508 4.99475 6.25824 5.6265 5.62649C6.25825 4.99474 7.11509 4.63982 8.00852 4.63982H15.4207V4.55633L8.00852 4.55463Z" fill="#3E2723" fill-opacity="0.2"/>
<path d="M10.9223 9.6937C10.6273 10.2058 10.2025 10.6311 9.69088 10.9269C9.17921 11.2226 8.59865 11.3783 8.00766 11.3783C7.41667 11.3783 6.83611 11.2226 6.32445 10.9269C5.81278 10.6311 5.38807 10.2058 5.09307 9.6937L0.596375 1.98508V2.06857L5.09137 9.7772C5.38636 10.2893 5.81108 10.7146 6.32274 11.0104C6.83441 11.3061 7.41497 11.4618 8.00596 11.4618C8.59695 11.4618 9.17751 11.3061 9.68917 11.0104C10.2008 10.7146 10.6256 10.2893 10.9205 9.7772V9.6937H10.9223Z" fill="white" fill-opacity="0.1"/>
<path opacity="0.1" d="M8.09201 4.63982H8.04941C8.94239 4.63982 9.79879 4.99455 10.4302 5.62598C11.0617 6.25742 11.4164 7.11382 11.4164 8.0068C11.4164 8.89978 11.0617 9.75619 10.4302 10.3876C9.79879 11.0191 8.94239 11.3738 8.04941 11.3738H8.09201C8.98566 11.3738 9.84272 11.0188 10.4746 10.3869C11.1065 9.75496 11.4615 8.8979 11.4615 8.00425C11.4615 7.11059 11.1065 6.25353 10.4746 5.62162C9.84272 4.98971 8.98566 4.6347 8.09201 4.6347V4.63982Z" fill="#3E2723"/>
<path d="M10.9563 9.80447C11.1898 9.39951 11.3361 8.95028 11.386 8.48552C11.4359 8.02076 11.3882 7.5507 11.246 7.10543C11.3682 7.53605 11.4024 7.98688 11.3465 8.431C11.2905 8.87512 11.1457 9.30341 10.9205 9.6903L7.65239 15.4207H7.74952L10.958 9.80788L10.9563 9.80447ZM8.00851 0.681572C9.96698 0.681539 11.8459 1.45661 13.2347 2.83745C14.6235 4.2183 15.4094 6.09268 15.4207 8.05111V8.00851C15.4207 7.03514 15.2289 6.07129 14.8564 5.17201C14.4839 4.27273 13.938 3.45562 13.2497 2.76734C12.5614 2.07906 11.7443 1.53309 10.845 1.16059C9.94574 0.788095 8.98189 0.596375 8.00851 0.596375C7.03514 0.596375 6.07129 0.788095 5.17201 1.16059C4.27273 1.53309 3.45562 2.07906 2.76734 2.76734C2.07906 3.45562 1.53309 4.27273 1.16059 5.17201C0.788095 6.07129 0.596374 7.03514 0.596375 8.00851V8.05111C0.60763 6.09268 1.39352 4.2183 2.78234 2.83745C4.17117 1.45661 6.05005 0.681539 8.00851 0.681572Z" fill="white" fill-opacity="0.2"/>
<path d="M8.00851 15.3355C9.96698 15.3355 11.8459 14.5604 13.2347 13.1796C14.6235 11.7987 15.4094 9.92434 15.4207 7.96591V8.00851C15.4207 8.98189 15.2289 9.94573 14.8564 10.845C14.4839 11.7443 13.938 12.5614 13.2497 13.2497C12.5614 13.938 11.7443 14.4839 10.845 14.8564C9.94574 15.2289 8.98189 15.4207 8.00851 15.4207C7.03514 15.4207 6.07129 15.2289 5.17201 14.8564C4.27273 14.4839 3.45562 13.938 2.76734 13.2497C2.07906 12.5614 1.53309 11.7443 1.16059 10.845C0.788095 9.94573 0.596374 8.98189 0.596375 8.00851V7.96591C0.60763 9.92434 1.39352 11.7987 2.78234 13.1796C4.17117 14.5604 6.05005 15.3355 8.00851 15.3355Z" fill="#3E2723" fill-opacity="0.1"/>
</g>
<mask id="mask4_0_1" style="mask-type:luminance" maskUnits="userSpaceOnUse" x="0" y="0" width="16" height="16">
<path d="M8.00851 15.4207C12.1021 15.4207 15.4207 12.1021 15.4207 8.00851C15.4207 3.9149 12.1021 0.596375 8.00851 0.596375C3.9149 0.596375 0.596375 3.9149 0.596375 8.00851C0.596375 12.1021 3.9149 15.4207 8.00851 15.4207Z" fill="white"/>
</mask>
<g mask="url(#mask4_0_1)">
<path d="M0.347595 9.23877H15.8841V15.7427H0.347595V9.23877Z" fill="#424242"/>
</g>
<path d="M5.37082 12.7796V10.7348H6.10863C6.26182 10.7328 6.40997 10.7895 6.52268 10.8933C6.57835 10.943 6.62245 11.0043 6.65188 11.0729C6.68132 11.1415 6.69538 11.2157 6.69308 11.2903C6.69503 11.3817 6.66885 11.4715 6.6181 11.5476C6.56834 11.6221 6.49868 11.6811 6.41704 11.718V11.7299C6.51521 11.7604 6.60191 11.8198 6.66581 11.9003C6.73049 11.9835 6.76476 12.0863 6.76294 12.1917C6.76545 12.2701 6.75073 12.3482 6.71981 12.4203C6.6889 12.4924 6.64255 12.5569 6.58402 12.6092C6.46641 12.7196 6.31085 12.7806 6.14952 12.7796H5.37082ZM5.63323 11.6141H6.10863C6.15318 11.6159 6.19761 11.608 6.23881 11.591C6.28001 11.5739 6.31699 11.5481 6.34718 11.5152C6.40378 11.4581 6.43554 11.3809 6.43554 11.3005C6.43554 11.2201 6.40378 11.143 6.34718 11.0858C6.31835 11.0537 6.28279 11.0283 6.24302 11.0115C6.20326 10.9948 6.16027 10.987 6.11714 10.9887H5.63323V11.6141ZM5.63323 12.5291H6.15974C6.2059 12.5306 6.25183 12.522 6.29424 12.5037C6.33666 12.4854 6.37452 12.458 6.40511 12.4234C6.46418 12.3613 6.49764 12.2791 6.49883 12.1934C6.49885 12.1478 6.48971 12.1026 6.47194 12.0606C6.45418 12.0185 6.42816 11.9805 6.39543 11.9487C6.36269 11.917 6.32391 11.8921 6.28137 11.8756C6.23884 11.859 6.19342 11.8512 6.14782 11.8526H5.63663L5.63323 12.5291ZM7.65069 12.8187C7.55545 12.8212 7.46075 12.8037 7.3727 12.7673C7.28466 12.7309 7.20522 12.6764 7.13951 12.6075C7.00597 12.4626 6.93494 12.271 6.94185 12.0741C6.93787 11.8812 7.00661 11.6939 7.1344 11.5493C7.19462 11.4784 7.26994 11.4218 7.35486 11.3838C7.43977 11.3458 7.53212 11.3272 7.62513 11.3295C7.71776 11.3256 7.81014 11.3417 7.896 11.3767C7.98185 11.4117 8.05916 11.4647 8.12268 11.5323C8.25211 11.6822 8.31864 11.8763 8.30841 12.0741V12.1235H7.20085C7.20052 12.1869 7.21287 12.2497 7.23715 12.3082C7.26144 12.3667 7.29718 12.4198 7.34228 12.4643C7.42312 12.5438 7.53221 12.5879 7.64558 12.587C7.72661 12.5935 7.80757 12.5736 7.87637 12.5303C7.94516 12.487 7.9981 12.4226 8.02726 12.3468L8.2607 12.4439C8.21334 12.5544 8.13528 12.649 8.03578 12.7165C7.92117 12.7898 7.78656 12.8255 7.65069 12.8187ZM8.02726 11.9071C8.01861 11.8206 7.98004 11.7399 7.91821 11.6788C7.87867 11.6406 7.83153 11.6112 7.77986 11.5924C7.7282 11.5736 7.67316 11.5659 7.61832 11.5698C7.52578 11.5682 7.43595 11.601 7.36613 11.6618C7.29284 11.7262 7.24159 11.812 7.21959 11.9071H8.02726ZM9.10756 12.7949C9.04693 12.8019 8.98549 12.7952 8.92782 12.7752C8.87016 12.7552 8.81775 12.7224 8.7745 12.6794C8.73126 12.6363 8.6983 12.584 8.67808 12.5264C8.65786 12.4688 8.6509 12.4074 8.65772 12.3468V11.6141H8.41235V11.3755H8.65602V10.9478H8.91842V11.3755H9.25921V11.6158H8.91842V12.328C8.91842 12.4802 8.9809 12.5563 9.10586 12.5563C9.14676 12.5578 9.18749 12.5503 9.22513 12.5342L9.31714 12.7591C9.25042 12.7851 9.17912 12.7972 9.10756 12.7949ZM9.92545 12.8187C9.79015 12.8231 9.65796 12.7776 9.55399 12.6909C9.50473 12.6493 9.46562 12.5969 9.43964 12.5379C9.41366 12.4788 9.40148 12.4146 9.40405 12.3502C9.40073 12.2811 9.41455 12.2123 9.44428 12.1498C9.47401 12.0874 9.51873 12.0333 9.57444 11.9923C9.70188 11.9029 9.85503 11.8574 10.0106 11.8628C10.1426 11.8573 10.2737 11.8867 10.3906 11.948V11.9088C10.3926 11.8624 10.3841 11.8161 10.3658 11.7733C10.3475 11.7306 10.3199 11.6925 10.285 11.6618C10.2132 11.5997 10.1208 11.5669 10.026 11.5698C9.95359 11.569 9.88234 11.5878 9.81981 11.6243C9.76073 11.6567 9.71535 11.7093 9.69201 11.7725L9.45176 11.6703C9.49235 11.5767 9.55849 11.4963 9.6426 11.4386C9.75297 11.3625 9.88527 11.3248 10.0192 11.3312C10.1819 11.3255 10.3407 11.3815 10.4639 11.488C10.5228 11.5446 10.5686 11.6135 10.5981 11.6897C10.6275 11.766 10.6399 11.8477 10.6343 11.9293V12.7813H10.394V12.5785H10.3821C10.3341 12.6554 10.2666 12.7182 10.1863 12.7605C10.1061 12.8027 10.016 12.8228 9.92545 12.8187ZM9.96805 12.5785C10.0782 12.5776 10.1838 12.5343 10.2628 12.4575C10.3042 12.4222 10.3373 12.3783 10.3599 12.3288C10.3826 12.2794 10.3942 12.2256 10.394 12.1712C10.295 12.1011 10.1742 12.0685 10.0532 12.0792C9.95038 12.0719 9.84826 12.1015 9.76528 12.1627C9.73546 12.1857 9.71123 12.215 9.6944 12.2487C9.67758 12.2823 9.66861 12.3194 9.66816 12.357C9.66618 12.3907 9.67338 12.4244 9.68898 12.4544C9.70458 12.4844 9.728 12.5096 9.75676 12.5274C9.82005 12.5662 9.894 12.5841 9.96805 12.5785Z" fill="white"/>
<defs>
<linearGradient id="paint0_linear_0_1" x1="2.38552" y1="6.26198" x2="6.81576" y2="3.66347" gradientUnits="userSpaceOnUse">
<stop stop-color="#A52714" stop-opacity="0.6"/>
<stop offset="0.7" stop-color="#A52714" stop-opacity="0"/>
</linearGradient>
<linearGradient id="paint1_linear_0_1" x1="9.24387" y1="13.7593" x2="4.34504" y2="10.9052" gradientUnits="userSpaceOnUse">
<stop stop-color="#055524" stop-opacity="0.4"/>
<stop offset="0.3" stop-color="#055524" stop-opacity="0"/>
</linearGradient>
<linearGradient id="paint2_linear_0_1" x1="10.1811" y1="4.13203" x2="11.4164" y2="9.54204" gradientUnits="userSpaceOnUse">
<stop stop-color="#EA6100" stop-opacity="0.3"/>
<stop offset="0.7" stop-color="#EA6100" stop-opacity="0"/>
</linearGradient>
<linearGradient id="paint3_linear_0_1" x1="10.1811" y1="4.13206" x2="11.4164" y2="9.54207" gradientUnits="userSpaceOnUse">
<stop stop-color="#EA6100" stop-opacity="0.3"/>
<stop offset="0.7" stop-color="#EA6100" stop-opacity="0"/>
</linearGradient>
<linearGradient id="paint4_linear_0_1" x1="2.38552" y1="6.26198" x2="6.81576" y2="3.66347" gradientUnits="userSpaceOnUse">
<stop stop-color="#A52714" stop-opacity="0.6"/>
<stop offset="0.7" stop-color="#A52714" stop-opacity="0"/>
</linearGradient>
<radialGradient id="paint5_radial_0_1" cx="0" cy="0" r="1" gradientUnits="userSpaceOnUse" gradientTransform="translate(7.66773 4.64324) scale(7.07135)">
<stop stop-color="#3E2723" stop-opacity="0.2"/>
<stop offset="1" stop-color="#3E2723" stop-opacity="0"/>
</radialGradient>
<linearGradient id="paint6_linear_0_1" x1="9.24387" y1="13.7593" x2="4.34504" y2="10.9052" gradientUnits="userSpaceOnUse">
<stop stop-color="#055524" stop-opacity="0.4"/>
<stop offset="0.3" stop-color="#055524" stop-opacity="0"/>
</linearGradient>
<radialGradient id="paint7_radial_0_1" cx="0" cy="0" r="1" gradientUnits="userSpaceOnUse" gradientTransform="translate(1.74654 4.00427) scale(6.56017)">
<stop stop-color="#3E2723" stop-opacity="0.2"/>
<stop offset="1" stop-color="#3E2723" stop-opacity="0"/>
</radialGradient>
<radialGradient id="paint8_radial_0_1" cx="0" cy="0" r="1" gradientUnits="userSpaceOnUse" gradientTransform="translate(8.00851 8.00852) scale(7.41214)">
<stop stop-color="#263238" stop-opacity="0.2"/>
<stop offset="1" stop-color="#263238" stop-opacity="0"/>
</radialGradient>
</defs>
</svg>
