<svg viewBox="0 0 16 16" fill="none" xmlns="http://www.w3.org/2000/svg">
<path d="M6.34074 12.7352L1.98788 9.31437C1.78238 9.1659 1.61395 8.97197 1.49574 8.7477C1.37753 8.52343 1.31273 8.27488 1.3064 8.02144C1.3064 7.53659 1.54882 7.07329 1.98788 6.72851L6.34074 3.30225C6.81938 2.94509 7.40287 2.7566 8 2.76622C8.62761 2.76622 9.21212 2.96016 9.65926 3.30494L14.0121 6.72582C14.2176 6.87428 14.386 7.06821 14.5043 7.29248C14.6225 7.51676 14.6873 7.76531 14.6936 8.01875C14.6936 8.50898 14.4512 8.96959 14.0121 9.31167L9.65926 12.7325C9.18198 13.0929 8.59797 13.2835 8 13.274C7.37239 13.274 6.78788 13.0854 6.34074 12.7352Z" fill="white"/>
<path d="M6.34074 10.5805L1.98788 7.15958C1.78238 7.01112 1.61395 6.81719 1.49574 6.59292C1.37753 6.36864 1.31273 6.12009 1.3064 5.86665C1.3064 5.38181 1.54882 4.91851 1.98788 4.57372L6.34074 1.14746C6.81938 0.790308 7.40287 0.60181 8 0.611435C8.62761 0.611435 9.21212 0.805374 9.65926 1.15016L14.0121 4.57103C14.2176 4.71949 14.386 4.91343 14.5043 5.1377C14.6225 5.36197 14.6873 5.61052 14.6936 5.86396C14.6936 6.3542 14.4512 6.8148 14.0121 7.15689L9.65926 10.5778C9.18198 10.9381 8.59797 11.1287 8 11.1192C7.37239 11.1192 6.78788 10.9306 6.34074 10.5805Z" fill="white"/>
<path d="M14.0067 8.8349C14.2195 8.98089 14.3935 9.1765 14.5138 9.40481C14.634 9.63313 14.6969 9.8873 14.6969 10.1453C14.6969 10.4034 14.634 10.6575 14.5138 10.8859C14.3935 11.1142 14.2195 11.3098 14.0067 11.4558L9.67003 14.8605C9.18378 15.2111 8.59949 15.3998 8 15.3998C7.4005 15.3998 6.81622 15.2111 6.32997 14.8605L1.99327 11.4612C1.78009 11.315 1.60576 11.1191 1.48539 10.8904C1.36503 10.6617 1.30226 10.4071 1.30253 10.1487C1.30279 9.89022 1.36608 9.63574 1.48692 9.40728C1.60775 9.17882 1.78248 8.98327 1.99596 8.8376L6.33266 5.43288C7.25387 4.71638 8.75151 4.71638 9.67273 5.43288L14.0067 8.8349Z" fill="#FF9D00"/>
<path d="M6.34074 12.7352L1.98788 9.31437C1.78238 9.1659 1.61395 8.97197 1.49574 8.7477C1.37753 8.52343 1.31273 8.27488 1.3064 8.02144C1.3064 7.53659 1.54882 7.07329 1.98788 6.72851L6.34074 3.30225C6.81938 2.94509 7.40287 2.7566 8 2.76622C8.62761 2.76622 9.21212 2.96016 9.65926 3.30494L14.0121 6.72582C14.2176 6.87428 14.386 7.06821 14.5043 7.29248C14.6225 7.51676 14.6873 7.76531 14.6936 8.01875C14.6936 8.50898 14.4512 8.96959 14.0121 9.31167L9.65926 12.7325C9.18198 13.0929 8.59797 13.2835 8 13.274C7.37239 13.274 6.78788 13.0854 6.34074 12.7352Z" fill="#FFCC00"/>
<path d="M6.34074 10.5805L1.98788 7.15958C1.78238 7.01112 1.61395 6.81719 1.49574 6.59292C1.37753 6.36864 1.31273 6.12009 1.3064 5.86665C1.3064 5.38181 1.54882 4.91851 1.98788 4.57372L6.34074 1.14746C6.81938 0.790308 7.40287 0.60181 8 0.611435C8.62761 0.611435 9.21212 0.805374 9.65926 1.15016L14.0121 4.57103C14.2176 4.71949 14.386 4.91343 14.5043 5.1377C14.6225 5.36197 14.6873 5.61052 14.6936 5.86396C14.6936 6.3542 14.4512 6.8148 14.0121 7.15689L9.65926 10.5778C9.18198 10.9381 8.59797 11.1287 8 11.1192C7.37239 11.1192 6.78788 10.9306 6.34074 10.5805Z" fill="url(#paint0_linear_8943_12061)"/>
<path d="M8.01616 9.14472C10.2384 9.14472 12.0404 7.67132 12.0404 5.85314C12.0404 4.04034 10.2357 2.55886 8.01616 2.55886C5.79124 2.55886 3.98653 4.04034 3.98653 5.85314C3.98653 7.67132 5.79124 9.14472 8.01347 9.14472H8.01616ZM8.01616 9.48411C5.56498 9.48411 3.57172 7.85987 3.57172 5.85314C3.57172 3.8491 5.56498 2.22485 8.01616 2.22485C10.4673 2.22485 12.4552 3.85179 12.4552 5.85314C12.4552 7.85987 10.4673 9.48411 8.01616 9.48411Z" fill="white"/>
<path d="M8.31246 7.25106C8.53333 7.22412 8.75152 7.15948 8.95084 7.06251L10.2168 7.58507L9.55421 6.58843C9.7245 6.38121 9.81759 6.1213 9.81759 5.85308C9.81759 5.58486 9.7245 5.32496 9.55421 5.11773L10.2168 4.12109L9.02357 4.61402L8.98855 5.13928C9.1024 5.22399 9.1943 5.33474 9.25659 5.46225C9.31887 5.58976 9.34972 5.73033 9.34655 5.8722C9.34339 6.01407 9.3063 6.15313 9.2384 6.27773C9.17049 6.40234 9.07374 6.50887 8.95623 6.58843C8.82726 6.68967 8.68133 6.76719 8.52525 6.81739L8.30976 7.24837L8.31246 7.25106ZM7.71987 4.46049C7.35084 4.50897 7.0734 4.64904 7.0734 4.64904L5.80741 4.12648L6.47003 5.12311C6.30092 5.33035 6.20855 5.58963 6.20855 5.85712C6.20855 6.12461 6.30092 6.38389 6.47003 6.59113L5.80741 7.58776L7.0303 7.08406L7.05724 6.59113C6.93769 6.50898 6.84006 6.39883 6.77287 6.27028C6.70567 6.14173 6.67096 5.99868 6.67176 5.85363C6.67256 5.70858 6.70884 5.56593 6.77744 5.43813C6.84604 5.31032 6.94487 5.20125 7.06532 5.12042C7.18653 5.01268 7.45859 4.89954 7.4963 4.89146L7.71178 4.46049H7.71987Z" fill="#8CC8F6"/>
<path fill-rule="evenodd" clip-rule="evenodd" d="M7.40741 5.74533L7.23771 8.73523L8.60337 5.96082L8.7973 2.979L7.40741 5.74533ZM7.38855 8.1615L8.48215 5.94197L7.52323 5.76688L7.38855 8.16419V8.1615Z" fill="white"/>
<defs>
<linearGradient id="paint0_linear_8943_12061" x1="8" y1="0.611084" x2="8" y2="11.1195" gradientUnits="userSpaceOnUse">
<stop stop-color="#34AADC"/>
<stop offset="1" stop-color="#007AFF"/>
</linearGradient>
</defs>
</svg>
