<svg viewBox="0 0 16 16" fill="none" xmlns="http://www.w3.org/2000/svg">
  <path
    d="M14.4407 11.9084C14.2303 12.0186 14.0106 12.1172 13.7823 12.203C13.096 12.4608 12.3381 12.607 11.5386 12.607C8.58103 12.607 6.00465 10.5725 6.00465 7.96183C6.00465 7.22774 6.42935 6.59145 7.03123 6.25628C4.35654 6.36841 3.66895 9.15628 3.66895 10.7894C3.66895 15.4065 7.92453 15.875 8.84148 15.875C9.33565 15.875 10.0815 15.7311 10.5309 15.5901C10.5583 15.581 10.5856 15.5718 10.6128 15.5624C12.3478 14.9641 13.8121 13.787 14.7746 12.2612C14.9126 12.0424 14.6699 11.7882 14.4407 11.9084Z"
    fill="url(#paint0_linear_18976_81505)" />
  <path
    d="M14.4407 11.9084C14.2303 12.0186 14.0106 12.1172 13.7823 12.203C13.096 12.4608 12.3381 12.607 11.5386 12.607C8.58103 12.607 6.00465 10.5725 6.00465 7.96183C6.00465 7.22774 6.42935 6.59145 7.03123 6.25628C4.35654 6.36841 3.66895 9.15628 3.66895 10.7894C3.66895 15.4065 7.92453 15.875 8.84148 15.875C9.33565 15.875 10.0815 15.7311 10.5309 15.5901C10.5583 15.581 10.5856 15.5718 10.6128 15.5624C12.3478 14.9641 13.8121 13.787 14.7746 12.2612C14.9126 12.0424 14.6699 11.7882 14.4407 11.9084Z"
    fill="url(#paint1_radial_18976_81505)" />
  <path
    d="M6.60694 15.0884C6.05105 14.7438 5.56848 14.2894 5.18599 13.7524C4.59411 12.9214 4.24027 11.8992 4.24027 10.7894C4.24027 9.15628 5.00074 7.70976 6.17297 6.79325C6.4392 6.5851 6.78008 6.37516 7.03123 6.25628C7.22626 6.16395 7.55981 5.99769 8.00283 6.00397C8.7373 6.01439 9.29226 6.38883 9.60814 6.81412C9.85085 7.14087 10.0005 7.54343 10.0055 7.98043C10.0057 7.9673 11.5345 3.00517 5.00245 3.00517C2.25914 3.00517 0 5.6095 0 7.89362C0 9.34249 0.336208 10.4992 0.75716 11.3957C1.6947 13.3925 3.43328 14.938 5.56002 15.619C6.33022 15.8656 7.15067 16 8.00283 16C8.88661 16 9.73601 15.8546 10.5309 15.5901C10.0815 15.7311 9.60509 15.8083 9.11092 15.8083C8.19398 15.8083 7.33934 15.5423 6.60694 15.0884Z"
    fill="url(#paint2_linear_18976_81505)" />
  <path
    d="M6.60694 15.0884C6.05105 14.7438 5.56848 14.2894 5.18599 13.7524C4.59411 12.9214 4.24027 11.8992 4.24027 10.7894C4.24027 9.15628 5.00074 7.70976 6.17297 6.79325C6.4392 6.5851 6.78008 6.37516 7.03123 6.25628C7.22626 6.16395 7.55981 5.99769 8.00283 6.00397C8.7373 6.01439 9.29226 6.38883 9.60814 6.81412C9.85085 7.14087 10.0005 7.54343 10.0055 7.98043C10.0057 7.9673 11.5345 3.00517 5.00245 3.00517C2.25914 3.00517 0 5.6095 0 7.89362C0 9.34249 0.336208 10.4992 0.75716 11.3957C1.6947 13.3925 3.43328 14.938 5.56002 15.619C6.33022 15.8656 7.15067 16 8.00283 16C8.88661 16 9.73601 15.8546 10.5309 15.5901C10.0815 15.7311 9.60509 15.8083 9.11092 15.8083C8.19398 15.8083 7.33934 15.5423 6.60694 15.0884Z"
    fill="url(#paint3_radial_18976_81505)" />
  <path
    d="M9.51965 9.30359C9.46898 9.36917 9.31316 9.4597 9.31316 9.65758C9.31316 9.82035 9.41944 9.97741 9.60828 10.1092C10.5071 10.7365 12.2011 10.6519 12.2057 10.6519C12.905 10.6495 13.5342 10.4572 14.0977 10.1277C14.3541 9.97778 14.5914 9.79973 14.8054 9.59645C15.5396 8.89877 15.9872 7.91557 15.9996 6.82315C16.0156 5.42217 15.5021 4.49079 15.2911 4.07838C13.9665 1.48975 11.1074 0 7.99862 0C3.61647 0 0.0591731 3.52163 0.000368125 7.88751C0.0300756 5.60359 2.29998 3.75929 4.99824 3.75929C5.21701 3.75929 6.46461 3.78062 7.62357 4.38888C8.64447 4.92467 9.17971 5.5721 9.55172 6.21436C9.93797 6.88123 10.0067 7.72349 10.0067 8.0593C10.0067 8.3951 9.83739 8.8923 9.51965 9.30359Z"
    fill="url(#paint4_radial_18976_81505)" />
  <path
    d="M9.51965 9.30359C9.46898 9.36917 9.31316 9.4597 9.31316 9.65758C9.31316 9.82035 9.41944 9.97741 9.60828 10.1092C10.5071 10.7365 12.2011 10.6519 12.2057 10.6519C12.905 10.6495 13.5342 10.4572 14.0977 10.1277C14.3541 9.97778 14.5914 9.79973 14.8054 9.59645C15.5396 8.89877 15.9872 7.91557 15.9996 6.82315C16.0156 5.42217 15.5021 4.49079 15.2911 4.07838C13.9665 1.48975 11.1074 0 7.99862 0C3.61647 0 0.0591731 3.52163 0.000368125 7.88751C0.0300756 5.60359 2.29998 3.75929 4.99824 3.75929C5.21701 3.75929 6.46461 3.78062 7.62357 4.38888C8.64447 4.92467 9.17971 5.5721 9.55172 6.21436C9.93797 6.88123 10.0067 7.72349 10.0067 8.0593C10.0067 8.3951 9.83739 8.8923 9.51965 9.30359Z"
    fill="url(#paint5_radial_18976_81505)" />
  <path
    d="M5.21821 15.9257C5.13629 15.8892 5.0134 15.799 4.94514 15.725L4.82101 15.5906L4.80783 13.6955C4.79509 11.8635 4.79802 11.7949 4.8958 11.636C5.07001 11.353 5.19982 11.3287 6.5384 11.3287C6.5384 11.3287 9.82029 11.3286 11.6269 11.3288C15.1647 11.3288 15.4585 11.3353 15.6162 11.4157C15.7099 11.4634 15.8327 11.5656 15.8893 11.6427C15.989 11.7786 15.9921 11.8396 15.9921 13.6622C15.9921 15.4741 15.9885 15.5465 15.8912 15.6768C15.8357 15.7511 15.7132 15.8533 15.6189 15.9038C15.4553 15.9916 15.22 15.9957 10.4073 15.9938C6.31796 15.9922 5.33906 15.9794 5.21821 15.9257Z"
    fill="#50E6FF" />
  <path
    d="M6.1895 12.3706L6.53395 12.3717C6.7234 12.3723 7.03177 12.3804 7.21923 12.3897C7.51674 12.4044 7.57485 12.4134 7.67638 12.4598C7.89756 12.5611 8.01243 12.7416 8.01243 12.9878C8.01243 13.1331 7.98777 13.1808 7.82184 13.3561C7.74013 13.4424 7.67328 13.5229 7.67328 13.5351C7.67328 13.5472 7.70714 13.5712 7.74853 13.5885C7.86107 13.6355 8.06736 13.8515 8.09508 13.9514C8.12719 14.067 8.12411 14.2052 8.08618 14.3508C8.02402 14.5894 7.86654 14.75 7.6141 14.8322C7.48408 14.8745 7.41704 14.8793 6.83071 14.888L6.1895 14.8976V12.3706ZM7.32112 14.434C7.4492 14.3857 7.50371 14.2975 7.50371 14.1384C7.50371 13.9232 7.3603 13.8293 7.01088 13.816L6.78301 13.8073L6.78333 14.1011C6.7837 14.5241 6.76836 14.4985 7.01414 14.4846C7.13311 14.4778 7.26055 14.4568 7.32112 14.434ZM7.22523 13.3154C7.36995 13.2405 7.45826 13.0379 7.39093 12.9352C7.31983 12.8266 6.96927 12.7227 6.84008 12.7718L6.78301 12.7935V13.3788L6.97196 13.3637C7.07588 13.3554 7.18985 13.3337 7.22523 13.3154Z"
    fill="#1A1A1A" />
  <path
    d="M8.66954 12.3706H10.1533V12.8157H9.26305V13.3669H10.0473V13.8544H9.26305V14.4691H10.1957V14.893H8.66954V12.3706Z"
    fill="#1A1A1A" />
  <path
    d="M11.206 14.3809C11.1983 14.0992 11.192 13.638 11.192 13.3559V12.8432L11.0298 12.8295C10.9406 12.8219 10.7784 12.8157 10.6695 12.8157H10.4713V12.3706H12.485V12.8157H11.7855V14.893H11.22L11.206 14.3809Z"
    fill="#1A1A1A" />
  <path
    d="M12.4214 14.8809C12.4214 14.8743 12.6133 14.3425 12.8479 13.6992C13.0824 13.0559 13.2837 12.5034 13.2951 12.4713L13.3158 12.413H14.0449L14.0892 12.5455C14.1135 12.6184 14.3077 13.1677 14.5208 13.7663C14.8362 14.6523 14.9027 14.8581 14.8783 14.8735C14.8619 14.8839 14.7227 14.8925 14.569 14.8927L14.2896 14.8931L14.1159 14.342H13.2075L13.1656 14.4851C13.1426 14.5637 13.1085 14.6816 13.0899 14.7469L13.0561 14.8656L12.85 14.8792C12.5941 14.8962 12.4214 14.8968 12.4214 14.8809ZM13.9688 13.8892C13.9688 13.8492 13.7023 13.0085 13.6837 12.9899C13.6523 12.9586 13.6029 13.0706 13.4893 13.4305C13.4249 13.6345 13.3639 13.8276 13.3537 13.8597L13.3351 13.918H13.6519C13.9046 13.918 13.9688 13.9122 13.9688 13.8892Z"
    fill="#1A1A1A" />
  <defs>
    <linearGradient id="paint0_linear_18976_81505" x1="-8.07468e-07" y1="8" x2="16" y2="8"
      gradientUnits="userSpaceOnUse">
      <stop stop-color="#0C59A4" />
      <stop offset="1" stop-color="#114A8B" />
    </linearGradient>
    <radialGradient id="paint1_radial_18976_81505" cx="0" cy="0" r="1"
      gradientUnits="userSpaceOnUse"
      gradientTransform="translate(8.83737 8.13853) scale(8.55773 9.43123)">
      <stop offset="0.71659" stop-opacity="0" />
      <stop offset="0.9459" stop-opacity="0.53" />
      <stop offset="1" />
    </radialGradient>
    <linearGradient id="paint2_linear_18976_81505" x1="14.5024" y1="3.9709" x2="6.26172"
      y2="15.0471" gradientUnits="userSpaceOnUse">
      <stop stop-color="#1B9DE2" />
      <stop offset="0.16164" stop-color="#1595DF" />
      <stop offset="0.66749" stop-color="#0680D7" />
      <stop offset="1" stop-color="#0078D4" />
    </linearGradient>
    <radialGradient id="paint3_radial_18976_81505" cx="0" cy="0" r="1"
      gradientUnits="userSpaceOnUse"
      gradientTransform="translate(6.77101 11.5878) rotate(-79.5071) scale(11.0858 10.8976)">
      <stop offset="0.76293" stop-opacity="0" />
      <stop offset="0.9459" stop-opacity="0.5" />
      <stop offset="1" />
    </radialGradient>
    <radialGradient id="paint4_radial_18976_81505" cx="0" cy="0" r="1"
      gradientUnits="userSpaceOnUse"
      gradientTransform="translate(1.5768 4.39251) rotate(91.4183) scale(18.9901 26.9575)">
      <stop stop-color="#35C1F1" />
      <stop offset="0.11079" stop-color="#34C1ED" />
      <stop offset="0.23164" stop-color="#2FC2DF" />
      <stop offset="0.31446" stop-color="#2BC3D2" />
      <stop offset="0.67338" stop-color="#36C752" />
    </radialGradient>
    <radialGradient id="paint5_radial_18976_81505" cx="0" cy="0" r="1"
      gradientUnits="userSpaceOnUse"
      gradientTransform="translate(15.1543 7.28009) rotate(78.9619) scale(8.93171 5.07999)">
      <stop stop-color="#66EB6E" />
      <stop offset="1" stop-color="#66EB6E" stop-opacity="0" />
    </radialGradient>
  </defs>
</svg>
