<svg viewBox="0 0 16 16" fill="none" xmlns="http://www.w3.org/2000/svg">
  <path
    d="M14.0246 8.57835H6.01725C5.90393 8.57835 5.79525 8.62337 5.71513 8.7035C5.635 8.78362 5.58998 8.8923 5.58998 9.00562V10.287C5.58998 11.1931 5.9499 12.0621 6.59058 12.7029C7.23125 13.3436 8.10021 13.7037 9.00632 13.7038H13.4377C14.1173 13.7037 14.769 13.4336 15.2495 12.953C15.73 12.4724 16 11.8207 16 11.1411V10.0198C16 9.37954 15.3593 8.57835 14.0246 8.57835Z"
    fill="black" />
  <path
    d="M14.0246 8.57835H6.01725C5.90393 8.57835 5.79525 8.62337 5.71513 8.7035C5.635 8.78362 5.58998 8.8923 5.58998 9.00562V10.287C5.58998 11.1931 5.9499 12.0621 6.59058 12.7029C7.23125 13.3436 8.10021 13.7037 9.00632 13.7038H13.4377C14.1173 13.7037 14.769 13.4336 15.2495 12.953C15.73 12.4724 16 11.8207 16 11.1411V10.0198C16 9.37954 15.3593 8.57835 14.0246 8.57835Z"
    fill="#008787" />
  <path
    d="M14.9296 5.36793C14.5927 4.55722 13.9092 3.6819 13.374 3.40519C13.7557 4.14425 14.0206 4.93795 14.1593 5.75807L14.1607 5.77108C13.284 3.58626 11.7978 2.70393 10.5834 0.785209C10.5219 0.688172 10.4605 0.590936 10.4007 0.488297C10.3665 0.429675 10.3391 0.376855 10.3153 0.328237C10.2649 0.230711 10.2261 0.127643 10.1996 0.021122C10.1997 0.0162066 10.1979 0.0114502 10.1946 0.00776002C10.1914 0.00406986 10.1869 0.00170428 10.182 0.00111454C10.1772 -0.000196483 10.1722 -0.000196483 10.1674 0.00111454C10.1664 0.00111454 10.1648 0.00291522 10.1636 0.00331537C10.1624 0.00371552 10.1598 0.00551619 10.158 0.0063165L10.161 0.00111454C8.21327 1.14154 7.55203 3.25233 7.492 4.30873C6.7139 4.36208 5.96995 4.64871 5.3572 5.13124C5.2933 5.07711 5.22651 5.02648 5.15713 4.97958C4.98046 4.36114 4.97293 3.70662 5.13532 3.08427C4.42002 3.43076 3.78445 3.92197 3.26882 4.52681H3.26522C2.9579 4.13727 2.97951 2.85278 2.99712 2.58448C2.9062 2.62102 2.81942 2.6671 2.73822 2.72194C2.46692 2.91556 2.21331 3.13282 1.98034 3.37118C1.71485 3.64034 1.47238 3.93127 1.25546 4.24091C0.756984 4.94749 0.403384 5.74561 0.215074 6.58959L0.20467 6.64081C0.190064 6.70903 0.137445 7.05076 0.128441 7.12499C0.128441 7.13079 0.127241 7.13619 0.126641 7.14199C0.0587649 7.49479 0.0167043 7.85208 0.000793457 8.21099V8.25101C0.00422041 10.1914 0.734986 12.0601 2.04883 13.4881C3.36268 14.916 5.16413 15.7996 7.09757 15.9642C9.03101 16.1289 10.9559 15.5628 12.4924 14.3776C14.0288 13.1924 15.065 11.4742 15.3966 9.5623C15.4096 9.46226 15.4202 9.36323 15.4318 9.26219C15.5915 7.94207 15.4186 6.60297 14.9288 5.36673L14.9296 5.36793ZM5.99224 11.4382C6.02845 11.4556 6.06247 11.4744 6.09968 11.491L6.10508 11.4944C6.06747 11.4764 6.02986 11.4577 5.99224 11.4382ZM14.1609 5.77328V5.76588L14.1623 5.77408L14.1609 5.77328Z"
    fill="url(#paint0_linear_18981_81597)" />
  <path
    d="M14.9296 5.36793C14.5927 4.55722 13.9092 3.6819 13.374 3.40519C13.7557 4.14425 14.0206 4.93795 14.1593 5.75807L14.1593 5.76548L14.1609 5.77328C14.7587 7.48373 14.672 9.35944 13.9194 11.0076C13.0307 12.9146 10.8803 14.8691 7.51301 14.7731C3.87565 14.67 0.670445 11.97 0.0722211 8.43468C-0.0368198 7.87707 0.0718201 7.59516 0.126641 7.14199C0.0518627 7.494 0.0105335 7.85142 0.00239488 8.21119V8.25121C0.00582184 10.1916 0.736587 12.0603 2.05043 13.4883C3.36428 14.9162 5.16573 15.7998 7.09917 15.9644C9.03261 16.1291 10.9575 15.563 12.494 14.3778C14.0304 13.1926 15.0666 11.4744 15.3982 9.5625C15.4112 9.46246 15.4218 9.36343 15.4334 9.26239C15.5931 7.94227 15.4202 6.60317 14.9304 5.36693L14.9296 5.36793Z"
    fill="url(#paint1_radial_18981_81597)" />
  <path
    d="M14.9296 5.36793C14.5927 4.55722 13.9092 3.6819 13.374 3.40519C13.7557 4.14425 14.0206 4.93795 14.1593 5.75807L14.1593 5.76548L14.1609 5.77328C14.7587 7.48373 14.672 9.35944 13.9194 11.0076C13.0307 12.9146 10.8803 14.8691 7.51301 14.7731C3.87565 14.67 0.670445 11.97 0.0722211 8.43468C-0.0368198 7.87707 0.0718201 7.59516 0.126641 7.14199C0.0518627 7.494 0.0105335 7.85142 0.00239488 8.21119V8.25121C0.00582184 10.1916 0.736587 12.0603 2.05043 13.4883C3.36428 14.9162 5.16573 15.7998 7.09917 15.9644C9.03261 16.1291 10.9575 15.563 12.494 14.3778C14.0304 13.1926 15.0666 11.4744 15.3982 9.5625C15.4112 9.46246 15.4218 9.36343 15.4334 9.26239C15.5931 7.94227 15.4202 6.60317 14.9304 5.36693L14.9296 5.36793Z"
    fill="url(#paint2_radial_18981_81597)" />
  <path
    d="M11.1602 6.27827C11.177 6.29008 11.1926 6.30188 11.2084 6.31368C11.0136 5.96829 10.7711 5.65207 10.4881 5.37433C8.07722 2.96343 9.85649 0.148372 10.1564 0.0043182L10.1594 -8.34491e-05C8.21168 1.14034 7.55043 3.25114 7.4904 4.30753C7.58084 4.30133 7.67047 4.29373 7.76291 4.29373C8.45393 4.29506 9.13229 4.47935 9.729 4.82786C10.3257 5.17636 10.8195 5.67705 11.1602 6.27827Z"
    fill="url(#paint3_radial_18981_81597)" />
  <path
    d="M7.76691 6.76045C7.7541 6.95333 7.07265 7.61858 6.83436 7.61858C4.62953 7.61858 4.2714 8.95248 4.2714 8.95248C4.36903 10.0757 5.15173 11.0012 6.09788 11.4894C6.1411 11.5118 6.18491 11.532 6.22873 11.5519C6.30462 11.5855 6.38052 11.6165 6.45641 11.6451C6.78113 11.76 7.12123 11.8256 7.46539 11.8398C11.3308 12.021 12.0791 7.21803 9.28988 5.8235C9.94783 5.73789 10.6147 5.90047 11.1602 6.27827C10.8195 5.67705 10.3257 5.17636 9.729 4.82786C9.13229 4.47935 8.45393 4.29506 7.76291 4.29373C7.67047 4.29373 7.58084 4.30133 7.4904 4.30753C6.7123 4.36088 5.96774 4.64712 5.355 5.12964C5.47325 5.22968 5.6067 5.36333 5.8878 5.64043C6.414 6.15883 7.7635 6.69583 7.76651 6.75885L7.76691 6.76045Z"
    fill="url(#paint4_radial_18981_81597)" />
  <path
    d="M7.76691 6.76045C7.7541 6.95333 7.07265 7.61858 6.83436 7.61858C4.62953 7.61858 4.2714 8.95248 4.2714 8.95248C4.36903 10.0757 5.15173 11.0012 6.09788 11.4894C6.1411 11.5118 6.18491 11.532 6.22873 11.5519C6.30462 11.5855 6.38052 11.6165 6.45641 11.6451C6.78113 11.76 7.12123 11.8256 7.46539 11.8398C11.3308 12.021 12.0791 7.21803 9.28988 5.8235C9.94783 5.73789 10.6147 5.90047 11.1602 6.27827C10.8195 5.67705 10.3257 5.17636 9.729 4.82786C9.13229 4.47935 8.45393 4.29506 7.76291 4.29373C7.67047 4.29373 7.58084 4.30133 7.4904 4.30753C6.7123 4.36088 5.96774 4.64712 5.355 5.12964C5.47325 5.22968 5.6067 5.36333 5.8878 5.64043C6.414 6.15883 7.7635 6.69583 7.76651 6.75885L7.76691 6.76045Z"
    fill="url(#paint5_radial_18981_81597)" />
  <path
    d="M4.99386 4.87374C5.05669 4.91375 5.10851 4.94857 5.15392 4.97998C4.97726 4.36153 4.96973 3.70702 5.13212 3.08467C4.41682 3.43116 3.78085 3.92197 3.26522 4.52681C3.30303 4.52581 4.42825 4.506 4.99386 4.87374Z"
    fill="url(#paint6_radial_18981_81597)" />
  <path
    d="M0.0708195 8.43508C0.669244 11.9704 3.87425 14.6714 7.51161 14.7735C10.8789 14.8687 13.0297 12.914 13.918 11.008C14.6706 9.35985 14.7571 7.48454 14.1593 5.77408V5.76668C14.1593 5.76088 14.1581 5.75748 14.1593 5.75928L14.1607 5.77228C14.4358 7.56836 13.5223 9.30761 12.0939 10.4861L12.0895 10.4961C9.30648 12.7629 6.64348 11.8634 6.10528 11.4964C6.06767 11.4784 6.03005 11.4597 5.99244 11.4402C4.37003 10.6647 3.69958 9.18737 3.84363 7.91889C3.45851 7.92457 3.08 7.81845 2.75397 7.61337C2.42794 7.40829 2.16839 7.11306 2.00675 6.76346C2.43267 6.50255 2.9183 6.35505 3.41738 6.33502C3.91646 6.31498 4.41235 6.42308 4.85781 6.64901C5.77601 7.06579 6.82082 7.10687 7.76891 6.76346C7.76591 6.70043 6.4164 6.16323 5.8902 5.64504C5.6091 5.36793 5.47565 5.23448 5.3574 5.13424C5.2935 5.08012 5.22671 5.02949 5.15733 4.98259C5.11131 4.95118 5.05949 4.91716 4.99727 4.87635C4.43165 4.50861 3.30683 4.52882 3.26962 4.52982H3.26602C2.9587 4.14027 2.98031 2.85579 2.99792 2.58749C2.907 2.62403 2.82022 2.6701 2.73902 2.72494C2.46772 2.91856 2.21411 3.13582 1.98114 3.37418C1.7147 3.64259 1.47123 3.93285 1.25326 4.24191C0.754783 4.9485 0.401183 5.74662 0.212873 6.59059C0.209071 6.6064 -0.0664319 7.81085 0.069419 8.43548L0.0708195 8.43508Z"
    fill="url(#paint7_radial_18981_81597)" />
  <path
    d="M10.4881 5.37433C10.7711 5.65207 11.0136 5.96829 11.2084 6.31368C11.251 6.3459 11.2906 6.37851 11.3244 6.40952C13.0825 8.03013 12.1614 10.321 12.0927 10.4831C13.5209 9.30641 14.4336 7.56596 14.1595 5.76929C13.2824 3.58247 11.7946 2.70013 10.5822 0.781415C10.5207 0.684379 10.4593 0.587142 10.3995 0.484504C10.3653 0.425882 10.3379 0.373062 10.3141 0.324444C10.2637 0.226918 10.2249 0.123849 10.1984 0.0173287C10.1985 0.0124133 10.1967 0.00765679 10.1934 0.00396663C10.1902 0.000276476 10.1857 -0.0020891 10.1808 -0.00267884C10.176 -0.00398987 10.171 -0.00398987 10.1662 -0.00267884C10.1652 -0.00267884 10.1636 -0.000878165 10.1624 -0.000478015C10.1612 -7.78653e-05 10.1586 0.00172281 10.1568 0.00252311C9.85689 0.144776 8.07802 2.96163 10.4889 5.37054L10.4881 5.37433Z"
    fill="url(#paint8_radial_18981_81597)" />
  <path
    d="M11.3244 6.40952C11.2906 6.37851 11.2506 6.3473 11.208 6.31509C11.1922 6.30328 11.1766 6.29148 11.1598 6.27967C10.6143 5.90187 9.94803 5.74009 9.29008 5.8257C12.0791 7.22023 11.3308 12.022 7.46559 11.842C7.12143 11.8278 6.78133 11.7622 6.45661 11.6473C6.38072 11.6189 6.30482 11.5878 6.22893 11.5541C6.18511 11.534 6.1413 11.514 6.09808 11.4916L6.10348 11.495C6.64248 11.863 9.30468 12.7619 12.0877 10.4947L12.0921 10.4847C12.1616 10.3226 13.0827 8.03173 11.3238 6.41112L11.3244 6.40952Z"
    fill="url(#paint9_radial_18981_81597)" />
  <path
    d="M4.2716 8.95127C4.2716 8.95127 4.62953 7.61737 6.83456 7.61737C7.07285 7.61737 7.7543 6.95173 7.76651 6.75885C6.81842 7.10226 5.77421 7.06158 4.85601 6.6448C4.41055 6.41887 3.91466 6.31077 3.41558 6.33081C2.9165 6.35084 2.43087 6.49834 2.00495 6.75925C2.16659 7.10885 2.42615 7.40408 2.75218 7.60916C3.0782 7.81424 3.45671 7.92036 3.84183 7.91468C3.69818 9.18256 4.36843 10.6597 5.99064 11.436C6.02685 11.4534 6.06067 11.4728 6.09788 11.4894C5.15093 11.0002 4.36923 10.0739 4.2716 8.95127Z"
    fill="url(#paint10_radial_18981_81597)" />
  <path
    d="M14.9296 5.36793C14.5927 4.55722 13.9092 3.6819 13.374 3.40519C13.7557 4.14425 14.0206 4.93795 14.1593 5.75807L14.1607 5.77108C13.284 3.58626 11.7978 2.70393 10.5834 0.785209C10.5219 0.688172 10.4605 0.590936 10.4007 0.488297C10.3665 0.429675 10.3391 0.376855 10.3153 0.328237C10.2649 0.230711 10.2261 0.127643 10.1996 0.021122C10.1997 0.0162066 10.1979 0.0114502 10.1946 0.00776002C10.1914 0.00406986 10.1869 0.00170428 10.182 0.00111454C10.1772 -0.000196483 10.1722 -0.000196483 10.1674 0.00111454C10.1664 0.00111454 10.1648 0.00291522 10.1636 0.00331537C10.1624 0.00371552 10.1598 0.00551619 10.158 0.0063165L10.161 0.00111454C8.21327 1.14154 7.55203 3.25233 7.492 4.30873C7.58244 4.30253 7.67207 4.29493 7.76451 4.29493C8.45554 4.29626 9.13389 4.48055 9.7306 4.82906C10.3273 5.17756 10.8211 5.67785 11.1618 6.27907C10.6163 5.90127 9.95004 5.73949 9.29208 5.8251C12.0811 7.21962 11.3328 12.0214 7.4676 11.8414C7.12344 11.8272 6.78334 11.7616 6.45862 11.6467C6.38272 11.6183 6.30683 11.5872 6.23093 11.5534C6.18712 11.5334 6.1429 11.5134 6.09968 11.491L6.10508 11.4944C6.06747 11.4764 6.02986 11.4577 5.99224 11.4382C6.02845 11.4556 6.06247 11.4744 6.09968 11.491C5.15273 11.0016 4.37123 10.0765 4.2736 8.95407C4.2736 8.95407 4.63153 7.62017 6.83656 7.62017C7.07485 7.62017 7.75691 6.95492 7.76911 6.76205C7.76611 6.69903 6.4166 6.16183 5.89041 5.64363C5.6093 5.36653 5.47585 5.23308 5.3576 5.13284C5.2937 5.07871 5.22691 5.02808 5.15753 4.98118C4.98086 4.36274 4.97333 3.70822 5.13572 3.08587C4.42043 3.43236 3.78485 3.92357 3.26922 4.52841H3.26562C2.9583 4.13887 2.97991 2.85438 2.99752 2.58608C2.9066 2.62262 2.81982 2.6687 2.73862 2.72354C2.46733 2.91716 2.21371 3.13442 1.98074 3.37278C1.71525 3.64194 1.47238 3.93247 1.25546 4.24211C0.756984 4.94869 0.403784 5.74721 0.215474 6.59119L0.20507 6.64241C0.190465 6.71063 0.12504 7.05716 0.115637 7.13159C0.0557945 7.4893 0.0175775 7.85029 0.00119381 8.21259V8.25261C0.00462077 10.193 0.735387 12.0617 2.04923 13.4897C3.36308 14.9176 5.16453 15.8012 7.09797 15.9658C9.03141 16.1305 10.9563 15.5644 12.4928 14.3792C14.0292 13.194 15.0654 11.4758 15.397 9.5639C15.41 9.46386 15.4206 9.36483 15.4322 9.26379C15.5919 7.94367 15.4194 6.60417 14.9296 5.36793Z"
    fill="url(#paint11_linear_18981_81597)" />
  <path
    d="M15.5315 10.359H7.45998C7.00563 10.359 6.55572 10.4484 6.13593 10.6222C5.71615 10.7961 5.33472 11.0509 5.01342 11.3721C4.69212 11.6934 4.43725 12.0748 4.26337 12.4945C4.08948 12.9143 3.99998 13.3642 3.99998 13.8185V15.5105C4.00011 15.6347 4.04953 15.7537 4.13738 15.8415C4.22522 15.9293 4.34431 15.9785 4.46848 15.9785H12.54C12.9943 15.9786 13.4442 15.8892 13.864 15.7153C14.2838 15.5415 14.6652 15.2867 14.9865 14.9655C15.3078 14.6442 15.5627 14.2628 15.7366 13.8431C15.9105 13.4233 16 12.9734 16 12.519V9.89054C16 10.0148 15.9506 10.134 15.8628 10.2218C15.7749 10.3097 15.6557 10.359 15.5315 10.359Z"
    fill="url(#paint12_linear_18981_81597)" />
  <path
    d="M7.61198 13.137C7.69615 13.0913 7.76582 13.0228 7.8131 12.9395C7.86037 12.8562 7.88337 12.7613 7.87948 12.6655C7.87948 12.2485 7.58948 12.0155 7.07448 12.0155H6.11298V14.3405H7.08098C7.59598 14.3405 7.91498 14.1115 7.91498 13.6525C7.91498 13.411 7.80598 13.235 7.61198 13.137ZM6.55498 12.4135H7.08348C7.31848 12.4135 7.43048 12.5125 7.43048 12.675C7.43048 12.834 7.32848 12.952 7.09048 12.952H6.55548L6.55498 12.4135ZM7.08648 13.9355H6.55498V13.3555H7.06748C7.35098 13.3555 7.45948 13.4605 7.45948 13.642C7.45948 13.8235 7.33198 13.9355 7.08648 13.9355ZM8.34398 14.3405H9.90748V13.914H8.79248V13.3855H9.90748V12.962H8.79248V12.4385H9.90748V12.015H8.34398V14.3405ZM12.0215 12.0155H10.2925V12.4295H10.939V14.3395H11.3815V12.4295H12.0215V12.0155ZM13.225 12.0155H12.7825L11.9035 14.3405H12.3655L12.518 13.917H13.4895L13.642 14.3405H14.104L13.225 12.0155ZM12.668 13.509L13.0055 12.5855L13.3395 13.509H12.668Z"
    fill="#20123A" />
  <defs>
    <linearGradient id="paint0_linear_18981_81597" x1="14.3614" y1="2.47507" x2="1.47545"
      y2="15.3132" gradientUnits="userSpaceOnUse">
      <stop offset="0.048" stop-color="#FFF44F" />
      <stop offset="0.111" stop-color="#FFE847" />
      <stop offset="0.225" stop-color="#FFC830" />
      <stop offset="0.368" stop-color="#FF980E" />
      <stop offset="0.401" stop-color="#FF8B16" />
      <stop offset="0.462" stop-color="#FF672A" />
      <stop offset="0.534" stop-color="#FF3647" />
      <stop offset="0.705" stop-color="#E31587" />
    </linearGradient>
    <radialGradient id="paint1_radial_18981_81597" cx="0" cy="0" r="1"
      gradientUnits="userSpaceOnUse"
      gradientTransform="translate(13.8451 -2.043) scale(16.6988 20.5459)">
      <stop offset="0.129" stop-color="#FFBD4F" />
      <stop offset="0.186" stop-color="#FFAC31" />
      <stop offset="0.247" stop-color="#FF9D17" />
      <stop offset="0.283" stop-color="#FF980E" />
      <stop offset="0.403" stop-color="#FF563B" />
      <stop offset="0.467" stop-color="#FF3750" />
      <stop offset="0.71" stop-color="#F5156C" />
      <stop offset="0.782" stop-color="#EB0878" />
      <stop offset="0.86" stop-color="#E50080" />
    </radialGradient>
    <radialGradient id="paint2_radial_18981_81597" cx="0" cy="0" r="1"
      gradientUnits="userSpaceOnUse"
      gradientTransform="translate(7.64506 6.34829) scale(16.6988 20.5459)">
      <stop offset="0.3" stop-color="#960E18" />
      <stop offset="0.351" stop-color="#B11927" stop-opacity="0.74" />
      <stop offset="0.435" stop-color="#DB293D" stop-opacity="0.343" />
      <stop offset="0.497" stop-color="#F5334B" stop-opacity="0.094" />
      <stop offset="0.53" stop-color="#FF3750" stop-opacity="0" />
    </radialGradient>
    <radialGradient id="paint3_radial_18981_81597" cx="0" cy="0" r="1"
      gradientUnits="userSpaceOnUse"
      gradientTransform="translate(8.23328 -4.56612) scale(50.3919 29.6712)">
      <stop offset="0.132" stop-color="#FFF44F" />
      <stop offset="0.252" stop-color="#FFDC3E" />
      <stop offset="0.506" stop-color="#FF9D12" />
      <stop offset="0.526" stop-color="#FF980E" />
    </radialGradient>
    <radialGradient id="paint4_radial_18981_81597" cx="0" cy="0" r="1"
      gradientUnits="userSpaceOnUse"
      gradientTransform="translate(3.09161 17.6036) scale(17.8776 16.3057)">
      <stop offset="0.353" stop-color="#3A8EE6" />
      <stop offset="0.472" stop-color="#5C79F0" />
      <stop offset="0.669" stop-color="#9059FF" />
      <stop offset="1" stop-color="#C139E6" />
    </radialGradient>
    <radialGradient id="paint5_radial_18981_81597" cx="0" cy="0" r="1"
      gradientUnits="userSpaceOnUse"
      gradientTransform="translate(9.09014 5.76287) rotate(-12.4354) scale(9.4361 10.1704)">
      <stop offset="0.206" stop-color="#9059FF" stop-opacity="0" />
      <stop offset="0.278" stop-color="#8C4FF3" stop-opacity="0.064" />
      <stop offset="0.747" stop-color="#7716A8" stop-opacity="0.45" />
      <stop offset="0.975" stop-color="#6E008B" stop-opacity="0.6" />
    </radialGradient>
    <radialGradient id="paint6_radial_18981_81597" cx="0" cy="0" r="1"
      gradientUnits="userSpaceOnUse"
      gradientTransform="translate(33.3587 -15.9083) scale(46.9228 46.7445)">
      <stop stop-color="#FFE226" />
      <stop offset="0.121" stop-color="#FFDB27" />
      <stop offset="0.295" stop-color="#FFC82A" />
      <stop offset="0.502" stop-color="#FFA930" />
      <stop offset="0.732" stop-color="#FF7E37" />
      <stop offset="0.792" stop-color="#FF7139" />
    </radialGradient>
    <radialGradient id="paint7_radial_18981_81597" cx="0" cy="0" r="1"
      gradientUnits="userSpaceOnUse"
      gradientTransform="translate(12.7516 -6.55063) scale(26.0347 31.011)">
      <stop offset="0.113" stop-color="#FFF44F" />
      <stop offset="0.456" stop-color="#FF980E" />
      <stop offset="0.622" stop-color="#FF5634" />
      <stop offset="0.716" stop-color="#FF3647" />
      <stop offset="0.904" stop-color="#E31587" />
    </radialGradient>
    <radialGradient id="paint8_radial_18981_81597" cx="0" cy="0" r="1"
      gradientUnits="userSpaceOnUse"
      gradientTransform="translate(1.27934 -1.66223) rotate(77.4321) scale(26.914 35.945)">
      <stop stop-color="#FFF44F" />
      <stop offset="0.06" stop-color="#FFE847" />
      <stop offset="0.168" stop-color="#FFC830" />
      <stop offset="0.304" stop-color="#FF980E" />
      <stop offset="0.356" stop-color="#FF8B16" />
      <stop offset="0.455" stop-color="#FF672A" />
      <stop offset="0.57" stop-color="#FF3647" />
      <stop offset="0.737" stop-color="#E31587" />
    </radialGradient>
    <radialGradient id="paint9_radial_18981_81597" cx="0" cy="0" r="1"
      gradientUnits="userSpaceOnUse"
      gradientTransform="translate(2.8075 -6.7396) scale(37.477 38.18)">
      <stop offset="0.137" stop-color="#FFF44F" />
      <stop offset="0.48" stop-color="#FF980E" />
      <stop offset="0.592" stop-color="#FF5634" />
      <stop offset="0.655" stop-color="#FF3647" />
      <stop offset="0.904" stop-color="#E31587" />
    </radialGradient>
    <radialGradient id="paint10_radial_18981_81597" cx="0" cy="0" r="1"
      gradientUnits="userSpaceOnUse"
      gradientTransform="translate(24.9879 -7.21765) scale(44.8255 50.0477)">
      <stop offset="0.094" stop-color="#FFF44F" />
      <stop offset="0.231" stop-color="#FFE141" />
      <stop offset="0.509" stop-color="#FFAF1E" />
      <stop offset="0.626" stop-color="#FF980E" />
    </radialGradient>
    <linearGradient id="paint11_linear_18981_81597" x1="14.1987" y1="2.41211" x2="3.2524"
      y2="13.7201" gradientUnits="userSpaceOnUse">
      <stop offset="0.167" stop-color="#FFF44F" stop-opacity="0.8" />
      <stop offset="0.266" stop-color="#FFF44F" stop-opacity="0.634" />
      <stop offset="0.489" stop-color="#FFF44F" stop-opacity="0.217" />
      <stop offset="0.6" stop-color="#FFF44F" stop-opacity="0" />
    </linearGradient>
    <linearGradient id="paint12_linear_18981_81597" x1="1.7587" y1="2.45193" x2="18.2464"
      y2="5.99162" gradientUnits="userSpaceOnUse">
      <stop stop-color="#54FFBD" />
      <stop offset="1" stop-color="#00DDFF" />
    </linearGradient>
  </defs>
</svg>
