<svg viewBox="0 0 16 16" fill="none" xmlns="http://www.w3.org/2000/svg">
<g clip-path="url(#clip0_6337_8466)">
<path d="M0 8.00004C0 12.4183 3.58174 16.0001 8.00004 16.0001L11.4649 10.0002C10.7732 11.1957 9.48056 12.0001 8.00004 12.0001C6.5173 12.0001 5.22299 11.1933 4.53211 9.99479L1.07026 4.00002C1.03456 4.06175 0.999652 4.12399 0.965562 4.18675C0.349779 5.3203 0 6.61932 0 8.00004Z" fill="#F4B70A" />
<path d="M8.00004 16.0001C12.4183 16.0001 16.0001 12.4183 16.0001 8.00004C16.0001 6.54288 15.6105 5.17672 14.9298 4.00002H8.00004C10.2092 4.00002 12.0001 5.79089 12.0001 8.00004C12.0001 8.72656 11.8065 9.40757 11.468 9.99479L11.4649 10.0002L8.00004 16.0001Z" fill="#F7CC50"/>
<path fill-rule="evenodd" clip-rule="evenodd" d="M1.07026 4.00002C2.45351 1.6088 5.0389 0 8.00004 0C10.9612 0 13.5466 1.6088 14.9298 4.00002H8.00004C5.79089 4.00002 4.00002 5.79089 4.00002 8.00004C4.00002 8.72645 4.19365 9.40763 4.53211 9.99479L1.07026 4.00002Z" fill="#F19A11"/>
<circle cx="7.99999" cy="8.00002" r="4.00002" fill="white"/>
<circle cx="8" cy="8.00006" r="3.20002" fill="#F6C231"/>
</g>
<defs>
<clipPath id="clip0_6337_8466">
<rect width="16" height="16" fill="white"/>
</clipPath>
</defs>
</svg>
