<svg viewBox="0 0 16 16" fill="none" xmlns="http://www.w3.org/2000/svg">
  <path
    d="M14.4407 11.9084C14.2303 12.0186 14.0106 12.1172 13.7823 12.203C13.096 12.4608 12.3381 12.607 11.5386 12.607C8.58103 12.607 6.00465 10.5725 6.00465 7.96183C6.00465 7.22774 6.42935 6.59145 7.03123 6.25628C4.35654 6.36841 3.66895 9.15628 3.66895 10.7894C3.66895 15.4065 7.92453 15.875 8.84148 15.875C9.33565 15.875 10.0815 15.7311 10.5309 15.5901C10.5583 15.581 10.5856 15.5718 10.6128 15.5624C12.3478 14.9641 13.8121 13.787 14.7746 12.2612C14.9126 12.0424 14.6699 11.7882 14.4407 11.9084Z"
    fill="url(#paint0_linear_18977_81521)" />
  <path
    d="M14.4407 11.9084C14.2303 12.0186 14.0106 12.1172 13.7823 12.203C13.096 12.4608 12.3381 12.607 11.5386 12.607C8.58103 12.607 6.00465 10.5725 6.00465 7.96183C6.00465 7.22774 6.42935 6.59145 7.03123 6.25628C4.35654 6.36841 3.66895 9.15628 3.66895 10.7894C3.66895 15.4065 7.92453 15.875 8.84148 15.875C9.33565 15.875 10.0815 15.7311 10.5309 15.5901C10.5583 15.581 10.5856 15.5718 10.6128 15.5624C12.3478 14.9641 13.8121 13.787 14.7746 12.2612C14.9126 12.0424 14.6699 11.7882 14.4407 11.9084Z"
    fill="url(#paint1_radial_18977_81521)" />
  <path
    d="M6.60694 15.0884C6.05105 14.7438 5.56848 14.2894 5.18599 13.7524C4.59411 12.9214 4.24027 11.8992 4.24027 10.7894C4.24027 9.15628 5.00074 7.70976 6.17297 6.79325C6.4392 6.5851 6.78008 6.37516 7.03123 6.25628C7.22626 6.16395 7.55981 5.99769 8.00283 6.00397C8.7373 6.01439 9.29226 6.38883 9.60814 6.81412C9.85085 7.14087 10.0005 7.54343 10.0055 7.98043C10.0057 7.9673 11.5345 3.00517 5.00245 3.00517C2.25914 3.00517 0 5.6095 0 7.89362C0 9.34249 0.336208 10.4992 0.75716 11.3957C1.6947 13.3925 3.43328 14.938 5.56002 15.619C6.33022 15.8656 7.15067 16 8.00283 16C8.88661 16 9.73601 15.8546 10.5309 15.5901C10.0815 15.7311 9.60509 15.8083 9.11092 15.8083C8.19398 15.8083 7.33934 15.5423 6.60694 15.0884Z"
    fill="url(#paint2_linear_18977_81521)" />
  <path
    d="M6.60694 15.0884C6.05105 14.7438 5.56848 14.2894 5.18599 13.7524C4.59411 12.9214 4.24027 11.8992 4.24027 10.7894C4.24027 9.15628 5.00074 7.70976 6.17297 6.79325C6.4392 6.5851 6.78008 6.37516 7.03123 6.25628C7.22626 6.16395 7.55981 5.99769 8.00283 6.00397C8.7373 6.01439 9.29226 6.38883 9.60814 6.81412C9.85085 7.14087 10.0005 7.54343 10.0055 7.98043C10.0057 7.9673 11.5345 3.00517 5.00245 3.00517C2.25914 3.00517 0 5.6095 0 7.89362C0 9.34249 0.336208 10.4992 0.75716 11.3957C1.6947 13.3925 3.43328 14.938 5.56002 15.619C6.33022 15.8656 7.15067 16 8.00283 16C8.88661 16 9.73601 15.8546 10.5309 15.5901C10.0815 15.7311 9.60509 15.8083 9.11092 15.8083C8.19398 15.8083 7.33934 15.5423 6.60694 15.0884Z"
    fill="url(#paint3_radial_18977_81521)" />
  <path
    d="M9.51965 9.30359C9.46898 9.36917 9.31316 9.4597 9.31316 9.65758C9.31316 9.82035 9.41944 9.97741 9.60828 10.1092C10.5071 10.7365 12.2011 10.6519 12.2057 10.6519C12.905 10.6495 13.5342 10.4572 14.0977 10.1277C14.3541 9.97778 14.5914 9.79973 14.8054 9.59645C15.5396 8.89877 15.9872 7.91557 15.9996 6.82315C16.0156 5.42217 15.5021 4.49079 15.2911 4.07838C13.9665 1.48975 11.1074 0 7.99862 0C3.61647 0 0.0591731 3.52163 0.000368125 7.88751C0.0300756 5.60359 2.29998 3.75929 4.99824 3.75929C5.21701 3.75929 6.46461 3.78062 7.62357 4.38888C8.64447 4.92467 9.17971 5.5721 9.55172 6.21436C9.93797 6.88123 10.0067 7.72349 10.0067 8.0593C10.0067 8.3951 9.83739 8.8923 9.51965 9.30359Z"
    fill="url(#paint4_radial_18977_81521)" />
  <path
    d="M9.51965 9.30359C9.46898 9.36917 9.31316 9.4597 9.31316 9.65758C9.31316 9.82035 9.41944 9.97741 9.60828 10.1092C10.5071 10.7365 12.2011 10.6519 12.2057 10.6519C12.905 10.6495 13.5342 10.4572 14.0977 10.1277C14.3541 9.97778 14.5914 9.79973 14.8054 9.59645C15.5396 8.89877 15.9872 7.91557 15.9996 6.82315C16.0156 5.42217 15.5021 4.49079 15.2911 4.07838C13.9665 1.48975 11.1074 0 7.99862 0C3.61647 0 0.0591731 3.52163 0.000368125 7.88751C0.0300756 5.60359 2.29998 3.75929 4.99824 3.75929C5.21701 3.75929 6.46461 3.78062 7.62357 4.38888C8.64447 4.92467 9.17971 5.5721 9.55172 6.21436C9.93797 6.88123 10.0067 7.72349 10.0067 8.0593C10.0067 8.3951 9.83739 8.8923 9.51965 9.30359Z"
    fill="url(#paint5_radial_18977_81521)" />
  <path
    d="M5.19465 15.9013C4.83011 15.6761 4.85003 15.7981 4.83543 13.7014C4.82305 11.9229 4.82765 11.8067 4.91612 11.6631C5.1227 11.3278 4.81179 11.3457 10.4233 11.3457H15.4887L15.6567 11.458C15.9988 11.6865 16.001 11.7014 15.9862 13.7278C15.9735 15.4731 15.9692 15.5464 15.8706 15.6807C15.8143 15.7574 15.6919 15.8591 15.5987 15.9067C15.4405 15.9873 15.0898 15.9931 10.3861 15.993C5.56268 15.9929 5.33652 15.9889 5.19465 15.9013Z"
    fill="#FCC024" />
  <path
    d="M7.83666 14.9446C7.6374 14.9254 7.55753 14.9085 7.43815 14.8605C7.16159 14.7494 6.96259 14.5734 6.84743 14.3382C6.74924 14.1376 6.71043 13.9094 6.72133 13.5968C6.73432 13.2242 6.83069 13.0062 7.10289 12.7336C7.31588 12.5202 7.54528 12.401 7.82347 12.3591C7.90244 12.3472 8.1095 12.3427 8.20413 12.3508C8.38423 12.3662 8.57021 12.3962 8.59347 12.4135C8.62599 12.4378 8.63842 12.5209 8.63862 12.7154C8.63887 12.9394 8.64502 12.9316 8.49894 12.8932C8.36691 12.8586 8.07989 12.842 7.93588 12.8608C7.76197 12.8834 7.63548 12.9391 7.52945 13.0396C7.39813 13.1642 7.32744 13.3402 7.31059 13.5847C7.29835 13.7623 7.32358 13.9126 7.38838 14.0485C7.45706 14.1924 7.57838 14.3157 7.72261 14.388C7.78045 14.4171 7.87612 14.4484 7.9422 14.4601C8.01566 14.4731 8.15464 14.4731 8.23244 14.4602C8.33431 14.4433 8.40669 14.4195 8.58474 14.3443L8.64152 14.3203L8.63878 14.8441L8.53851 14.8695C8.30326 14.9291 8.20802 14.9425 8.00289 14.9449C7.92307 14.9458 7.84827 14.9457 7.83666 14.9446Z"
    fill="black" />
  <path
    d="M9.05403 14.8948C8.99284 14.8574 9.01481 14.7531 9.18134 14.2907C9.20015 14.2384 9.29388 13.9819 9.38963 13.7207C9.48538 13.4595 9.63209 13.0582 9.71566 12.8289C9.79922 12.5996 9.86776 12.4117 9.86797 12.4113C9.86899 12.4095 10.553 12.3825 10.5547 12.3842C10.5558 12.3853 10.6515 12.6556 10.7674 12.9849C11.1541 14.0834 11.2692 14.4058 11.3982 14.7519C11.429 14.8343 11.4541 14.9026 11.4541 14.9036C11.4541 14.9046 11.3169 14.9054 11.1491 14.9054H10.8441L10.649 14.3382H9.75429L9.71546 14.4569C9.6941 14.5222 9.65252 14.6498 9.62307 14.7405L9.56952 14.9054L9.32051 14.9054C9.08006 14.9054 9.0709 14.905 9.05403 14.8948ZM10.4608 13.907C10.5114 13.8924 10.5182 13.8769 10.4987 13.8205C10.468 13.7318 10.3268 13.2697 10.2106 12.8772C10.209 12.8718 10.2058 12.8694 10.2035 12.8719C10.1978 12.878 10.0082 13.4518 9.96051 13.6071C9.92793 13.7133 9.87655 13.9012 9.87633 13.9151C9.87629 13.9176 10.0015 13.9186 10.1546 13.9173C10.3827 13.9154 10.438 13.9136 10.4608 13.907Z"
    fill="black" />
  <path
    d="M11.9079 12.383L11.9225 12.3829C11.9399 12.3827 12.5171 12.4103 12.5183 12.4113C12.5187 12.4117 12.585 12.5141 12.6655 12.6389C13.2932 13.6121 13.5758 14.04 13.5908 14.04C13.6008 14.04 13.6083 14.0227 13.6151 13.9836C13.632 13.8863 13.6349 13.7677 13.6373 13.0782L13.6398 12.3882H14.1296V14.9055L13.5844 14.9028L13.3685 14.573C12.5993 13.3978 12.4072 13.1052 12.4032 13.1028C12.4007 13.1013 12.3987 13.5062 12.3987 14.0027V14.9054H11.9079L11.9079 12.383Z"
    fill="black" />
  <defs>
    <linearGradient id="paint0_linear_18977_81521" x1="-8.07468e-07" y1="8" x2="16" y2="8"
      gradientUnits="userSpaceOnUse">
      <stop stop-color="#0C59A4" />
      <stop offset="1" stop-color="#114A8B" />
    </linearGradient>
    <radialGradient id="paint1_radial_18977_81521" cx="0" cy="0" r="1"
      gradientUnits="userSpaceOnUse"
      gradientTransform="translate(8.83737 8.13853) scale(8.55773 9.43123)">
      <stop offset="0.71659" stop-opacity="0" />
      <stop offset="0.9459" stop-opacity="0.53" />
      <stop offset="1" />
    </radialGradient>
    <linearGradient id="paint2_linear_18977_81521" x1="14.5024" y1="3.9709" x2="6.26172"
      y2="15.0471" gradientUnits="userSpaceOnUse">
      <stop stop-color="#1B9DE2" />
      <stop offset="0.16164" stop-color="#1595DF" />
      <stop offset="0.66749" stop-color="#0680D7" />
      <stop offset="1" stop-color="#0078D4" />
    </linearGradient>
    <radialGradient id="paint3_radial_18977_81521" cx="0" cy="0" r="1"
      gradientUnits="userSpaceOnUse"
      gradientTransform="translate(6.77101 11.5878) rotate(-79.5071) scale(11.0858 10.8976)">
      <stop offset="0.76293" stop-opacity="0" />
      <stop offset="0.9459" stop-opacity="0.5" />
      <stop offset="1" />
    </radialGradient>
    <radialGradient id="paint4_radial_18977_81521" cx="0" cy="0" r="1"
      gradientUnits="userSpaceOnUse"
      gradientTransform="translate(1.5768 4.39251) rotate(91.4183) scale(18.9901 26.9575)">
      <stop stop-color="#35C1F1" />
      <stop offset="0.11079" stop-color="#34C1ED" />
      <stop offset="0.23164" stop-color="#2FC2DF" />
      <stop offset="0.31446" stop-color="#2BC3D2" />
      <stop offset="0.67338" stop-color="#36C752" />
    </radialGradient>
    <radialGradient id="paint5_radial_18977_81521" cx="0" cy="0" r="1"
      gradientUnits="userSpaceOnUse"
      gradientTransform="translate(15.1543 7.28009) rotate(78.9619) scale(8.93171 5.07999)">
      <stop stop-color="#66EB6E" />
      <stop offset="1" stop-color="#66EB6E" stop-opacity="0" />
    </radialGradient>
  </defs>
</svg>
