<svg viewBox="0 0 24 24" fill="none" xmlns="http://www.w3.org/2000/svg">
  <path d="M16 10V17H19.5C19.7761 17 20 16.7761 20 16.5V12.309C20 12.1196 19.893 11.9465 19.7236 11.8618L16 10Z" fill="#D0D2E0" class="icon-light" />
  <path d="M16 10V6.64039C16 6.3151 15.6943 6.07642 15.3787 6.15532L4.37873 8.90532C4.15615 8.96096 4 9.16095 4 9.39039V16.5C4 16.7761 4.22386 17 4.5 17H16M16 10V17M16 10L19.7236 11.8618C19.893 11.9465 20 12.1196 20 12.309V16.5C20 16.7761 19.7761 17 19.5 17H16" stroke="currentColor" stroke-width="2" class="icon-dark" />
  <path d="M6 12.5C6 12.2239 6.22386 12 6.5 12H7.5C7.77614 12 8 12.2239 8 12.5V13.5C8 13.7761 7.77614 14 7.5 14H6.5C6.22386 14 6 13.7761 6 13.5V12.5Z" fill="#1B1E2E" class="icon-dark" />
  <path d="M12 12.5C12 12.2239 12.2239 12 12.5 12H13.5C13.7761 12 14 12.2239 14 12.5V13.5C14 13.7761 13.7761 14 13.5 14H12.5C12.2239 14 12 13.7761 12 13.5V12.5Z" fill="#1B1E2E" class="icon-dark" />
  <path d="M9 13C9 12.4477 9.44772 12 10 12C10.5523 12 11 12.4477 11 13V16.5C11 16.7761 10.7761 17 10.5 17H9.5C9.22386 17 9 16.7761 9 16.5V13Z" fill="#1B1E2E" class="icon-dark" />
</svg>
