<svg
  viewBox="0 0 16 16"
  fill="none"
  xmlns="http://www.w3.org/2000/svg"
>
  <path
    d="M1 12C1 12.5523 1.44772 13 2 13H14C14.5523 13 15 12.5523 15 12V6H1V12Z"
    fill="currentColor"
    class="icon-light"
  />
  <path
    d="M15 4C15 3.44772 14.5523 3 14 3H2C1.44772 3 1 3.44772 1 4V6H15V4Z"
    fill="currentColor"
    class="icon-light"
  />
  <path
    d="M1 6V4C1 3.44772 1.44772 3 2 3H14C14.5523 3 15 3.44772 15 4V6M1 6V12C1 12.5523 1.44772 13 2 13H14C14.5523 13 15 12.5523 15 12V6M1 6H15M4 10H7M9.5 10H10.5"
    stroke="currentColor"
    class="icon-dark"
    stroke-width="2"
    stroke-linecap="round"
    stroke-linejoin="round"
  />
</svg>
