<svg viewBox="0 0 16 16" fill="none" xmlns="http://www.w3.org/2000/svg">
<path d="M8 3.00073H11C11.5523 3.00073 12 3.44845 12 4.00073V4.50073M8 3.00073H5C4.44772 3.00073 4 3.44845 4 4.00073V7.00073C4 7.55302 4.44772 8.00073 5 8.00073H8M8 3.00073V1.00073M8 3.00073V8.00073M8 13.0007H11C11.5523 13.0007 12 12.553 12 12.0007V9.00073C12 8.44845 11.5523 8.00073 11 8.00073H8M8 13.0007H5C4.44772 13.0007 4 12.553 4 12.0007V11.5007M8 13.0007V15.0007M8 13.0007V8.00073" stroke="currentColor" class="icon-dark" stroke-width="2" stroke-linecap="round" stroke-linejoin="round"/>
</svg>
