<svg viewBox="0 0 12 12" fill="none" xmlns="http://www.w3.org/2000/svg">
  <path
    fill-rule="evenodd"
    clip-rule="evenodd"
    d="M7 0.999268C7 0.446983 6.55228 -0.000732422 6 -0.000732422C5.44772 -0.000732422 5 0.446983 5 0.999268V1.49927C5 2.05155 5.44772 2.49927 6 2.49927C6.55228 2.49927 7 2.05155 7 1.49927V0.999268ZM10.7071 2.70637C11.0976 2.31585 11.0976 1.68269 10.7071 1.29216C10.3166 0.901636 9.68342 0.901636 9.29289 1.29216L8.93934 1.64571C8.54882 2.03624 8.54882 2.6694 8.93934 3.05993C9.32986 3.45045 9.96303 3.45045 10.3536 3.05993L10.7071 2.70637ZM2.70711 9.29216C3.09763 9.68268 3.09763 10.3159 2.70711 10.7064L2.35355 11.0599C1.96303 11.4505 1.32986 11.4505 0.93934 11.0599C0.548816 10.6694 0.548816 10.0362 0.93934 9.64571L1.29289 9.29216C1.68342 8.90164 2.31658 8.90164 2.70711 9.29216ZM2.70711 1.29216C2.31658 0.901637 1.68342 0.901636 1.29289 1.29216C0.902369 1.68269 0.902369 2.31585 1.29289 2.70637L1.64645 3.05993C2.03697 3.45045 2.67014 3.45045 3.06066 3.05993C3.45118 2.6694 3.45118 2.03624 3.06066 1.64571L2.70711 1.29216ZM0 5.99927C0 5.44698 0.447715 4.99927 1 4.99927H1.5C2.05228 4.99927 2.5 5.44698 2.5 5.99927C2.5 6.55155 2.05228 6.99927 1.5 6.99927H1C0.447715 6.99927 0 6.55155 0 5.99927ZM4.29417 4.0581L11.4284 5.48495C11.6151 5.5223 11.649 5.77479 11.4786 5.85995L9.04819 7.07517C8.92609 7.13622 8.89968 7.29895 8.99621 7.39548L11.0586 9.45785C11.1367 9.53595 11.1367 9.66258 11.0586 9.74069L9.74142 11.0578C9.66332 11.136 9.53668 11.136 9.45858 11.0578L7.39621 8.99548C7.29968 8.89895 7.13695 8.92536 7.0759 9.04746L5.86068 11.4779C5.77552 11.6482 5.52303 11.6144 5.48568 11.4277L4.05884 4.29344C4.03085 4.1535 4.15423 4.03011 4.29417 4.0581Z"
    fill="currentColor"
    class="icon-dark"
  />
</svg>
