<svg viewBox="0 0 12 12" fill="none" xmlns="http://www.w3.org/2000/svg">
    <path fill-rule="evenodd" clip-rule="evenodd" d="M6.00003 3.99927C6.82845 3.99927 7.50003 3.32769 7.50003 2.49927C7.50003 1.67084 6.82845 0.999268 6.00003 0.999268C5.1716 0.999268 4.50003 1.67084 4.50003 2.49927C4.50003 3.32769 5.1716 3.99927 6.00003 3.99927ZM3.31625 4.05058C2.79231 3.87594 2.22599 4.1591 2.05134 4.68304C1.8767 5.20698 2.15986 5.7733 2.6838 5.94795L5.00003 6.72003V7.58505L3.29292 9.29216C2.9024 9.68268 2.9024 10.3159 3.29292 10.7064C3.68344 11.0969 4.31661 11.0969 4.70713 10.7064L6.00003 9.41348L7.29292 10.7064C7.68344 11.0969 8.31661 11.0969 8.70713 10.7064C9.09766 10.3159 9.09766 9.68268 8.70713 9.29216L7.00003 7.58505V6.72003L9.31626 5.94795C9.8402 5.7733 10.1234 5.20698 9.94871 4.68304C9.77406 4.1591 9.20774 3.87594 8.6838 4.05058L6.00003 4.94517L3.31625 4.05058Z" fill="currentColor" class="icon-dark" />
</svg>
