<svg width="48" height="48" viewBox="0 0 48 48" fill="none" xmlns="http://www.w3.org/2000/svg">
  <path d="M37.4874 25.8359C37.964 26.9449 38.3292 28.033 38.5813 29.0783C38.6545 29.3819 38.7165 29.679 38.7701 29.9687C37.604 31.6157 36.26 33.2226 34.7414 34.7411C32.6404 36.8421 30.3746 38.6155 28.0596 40.0344C28.0617 40.035 28.064 40.0354 28.0661 40.036L28.0628 40.0393C26.7204 40.8621 25.3592 41.5614 24.0032 42.1358H24C22.6871 42.6917 21.3793 43.1311 20.0934 43.4412C18.1139 43.9185 16.1409 44.105 14.2808 43.9425C14.1379 43.93 13.9958 43.9152 13.8543 43.8986C11.3032 43.599 8.98439 42.6227 7.18057 40.8189C6.98003 40.6184 6.78952 40.4117 6.60923 40.1988C6.42919 39.9862 6.26001 39.767 6.09975 39.5428C3.85484 36.4031 3.5302 32.1698 4.55828 27.9063C4.69355 27.3454 4.85697 26.7815 5.04009 26.2135C5.72984 27.618 6.54466 29.0134 7.47519 30.3788C7.41244 30.8262 7.37012 31.2627 7.34823 31.6875C7.34719 31.7076 7.34754 31.7277 7.3466 31.7477C7.33845 31.9206 7.33179 32.0915 7.33032 32.2605V32.42C7.33055 32.4794 7.33415 32.5385 7.33521 32.5974C7.33749 32.7245 7.34046 32.8503 7.3466 32.975C7.35101 33.0647 7.35811 33.1536 7.3645 33.242C7.37355 33.367 7.38408 33.4907 7.39706 33.6131C7.40587 33.6962 7.41575 33.7786 7.42636 33.8605C7.44308 33.9896 7.46216 34.117 7.48333 34.243C7.49432 34.3084 7.5037 34.3738 7.51588 34.4383C7.58877 34.8247 7.68255 35.1962 7.79748 35.5517C7.81077 35.5928 7.82596 35.6331 7.8398 35.6738C7.88871 35.8175 7.94029 35.9587 7.99607 36.097C8.01183 36.1361 8.03022 36.1739 8.04653 36.2125C8.10058 36.3406 8.15581 36.467 8.21581 36.5902C8.24043 36.6407 8.2667 36.6902 8.29232 36.7399C8.3496 36.8511 8.40914 36.9601 8.47137 37.0671C8.50488 37.1247 8.53898 37.1816 8.57391 37.238C8.62637 37.3226 8.68104 37.4053 8.73669 37.487C8.77981 37.5504 8.82188 37.6142 8.86691 37.6758C8.93574 37.7701 9.00852 37.8608 9.08177 37.9509C9.11708 37.9944 9.15124 38.0387 9.18757 38.0811C9.29982 38.2124 9.41565 38.3401 9.53754 38.462C9.65882 38.5833 9.78623 38.6986 9.9168 38.8104C9.95458 38.8427 9.99382 38.8732 10.0324 38.9048C10.1274 38.9825 10.2241 39.0582 10.3237 39.131C10.3793 39.1716 10.436 39.2108 10.493 39.2498C10.581 39.3102 10.6703 39.369 10.7616 39.4256C10.82 39.4618 10.8793 39.4967 10.939 39.5314C11.0371 39.5884 11.1369 39.643 11.2385 39.6958C11.2972 39.7263 11.3561 39.7563 11.4159 39.7854C11.5131 39.8326 11.612 39.8769 11.7122 39.9205C11.7824 39.9509 11.8522 39.9829 11.9238 40.0116C12.2632 40.1474 12.6187 40.2625 12.99 40.3567C13.0175 40.3637 13.0453 40.3695 13.073 40.3762C13.2325 40.4151 13.3946 40.4508 13.5597 40.482C13.6243 40.4942 13.6896 40.5036 13.755 40.5146C13.8784 40.5353 14.003 40.555 14.1294 40.5715C14.2139 40.5826 14.2991 40.5917 14.3849 40.6008C14.5069 40.6138 14.6299 40.626 14.7544 40.635C14.8433 40.6415 14.9328 40.6468 15.023 40.6513C15.1477 40.6575 15.2735 40.6604 15.4006 40.6627C15.4816 40.6642 15.5629 40.6677 15.6448 40.6676C15.8132 40.6674 15.9835 40.6615 16.1559 40.6545C16.2073 40.6525 16.2589 40.6523 16.3106 40.6497C16.4648 40.6417 16.6204 40.6288 16.7777 40.6155C16.9502 40.6009 17.1242 40.5828 17.3002 40.5618C17.4066 40.5491 17.5149 40.5394 17.6225 40.5243C17.6432 40.5214 17.6636 40.5159 17.6844 40.5129C17.8688 40.4863 18.0546 40.4538 18.2427 40.4202C18.3224 40.4059 18.4032 40.395 18.4836 40.3795C18.7561 40.3268 19.0325 40.2678 19.3121 40.2004C19.3143 40.1999 19.3164 40.1993 19.3186 40.1988C19.5236 40.1493 19.7299 40.0965 19.9372 40.0393C21.2589 39.674 22.6243 39.1515 24 38.4767C24.1466 38.4048 24.2911 38.3258 24.4379 38.2504C24.4876 38.2249 24.5378 38.1999 24.5876 38.1739C25.0029 37.9575 25.4205 37.7308 25.8361 37.487C25.9182 37.4389 25.9982 37.3865 26.0802 37.3373C26.1812 37.2768 26.2821 37.2155 26.383 37.1534C26.5628 37.0425 26.7423 36.9291 26.9218 36.8132C27.0478 36.7319 27.1737 36.6495 27.2994 36.5657C27.4442 36.4692 27.5896 36.3726 27.734 36.2728C27.923 36.1423 28.1123 36.01 28.3005 35.874C28.377 35.8186 28.452 35.761 28.5284 35.7047C28.6704 35.6001 28.8118 35.4935 28.9532 35.3857C29.0246 35.3312 29.0985 35.2798 29.1697 35.2245L29.8371 34.6906C29.8603 34.6717 29.8822 34.6511 29.9054 34.632C29.9725 34.5768 30.0387 34.5203 30.1056 34.4644C30.5857 34.0635 31.061 33.6443 31.5299 33.2062C31.5775 33.1617 31.6257 33.1176 31.6731 33.0727C31.9115 32.8475 32.1497 32.6189 32.3845 32.3842C32.627 32.1417 32.8635 31.8964 33.0958 31.6501C33.1333 31.6104 33.1693 31.5694 33.2065 31.5296C33.6553 31.0492 34.0859 30.5633 34.4956 30.0712C34.5319 30.0277 34.5687 29.9846 34.6047 29.941C34.7796 29.7288 34.9499 29.5151 35.1174 29.3013C35.2082 29.1855 35.2974 29.0692 35.386 28.953C35.4806 28.8289 35.5739 28.7047 35.666 28.5802C35.9904 28.1422 36.3 27.7022 36.5938 27.2601C36.6805 27.1296 36.7654 26.9987 36.8494 26.8679C36.9734 26.6749 37.0942 26.4817 37.2123 26.2884C37.2547 26.2191 37.2961 26.1494 37.3377 26.0801C37.3869 25.998 37.4393 25.918 37.4874 25.8359Z" fill="#5A5F7A"/>
  <path d="M29.9689 9.22842C31.616 10.3949 33.2227 11.7399 34.7414 13.2586C36.842 15.3592 38.6161 17.6242 40.0348 19.9387C40.0356 19.9361 40.0357 19.9332 40.0365 19.9306C40.0377 19.9326 40.0385 19.935 40.0397 19.9371C40.8622 21.279 41.562 22.6395 42.1362 23.995V23.9999C42.6921 25.3126 43.1316 26.6205 43.4417 27.9063C44.6167 32.779 44.0257 37.6126 40.8194 40.8189C40.0177 41.6206 39.1139 42.2582 38.1336 42.7462C38.0116 42.8069 37.8886 42.8658 37.7641 42.9219C36.3901 43.5419 34.8766 43.881 33.2879 43.9734C32.1332 44.0406 30.9388 43.9776 29.7296 43.7976C29.1246 43.7076 28.5159 43.5881 27.9066 43.4412C27.3455 43.3059 26.7817 43.1412 26.2137 42.9578C27.6179 42.2681 29.0139 41.4547 30.3791 40.5243C30.481 40.5386 30.5827 40.548 30.6835 40.5601C30.8645 40.582 31.0434 40.6005 31.2206 40.6155C31.378 40.6288 31.5335 40.6417 31.6878 40.6497C31.7395 40.6523 31.7911 40.6525 31.8424 40.6545C32.0148 40.6615 32.1851 40.6673 32.3535 40.6676C32.4354 40.6677 32.5168 40.6641 32.5977 40.6627C32.7248 40.6604 32.8506 40.6574 32.9753 40.6513C33.0655 40.6469 33.155 40.6415 33.2439 40.635C33.3684 40.626 33.4914 40.6138 33.6134 40.6008C33.6992 40.5917 33.7844 40.5826 33.869 40.5715C33.9953 40.5551 34.1199 40.5353 34.2433 40.5146C34.3088 40.5036 34.3741 40.4942 34.4387 40.482C34.6038 40.4509 34.7658 40.4151 34.9254 40.3762C34.953 40.3695 34.9809 40.3637 35.0084 40.3567C35.3797 40.2625 35.7351 40.1473 36.0746 40.0116C36.1462 39.983 36.216 39.9509 36.2862 39.9205C36.3879 39.8763 36.4887 39.8317 36.5873 39.7837C36.6416 39.7573 36.6951 39.7299 36.7484 39.7023C36.8609 39.6442 36.9708 39.5832 37.0789 39.52C37.1254 39.4928 37.1715 39.4652 37.2172 39.437C37.3209 39.3732 37.4222 39.307 37.5216 39.2384C37.5724 39.2034 37.6233 39.1689 37.673 39.1326C37.7736 39.0592 37.8717 38.9832 37.9676 38.9048C38.0058 38.8735 38.0441 38.8424 38.0816 38.8104C38.2125 38.6983 38.3408 38.5837 38.4624 38.462C38.5841 38.3404 38.6987 38.2121 38.8108 38.0811C38.8471 38.0387 38.8813 37.9944 38.9166 37.9509C38.9906 37.8599 39.0635 37.7678 39.1331 37.6726C39.1693 37.6229 39.2039 37.572 39.2389 37.5212C39.3074 37.4218 39.3737 37.3205 39.4375 37.2168C39.4656 37.1711 39.4933 37.125 39.5205 37.0785C39.5852 36.9677 39.6482 36.8553 39.7077 36.7399C39.7332 36.6904 39.758 36.6405 39.7825 36.5902C39.8427 36.4667 39.8993 36.3409 39.9535 36.2125C39.9697 36.1741 39.9866 36.1359 40.0023 36.097C40.2105 35.5809 40.3713 35.0274 40.4825 34.4383C40.4947 34.3738 40.504 34.3084 40.515 34.243C40.5362 34.1169 40.5569 33.9897 40.5736 33.8605C40.5842 33.7787 40.5925 33.6961 40.6013 33.6131C40.6143 33.4906 40.6264 33.367 40.6355 33.242C40.6419 33.1536 40.6473 33.0647 40.6518 32.975C40.6579 32.8503 40.6609 32.7245 40.6631 32.5974C40.6646 32.5165 40.6681 32.4351 40.668 32.3532C40.6677 32.1542 40.663 31.9524 40.6534 31.7477C40.6524 31.7277 40.6512 31.7076 40.6501 31.6875C40.6282 31.2627 40.5875 30.8262 40.5248 30.3788C40.5219 30.3583 40.5164 30.3376 40.5134 30.317C40.4845 30.1166 40.4497 29.9145 40.4125 29.7098C40.4012 29.6479 40.3936 29.585 40.3815 29.5227C40.3286 29.2481 40.2688 28.9694 40.2009 28.6876C40.1509 28.4805 40.0976 28.272 40.0397 28.0626C39.6745 26.7408 39.152 25.3756 38.4771 23.9999C38.4049 23.8527 38.3265 23.7077 38.2508 23.5604C38.2253 23.5106 38.2003 23.4604 38.1743 23.4106C37.9581 22.9958 37.731 22.5788 37.4874 22.1638C37.2635 21.7822 37.0245 21.4032 36.7777 21.0228C36.7078 20.9149 36.6379 20.8066 36.5661 20.6989C36.2564 20.2344 35.9297 19.7719 35.5862 19.3121C35.5194 19.2225 35.4525 19.1328 35.3844 19.0435C35.3053 18.9398 35.2259 18.8359 35.1451 18.7326C34.9689 18.5071 34.789 18.2823 34.6047 18.0587C34.5663 18.0122 34.5263 17.9668 34.4875 17.9204C34.3153 17.7137 34.1393 17.5083 33.9601 17.3035C33.9216 17.2595 33.885 17.2139 33.8462 17.17C33.6379 16.9344 33.4239 16.7012 33.2065 16.4685C33.162 16.4208 33.1179 16.3727 33.073 16.3252C32.8481 16.0872 32.619 15.85 32.3845 15.6155C32.1494 15.3805 31.9118 15.1509 31.6731 14.9254C31.6257 14.8805 31.5775 14.8364 31.5299 14.7919C31.298 14.5753 31.0648 14.363 30.83 14.1555C30.7786 14.1101 30.7268 14.0654 30.6753 14.0204C30.4971 13.8647 30.3179 13.7118 30.1382 13.5614C29.9357 13.3917 29.7319 13.2262 29.5278 13.0633C29.4519 13.0028 29.3776 12.9406 29.3015 12.881C29.1799 12.7856 29.0574 12.6924 28.9353 12.5994C28.8171 12.5094 28.699 12.4202 28.5804 12.3325C28.327 12.1447 28.0721 11.963 27.817 11.7855C27.7841 11.7627 27.7523 11.7383 27.7194 11.7156C27.5593 11.6051 27.3981 11.4981 27.2376 11.3916C27.1704 11.3472 27.1029 11.3036 27.0357 11.2598C26.8064 11.1103 26.577 10.9648 26.3472 10.8236C26.2533 10.766 26.1595 10.7089 26.0656 10.6527C25.9886 10.6065 25.9131 10.5579 25.8361 10.5127C26.9451 10.0361 28.0332 9.67094 29.0785 9.41886C29.3823 9.34561 29.6792 9.282 29.9689 9.22842Z" fill="#5A5F7A"/>
  <path d="M7.18057 7.18076C10.387 3.97454 15.2207 3.3836 20.0934 4.55853C20.6538 4.69366 21.2172 4.85742 21.7846 5.04033C20.3808 5.72982 18.9873 6.54535 17.6225 7.47538L17.6176 7.477C14.1463 6.99085 11.3293 7.74602 9.53754 9.53768C7.74579 11.3294 6.9907 14.1464 7.47682 17.6176L7.47519 17.6225C7.47824 17.6442 7.48181 17.6659 7.48496 17.6876C7.50769 17.8449 7.53687 18.0029 7.56472 18.1629C7.58279 18.2668 7.59656 18.3721 7.6168 18.477C7.66981 18.7518 7.73112 19.0301 7.79911 19.3121C7.84907 19.5192 7.904 19.7276 7.96188 19.9371C8.32716 21.2589 8.84958 22.6241 9.52451 23.9999C9.55671 24.0655 9.59254 24.1295 9.62543 24.1952C9.70495 24.354 9.78606 24.5131 9.86959 24.6721C10.0731 25.0593 10.2853 25.4486 10.5126 25.8359C10.5605 25.9177 10.6116 25.9983 10.6607 26.0801C10.7024 26.1497 10.7452 26.2188 10.7876 26.2884C10.9058 26.4817 11.0266 26.6749 11.1506 26.8679C11.2346 26.9987 11.3195 27.1296 11.4062 27.2601C11.6998 27.702 12.0082 28.1425 12.3324 28.5802C12.4244 28.7047 12.5178 28.8289 12.6123 28.953C12.701 29.0691 12.7901 29.1855 12.8809 29.3013C13.0484 29.5151 13.2188 29.7288 13.3936 29.941C13.4296 29.9846 13.4664 30.0277 13.5027 30.0712C13.9124 30.5633 14.3431 31.0492 14.7919 31.5296C14.8293 31.5697 14.8665 31.6101 14.9042 31.6501C15.1365 31.8964 15.373 32.1417 15.6155 32.3842C15.85 32.6187 16.0872 32.8478 16.3252 33.0727C16.3727 33.1176 16.4208 33.1617 16.4684 33.2062C16.702 33.4244 16.9367 33.6385 17.1733 33.8475C17.2067 33.8771 17.2407 33.906 17.2742 33.9354C17.4993 34.1327 17.7256 34.3259 17.9529 34.5148C17.9856 34.542 18.018 34.5693 18.0506 34.5962C18.2787 34.7843 18.5075 34.9684 18.7375 35.148C18.824 35.2156 18.9112 35.2818 18.9979 35.3482C19.1621 35.4739 19.3262 35.598 19.4912 35.7193C19.5609 35.7707 19.6296 35.8234 19.6995 35.874C19.8877 36.01 20.077 36.1423 20.266 36.2728C20.41 36.3723 20.5546 36.4695 20.6989 36.5657C20.8247 36.6495 20.9506 36.7319 21.0766 36.8132C21.2564 36.9293 21.4368 37.0423 21.617 37.1534C21.7175 37.2152 21.8176 37.277 21.9181 37.3373C22.0006 37.3868 22.0814 37.4386 22.1639 37.487C21.0549 37.9636 19.9668 38.3288 18.9214 38.5808C18.6165 38.6544 18.3186 38.7176 18.0278 38.7713C16.3815 37.6052 14.7766 36.2591 13.2585 34.7411C11.1574 32.6399 9.38244 30.3746 7.96351 28.0594L7.96188 28.0626C7.13849 26.7192 6.43505 25.3584 5.86047 24.0015L5.8621 23.9999C5.30634 22.6873 4.8683 21.379 4.55828 20.0934C3.38337 15.2208 3.97422 10.387 7.18057 7.18076Z" fill="#5A5F7A"/>
  <path d="M22.7922 16.8152C23.1246 15.5824 24.8754 15.5824 25.2078 16.8152L26.2886 20.8291C26.4044 21.2593 26.7406 21.5954 27.1708 21.7113L31.1848 22.7921C32.4179 23.1244 32.4179 24.8753 31.1848 25.2076L27.1708 26.2884C26.7407 26.4042 26.4045 26.7405 26.2886 27.1706L25.2078 31.1845C24.8755 32.4176 23.1245 32.4176 22.7922 31.1845L21.7114 27.1706C21.5955 26.7405 21.2593 26.4042 20.8292 26.2884L16.8152 25.2076C15.5822 24.8753 15.5821 23.1244 16.8152 22.7921L20.8292 21.7113C21.2594 21.5955 21.5956 21.2593 21.7114 20.8291L22.7922 16.8152Z" fill="#5A5F7A"/>
  <path d="M33.2879 4.02627C36.1755 4.19426 38.8153 5.17681 40.8194 7.18076C44.0258 10.3871 44.6166 15.2208 43.4417 20.0934C43.3065 20.6539 43.1415 21.2171 42.9583 21.7845C42.2688 20.381 41.4547 18.9871 40.5248 17.6225C40.5877 17.1737 40.6283 16.7351 40.6501 16.3089C40.6533 16.2463 40.6543 16.1839 40.6566 16.1218C40.6631 15.951 40.6682 15.7824 40.668 15.6155C40.668 15.5435 40.6644 15.472 40.6631 15.4007C40.6608 15.2736 40.6579 15.1477 40.6518 15.0231C40.6466 14.9185 40.6401 14.815 40.6322 14.7122C40.6238 14.6015 40.6145 14.492 40.6029 14.3834C40.5937 14.2964 40.5832 14.2102 40.572 14.1246C40.5551 13.9954 40.5348 13.8681 40.5134 13.742C40.503 13.681 40.4939 13.6201 40.4825 13.5597C40.4089 13.1703 40.3139 12.7963 40.1976 12.4383C40.1852 12.4 40.1715 12.3622 40.1586 12.3243C40.1096 12.1806 40.0581 12.0394 40.0023 11.9011C39.9785 11.8423 39.9524 11.7848 39.9274 11.7269C39.8788 11.6145 39.8292 11.5035 39.776 11.3949C39.7502 11.3422 39.7232 11.2904 39.6963 11.2386C39.6435 11.137 39.5888 11.0372 39.5319 10.9391C39.4976 10.88 39.4635 10.8211 39.4277 10.7633C39.3662 10.664 39.3016 10.5674 39.2356 10.472C39.2012 10.4222 39.167 10.3725 39.1314 10.3239C39.0623 10.2293 38.9902 10.1376 38.9166 10.0472C38.8813 10.0037 38.8471 9.95941 38.8108 9.91694C38.699 9.78637 38.5837 9.65896 38.4624 9.53768C38.3405 9.4158 38.2128 9.29997 38.0816 9.18772C38.035 9.14787 37.9861 9.11078 37.9383 9.07216C37.8522 9.00252 37.7661 8.93268 37.6762 8.86706C37.6181 8.82461 37.5585 8.78413 37.4988 8.74336C37.4136 8.68511 37.3267 8.62885 37.2384 8.57408C37.182 8.53914 37.1251 8.50504 37.0675 8.47153C36.963 8.41076 36.8569 8.3518 36.7484 8.29574C36.6936 8.26741 36.6383 8.23984 36.5824 8.21273C36.4675 8.15695 36.3499 8.10545 36.2308 8.05484C36.1862 8.03588 36.1425 8.01447 36.0973 7.99624C35.959 7.94047 35.8178 7.88888 35.6741 7.83998C35.6362 7.82708 35.5985 7.81334 35.5602 7.80092C35.3802 7.74254 35.1964 7.68906 35.0084 7.6414C34.9809 7.63443 34.953 7.62861 34.9254 7.62187C34.7658 7.58301 34.6037 7.54721 34.4387 7.51607C34.3741 7.50389 34.3088 7.4945 34.2433 7.48351C34.1199 7.46278 33.9953 7.44301 33.869 7.42654C33.7844 7.41552 33.6992 7.40634 33.6134 7.39725C33.4915 7.38432 33.3684 7.37209 33.2439 7.36306C33.155 7.35662 33.0655 7.35123 32.9753 7.34679C32.8507 7.34065 32.7248 7.33768 32.5977 7.33539C32.5388 7.33433 32.4797 7.33074 32.4203 7.33051H32.2608C32.1237 7.3317 31.9854 7.33794 31.8457 7.34353C31.7933 7.34563 31.7406 7.3457 31.6878 7.34841C31.4626 7.36002 31.2341 7.37748 31.0025 7.4005C30.9581 7.40492 30.9137 7.41194 30.869 7.41678C30.7073 7.4343 30.5438 7.45227 30.3791 7.47538C30.3586 7.47825 30.3378 7.48218 30.3172 7.48514C30.1169 7.51403 29.9147 7.54887 29.7101 7.58606C29.6481 7.59732 29.5852 7.60496 29.5229 7.61699C29.2481 7.66999 28.9698 7.7313 28.6879 7.79929C28.4807 7.84926 28.2723 7.90417 28.0628 7.96206C26.741 8.32733 25.3757 8.84977 24 9.52466C23.9034 9.57205 23.8086 9.62388 23.7119 9.67278C23.5836 9.73762 23.4545 9.80227 23.3261 9.86973C22.9394 10.073 22.5508 10.2857 22.1639 10.5127C22.0868 10.5579 22.0114 10.6065 21.9344 10.6527C21.8401 10.7091 21.7454 10.7657 21.6512 10.8236C21.4217 10.9645 21.1931 11.1106 20.9643 11.2598C20.8967 11.3038 20.8283 11.3469 20.7608 11.3916C20.6003 11.4981 20.439 11.6051 20.279 11.7156C20.2464 11.738 20.2155 11.7629 20.1829 11.7855C19.9345 11.9584 19.6861 12.1352 19.4391 12.3178C19.2916 12.4267 19.1447 12.5375 18.9979 12.6499C18.9112 12.7163 18.824 12.7824 18.7375 12.8501C18.5228 13.0177 18.3092 13.1894 18.0962 13.3644C18.0341 13.4155 17.9725 13.4674 17.9106 13.5191C17.7174 13.6802 17.5243 13.8435 17.3328 14.0106C17.266 14.0689 17.1991 14.1274 17.1326 14.1864C16.9097 14.3839 16.6887 14.5862 16.4684 14.7919C16.4208 14.8364 16.3727 14.8805 16.3252 14.9254C16.0869 15.1506 15.8503 15.3807 15.6155 15.6155C15.3808 15.8503 15.1505 16.0869 14.9253 16.3252C14.8805 16.3727 14.8364 16.4208 14.7919 16.4685C14.5745 16.7012 14.3604 16.9344 14.1522 17.17C14.1134 17.2139 14.0767 17.2595 14.0382 17.3035C13.8591 17.5083 13.6831 17.7137 13.5108 17.9204C13.4721 17.9668 13.4321 18.0122 13.3936 18.0587C13.2094 18.2823 13.0294 18.5072 12.8532 18.7326C12.7724 18.8359 12.6931 18.9398 12.614 19.0435C12.5461 19.1325 12.4804 19.2228 12.4137 19.3121C12.0701 19.7721 11.7421 20.2341 11.4322 20.6989C11.3605 20.8066 11.2905 20.9149 11.2206 21.0228C10.974 21.4029 10.7363 21.7824 10.5126 22.1638C10.036 21.0548 9.67079 19.9667 9.41871 18.9214C9.34517 18.6164 9.28036 18.3187 9.22664 18.0278C10.3932 16.3814 11.7403 14.7768 13.2585 13.2586C15.3594 11.1578 17.6239 9.38247 19.9388 7.96369L19.9355 7.96206C21.2784 7.13902 22.6404 6.43513 23.9967 5.86069L24 5.86232C25.3127 5.30653 26.6208 4.86855 27.9066 4.55853C29.1251 4.26471 30.3411 4.08107 31.5299 4.02138C32.1237 3.99156 32.7108 3.9927 33.2879 4.02627Z" fill="#5A5F7A"/>
</svg>
