<svg viewBox="0 0 16 16" fill="none" xmlns="http://www.w3.org/2000/svg">
<path d="M12.1807 8.94426C12.4611 9.47717 12.6699 9.99286 12.8067 10.4716C12.8817 10.7342 12.9312 10.9699 12.962 11.1806C12.6923 11.4952 12.4077 11.8052 12.1065 12.1064C11.4887 12.7242 10.8379 13.2768 10.1729 13.7597C10.1811 13.7621 10.1892 13.7652 10.1973 13.7675L10.1739 13.7607C9.46078 14.2785 8.73017 14.7146 8.00298 15.0605L8.00005 15.0595C7.44525 15.3232 6.89328 15.5366 6.35161 15.6913C4.47465 16.2274 2.48666 16.1369 1.17485 14.8251C-0.13684 13.5133 -0.227493 11.5253 0.30864 9.64836C0.349358 9.50585 0.393838 9.3625 0.442429 9.21868C0.87661 9.99783 1.40105 10.767 2.00395 11.5058C1.96312 12.3814 2.19785 13.0199 2.58891 13.4111C3.15406 13.9762 4.23562 14.2152 5.80278 13.7675C5.81033 13.7653 5.8177 13.762 5.82524 13.7597L5.82622 13.7607C6.51579 13.5611 7.25297 13.2382 8.00005 12.7978C7.96354 12.7763 7.9282 12.7525 7.89165 12.7304C7.92805 12.7524 7.96368 12.7754 8.00005 12.7968C8.90444 12.2636 9.82401 11.5588 10.6915 10.6913C11.2942 10.0885 11.8171 9.45957 12.2598 8.82903C12.2331 8.86701 12.208 8.9063 12.1807 8.94426ZM11.1807 3.03704C11.4954 3.30697 11.8052 3.59215 12.1065 3.89348C12.7243 4.51127 13.277 5.16213 13.7598 5.82708C13.7622 5.81889 13.7653 5.81083 13.7676 5.80266L13.7608 5.8261C14.2784 6.53888 14.7148 7.26914 15.0606 7.99602C15.06 7.9972 15.0602 7.99875 15.0596 7.99993C15.3234 8.55475 15.5367 9.10666 15.6915 9.64836C16.2276 11.5254 16.1371 13.5133 14.8252 14.8251C13.5134 16.1369 11.5255 16.2275 9.64848 15.6913C9.50615 15.6507 9.36338 15.6052 9.21977 15.5566C9.99854 15.1225 10.7675 14.5986 11.5059 13.996C11.4997 13.9957 11.4936 13.9944 11.4874 13.9941C12.3726 14.0392 13.0172 13.805 13.4112 13.4111C13.9763 12.8459 14.2154 11.7645 13.7676 10.1972C13.7654 10.1893 13.7621 10.1817 13.7598 10.1738H13.7608C13.5612 9.48417 13.2384 8.74702 12.7979 7.99993C12.787 8.0184 12.7748 8.03613 12.7637 8.05461C12.7747 8.03627 12.7861 8.01826 12.7969 7.99993C12.2637 7.09558 11.5588 6.17591 10.6915 5.30852C10.0976 4.71469 9.47857 4.19821 8.85747 3.75969C8.88608 3.77991 8.91579 3.79871 8.94438 3.81926C9.47731 3.5389 9.99297 3.33011 10.4717 3.19329C10.7344 3.11823 10.97 3.06782 11.1807 3.03704ZM11.2188 13.9726C11.2032 13.9709 11.1876 13.9686 11.1719 13.9667C11.1876 13.9686 11.2032 13.9709 11.2188 13.9726ZM10.9356 13.9335C10.9042 13.9284 10.8727 13.9227 10.8409 13.9169C10.8727 13.9227 10.9042 13.9284 10.9356 13.9335ZM10.626 13.874C10.5903 13.8662 10.554 13.8591 10.5176 13.8505C10.554 13.8591 10.5903 13.8661 10.626 13.874ZM1.17485 1.17473C2.48665 -0.137067 4.47467 -0.227568 6.35161 0.30852C6.49379 0.349145 6.63681 0.393842 6.78032 0.442309C6.0014 0.876421 5.23273 1.4011 4.49419 2.00383L4.47661 2.00286C3.61005 1.96598 2.97742 2.20029 2.58891 2.58879C2.0238 3.15396 1.78476 4.23554 2.23247 5.80266C2.23477 5.81072 2.23697 5.819 2.2393 5.82708C2.43886 6.51642 2.76192 7.25313 3.20219 7.99993C3.22363 7.96356 3.2466 7.92793 3.2686 7.89153C3.24671 7.92778 3.22452 7.96372 3.20317 7.99993C3.7364 8.90431 4.44123 9.8239 5.30864 10.6913C5.90772 11.2904 6.53257 11.8109 7.15923 12.2519C7.1251 12.2278 7.08981 12.2051 7.05571 12.1806C6.52281 12.4609 6.0071 12.6697 5.52837 12.8066C5.26535 12.8817 5.02929 12.9311 4.81841 12.9618C4.50395 12.6923 4.19457 12.4073 3.8936 12.1064C3.27564 11.4884 2.72222 10.8379 2.2393 10.1728H2.23833C1.72061 9.45965 1.28429 8.72908 0.938523 8.00188L0.939499 7.99993C0.675866 7.44527 0.463364 6.89302 0.30864 6.35149C-0.227464 4.47455 -0.136911 2.48655 1.17485 1.17473ZM7.5977 12.5478C7.5413 12.5115 7.48518 12.4741 7.42876 12.4365C7.48519 12.4741 7.54129 12.5115 7.5977 12.5478ZM7.66216 5.25481C7.75539 4.91007 8.24467 4.9101 8.33794 5.25481L8.79594 6.95696C8.82836 7.07733 8.92267 7.17154 9.04301 7.20403L10.7452 7.66204C11.0901 7.75519 11.09 8.24462 10.7452 8.33782L9.04301 8.79583C8.9227 8.82828 8.82841 8.92258 8.79594 9.0429L8.33794 10.745C8.24482 11.0901 7.75526 11.0901 7.66216 10.745L7.20415 9.0429C7.17166 8.92257 7.07743 8.82825 6.95708 8.79583L5.25493 8.33782C4.91021 8.24455 4.91016 7.75525 5.25493 7.66204L6.95708 7.20403C7.07747 7.17157 7.17172 7.07737 7.20415 6.95696L7.66216 5.25481ZM2.06645 10.9335C2.07116 10.9048 2.07586 10.8758 2.0811 10.8466C2.07585 10.8758 2.07117 10.9048 2.06645 10.9335ZM12.5508 8.39641C12.5135 8.45441 12.4753 8.51221 12.4366 8.57024C12.4752 8.5122 12.5135 8.45442 12.5508 8.39641ZM3.44829 7.60247C3.48559 7.54447 3.52385 7.48665 3.56255 7.42864C3.52388 7.48666 3.48557 7.54446 3.44829 7.60247ZM9.64848 0.30852C11.5254 -0.227619 13.5134 -0.136964 14.8252 1.17473C16.1371 2.48657 16.2276 4.4745 15.6915 6.35149C15.6509 6.49353 15.6052 6.63591 15.5567 6.77922C15.1227 6.00072 14.5986 5.23222 13.9961 4.49407C14.037 3.61841 13.8023 2.97995 13.4112 2.58879C12.846 2.02374 11.7644 1.7846 10.1973 2.23235C10.1892 2.23465 10.181 2.23684 10.1729 2.23918C9.48355 2.43874 8.74684 2.7618 8.00005 3.20207C8.03615 3.22336 8.07132 3.24665 8.10747 3.26848C8.07148 3.24674 8.03599 3.22425 8.00005 3.20305C7.09568 3.7363 6.17605 4.44111 5.30864 5.30852C4.72412 5.89305 4.21441 6.50193 3.78032 7.11321C3.79373 7.09434 3.80582 7.07446 3.81938 7.05559C3.53904 6.52268 3.33022 6.00699 3.19341 5.52825C3.11823 5.26513 3.06793 5.02923 3.03716 4.81829C3.30695 4.50377 3.59245 4.19463 3.8936 3.89348C4.51156 3.27552 5.16206 2.72211 5.82719 2.23918L5.82622 2.23821C6.53925 1.72051 7.27 1.2842 7.99712 0.938403C7.99804 0.938841 7.99912 0.938941 8.00005 0.939379C8.55471 0.675727 9.10693 0.46326 9.64848 0.30852ZM2.85844 5.03215C2.69691 5.227 2.5427 5.42463 2.3936 5.62297C2.54267 5.42461 2.69699 5.22706 2.85844 5.03215ZM13.8731 5.37883C13.8658 5.4124 13.8587 5.44633 13.8506 5.4804C13.8587 5.44633 13.8657 5.4124 13.8731 5.37883ZM13.9356 5.05364C13.9309 5.08272 13.9262 5.11203 13.9209 5.14153C13.9262 5.11203 13.9309 5.08271 13.9356 5.05364ZM13.9737 4.77239C13.9721 4.7873 13.9705 4.80228 13.9688 4.81731C13.9705 4.80228 13.9721 4.7873 13.9737 4.77239ZM8.39946 3.45012C8.45061 3.48304 8.50161 3.51671 8.55278 3.55071C8.5016 3.51673 8.45062 3.48302 8.39946 3.45012ZM10.2637 2.30754C10.5681 2.53195 10.8699 2.77001 11.1661 3.02336C10.8701 2.7699 10.568 2.53196 10.2637 2.30754ZM5.42876 2.13665C5.4382 2.13879 5.44759 2.14128 5.45708 2.14348C5.44759 2.14128 5.4382 2.13879 5.42876 2.13665ZM5.06548 2.06633C5.09392 2.07099 5.12257 2.07581 5.15141 2.08098C5.12257 2.0758 5.09392 2.071 5.06548 2.06633ZM4.78032 2.02629C4.7959 2.02798 4.81148 2.0303 4.82719 2.03215C4.81148 2.0303 4.7959 2.02799 4.78032 2.02629Z" fill="currentColor" class="icon-dark" />
</svg>
