<svg viewBox="0 0 16 16" fill="none" xmlns="http://www.w3.org/2000/svg">
    <path fill-rule="evenodd" clip-rule="evenodd" d="M10 2.99927C10 4.10384 9.10457 4.99927 8 4.99927C6.89543 4.99927 6 4.10384 6 2.99927C6 1.8947 6.89543 0.999268 8 0.999268C9.10457 0.999268 10 1.8947 10 2.99927ZM4.24277 5.02912C3.70698 4.89517 3.16404 5.22093 3.03009 5.75672C2.89615 6.29252 3.22191 6.83545 3.7577 6.9694L6.6215 7.68535C6.84409 7.741 7.00024 7.94099 7.00024 8.17042V8.99926C7.00024 9.432 6.85988 9.85307 6.60024 10.1993L4.20024 13.3993C3.86887 13.8411 3.95841 14.4679 4.40024 14.7993C4.84206 15.1306 5.46887 15.0411 5.80024 14.5993L7.84024 11.8793C7.92024 11.7726 8.08024 11.7726 8.16024 11.8793L10.2002 14.5993C10.5316 15.0411 11.1584 15.1306 11.6002 14.7993C12.0421 14.4679 12.1316 13.8411 11.8002 13.3993L9.40024 10.1993C9.14059 9.85307 9.00024 9.432 9.00024 8.99926V8.17042C9.00024 7.94099 9.15638 7.741 9.37897 7.68535L12.2428 6.9694C12.7786 6.83545 13.1043 6.29252 12.9704 5.75672C12.8364 5.22093 12.2935 4.89517 11.7577 5.02912L8.48531 5.84722C8.16683 5.92684 7.83365 5.92684 7.51517 5.84722L4.24277 5.02912Z" fill="currentColor" class="icon-dark" />
</svg>
