<svg viewBox="0 0 24 24" fill="none" xmlns="http://www.w3.org/2000/svg">
<path d="M20.0918 13.1014C20.3777 13.7668 20.5968 14.4196 20.748 15.0468C20.792 15.2289 20.8292 15.4072 20.8613 15.5809C20.1617 16.5691 19.3554 17.5332 18.4443 18.4442C17.1838 19.7047 15.8245 20.7687 14.4355 21.62C14.4368 21.6203 14.4382 21.6206 14.4395 21.621L14.4375 21.6229C13.6321 22.1166 12.8155 22.5362 12.002 22.8807H12C11.2123 23.2143 10.4277 23.4779 9.65625 23.6639C8.46865 23.9503 7.28492 24.0622 6.16895 23.9647C6.08324 23.9572 5.99796 23.9483 5.91309 23.9384C4.38257 23.7586 2.99138 23.1729 1.90918 22.0907C1.78887 21.9704 1.67457 21.8464 1.56641 21.7186C1.45839 21.5911 1.35689 21.4596 1.26074 21.3251C-0.0860913 19.4413 -0.280863 16.9016 0.335938 14.3436C0.417089 14.0071 0.515135 13.6688 0.625 13.328C1.03881 14.1706 1.52766 15.0078 2.08594 15.827C2.04829 16.0954 2.0229 16.3573 2.00977 16.6122C2.00914 16.6242 2.00936 16.6363 2.00879 16.6483C2.0039 16.752 1.9999 16.8546 1.99902 16.9559V17.0516C1.99916 17.0873 2.00132 17.1227 2.00195 17.1581C2.00332 17.2343 2.00511 17.3098 2.00879 17.3846C2.01144 17.4384 2.01569 17.4918 2.01953 17.5448C2.02496 17.6198 2.03128 17.694 2.03906 17.7675C2.04435 17.8173 2.05027 17.8668 2.05664 17.9159C2.06667 17.9933 2.07812 18.0698 2.09082 18.1454C2.09741 18.1846 2.10304 18.2238 2.11035 18.2626C2.15408 18.4944 2.21034 18.7173 2.2793 18.9305C2.28727 18.9552 2.29638 18.9794 2.30469 19.0038C2.33403 19.09 2.36498 19.1747 2.39844 19.2577C2.40789 19.2811 2.41893 19.3038 2.42871 19.327C2.46114 19.4039 2.49427 19.4797 2.53027 19.5536C2.54504 19.5839 2.56081 19.6136 2.57617 19.6434C2.61054 19.7101 2.64626 19.7756 2.68359 19.8397C2.7037 19.8743 2.72416 19.9084 2.74512 19.9423C2.77659 19.993 2.80939 20.0426 2.84277 20.0917C2.86864 20.1297 2.89389 20.168 2.9209 20.205C2.9622 20.2615 3.00586 20.3159 3.0498 20.37C3.07099 20.3961 3.09148 20.4226 3.11328 20.4481C3.18062 20.5269 3.25012 20.6035 3.32324 20.6766C3.39601 20.7494 3.47245 20.8186 3.55078 20.8856C3.57345 20.905 3.59699 20.9233 3.62012 20.9423C3.67712 20.9889 3.73516 21.0343 3.79492 21.078C3.82828 21.1024 3.86229 21.1258 3.89648 21.1493C3.94928 21.1855 4.00283 21.2208 4.05762 21.2548C4.09266 21.2765 4.12822 21.2974 4.16406 21.3182C4.22291 21.3524 4.28277 21.3852 4.34375 21.4169C4.37893 21.4351 4.41432 21.4531 4.4502 21.4706C4.50847 21.4989 4.56783 21.5255 4.62793 21.5516C4.67003 21.5699 4.7119 21.5891 4.75488 21.6063C4.95849 21.6878 5.17181 21.7568 5.39453 21.8134C5.41103 21.8175 5.42773 21.821 5.44434 21.8251C5.54005 21.8484 5.63728 21.8698 5.73633 21.8885C5.77507 21.8959 5.81427 21.9015 5.85352 21.9081C5.92757 21.9205 6.00232 21.9324 6.07812 21.9423C6.12884 21.9489 6.17996 21.9544 6.23145 21.9598C6.30462 21.9676 6.37842 21.9749 6.45312 21.9803C6.50647 21.9842 6.56015 21.9874 6.61426 21.9901C6.68907 21.9938 6.76456 21.9956 6.84082 21.9969C6.88938 21.9978 6.93817 21.9999 6.9873 21.9999C7.08835 21.9997 7.19051 21.9962 7.29395 21.9921C7.32475 21.9908 7.3557 21.9907 7.38672 21.9891C7.47928 21.9844 7.57261 21.9766 7.66699 21.9686C7.77045 21.9599 7.87488 21.949 7.98047 21.9364C8.04428 21.9288 8.10926 21.923 8.17383 21.9139C8.18626 21.9122 8.19848 21.9089 8.21094 21.9071C8.32161 21.8911 8.43306 21.8716 8.5459 21.8514C8.59375 21.8429 8.6422 21.8363 8.69043 21.827C8.85393 21.7954 9.01975 21.7601 9.1875 21.7196C9.1888 21.7193 9.1901 21.7189 9.19141 21.7186C9.31439 21.6889 9.43818 21.6573 9.5625 21.6229C10.3555 21.4038 11.1747 21.0903 12 20.6854C12.0879 20.6423 12.1746 20.5949 12.2627 20.5497C12.2926 20.5344 12.3227 20.5194 12.3525 20.5038C12.6017 20.3739 12.8523 20.238 13.1016 20.0917C13.1508 20.0628 13.1988 20.0314 13.248 20.0018C13.3086 19.9655 13.3692 19.9287 13.4297 19.8915C13.5376 19.825 13.6453 19.7569 13.7529 19.6874C13.8285 19.6386 13.904 19.5892 13.9795 19.5389C14.0663 19.481 14.1536 19.423 14.2402 19.3632C14.3536 19.2849 14.4672 19.2055 14.5801 19.1239C14.626 19.0907 14.671 19.0561 14.7168 19.0223C14.802 18.9596 14.8868 18.8956 14.9717 18.8309C15.0145 18.7983 15.0588 18.7674 15.1016 18.7343L15.502 18.4139C15.5159 18.4026 15.5291 18.3902 15.543 18.3788C15.5832 18.3457 15.6229 18.3118 15.6631 18.2782C15.9511 18.0377 16.2362 17.7862 16.5176 17.5233C16.5462 17.4966 16.575 17.4702 16.6035 17.4432C16.7465 17.3081 16.8894 17.171 17.0303 17.0302C17.1758 16.8847 17.3177 16.7375 17.457 16.5897C17.4795 16.5659 17.5011 16.5413 17.5234 16.5175C17.7927 16.2292 18.051 15.9377 18.2969 15.6425C18.3186 15.6163 18.3407 15.5905 18.3623 15.5643C18.4672 15.437 18.5694 15.3088 18.6699 15.1805C18.7244 15.1111 18.7779 15.0413 18.8311 14.9716C18.8878 14.8971 18.9438 14.8226 18.999 14.7479C19.1936 14.4851 19.3794 14.2212 19.5557 13.9559C19.6077 13.8776 19.6586 13.7991 19.709 13.7206C19.7834 13.6048 19.8559 13.4889 19.9268 13.3729C19.9522 13.3313 19.977 13.2895 20.002 13.2479C20.0315 13.1987 20.0629 13.1507 20.0918 13.1014ZM15.5811 3.13757C16.5692 3.83745 17.5332 4.64439 18.4443 5.55554C19.7046 6.8158 20.7689 8.17472 21.6201 9.56335C21.6206 9.56176 21.6207 9.56007 21.6211 9.55847C21.6219 9.55971 21.6223 9.56114 21.623 9.56238C22.1165 10.3675 22.5363 11.1837 22.8809 11.9969V11.9999C23.2144 12.7875 23.478 13.5722 23.6641 14.3436C24.369 17.267 24.0144 20.167 22.0908 22.0907C21.6099 22.5717 21.0676 22.9542 20.4795 23.2469C20.4063 23.2834 20.3325 23.3187 20.2578 23.3524C19.4334 23.7243 18.5254 23.9278 17.5723 23.9833C16.8795 24.0236 16.163 23.9858 15.4375 23.8778C15.0745 23.8238 14.7093 23.7521 14.3438 23.6639C14.0071 23.5828 13.6689 23.484 13.3281 23.3739C14.1706 22.9601 15.0081 22.4721 15.8271 21.9139C15.8883 21.9225 15.9493 21.9281 16.0098 21.9354C16.1183 21.9485 16.2257 21.9596 16.332 21.9686C16.4264 21.9766 16.5197 21.9844 16.6123 21.9891C16.6433 21.9907 16.6743 21.9908 16.7051 21.9921C16.8085 21.9962 16.9107 21.9997 17.0117 21.9999C17.0609 21.9999 17.1096 21.9978 17.1582 21.9969C17.2345 21.9956 17.31 21.9938 17.3848 21.9901C17.4389 21.9874 17.4926 21.9842 17.5459 21.9803C17.6206 21.9749 17.6944 21.9676 17.7676 21.9598C17.8191 21.9544 17.8702 21.9489 17.9209 21.9423C17.9967 21.9324 18.0714 21.9205 18.1455 21.9081C18.1848 21.9015 18.2239 21.8959 18.2627 21.8885C18.3617 21.8699 18.459 21.8484 18.5547 21.8251C18.5713 21.821 18.588 21.8175 18.6045 21.8134C18.8272 21.7569 19.0405 21.6877 19.2441 21.6063C19.2871 21.5891 19.329 21.5699 19.3711 21.5516C19.4322 21.5251 19.4926 21.4984 19.5518 21.4696C19.5843 21.4538 19.6164 21.4373 19.6484 21.4208C19.7159 21.3859 19.7818 21.3493 19.8467 21.3114C19.8746 21.2951 19.9022 21.2785 19.9297 21.2616C19.9919 21.2233 20.0526 21.1836 20.1123 21.1425C20.1428 21.1214 20.1733 21.1007 20.2031 21.079C20.2635 21.0349 20.3223 20.9893 20.3799 20.9423C20.4028 20.9235 20.4258 20.9049 20.4482 20.8856C20.5268 20.8184 20.6038 20.7496 20.6768 20.6766C20.7497 20.6037 20.8185 20.5267 20.8857 20.4481C20.9075 20.4226 20.928 20.3961 20.9492 20.37C20.9936 20.3154 21.0374 20.2602 21.0791 20.203C21.1009 20.1732 21.1216 20.1427 21.1426 20.1122C21.1837 20.0525 21.2234 19.9918 21.2617 19.9296C21.2786 19.9021 21.2952 19.8745 21.3115 19.8466C21.3504 19.7801 21.3882 19.7127 21.4238 19.6434C21.4391 19.6137 21.454 19.5838 21.4688 19.5536C21.5048 19.4795 21.5388 19.404 21.5713 19.327C21.581 19.304 21.5912 19.281 21.6006 19.2577C21.7255 18.9481 21.822 18.616 21.8887 18.2626C21.896 18.2238 21.9016 18.1846 21.9082 18.1454C21.9209 18.0697 21.9333 17.9934 21.9434 17.9159C21.9497 17.8668 21.9547 17.8173 21.96 17.7675C21.9678 17.694 21.975 17.6198 21.9805 17.5448C21.9843 17.4918 21.9876 17.4384 21.9902 17.3846C21.9939 17.3098 21.9957 17.2343 21.9971 17.1581C21.9979 17.1095 22.0001 17.0607 22 17.0116C21.9998 16.8922 21.997 16.7711 21.9912 16.6483C21.9906 16.6363 21.9899 16.6242 21.9893 16.6122C21.9761 16.3573 21.9517 16.0954 21.9141 15.827C21.9123 15.8147 21.909 15.8023 21.9072 15.7899C21.8899 15.6697 21.869 15.5484 21.8467 15.4257C21.8399 15.3885 21.8353 15.3508 21.8281 15.3134C21.7963 15.1486 21.7605 14.9814 21.7197 14.8124C21.6898 14.6881 21.6578 14.563 21.623 14.4374C21.4039 13.6443 21.0905 12.8253 20.6855 11.9999C20.6423 11.9116 20.5952 11.8246 20.5498 11.7362C20.5345 11.7063 20.5195 11.6762 20.5039 11.6464C20.3742 11.3975 20.2379 11.1473 20.0918 10.8983C19.9575 10.6694 19.8141 10.442 19.666 10.2137C19.6241 10.149 19.5821 10.084 19.5391 10.0194C19.3533 9.74074 19.1572 9.46325 18.9512 9.18738C18.9111 9.13367 18.8709 9.07982 18.8301 9.02625C18.7826 8.96406 18.735 8.90171 18.6865 8.83972C18.5808 8.70446 18.4729 8.56958 18.3623 8.43542C18.3393 8.40749 18.3152 8.3803 18.292 8.35242C18.1887 8.22842 18.0831 8.10516 17.9756 7.9823C17.9525 7.95592 17.9305 7.92854 17.9072 7.90222C17.7823 7.76085 17.6539 7.62094 17.5234 7.48132C17.4967 7.45275 17.4703 7.42388 17.4434 7.39539C17.3084 7.25258 17.171 7.11028 17.0303 6.9696C16.8892 6.82857 16.7467 6.69081 16.6035 6.55554C16.575 6.52861 16.5462 6.50216 16.5176 6.47546C16.3785 6.3455 16.2385 6.21815 16.0977 6.09363C16.0669 6.06638 16.0358 6.03956 16.0049 6.01257C15.8979 5.91917 15.7904 5.82745 15.6826 5.73718C15.5611 5.63542 15.4388 5.53612 15.3164 5.43835C15.2709 5.40204 15.2263 5.36474 15.1807 5.32898C15.1077 5.27176 15.0342 5.21583 14.9609 5.16003C14.89 5.10607 14.8192 5.05251 14.748 4.99988C14.596 4.88726 14.443 4.77823 14.29 4.67175C14.2703 4.65802 14.2512 4.64339 14.2314 4.62976C14.1354 4.56347 14.0387 4.49928 13.9424 4.43542C13.9021 4.40874 13.8616 4.38258 13.8213 4.35632C13.6837 4.26664 13.5461 4.17931 13.4082 4.0946C13.3519 4.06004 13.2956 4.0258 13.2393 3.99207C13.1931 3.9644 13.1478 3.93518 13.1016 3.90808C13.7669 3.62217 14.4197 3.40307 15.0469 3.25183C15.2291 3.20789 15.4072 3.16972 15.5811 3.13757ZM1.90918 1.90906C3.83285 -0.0145562 6.73288 -0.369093 9.65625 0.335815C9.99247 0.416889 10.3305 0.515142 10.6709 0.624878C9.82868 1.03855 8.99264 1.52783 8.17383 2.08582L8.1709 2.08679C6.0883 1.79512 4.39822 2.24819 3.32324 3.32312C2.24828 4.39808 1.79527 6.08818 2.08691 8.17078L2.08594 8.17371C2.08776 8.18673 2.08991 8.19972 2.0918 8.21277C2.10543 8.30717 2.12294 8.40195 2.13965 8.49792C2.15049 8.56023 2.15875 8.62344 2.1709 8.6864C2.2027 8.85125 2.23948 9.01821 2.28027 9.18738C2.31025 9.31168 2.3432 9.4367 2.37793 9.56238C2.59708 10.3554 2.9105 11.1745 3.31543 11.9999C3.33475 12.0393 3.35624 12.0777 3.37598 12.1171C3.42368 12.2123 3.47235 12.3078 3.52246 12.4032C3.64454 12.6355 3.77185 12.8691 3.9082 13.1014C3.93699 13.1505 3.96765 13.1989 3.99707 13.2479C4.0221 13.2897 4.04776 13.3312 4.07324 13.3729C4.14412 13.4889 4.21662 13.6048 4.29102 13.7206C4.3414 13.7991 4.39235 13.8776 4.44434 13.9559C4.62047 14.221 4.80553 14.4853 5 14.7479C5.05524 14.8226 5.11125 14.8971 5.16797 14.9716C5.22115 15.0413 5.27463 15.1111 5.3291 15.1805C5.42962 15.3088 5.53182 15.4371 5.63672 15.5643C5.65831 15.5905 5.68038 15.6163 5.70215 15.6425C5.94797 15.9377 6.20632 16.2292 6.47559 16.5175C6.49805 16.5415 6.52034 16.5657 6.54297 16.5897C6.68232 16.7375 6.82424 16.8847 6.96973 17.0302C7.11041 17.1708 7.2527 17.3083 7.39551 17.4432C7.424 17.4702 7.45288 17.4966 7.48145 17.5233C7.62158 17.6542 7.76239 17.7827 7.9043 17.9081C7.92437 17.9258 7.94474 17.9432 7.96484 17.9608C8.09989 18.0792 8.23565 18.1951 8.37207 18.3085C8.39163 18.3247 8.41107 18.3411 8.43066 18.3573C8.56748 18.4701 8.7048 18.5806 8.84277 18.6884C8.89466 18.7289 8.94699 18.7686 8.99902 18.8085C9.09753 18.8838 9.19595 18.9583 9.29492 19.0311C9.33679 19.062 9.37798 19.0935 9.41992 19.1239C9.53282 19.2055 9.6464 19.2849 9.75977 19.3632C9.84616 19.4229 9.93292 19.4812 10.0195 19.5389C10.095 19.5892 10.1705 19.6386 10.2461 19.6874C10.354 19.7571 10.4622 19.8249 10.5703 19.8915C10.6306 19.9286 10.6906 19.9657 10.751 20.0018C10.8005 20.0315 10.8489 20.0626 10.8984 20.0917C10.2331 20.3776 9.5803 20.5967 8.95312 20.7479C8.77018 20.792 8.59145 20.83 8.41699 20.8622C7.42926 20.1626 6.46641 19.355 5.55566 18.4442C4.29505 17.1836 3.23019 15.8245 2.37891 14.4354L2.37793 14.4374C1.88393 13.6314 1.46191 12.8149 1.11719 12.0009L1.11816 11.9999C0.784733 11.2124 0.521934 10.4275 0.335938 9.65613C-0.36895 6.73276 -0.0144702 3.83271 1.90918 1.90906ZM11.2754 7.68933C11.4748 6.94972 12.5252 6.94972 12.7246 7.68933L13.373 10.0975C13.4425 10.3556 13.6443 10.5573 13.9023 10.6268L16.3105 11.2753C17.0503 11.4746 17.0503 12.5251 16.3105 12.7245L13.9023 13.3729C13.6443 13.4424 13.4426 13.6442 13.373 13.9022L12.7246 16.3104C12.5253 17.0502 11.4747 17.0502 11.2754 16.3104L10.627 13.9022C10.5574 13.6442 10.3557 13.4424 10.0977 13.3729L7.68945 12.7245C6.94972 12.5251 6.94968 11.4746 7.68945 11.2753L10.0977 10.6268C10.3558 10.5573 10.5575 10.3556 10.627 10.0975L11.2754 7.68933ZM17.5723 0.0164795C19.3047 0.117269 20.8885 0.706763 22.0908 1.90906C24.0145 3.83271 24.369 6.73275 23.6641 9.65613C23.583 9.99242 23.484 10.3303 23.374 10.6708C22.9604 9.82868 22.472 8.9924 21.9141 8.17371C21.9518 7.90446 21.9762 7.64128 21.9893 7.38562C21.9912 7.34804 21.9918 7.31059 21.9932 7.27332C21.997 7.17088 22.0001 7.06969 22 6.9696C22 6.9264 21.9978 6.88346 21.9971 6.8407C21.9957 6.76444 21.9939 6.68895 21.9902 6.61414C21.9871 6.55143 21.9832 6.48929 21.9785 6.42761C21.9734 6.36125 21.9679 6.2955 21.9609 6.23035C21.9554 6.17818 21.9491 6.12645 21.9424 6.07507C21.9322 5.9976 21.9201 5.92122 21.9072 5.84558C21.901 5.80895 21.8955 5.7724 21.8887 5.73621C21.8445 5.50255 21.7875 5.27817 21.7178 5.06335C21.7103 5.04038 21.7021 5.01775 21.6943 4.995C21.665 4.90878 21.6341 4.82406 21.6006 4.74109C21.5863 4.70579 21.5707 4.67129 21.5557 4.6366C21.5265 4.56913 21.4968 4.50255 21.4648 4.43738C21.4494 4.40577 21.4331 4.37469 21.417 4.34363C21.3853 4.28265 21.3525 4.22278 21.3184 4.16394C21.2978 4.12849 21.2773 4.09314 21.2559 4.05847C21.2189 3.99888 21.1802 3.94091 21.1406 3.88367C21.12 3.85381 21.0995 3.82401 21.0781 3.7948C21.0367 3.73805 20.9934 3.68305 20.9492 3.62878C20.928 3.60272 20.9076 3.57614 20.8857 3.55066C20.8187 3.47232 20.7495 3.39589 20.6768 3.32312C20.6036 3.24999 20.527 3.1805 20.4482 3.11316C20.4203 3.08925 20.391 3.067 20.3623 3.04382C20.3106 3.00205 20.259 2.96015 20.2051 2.92078C20.1702 2.8953 20.1344 2.87102 20.0986 2.84656C20.0475 2.81161 19.9954 2.77786 19.9424 2.745C19.9086 2.72404 19.8744 2.70358 19.8398 2.68347C19.7772 2.64701 19.7135 2.61164 19.6484 2.578C19.6155 2.56101 19.5823 2.54447 19.5488 2.5282C19.4799 2.49473 19.4094 2.46384 19.3379 2.43347C19.3111 2.4221 19.2849 2.40925 19.2578 2.39832C19.1748 2.36485 19.0901 2.3339 19.0039 2.30457C18.9812 2.29682 18.9585 2.28858 18.9355 2.28113C18.8276 2.2461 18.7173 2.21402 18.6045 2.18542C18.588 2.18124 18.5713 2.17775 18.5547 2.17371C18.459 2.15039 18.3617 2.12891 18.2627 2.11023C18.224 2.10292 18.1847 2.09729 18.1455 2.0907C18.0715 2.07826 17.9967 2.0664 17.9209 2.05652C17.8702 2.04991 17.8191 2.0444 17.7676 2.03894C17.6944 2.03118 17.6206 2.02385 17.5459 2.01843C17.4926 2.01457 17.4389 2.01133 17.3848 2.00867C17.31 2.00499 17.2344 2.0032 17.1582 2.00183C17.1229 2.0012 17.0874 1.99904 17.0518 1.9989H16.9561C16.8738 1.99961 16.7908 2.00336 16.707 2.00671C16.6756 2.00797 16.644 2.00801 16.6123 2.00964C16.4772 2.0166 16.3401 2.02708 16.2012 2.04089C16.1745 2.04354 16.1479 2.04775 16.1211 2.05066C16.0241 2.06117 15.926 2.07195 15.8271 2.08582C15.8149 2.08754 15.8023 2.0899 15.79 2.09167C15.6698 2.10901 15.5485 2.12991 15.4258 2.15222C15.3886 2.15898 15.3509 2.16356 15.3135 2.17078C15.1486 2.20258 14.9817 2.23936 14.8125 2.28015C14.6882 2.31013 14.5632 2.34308 14.4375 2.37781C13.6445 2.59696 12.8254 2.9104 12 3.31531C11.942 3.34374 11.8852 3.37484 11.8271 3.40417C11.7502 3.44308 11.6727 3.48187 11.5957 3.52234C11.3637 3.6443 11.1306 3.77188 10.8984 3.90808C10.8522 3.93521 10.807 3.96437 10.7607 3.99207C10.7042 4.02594 10.6474 4.05989 10.5908 4.0946C10.4532 4.17918 10.316 4.26679 10.1787 4.35632C10.1382 4.38273 10.0971 4.40859 10.0566 4.43542C9.96036 4.49929 9.8636 4.56347 9.76758 4.62976C9.74804 4.64324 9.72949 4.65818 9.70996 4.67175C9.56091 4.77549 9.41185 4.88153 9.26367 4.99109C9.17523 5.05641 9.08709 5.12293 8.99902 5.19031C8.947 5.23016 8.89466 5.26986 8.84277 5.31042C8.71398 5.41102 8.5858 5.51401 8.45801 5.61902C8.42076 5.64965 8.38383 5.68079 8.34668 5.71179C8.23077 5.80845 8.11492 5.90643 8 6.00671C7.95994 6.0417 7.91982 6.07676 7.87988 6.11218C7.74619 6.2307 7.61356 6.35204 7.48145 6.47546C7.45288 6.50216 7.424 6.52861 7.39551 6.55554C7.25251 6.69066 7.11059 6.82874 6.96973 6.9696C6.82888 7.11045 6.69076 7.25241 6.55566 7.39539C6.52874 7.42388 6.50229 7.45275 6.47559 7.48132C6.34515 7.62094 6.21675 7.76085 6.0918 7.90222C6.06852 7.92854 6.04652 7.95592 6.02344 7.9823C5.91597 8.10516 5.81035 8.22842 5.70703 8.35242C5.68378 8.3803 5.65976 8.40749 5.63672 8.43542C5.52616 8.56957 5.41819 8.70446 5.3125 8.83972C5.26402 8.9017 5.2164 8.96406 5.16895 9.02625C5.12823 9.07966 5.08879 9.13382 5.04883 9.18738C4.84265 9.4634 4.64585 9.74059 4.45996 10.0194C4.41693 10.084 4.37495 10.149 4.33301 10.2137C4.18505 10.4418 4.04245 10.6695 3.9082 10.8983C3.62229 10.2329 3.40319 9.58017 3.25195 8.953C3.20783 8.77 3.16895 8.59138 3.13672 8.41687C3.83657 7.42912 4.64479 6.46641 5.55566 5.55554C6.81608 4.29514 8.17467 3.23 9.56348 2.37878L9.56152 2.37781H9.5625C10.3682 1.88401 11.1843 1.46171 11.998 1.11707L12 1.11804C12.7875 0.784591 13.5724 0.521819 14.3438 0.335815C15.0748 0.15954 15.8044 0.0493598 16.5176 0.0135498C16.8738 -0.00434153 17.226 -0.0036594 17.5723 0.0164795Z" fill="currentColor" class="icon-light" />
</svg>
