<svg viewBox="0 0 16 16" fill="none" xmlns="http://www.w3.org/2000/svg">
  <path d="M15 7.99927C15 11.8653 11.866 14.9993 8 14.9993C4.13401 14.9993 1 11.8653 1 7.99927C1 4.13327 4.13401 0.999268 8 0.999268C11.866 0.999268 15 4.13327 15 7.99927Z" fill="currentColor" class="icon-light"/>
  <path d="M8 7.99927L11 6.99927M8 7.99927L5 6.99927M8 7.99927V9.99927M8 9.99927L6 11.9993M8 9.99927L10 11.9993M7.5 4.49927V4.49927C7.5 4.77541 7.72386 4.99927 8 4.99927V4.99927V4.99927C8.27614 4.99927 8.5 4.77541 8.5 4.49927V4.49927M7.5 4.49927V4.49927C7.5 4.22313 7.72386 3.99927 8 3.99927V3.99927V3.99927C8.27614 3.99927 8.5 4.22313 8.5 4.49927V4.49927M7.5 4.49927H8.5M15 7.99927C15 11.8653 11.866 14.9993 8 14.9993C4.13401 14.9993 1 11.8653 1 7.99927C1 4.13327 4.13401 0.999268 8 0.999268C11.866 0.999268 15 4.13327 15 7.99927Z" stroke="currentColor" stroke-width="2" stroke-linecap="round" class="icon-dark"/>
</svg>

