<svg viewBox="0 0 24 24" fill="none" xmlns="http://www.w3.org/2000/svg">
<path d="M23 4C23 3.44772 22.5523 3 22 3H2C1.44772 3 1 3.44772 1 4V16C1 16.5523 1.44772 17 2 17H12H22C22.5523 17 23 16.5523 23 16V4Z" fill="#D0D2E0" class="icon-light" />
<path d="M12 17H2C1.44772 17 1 16.5523 1 16V4C1 3.44772 1.44772 3 2 3H22C22.5523 3 23 3.44772 23 4V16C23 16.5523 22.5523 17 22 17H12ZM12 17V21M12 21H18M12 21H6" stroke="currentColor" class="icon-dark" stroke-width="2" stroke-linecap="round" stroke-linejoin="round" />
</svg>
