<svg viewBox="0 0 24 24" fill="none" xmlns="http://www.w3.org/2000/svg">
    <path d="M18 2H6C4.89543 2 4 2.89543 4 4V20C4 21.1046 4.89543 22 6 22H18C19.1046 22 20 21.1046 20 20V4C20 2.89543 19.1046 2 18 2Z" fill="#D0D2E0" class="icon-light"/>
    <path d="M9 14C8.44772 14 8 14.4477 8 15C8 15.5523 8.44772 16 9 16V14ZM15 16C15.5523 16 16 15.5523 16 15C16 14.4477 15.5523 14 15 14V16ZM9 19H10V17H9V19ZM8 17C7.44772 17 7 17.4477 7 18C7 18.5523 7.44772 19 8 19V17ZM13 11H12V13H13V11ZM16 13C16.5523 13 17 12.5523 17 12C17 11.4477 16.5523 11 16 11V13ZM10 11C9.44772 11 9 11.4477 9 12C9 12.5523 9.44772 13 10 13V11ZM10.01 13H11.01V11H10.01V13ZM9 8C8.44772 8 8 8.44772 8 9C8 9.55228 8.44772 10 9 10V8ZM12 10H13V8H12V10ZM15 8H14V10H15V8ZM15.01 10C15.5623 10 16.01 9.55228 16.01 9C16.01 8.44772 15.5623 8 15.01 8V10ZM14 7C14.5523 7 15 6.55228 15 6C15 5.44772 14.5523 5 14 5V7ZM12 5H11V7H12V5ZM8 5C7.44772 5 7 5.44772 7 6C7 6.55228 7.44772 7 8 7V5ZM9 7H10V5H9V7ZM12 17H11V19H12V17ZM13.01 19C13.5623 19 14.01 18.5523 14.01 18C14.01 17.4477 13.5623 17 13.01 17V19ZM6 3H18V1H6V3ZM18 21H6V23H18V21ZM19 4V20H21V4H19ZM5 20V4H3V20H5ZM9 16H15V14H9V16ZM9 17H8V19H9V17ZM13 13H16V11H13V13ZM10 13H10.01V11H10V13ZM9 10H12V8H9V10ZM15 10H15.01V8H15V10ZM14 5H12V7H14V5ZM8 7H9V5H8V7ZM12 19H13.01V17H12V19ZM6 21C5.44771 21 5 20.5523 5 20H3C3 21.6569 4.34315 23 6 23V21ZM18 23C19.6569 23 21 21.6569 21 20H19C19 20.5523 18.5523 21 18 21V23ZM18 3C18.5523 3 19 3.44772 19 4H21C21 2.34315 19.6569 1 18 1V3ZM6 1C4.34315 1 3 2.34315 3 4H5C5 3.44772 5.44772 3 6 3V1Z" fill="currentColor" class="icon-dark"/>
</svg>
