<svg viewBox="0 0 24 24" fill="none" xmlns="http://www.w3.org/2000/svg">
  <path
    d="M11.9798 3.01205L10.3365 6.29867C9.46293 8.04582 8.04625 9.4625 6.2991 10.3361L3.01248 11.9794C2.99584 11.9877 2.99584 12.0114 3.01248 12.0198L6.2991 13.6631C8.04625 14.5366 9.46293 15.9533 10.3365 17.7005L11.9798 20.9871C11.9881 21.0037 12.0119 21.0037 12.0202 20.9871L13.6635 17.7005C14.5371 15.9533 15.9538 14.5366 17.7009 13.6631L20.9875 12.0198C21.0042 12.0114 21.0042 11.9877 20.9875 11.9794L17.7009 10.3361C15.9538 9.4625 14.5371 8.04582 13.6635 6.29867L12.0202 3.01205C12.0119 2.99541 11.9881 2.99541 11.9798 3.01205Z"
    fill="currentColor" stroke="currentColor" stroke-width="2" class="icon-dark-stroke icon-light-fill" />
</svg>