<svg viewBox="0 0 16 16" fill="none" xmlns="http://www.w3.org/2000/svg">
  <mask id="cross_mask">
    <rect x="0" y="0" width="16" height="16" fill="white" />
    <path
      d="M11.4142 8.58579C10.6332 7.80474 9.36683 7.80474 8.58579 8.58579C7.80474 9.36683 7.80474 10.6332 8.58579 11.4142L9.67157 12.5L8.58579 13.5858C7.80474 14.3668 7.80474 15.6332 8.58579 16.4142C9.36683 17.1953 10.6332 17.1953 11.4142 16.4142L12.5 15.3284L13.5858 16.4142C14.3668 17.1953 15.6332 17.1953 16.4142 16.4142C17.1953 15.6332 17.1953 14.3668 16.4142 13.5858L15.3284 12.5L16.4142 11.4142C17.1953 10.6332 17.1953 9.36683 16.4142 8.58579C15.6332 7.80474 14.3668 7.80474 13.5858 8.58579L12.5 9.67157L11.4142 8.58579Z"
      fill="black" stroke="black" stroke-width="2"
      stroke-linecap="round" />
  </mask>
  <mask id="cross_mask_outline">
    <rect x="0" y="0" width="16" height="16" fill="white" />
    <path
      d="M11.4142 8.58579C10.6332 7.80474 9.36683 7.80474 8.58579 8.58579C7.80474 9.36683 7.80474 10.6332 8.58579 11.4142L9.67157 12.5L8.58579 13.5858C7.80474 14.3668 7.80474 15.6332 8.58579 16.4142C9.36683 17.1953 10.6332 17.1953 11.4142 16.4142L12.5 15.3284L13.5858 16.4142C14.3668 17.1953 15.6332 17.1953 16.4142 16.4142C17.1953 15.6332 17.1953 14.3668 16.4142 13.5858L15.3284 12.5L16.4142 11.4142C17.1953 10.6332 17.1953 9.36683 16.4142 8.58579C15.6332 7.80474 14.3668 7.80474 13.5858 8.58579L12.5 9.67157L11.4142 8.58579Z"
      fill="white" stroke="black" stroke-width="2"
      stroke-linecap="round" />
  </mask>
  <path
    d="M10.5 7.99999C10.5 6.16665 10.2483 4.49793 9.83634 3.24999C9.37962 1.86637 8.72595 1.00003 8 1.00003C7.27405 1.00003 6.62036 1.86637 6.16364 3.24999C5.7517 4.49793 5.49999 6.16665 5.49999 7.99999C5.49999 8.29981 5.50672 8.59524 5.51979 8.88513C6.31689 8.96028 7.14711 8.99999 8 8.99999C8.85288 8.99999 9.6831 8.96028 10.4802 8.88514C10.4933 8.59524 10.5 8.29981 10.5 7.99999Z"
    fill="#D0D2E0" class="icon-light" mask="url(#cross_mask)" />
  <path
    d="M8 1.00003C5.96734 1.00003 4.13704 1.86641 2.85821 3.25003C1.71079 4.49148 1.00735 6.14934 1.00006 7.97142C2.29195 8.40788 3.8316 8.72598 5.51979 8.88513C5.50672 8.59524 5.49999 8.29981 5.49999 7.99999C5.49999 6.16665 5.7517 4.49793 6.16364 3.24999C6.62036 1.86637 7.27405 1.00003 8 1.00003Z"
    fill="#D0D2E0" class="icon-light" mask="url(#cross_mask)" />
  <path
    d="M1 8.00003C1 9.83336 1.70479 11.5021 2.85821 12.75C4.13704 14.1337 5.96734 15 8 15C7.27405 15 6.62036 14.1336 6.16364 12.75C5.81907 11.7061 5.58661 10.3679 5.51979 8.88513C3.8316 8.72598 2.29195 8.40788 1.00006 7.97142L1 8.00003Z"
    fill="#D0D2E0" class="icon-light" mask="url(#cross_mask)" />
  <path
    d="M6.16364 12.75C6.62036 14.1336 7.27405 15 8 15C8.72595 15 9.37962 14.1336 9.83634 12.75C10.1809 11.7061 10.4134 10.3679 10.4802 8.88514C9.6831 8.96028 8.85288 8.99999 8 8.99999C7.14711 8.99999 6.31689 8.96028 5.51979 8.88513C5.58661 10.3679 5.81907 11.7061 6.16364 12.75Z"
    fill="#D0D2E0" class="icon-light" mask="url(#cross_mask)" />
  <path
    d="M8 15C10.0327 15 11.863 14.1337 13.1418 12.75C14.2952 11.5021 15 9.83336 15 8.00003L14.9999 7.97142C13.7081 8.40788 12.1684 8.72599 10.4802 8.88514C10.4134 10.3679 10.1809 11.7061 9.83634 12.75C9.37962 14.1336 8.72595 15 8 15Z"
    fill="#D0D2E0" class="icon-light" mask="url(#cross_mask)" />
  <path
    d="M13.1418 3.25003C11.863 1.86641 10.0327 1.00003 8 1.00003C8.72595 1.00003 9.37962 1.86637 9.83634 3.24999C10.2483 4.49793 10.5 6.16665 10.5 7.99999C10.5 8.29981 10.4933 8.59524 10.4802 8.88514C12.1684 8.72599 13.7081 8.40788 14.9999 7.97142C14.9927 6.14934 14.2892 4.49148 13.1418 3.25003Z"
    fill="#D0D2E0" class="icon-light" mask="url(#cross_mask)" />
  <path
    d="M15 8.00003C15 9.83336 14.2952 11.5021 13.1418 12.75C11.863 14.1337 10.0327 15 8 15M15 8.00003C15 7.99049 15 7.98095 14.9999 7.97142M15 8.00003L14.9999 7.97142M8 1.00003C10.0327 1.00003 11.863 1.86641 13.1418 3.25003C14.2892 4.49148 14.9927 6.14934 14.9999 7.97142M8 1.00003C5.96734 1.00003 4.13704 1.86641 2.85821 3.25003C1.71079 4.49148 1.00735 6.14934 1.00006 7.97142M8 1.00003C8.72595 1.00003 9.37962 1.86637 9.83634 3.24999C10.2483 4.49793 10.5 6.16665 10.5 7.99999C10.5 8.29981 10.4933 8.59524 10.4802 8.88514M8 1.00003C7.27405 1.00003 6.62036 1.86637 6.16364 3.24999C5.7517 4.49793 5.49999 6.16665 5.49999 7.99999C5.49999 8.29981 5.50672 8.59524 5.51979 8.88513M1 8.00003C1 9.83336 1.70479 11.5021 2.85821 12.75C4.13704 14.1337 5.96734 15 8 15M1 8.00003C1 7.99049 1.00002 7.98095 1.00006 7.97142M1 8.00003L1.00006 7.97142M8 15C7.27405 15 6.62036 14.1336 6.16364 12.75C5.81907 11.7061 5.58661 10.3679 5.51979 8.88513M8 15C8.72595 15 9.37962 14.1336 9.83634 12.75C10.1809 11.7061 10.4134 10.3679 10.4802 8.88514M14.9999 7.97142C13.7081 8.40788 12.1684 8.72599 10.4802 8.88514M1.00006 7.97142C2.29195 8.40788 3.8316 8.72598 5.51979 8.88513M5.51979 8.88513C6.31689 8.96028 7.14711 8.99999 8 8.99999C8.85288 8.99999 9.6831 8.96028 10.4802 8.88514"
    stroke="currentColor" class="icon-dark" stroke-width="2" mask="url(#cross_mask)" />
  <path
    d="M11.4142 8.58579C10.6332 7.80474 9.36683 7.80474 8.58579 8.58579C7.80474 9.36683 7.80474 10.6332 8.58579 11.4142L9.67157 12.5L8.58579 13.5858C7.80474 14.3668 7.80474 15.6332 8.58579 16.4142C9.36683 17.1953 10.6332 17.1953 11.4142 16.4142L12.5 15.3284L13.5858 16.4142C14.3668 17.1953 15.6332 17.1953 16.4142 16.4142C17.1953 15.6332 17.1953 14.3668 16.4142 13.5858L15.3284 12.5L16.4142 11.4142C17.1953 10.6332 17.1953 9.36683 16.4142 8.58579C15.6332 7.80474 14.3668 7.80474 13.5858 8.58579L12.5 9.67157L11.4142 8.58579Z"
    fill="#E45770" mask="url(#cross_mask_outline)"
    stroke-linecap="round" />
</svg>
  