<svg viewBox="0 0 16 16" fill="none" xmlns="http://www.w3.org/2000/svg">
  <path d="M7.87792 3.22903L6.98526 5.01435C6.51073 5.96342 5.74117 6.73298 4.7921 7.20751L3.00678 8.10017C2.99774 8.10469 2.99774 8.11759 3.00678 8.1221L4.7921 9.01477C5.74117 9.4893 6.51073 10.2589 6.98526 11.2079L7.87792 12.9932C7.88244 13.0023 7.89534 13.0023 7.89985 12.9932L8.79252 11.2079C9.26705 10.2589 10.0366 9.4893 10.9857 9.01477L12.771 8.1221C12.78 8.11759 12.78 8.10469 12.771 8.10017L10.9857 7.20751C10.0366 6.73298 9.26705 5.96342 8.79252 5.01435L7.89985 3.22903C7.89534 3.21999 7.88244 3.21999 7.87792 3.22903Z" fill="currentColor" class="icon-light"/>
  <path d="M7.87792 3.22903L6.98526 5.01435C6.51073 5.96342 5.74117 6.73298 4.7921 7.20751L3.00678 8.10017C2.99774 8.10469 2.99774 8.11759 3.00678 8.1221L4.7921 9.01477C5.74117 9.4893 6.51073 10.2589 6.98526 11.2079L7.87792 12.9932C7.88244 13.0023 7.89534 13.0023 7.89985 12.9932L8.79252 11.2079C9.26705 10.2589 10.0366 9.4893 10.9857 9.01477L12.771 8.1221C12.78 8.11759 12.78 8.10469 12.771 8.10017L10.9857 7.20751C10.0366 6.73298 9.26705 5.96342 8.79252 5.01435L7.89985 3.22903C7.89534 3.21999 7.88244 3.21999 7.87792 3.22903Z" stroke="currentColor" stroke-width="2" class="icon-dark"/>
  <path d="M12.7963 3.20373L12.3889 3.00003L12.7963 2.79632L13 2.38892L13.2037 2.79632L13.6111 3.00003L13.2037 3.20373L13 3.61114L12.7963 3.20373Z" stroke="currentColor" stroke-width="2" class="icon-dark"/>
</svg>