<svg viewBox="0 0 16 16" fill="none" xmlns="http://www.w3.org/2000/svg">
<path d="M7.98654 2.00832L6.891 4.1994C6.30862 5.36416 5.36416 6.30862 4.1994 6.891L2.00832 7.98654C1.99723 7.99209 1.99723 8.00791 2.00832 8.01346L4.1994 9.109C5.36416 9.69138 6.30862 10.6358 6.891 11.8006L7.98654 13.9917C7.99209 14.0028 8.00791 14.0028 8.01346 13.9917L9.109 11.8006C9.69138 10.6358 10.6358 9.69138 11.8006 9.109L13.9917 8.01346C14.0028 8.00791 14.0028 7.99209 13.9917 7.98654L11.8006 6.891C10.6358 6.30862 9.69138 5.36416 9.109 4.1994L8.01346 2.00832C8.00791 1.99723 7.99209 1.99723 7.98654 2.00832Z" fill="#D0D2E0" stroke="currentColor" stroke-width="2" class="icon-dark-stroke icon-light-fill" />
</svg>
