<svg viewBox="0 0 16 16" fill="none" xmlns="http://www.w3.org/2000/svg">
<path d="M4.99102 4.01789L4.26292 5.4741C3.87587 6.24821 3.24817 6.8759 2.47406 7.26295L1.01786 7.99106C1.01049 7.99474 1.01049 8.00526 1.01786 8.00894L2.47407 8.73705C3.24818 9.1241 3.87587 9.75179 4.26292 10.5259L4.99102 11.9821C4.99471 11.9895 5.00523 11.9895 5.00891 11.9821L5.73702 10.5259C6.12407 9.75179 6.75176 9.1241 7.52587 8.73705L8.98208 8.00894C8.98945 8.00526 8.98945 7.99474 8.98208 7.99106L7.52587 7.26295C6.75176 6.8759 6.12407 6.24821 5.73702 5.4741L5.00891 4.01789C5.00523 4.01052 4.99471 4.01052 4.99102 4.01789Z" fill="currentColor" class="icon-light" />
<path d="M13 10L12.9296 10.1408C12.5425 10.9149 11.9148 11.5426 11.1407 11.9296L11 12L11.1407 12.0704C11.9148 12.4574 12.5425 13.0851 12.9296 13.8592L13 14L13.0704 13.8592C13.4574 13.0851 14.0851 12.4574 14.8592 12.0704L15 12L14.8592 11.9296C14.0851 11.5426 13.4574 10.9149 13.0703 10.1408L13 10Z" fill="currentColor" class="icon-light"/>
<path d="M13 2L12.9296 2.14076C12.5425 2.91487 11.9148 3.54256 11.1407 3.92962L11 4L11.1407 4.07038C11.9148 4.45744 12.5425 5.08513 12.9296 5.85924L13 6L13.0704 5.85924C13.4574 5.08513 14.0851 4.45744 14.8592 4.07038L15 4L14.8592 3.92962C14.0851 3.54256 13.4574 2.91487 13.0703 2.14076L13 2Z" fill="currentColor" class="icon-light"/>
<path d="M4.99102 4.01789L4.26292 5.4741C3.87587 6.24821 3.24817 6.8759 2.47406 7.26295L1.01786 7.99106C1.01049 7.99474 1.01049 8.00526 1.01786 8.00894L2.47407 8.73705C3.24818 9.1241 3.87587 9.75179 4.26292 10.5259L4.99102 11.9821C4.99471 11.9895 5.00523 11.9895 5.00891 11.9821L5.73702 10.5259C6.12407 9.75179 6.75176 9.1241 7.52587 8.73705L8.98208 8.00894C8.98945 8.00526 8.98945 7.99474 8.98208 7.99106L7.52587 7.26295C6.75176 6.8759 6.12407 6.24821 5.73702 5.4741L5.00891 4.01789C5.00523 4.01052 4.99471 4.01052 4.99102 4.01789Z" stroke="currentColor" class="icon-dark" stroke-width="2" stroke-linejoin="round"/>
<path d="M13 10L12.9296 10.1408C12.5425 10.9149 11.9148 11.5426 11.1407 11.9296L11 12L11.1407 12.0704C11.9148 12.4574 12.5425 13.0851 12.9296 13.8592L13 14L13.0704 13.8592C13.4574 13.0851 14.0851 12.4574 14.8592 12.0704L15 12L14.8592 11.9296C14.0851 11.5426 13.4574 10.9149 13.0703 10.1408L13 10Z" stroke="currentColor" stroke-width="2" class="icon-dark" stroke-linejoin="round"/>
<path d="M13 2L12.9296 2.14076C12.5425 2.91487 11.9148 3.54256 11.1407 3.92962L11 4L11.1407 4.07038C11.9148 4.45744 12.5425 5.08513 12.9296 5.85924L13 6L13.0704 5.85924C13.4574 5.08513 14.0851 4.45744 14.8592 4.07038L15 4L14.8592 3.92962C14.0851 3.54256 13.4574 2.91487 13.0703 2.14076L13 2Z" stroke="currentColor" class="icon-dark" stroke-width="2" stroke-linejoin="round"/>
</svg>
