<svg viewBox="0 0 24 24" fill="none" xmlns="http://www.w3.org/2000/svg">
  <path d="M13 9V19H17C18.1046 19 19 18.1046 19 17V11C19 9.89543 18.1046 9 17 9H13Z" fill="#D0D2E0" class="icon-light" />
  <path d="M13 19H5C3.89543 19 3 18.1046 3 17V7C3 5.89543 3.89543 5 5 5L11 5C12.1046 5 13 5.89543 13 7V9M13 19V9M13 19H17C18.1046 19 19 18.1046 19 17V11C19 9.89543 18.1046 9 17 9H13" stroke="currentColor" stroke-width="2" class="icon-dark" />
  <path d="M5 8.5C5 8.22386 5.22386 8 5.5 8H7C7.27614 8 7.5 8.22386 7.5 8.5V9.5C7.5 9.77614 7.27614 10 7 10H5.5C5.22386 10 5 9.77614 5 9.5V8.5Z" fill="#1B1E2E" class="icon-dark" />
  <path d="M5 12.5C5 12.2239 5.22386 12 5.5 12H7C7.27614 12 7.5 12.2239 7.5 12.5V13.5C7.5 13.7761 7.27614 14 7 14H5.5C5.22386 14 5 13.7761 5 13.5V12.5Z" fill="#1B1E2E" class="icon-dark" />
  <path d="M8.5 8.5C8.5 8.22386 8.72386 8 9 8H10.5C10.7761 8 11 8.22386 11 8.5V9.5C11 9.77614 10.7761 10 10.5 10H9C8.72386 10 8.5 9.77614 8.5 9.5V8.5Z" fill="#1B1E2E" class="icon-dark" />
  <path d="M8.5 12.5C8.5 12.2239 8.72386 12 9 12H10.5C10.7761 12 11 12.2239 11 12.5V13.5C11 13.7761 10.7761 14 10.5 14H9C8.72386 14 8.5 13.7761 8.5 13.5V12.5Z" fill="#1B1E2E" class="icon-dark" />
  <path d="M15 12.5C15 12.2239 15.2239 12 15.5 12H16.5C16.7761 12 17 12.2239 17 12.5V13.5C17 13.7761 16.7761 14 16.5 14H15.5C15.2239 14 15 13.7761 15 13.5V12.5Z" fill="#1B1E2E" class="icon-dark" />
</svg>
