<svg viewBox="0 0 24 24" fill="none" xmlns="http://www.w3.org/2000/svg">
<path d="M8 6L6.59628 8.80743C6.20923 9.58154 5.58154 10.2092 4.80743 10.5963L2 12L4.80743 13.4037C5.58154 13.7908 6.20923 14.4185 6.59628 15.1926L8 18L9.40372 15.1926C9.79077 14.4185 10.4185 13.7908 11.1926 13.4037L14 12L11.1926 10.5963C10.4185 10.2092 9.79077 9.58154 9.40372 8.80743L8 6Z" fill="currentColor" class="icon-light" />
<path d="M19 14L18.5963 14.8074C18.2092 15.5815 17.5815 16.2092 16.8074 16.5963L16 17L16.8074 17.4037C17.5815 17.7908 18.2092 18.4185 18.5963 19.1926L19 20L19.4037 19.1926C19.7908 18.4185 20.4185 17.7908 21.1926 17.4037L22 17L21.1926 16.5963C20.4185 16.2092 19.7908 15.5815 19.4037 14.8074L19 14Z" fill="currentColor" class="icon-light"/>
<path d="M19 4L18.5963 4.80743C18.2092 5.58154 17.5815 6.20923 16.8074 6.59628L16 7L16.8074 7.40372C17.5815 7.79077 18.2092 8.41846 18.5963 9.19257L19 10L19.4037 9.19257C19.7908 8.41846 20.4185 7.79077 21.1926 7.40372L22 7L21.1926 6.59628C20.4185 6.20923 19.7908 5.58154 19.4037 4.80743L19 4Z" fill="currentColor" class="icon-light"/>
<path d="M8 6L6.59628 8.80743C6.20923 9.58154 5.58154 10.2092 4.80743 10.5963L2 12L4.80743 13.4037C5.58154 13.7908 6.20923 14.4185 6.59628 15.1926L8 18L9.40372 15.1926C9.79077 14.4185 10.4185 13.7908 11.1926 13.4037L14 12L11.1926 10.5963C10.4185 10.2092 9.79077 9.58154 9.40372 8.80743L8 6Z" stroke="currentColor" class="icon-dark" stroke-width="2" stroke-linejoin="round"/>
<path d="M19 14L18.5963 14.8074C18.2092 15.5815 17.5815 16.2092 16.8074 16.5963L16 17L16.8074 17.4037C17.5815 17.7908 18.2092 18.4185 18.5963 19.1926L19 20L19.4037 19.1926C19.7908 18.4185 20.4185 17.7908 21.1926 17.4037L22 17L21.1926 16.5963C20.4185 16.2092 19.7908 15.5815 19.4037 14.8074L19 14Z" stroke="currentColor" class="icon-dark" stroke-width="2" stroke-linejoin="round"/>
<path d="M19 4L18.5963 4.80743C18.2092 5.58154 17.5815 6.20923 16.8074 6.59628L16 7L16.8074 7.40372C17.5815 7.79077 18.2092 8.41846 18.5963 9.19257L19 10L19.4037 9.19257C19.7908 8.41846 20.4185 7.79077 21.1926 7.40372L22 7L21.1926 6.59628C20.4185 6.20923 19.7908 5.58154 19.4037 4.80743L19 4Z" stroke="currentColor" class="icon-dark" stroke-width="2" stroke-linejoin="round"/>
</svg>
