<svg viewBox="0 0 24 24" fill="none" xmlns="http://www.w3.org/2000/svg">
  <path d="M15.7882 10.3321C16.248 10.671 16.7379 10.9725 17.254 11.2305L18.7921 12.0001L17.254 12.7696C15.4346 13.6793 13.9376 15.119 12.9581 16.8946L12.7697 17.254L12.0001 18.7921L11.2306 17.254C10.9725 16.7379 10.6701 16.2489 10.3312 15.7891L15.7882 10.3321ZM12.7697 6.74615L12.9581 7.10553C13.1705 7.49058 13.409 7.85855 13.6681 8.21002L8.21008 13.668C7.85862 13.4089 7.49063 13.1705 7.10559 12.9581L6.74622 12.7696L5.20715 12.0001L6.74622 11.2305L7.10559 11.0421C8.88115 10.0625 10.3209 8.56558 11.2306 6.74615L12.0001 5.20709L12.7697 6.74615Z" fill="currentColor" class="icon-light"/>
  <path d="M17.2226 8.89746C17.5177 9.09827 17.8264 9.28139 18.1484 9.44238L21.4345 11.085L21.5673 11.1641C22.1439 11.5655 22.1439 12.4345 21.5673 12.8359L21.4345 12.915L18.1484 14.5576C16.6918 15.2859 15.4931 16.4389 14.7089 17.8603L14.5576 18.1484L12.915 21.4346C12.5382 22.1882 11.4618 22.1881 11.0849 21.4346L9.44233 18.1484C9.28133 17.8264 9.09823 17.5178 8.89741 17.2227L10.331 15.7891C10.6699 16.2488 10.9724 16.7378 11.2304 17.2539L11.9999 18.792L12.7695 17.2539L12.958 16.8945C13.9375 15.1189 15.4344 13.6793 17.2538 12.7695L18.7919 12L17.2538 11.2305C16.7377 10.9724 16.2478 10.671 15.788 10.332L17.2226 8.89746ZM11.164 2.43262C11.5654 1.85592 12.4345 1.85583 12.8359 2.43262L12.915 2.56543L14.5576 5.85156L14.7089 6.13965C14.8298 6.3587 14.9615 6.57063 15.1015 6.77637L13.6679 8.20996C13.4088 7.85849 13.1704 7.49052 12.958 7.10547L12.7695 6.74609L11.9999 5.20703L11.2304 6.74609C10.3207 8.56551 8.88097 10.0625 7.10541 11.042L6.74604 11.2305L5.20698 12L6.74604 12.7695L7.10541 12.958C7.49045 13.1704 7.85844 13.4089 8.20991 13.668L6.77631 15.1016C6.57059 14.9616 6.35864 14.8298 6.13959 14.709L5.85151 14.5576L2.56537 12.915C1.81174 12.5382 1.81166 11.4618 2.56537 11.085L5.85151 9.44238L6.13959 9.29101C7.56097 8.50685 8.71407 7.30807 9.44233 5.85156L11.0849 2.56543L11.164 2.43262Z" fill="currentColor" class="icon-dark"/>
  <path d="M4 20L20 4" stroke="#E45770" stroke-linecap="round"/>
</svg>



