<svg viewBox="0 0 12 12" fill="none" xmlns="http://www.w3.org/2000/svg">
<path d="M5.99103 2.00554L5.26067 3.46627C4.87241 4.24278 4.24278 4.87241 3.46627 5.26067L2.00554 5.99103C1.99815 5.99472 1.99815 6.00528 2.00555 6.00897L3.46627 6.73933C4.24278 7.12759 4.87241 7.75723 5.26067 8.53373L5.99103 9.99445C5.99472 10.0018 6.00528 10.0018 6.00897 9.99445L6.73933 8.53373C7.12759 7.75722 7.75722 7.12759 8.53373 6.73933L9.99445 6.00897C10.0018 6.00528 10.0018 5.99472 9.99445 5.99103L8.53373 5.26067C7.75722 4.87241 7.12759 4.24278 6.73933 3.46627L6.00897 2.00554C6.00528 1.99815 5.99472 1.99815 5.99103 2.00554Z" fill="#D0D2E0" stroke="currentColor" stroke-width="2" class="icon-dark-stroke icon-light-fill" />
</svg>
