<svg viewBox="0 0 16 16" fill="none" xmlns="http://www.w3.org/2000/svg">
    <path fill-rule="evenodd" clip-rule="evenodd" d="M8 11.4649C9.1956 10.7733 10 9.48057 10 8C10 6.51944 9.1956 5.22675 8 4.53513C6.8044 5.22675 6 6.51944 6 8C6 9.48056 6.8044 10.7733 8 11.4649Z" fill="#D0D2E0" class="icon-light" />
    <path fill-rule="evenodd" clip-rule="evenodd" d="M6 8C6 9.48056 6.8044 10.7733 8 11.4649C9.1956 10.7733 10 9.48057 10 8C10 6.51944 9.1956 5.22675 8 4.53513C6.8044 5.22675 6 6.51944 6 8Z" fill="#D0D2E0" class="icon-light" />
    <path d="M8 11.4649C9.1956 10.7733 10 9.48057 10 8C10 6.51944 9.1956 5.22675 8 4.53513M8 11.4649C6.8044 10.7733 6 9.48056 6 8C6 6.51944 6.8044 5.22675 8 4.53513M8 11.4649C8.58835 11.8052 9.27143 12 10 12C12.2091 12 14 10.2091 14 8C14 5.79086 12.2091 4 10 4C9.27143 4 8.58835 4.19479 8 4.53513M8 11.4649C7.41165 11.8052 6.72857 12 6 12C3.79086 12 2 10.2091 2 8C2 5.79086 3.79086 4 6 4C6.72857 4 7.41165 4.19479 8 4.53513" stroke="currentColor" stroke-width="2" class="icon-dark" />
</svg>
