<svg viewBox="0 0 24 24" fill="none" xmlns="http://www.w3.org/2000/svg">
    <path fill-rule="evenodd" clip-rule="evenodd" d="M12 16.9782C13.8042 15.8231 15 13.8012 15 11.5C15 9.19879 13.8042 7.17689 12 6.02182C10.1958 7.17689 9 9.19879 9 11.5C9 13.8012 10.1958 15.8231 12 16.9782Z" fill="#D0D2E0" class="icon-light" />
    <path fill-rule="evenodd" clip-rule="evenodd" d="M9 11.5C9 13.8012 10.1958 15.8231 12 16.9782C13.8042 15.8231 15 13.8012 15 11.5C15 9.19879 13.8042 7.17689 12 6.02182C10.1958 7.17689 9 9.19879 9 11.5Z" fill="#D0D2E0" class="icon-light" />
    <path d="M12 16.9782C13.8042 15.8231 15 13.8012 15 11.5C15 9.19879 13.8042 7.17689 12 6.02182M12 16.9782C10.1958 15.8231 9 13.8012 9 11.5C9 9.19879 10.1958 7.17689 12 6.02182M12 16.9782C13.0103 17.625 14.2114 18 15.5 18C19.0899 18 22 15.0899 22 11.5C22 7.91015 19.0899 5 15.5 5C14.2114 5 13.0103 5.375 12 6.02182M12 16.9782C10.9897 17.625 9.78864 18 8.5 18C4.91015 18 2 15.0899 2 11.5C2 7.91015 4.91015 5 8.5 5C9.78864 5 10.9897 5.375 12 6.02182" stroke="currentColor" stroke-width="2" class="icon-dark" />
</svg>
