<svg viewBox="0 0 24 24" fill="none" xmlns="http://www.w3.org/2000/svg">
  <path d="M15 7V21H19C20.1046 21 21 20.1046 21 19V9C21 7.89543 20.1046 7 19 7H15Z" fill="#D0D2E0" class="icon-light" />
  <path d="M15 21H5C3.89543 21 3 20.1046 3 19V5C3 3.89543 3.89543 3 5 3H13C14.1046 3 15 3.89543 15 5V7M15 21V7M15 21H19C20.1046 21 21 20.1046 21 19V9C21 7.89543 20.1046 7 19 7H15" stroke="currentColor" stroke-width="2" class="icon-dark" />
  <path d="M5 6.5C5 6.22386 5.22386 6 5.5 6H6.5C6.77614 6 7 6.22386 7 6.5V7.5C7 7.77614 6.77614 8 6.5 8H5.5C5.22386 8 5 7.77614 5 7.5V6.5Z" fill="#1B1E2E" class="icon-dark" />
  <path d="M8 6.5C8 6.22386 8.22386 6 8.5 6H9.5C9.77614 6 10 6.22386 10 6.5V7.5C10 7.77614 9.77614 8 9.5 8H8.5C8.22386 8 8 7.77614 8 7.5V6.5Z" fill="#1B1E2E" class="icon-dark" />
  <path d="M8 10.5C8 10.2239 8.22386 10 8.5 10H9.5C9.77614 10 10 10.2239 10 10.5V11.5C10 11.7761 9.77614 12 9.5 12H8.5C8.22386 12 8 11.7761 8 11.5V10.5Z" fill="#1B1E2E" class="icon-dark" />
  <path d="M5 10.5C5 10.2239 5.22386 10 5.5 10H6.5C6.77614 10 7 10.2239 7 10.5V11.5C7 11.7761 6.77614 12 6.5 12H5.5C5.22386 12 5 11.7761 5 11.5V10.5Z" fill="#1B1E2E" class="icon-dark" />
  <path d="M5 14.5C5 14.2239 5.22386 14 5.5 14H6.5C6.77614 14 7 14.2239 7 14.5V15.5C7 15.7761 6.77614 16 6.5 16H5.5C5.22386 16 5 15.7761 5 15.5V14.5Z" fill="#1B1E2E" class="icon-dark" />
  <path d="M8 14.5C8 14.2239 8.22386 14 8.5 14H9.5C9.77614 14 10 14.2239 10 14.5V15.5C10 15.7761 9.77614 16 9.5 16H8.5C8.22386 16 8 15.7761 8 15.5V14.5Z" fill="#1B1E2E" class="icon-dark" />
  <path d="M17 10.5C17 10.2239 17.2239 10 17.5 10H18.5C18.7761 10 19 10.2239 19 10.5V11.5C19 11.7761 18.7761 12 18.5 12H17.5C17.2239 12 17 11.7761 17 11.5V10.5Z" fill="#1B1E2E" class="icon-dark" />
  <path d="M17 14.5C17 14.2239 17.2239 14 17.5 14H18.5C18.7761 14 19 14.2239 19 14.5V15.5C19 15.7761 18.7761 16 18.5 16H17.5C17.2239 16 17 15.7761 17 15.5V14.5Z" fill="#1B1E2E" class="icon-dark" />
  <path d="M11 6.5C11 6.22386 11.2239 6 11.5 6H12.5C12.7761 6 13 6.22386 13 6.5V7.5C13 7.77614 12.7761 8 12.5 8H11.5C11.2239 8 11 7.77614 11 7.5V6.5Z" fill="#1B1E2E" class="icon-dark" />
  <path d="M11 10.5C11 10.2239 11.2239 10 11.5 10H12.5C12.7761 10 13 10.2239 13 10.5V11.5C13 11.7761 12.7761 12 12.5 12H11.5C11.2239 12 11 11.7761 11 11.5V10.5Z" fill="#1B1E2E" class="icon-dark" />
  <path d="M11 14.5C11 14.2239 11.2239 14 11.5 14H12.5C12.7761 14 13 14.2239 13 14.5V15.5C13 15.7761 12.7761 16 12.5 16H11.5C11.2239 16 11 15.7761 11 15.5V14.5Z" fill="#1B1E2E" class="icon-dark" />
</svg>
