<svg width="16" height="16" viewBox="0 0 16 16" fill="none" xmlns="http://www.w3.org/2000/svg">
<ellipse class="icon-light" cx="8" cy="6" rx="7" ry="2" fill="currentColor" stroke="currentColor" stroke-width="2"/>
<path class="icon-dark" d="M8 3C9.99877 3 11.8457 3.23005 13.2246 3.62402C13.9072 3.81905 14.5324 4.0701 15.0098 4.39258C15.4523 4.69151 16 5.21636 16 6V10C16 10.5254 15.7456 10.9404 15.4658 11.2295C15.19 11.5144 14.8358 11.7371 14.4707 11.9141C13.7369 12.2697 12.7576 12.5378 11.6631 12.7188C10.574 12.8987 9.32369 13 8 13C6.67631 13 5.42598 12.8987 4.33691 12.7188C3.24235 12.5378 2.26306 12.2697 1.5293 11.9141C1.16418 11.7371 0.810015 11.5144 0.53418 11.2295C0.254378 10.9404 0 10.5254 0 10V6C0 5.21636 0.547708 4.69151 0.990234 4.39258C1.46764 4.0701 2.0928 3.81905 2.77539 3.62402C4.15428 3.23005 6.00123 3 8 3ZM5.5 10.8613C5.9731 10.9158 6.47557 10.9552 7 10.9775V8.97754C6.48334 8.95729 5.98149 8.92119 5.5 8.87109V10.8613ZM10.5 8.87109C10.0185 8.92119 9.51666 8.95729 9 8.97754V10.9775C9.52443 10.9552 10.0269 10.9158 10.5 10.8613V8.87109ZM2 9.86426C2.06507 9.9221 2.18884 10.0112 2.40137 10.1143C2.68112 10.2499 3.05083 10.3801 3.5 10.499V8.55469C3.2468 8.49863 3.00425 8.44136 2.77539 8.37598C2.50603 8.29902 2.24592 8.21254 2 8.11719V9.86426ZM14 8.11719C13.7541 8.21254 13.494 8.29902 13.2246 8.37598C12.9958 8.44136 12.7532 8.49863 12.5 8.55469V10.499C12.9492 10.3801 13.3189 10.2499 13.5986 10.1143C13.8112 10.0112 13.9349 9.9221 14 9.86426V8.11719ZM8 5C6.13295 5 4.47979 5.21704 3.3252 5.54688C2.80577 5.69528 2.43321 5.85693 2.19434 6C2.43321 6.14307 2.80577 6.30472 3.3252 6.45312C4.47979 6.78296 6.13295 7 8 7C9.86705 7 11.5202 6.78296 12.6748 6.45312C13.1937 6.30487 13.5658 6.14295 13.8047 6C13.5658 5.85705 13.1937 5.69513 12.6748 5.54688C11.5202 5.21704 9.86705 5 8 5Z" fill="currentColor"/>
</svg>
