<svg width="16" height="16" viewBox="0 0 16 16" fill="none" xmlns="http://www.w3.org/2000/svg">
  <path
    d="M14.9714 6.99355L5.01471 5.00221C5.00771 5.00081 5.00154 5.00698 5.00294 5.01398L6.99428 14.9707C6.99615 14.98 7.00878 14.9817 7.01303 14.9732L8.9938 11.0117C8.99685 11.0056 9.00498 11.0043 9.00981 11.0091L11.9929 13.9922C11.9968 13.9961 12.0032 13.9961 12.0071 13.9922L13.9929 12.0063C13.9968 12.0024 13.9968 11.9961 13.9929 11.9922L11.0098 9.00908C11.005 9.00425 11.0063 8.99612 11.0124 8.99306L14.9739 7.0123C14.9824 7.00804 14.9808 6.99542 14.9714 6.99355Z"
    fill="#D0D2E0" stroke-width="2" stroke="currentColor" class="icon-dark-stroke icon-light-fill" />
  <path fill-rule="evenodd" clip-rule="evenodd"
    d="M7 -0.000732422C7.55228 -0.000732422 8 0.446983 8 0.999268V1.99927C8 2.55155 7.55228 2.99927 7 2.99927C6.44772 2.99927 6 2.55155 6 1.99927V0.999268C6 0.446983 6.44772 -0.000732422 7 -0.000732422ZM12.7071 2.70637L12 3.41348C11.6095 3.80401 10.9763 3.80401 10.5858 3.41348C10.1953 3.02296 10.1953 2.38979 10.5858 1.99927L11.2929 1.29216C11.6834 0.901636 12.3166 0.901636 12.7071 1.29216C13.0976 1.68269 13.0976 2.31585 12.7071 2.70637ZM2.70711 1.29216C2.31658 0.901637 1.68342 0.901636 1.29289 1.29216C0.902369 1.68269 0.902369 2.31585 1.29289 2.70637L2 3.41348C2.39052 3.80401 3.02369 3.80401 3.41421 3.41348C3.80474 3.02296 3.80474 2.38979 3.41421 1.99927L2.70711 1.29216ZM2.70711 12.4135L3.41421 11.7064C3.80474 11.3158 3.80474 10.6827 3.41421 10.2921C3.02369 9.90162 2.39052 9.90162 2 10.2921L1.29289 10.9993C0.902369 11.3898 0.902369 12.0229 1.29289 12.4135C1.68342 12.804 2.31658 12.804 2.70711 12.4135ZM1 5.99927C0.447715 5.99927 0 6.44698 0 6.99927C0 7.55155 0.447715 7.99927 1 7.99927H2C2.55228 7.99927 3 7.55155 3 6.99927C3 6.44698 2.55228 5.99927 2 5.99927H1Z"
    fill="currentColor" class="icon-dark" />
</svg>
  