<svg viewBox="0 0 12 12" fill="none" xmlns="http://www.w3.org/2000/svg">
<path fill-rule="evenodd" clip-rule="evenodd" d="M2.5 1C1.67157 1 1 1.67157 1 2.5V4C1 4.55228 1.44772 5 2 5C2.55228 5 3 4.55228 3 4V3H4C4.55228 3 5 2.55228 5 2C5 1.44772 4.55228 1 4 1H2.5ZM8.00037 1C7.44808 0.999798 7.0002 1.44735 7 1.99963C6.9998 2.55192 7.44735 2.9998 7.99963 3L9 3.00037V4C9 4.55228 9.44772 5 10 5C10.5523 5 11 4.55228 11 4V2.50055C11 1.67234 10.3288 1.00085 9.50055 1.00055L8.00037 1ZM3 8C3 7.44772 2.55228 7 2 7C1.44772 7 1 7.44772 1 8V9.5C1 10.3284 1.67157 11 2.5 11H4C4.55228 11 5 10.5523 5 10C5 9.44772 4.55228 9 4 9H3V8ZM11.848 7.53073C12.1407 7.06239 11.9983 6.44544 11.53 6.15273C11.0617 5.86002 10.4447 6.0024 10.152 6.47073L8.42496 9.23401L7.8 8.40073C7.46863 7.9589 6.84183 7.86936 6.4 8.20073C5.95817 8.5321 5.86863 9.15891 6.2 9.60073L7.7 11.6007C7.89784 11.8645 8.213 12.0138 8.54244 11.9998C8.87188 11.9858 9.17324 11.8103 9.348 11.5307L11.848 7.53073Z" fill="currentColor" class="icon-dark"/>
</svg>
