<svg viewBox="0 0 12 12" fill="none" xmlns="http://www.w3.org/2000/svg">
<path fill-rule="evenodd" clip-rule="evenodd" d="M1 2.5C1 1.67157 1.67157 1 2.5 1H4C4.55228 1 5 1.44772 5 2C5 2.55228 4.55228 3 4 3H3V4C3 4.55228 2.55228 5 2 5C1.44772 5 1 4.55228 1 4V2.5ZM7 1.99963C7.0002 1.44735 7.44808 0.999798 8.00037 1L9.50055 1.00055C10.3288 1.00085 11 1.67234 11 2.50055V4C11 4.55228 10.5523 5 10 5C9.44772 5 9 4.55228 9 4V3.00037L7.99963 3C7.44735 2.9998 6.9998 2.55192 7 1.99963ZM2 7C2.55228 7 3 7.44772 3 8V9H4C4.55228 9 5 9.44772 5 10C5 10.5523 4.55228 11 4 11H2.5C1.67157 11 1 10.3284 1 9.5V8C1 7.44772 1.44772 7 2 7Z" fill="currentColor" class="icon-dark"/>
<path d="M9 7.00073C10.1046 7.00073 11 7.89616 11 9.00073C11 10.1053 10.1046 11.0007 9 11.0007C7.89543 11.0007 7 10.1053 7 9.00073C7 7.89616 7.89543 7.00073 9 7.00073Z" fill="#D0D2E0" stroke="currentColor" class="icon-dark-stroke icon-light-fill" stroke-width="2" stroke-linecap="round" />
</svg>
