<svg viewBox="0 0 12 12" fill="none" xmlns="http://www.w3.org/2000/svg">
<path fill-rule="evenodd" clip-rule="evenodd" d="M2.5 1C1.67157 1 1 1.67157 1 2.5V4C1 4.55228 1.44772 5 2 5C2.55228 5 3 4.55228 3 4V3H4C4.55228 3 5 2.55228 5 2C5 1.44772 4.55228 1 4 1H2.5ZM8.00037 1C7.44808 0.999798 7.0002 1.44735 7 1.99963C6.9998 2.55192 7.44735 2.9998 7.99963 3L9 3.00037V4C9 4.55228 9.44772 5 10 5C10.5523 5 11 4.55228 11 4V2.50055C11 1.67234 10.3288 1.00085 9.50055 1.00055L8.00037 1ZM3 8C3 7.44772 2.55228 7 2 7C1.44772 7 1 7.44772 1 8V9.5C1 10.3284 1.67157 11 2.5 11H4C4.55228 11 5 10.5523 5 10C5 9.44772 4.55228 9 4 9H3V8ZM8.70711 7.29289C8.31658 6.90237 7.68342 6.90237 7.29289 7.29289C6.90237 7.68342 6.90237 8.31658 7.29289 8.70711L8.08579 9.5L7.29289 10.2929C6.90237 10.6834 6.90237 11.3166 7.29289 11.7071C7.68342 12.0976 8.31658 12.0976 8.70711 11.7071L9.5 10.9142L10.2929 11.7071C10.6834 12.0976 11.3166 12.0976 11.7071 11.7071C12.0976 11.3166 12.0976 10.6834 11.7071 10.2929L10.9142 9.5L11.7071 8.70711C12.0976 8.31658 12.0976 7.68342 11.7071 7.29289C11.3166 6.90237 10.6834 6.90237 10.2929 7.29289L9.5 8.08579L8.70711 7.29289Z" fill="currentColor" class="icon-dark"/>
</svg>
