<svg viewBox="0 0 24 24" fill="none" xmlns="http://www.w3.org/2000/svg">
  <path d="M20.4142 3.41421L20.5858 3.58579C21.3668 4.36683 21.3668 5.63317 20.5858 6.41421L12 15L10 15.5L8 16L8.5 14L9 12L17.5858 3.41421C18.3668 2.63317 19.6332 2.63316 20.4142 3.41421Z" fill="#D0D2E0" class="icon-light" />
  <path d="M8.5 14L9 12L17.5858 3.41421C18.3668 2.63317 19.6332 2.63316 20.4142 3.41421L20.5858 3.58579C21.3668 4.36683 21.3668 5.63317 20.5858 6.41421L12 15L10 15.5M9 12L12 15M12 3H5C3.89543 3 3 3.89543 3 5V19C3 20.1046 3.89543 21 5 21H19C20.1046 21 21 20.1046 21 19V12M10 15.5L8 16L8.5 14M10 15.5L8.5 14" stroke="currentColor" stroke-width="2" stroke-linecap="round" stroke-linejoin="round" class="icon-dark" />
</svg>
