<svg viewBox="0 0 16 16" fill="none" xmlns="http://www.w3.org/2000/svg">
<path fill-rule="evenodd" clip-rule="evenodd" d="M2.5 1C1.67157 1 1 1.67157 1 2.5V4C1 4.55228 1.44772 5 2 5C2.55228 5 3 4.55228 3 4V3H4C4.55228 3 5 2.55228 5 2C5 1.44772 4.55228 1 4 1H2.5ZM7 1C6.44772 1 6 1.44772 6 2C6 2.55228 6.44772 3 7 3H9C9.55228 3 10 2.55228 10 2C10 1.44772 9.55228 1 9 1H7ZM12.0004 1C11.4481 0.999798 11.0002 1.44735 11 1.99963C10.9998 2.55192 11.4473 2.9998 11.9996 3L13 3.00037V4C13 4.55228 13.4477 5 14 5C14.5523 5 15 4.55228 15 4V2.50055C15 1.67234 14.3288 1.00085 13.5005 1.00055L12.0004 1ZM3 7.00073C3 6.44845 2.55228 6.00073 2 6.00073C1.44772 6.00073 1 6.44845 1 7.00073V9.00073C1 9.55302 1.44772 10.0007 2 10.0007C2.55228 10.0007 3 9.55302 3 9.00073V7.00073ZM3 12C3 11.4477 2.55228 11 2 11C1.44772 11 1 11.4477 1 12V13.5C1 14.3284 1.67157 15 2.5 15H4C4.55228 15 5 14.5523 5 14C5 13.4477 4.55228 13 4 13H3V12ZM15.7809 10.6247C16.1259 10.1934 16.056 9.56414 15.6247 9.21913C15.1934 8.87412 14.5641 8.94404 14.2191 9.37531L10.9171 13.5029L9.70711 12.2929C9.31658 11.9024 8.68342 11.9024 8.29289 12.2929C7.90237 12.6834 7.90237 13.3166 8.29289 13.7071L10.2929 15.7071C10.494 15.9082 10.7713 16.0142 11.0553 15.9985C11.3393 15.9827 11.6032 15.8468 11.7809 15.6247L15.7809 10.6247Z" fill="currentColor" class="icon-dark"/>
</svg>
