<svg viewBox="0 0 16 16" fill="none" xmlns="http://www.w3.org/2000/svg">
  <path fill-rule="evenodd" clip-rule="evenodd"
    d="M9 1.99927C9 1.44698 8.55228 0.999268 8 0.999268C7.44772 0.999268 7 1.44698 7 1.99927V2.99927C7 3.55155 7.44772 3.99927 8 3.99927C8.55228 3.99927 9 3.55155 9 2.99927V1.99927ZM13 4.41348L13.7071 3.70637C14.0976 3.31585 14.0976 2.68269 13.7071 2.29216C13.3166 1.90164 12.6834 1.90164 12.2929 2.29216L11.5858 2.99927C11.1953 3.38979 11.1953 4.02296 11.5858 4.41348C11.9763 4.80401 12.6095 4.80401 13 4.41348ZM4.70711 12.7064L4 13.4135C3.60948 13.804 2.97631 13.804 2.58579 13.4135C2.19526 13.023 2.19526 12.3898 2.58579 11.9993L3.29289 11.2922C3.68342 10.9016 4.31658 10.9016 4.70711 11.2922C5.09763 11.6827 5.09763 12.3159 4.70711 12.7064ZM3.70711 2.29216C3.31658 1.90164 2.68342 1.90164 2.29289 2.29216C1.90237 2.68269 1.90237 3.31585 2.29289 3.70637L3 4.41348C3.39052 4.80401 4.02369 4.80401 4.41421 4.41348C4.80474 4.02296 4.80474 3.38979 4.41421 2.99927L3.70711 2.29216ZM1 7.99927C1 7.44698 1.44772 6.99927 2 6.99927H3C3.55228 6.99927 4 7.44698 4 7.99927C4 8.55155 3.55228 8.99927 3 8.99927H2C1.44772 8.99927 1 8.55155 1 7.99927ZM6.29417 6.0581L15.4284 7.88495C15.6151 7.9223 15.649 8.17479 15.4786 8.25995L12.2482 9.87517C12.1261 9.93622 12.0997 10.099 12.1962 10.1955L14.8586 12.8578C14.9367 12.936 14.9367 13.0626 14.8586 13.1407L13.1414 14.8578C13.0633 14.936 12.9367 14.936 12.8586 14.8578L10.1962 12.1955C10.0997 12.099 9.93695 12.1254 9.87591 12.2475L8.26068 15.4779C8.17552 15.6482 7.92303 15.6144 7.88568 15.4277L6.05884 6.29344C6.03085 6.1535 6.15423 6.03011 6.29417 6.0581Z"
    fill="currentColor" class="icon-dark" />
</svg>
  