<svg viewBox="0 0 16 16" fill="none" xmlns="http://www.w3.org/2000/svg">
  <path d="M1 1H11V5H5V11H1V1Z" fill="currentColor" class="icon-light"/>
  <path d="M5 5H13V6M5 5V13H6M5 5H11V1H1V11H5V5Z" stroke="currentColor" class="icon-dark" stroke-width="2" stroke-linecap="round" stroke-linejoin="round"/>
  <g clip-path="url(#clip0_20070_273)">
    <path d="M9.87868 14.1213C11.0503 15.2929 12.9497 15.2929 14.1213 14.1213C15.2929 12.9497 15.2929 11.0503 14.1213 9.87868M9.87868 14.1213C8.70711 12.9497 8.70711 11.0503 9.87868 9.87868C11.0503 8.70711 12.9497 8.70711 14.1213 9.87868M9.87868 14.1213L14.1213 9.87868" stroke="currentColor" class="icon-dark-secondary" stroke-width="2"/>
  </g>
  <defs>
    <clipPath id="clip0_20070_273">
      <rect width="8" height="8" fill="white" transform="translate(8 8)"/>
    </clipPath>
  </defs>
</svg>
