<svg viewBox="0 0 24 24" fill="none" xmlns="http://www.w3.org/2000/svg">
  <path fill-rule="evenodd" clip-rule="evenodd"
    d="M12 1.9989C12 1.44662 11.5523 0.998901 11 0.998901C10.4477 0.998901 10 1.44662 10 1.9989V3.4989C10 4.05119 10.4477 4.4989 11 4.4989C11.5523 4.4989 12 4.05119 12 3.4989V1.9989ZM18.1464 5.26667L19.2071 4.20601C19.5976 3.81548 19.5976 3.18232 19.2071 2.79179C18.8166 2.40127 18.1834 2.40127 17.7929 2.79179L16.7322 3.85245C16.3417 4.24298 16.3417 4.87614 16.7322 5.26667C17.1228 5.65719 17.7559 5.65719 18.1464 5.26667ZM5.70711 16.2918C6.09763 16.6823 6.09763 17.3155 5.70711 17.706L4.64645 18.7667C4.25592 19.1572 3.62276 19.1572 3.23223 18.7667C2.84171 18.3761 2.84171 17.743 3.23223 17.3525L4.29289 16.2918C4.68342 15.9013 5.31658 15.9013 5.70711 16.2918ZM4.20711 2.79179C3.81658 2.40127 3.18342 2.40127 2.79289 2.79179C2.40237 3.18232 2.40237 3.81548 2.79289 4.20601L3.85355 5.26667C4.24408 5.65719 4.87724 5.65719 5.26777 5.26667C5.65829 4.87614 5.65829 4.24298 5.26777 3.85245L4.20711 2.79179ZM1 10.9989C1 10.4466 1.44772 9.9989 2 9.9989H3.5C4.05228 9.9989 4.5 10.4466 4.5 10.9989C4.5 11.5512 4.05228 11.9989 3.5 11.9989H2C1.44772 11.9989 1 11.5512 1 10.9989ZM8.29417 8.05774L22.4284 10.8846C22.6151 10.9219 22.649 11.1744 22.4786 11.2596L17.2482 13.8748C17.1261 13.9359 17.0997 14.0986 17.1962 14.1951L21.3586 18.3575C21.4367 18.4356 21.4367 18.5622 21.3586 18.6403L18.6414 21.3575C18.5633 21.4356 18.4367 21.4356 18.3586 21.3575L14.1962 17.1951C14.0997 17.0986 13.937 17.125 13.8759 17.2471L11.2607 22.4775C11.1755 22.6479 10.923 22.614 10.8857 22.4273L8.05884 8.29308C8.03085 8.15313 8.15423 8.02975 8.29417 8.05774Z"
    fill="currentColor" class="icon-dark" />
</svg>
  