<svg viewBox="0 0 16 16" fill="none" xmlns="http://www.w3.org/2000/svg">
  <path fill-rule="evenodd" clip-rule="evenodd" d="M3 6C3 4.34315 4.34315 3 6 3H7C7.55228 3 8 3.44772 8 4C8 4.55228 7.55228 5 7 5H6C5.44772 5 5 5.44772 5 6V10C5 10.5523 5.44772 11 6 11H10C10.5523 11 11 10.5523 11 10V9C11 8.44772 11.4477 8 12 8C12.5523 8 13 8.44772 13 9V10C13 11.6569 11.6569 13 10 13H6C4.34315 13 3 11.6569 3 10V6Z" fill="currentColor" class="icon-dark" />
  <path fill-rule="evenodd" clip-rule="evenodd" d="M11.8774 2.77781C11.4479 2.34823 10.7514 2.34823 10.3218 2.77781L6.17915 6.92045C5.97286 7.12674 5.85697 7.40653 5.85697 7.69827V8.97106C5.85697 9.57857 6.34945 10.0711 6.95697 10.0711H8.22976C8.5215 10.0711 8.80129 9.95517 9.00758 9.74888L13.1502 5.60624C13.5798 5.17666 13.5798 4.48018 13.1502 4.0506L11.8774 2.77781ZM12.1603 4.47487L11.4532 5.18197L10.7461 4.47487L11.4532 3.76776L12.1603 4.47487ZM7.91763 8.71751L7.21052 8.0104L10.0389 5.18197L10.7461 5.88908L7.91763 8.71751Z" fill="currentColor" class="icon-dark" />
</svg>
