<svg viewBox="0 0 16 16" fill="none"
  xmlns="http://www.w3.org/2000/svg">
  <path d="M12.5 12.0007C12.7761 12.0007 13 11.7769 13 11.5007V5.50065C13 5.22454 12.7762 5.0007 12.5001 5.00065L8.5 5L7.14645 6.35355C7.05268 6.44732 6.9255 6.5 6.79289 6.5H3V11.5007C3 11.7769 3.22386 12.0007 3.5 12.0007H12.5Z" fill="#D0D2E0" class="icon-light"/>
  <path d="M8.5 5L7.14645 3.64645C7.05268 3.55268 6.9255 3.5 6.79289 3.5H3.5C3.22386 3.5 3 3.72386 3 4V6.5M8.5 5L12.5001 5.00065C12.7762 5.0007 13 5.22454 13 5.50065V11.5007C13 11.7769 12.7761 12.0007 12.5 12.0007H3.5C3.22386 12.0007 3 11.7769 3 11.5007V6.5M8.5 5L7.14645 6.35355C7.05268 6.44732 6.9255 6.5 6.79289 6.5H3" stroke="currentColor" stroke-width="2" stroke-linejoin="round" class="icon-dark"/>
</svg>
