<svg viewBox="0 0 16 16" fill="none" xmlns="http://www.w3.org/2000/svg">
  <path d="M11 13C13.7614 13 16 10.7614 16 8C16 6.01271 14.8406 4.2962 13.1613 3.48998C13.1128 3.46669 13.0549 3.48716 13.0307 3.53526L12.224 5.14437C12.1982 5.1959 12.2213 5.2584 12.2734 5.2829C13.2936 5.76185 14 6.79843 14 8C14 9.65685 12.6569 11 11 11H10C9.44771 11 9 11.4477 9 12C9 12.5523 9.44771 13 10 13H11Z" fill="currentColor" class="icon-dark"/>
  <path d="M2 8C2 6.34315 3.34315 5 5 5H6C6.55228 5 7 4.55228 7 4C7 3.44772 6.55228 3 6 3H5C2.23858 3 0 5.23858 0 8C0 9.98834 1.16061 11.7056 2.84132 12.5113C2.88996 12.5346 2.94804 12.5139 2.97202 12.4656L3.77233 10.8535C3.79786 10.802 3.77484 10.7398 3.7229 10.7154C2.70471 10.2357 2 9.20013 2 8Z" fill="currentColor" class="icon-dark"/>
  <path fill-rule="evenodd" clip-rule="evenodd" d="M4.5 7C3.94772 7 3.5 7.44772 3.5 8C3.5 8.55228 3.94772 9 4.5 9H4.70312L5.7 7H4.5ZM10.3008 9H11.5C12.0523 9 12.5 8.55228 12.5 8C12.5 7.44772 12.0523 7 11.5 7H11.29L10.3008 9Z" fill="currentColor" class="icon-dark"/>
  <path d="M5 14L11 2" class="icon-dark-secondary" stroke="#E45770" stroke-width="2" stroke-linecap="round"/>
</svg>
