<svg viewBox="0 0 16 16" fill="none" xmlns="http://www.w3.org/2000/svg">
  <path d="M5.5 9V11H7.5L12.3125 5.5L10.3125 3.5L5.5 9Z" fill="#D0D2E0" class="icon-light" />
  <path d="M14.5 3L12.5 1L10.3125 3.5L12.3125 5.5L14.5 3Z" fill="#D0D2E0" class="icon-light" />
  <path d="M10.3125 3.5L5.5 9V11H7.5L12.3125 5.5M10.3125 3.5L12.5 1L14.5 3L12.3125 5.5M10.3125 3.5L12.3125 5.5M8 2H4C2.89543 2 2 2.89543 2 4V12C2 13.1046 2.89543 14 4 14H12C13.1046 14 14 13.1046 14 12V8" stroke="currentColor" stroke-width="2" stroke-linecap="round" stroke-linejoin="round" class="icon-dark" />
</svg>
