<svg viewBox="0 0 48 48" fill="none" xmlns="http://www.w3.org/2000/svg">
  <path class="icon-light" d="M14 26.1973C8.02199 25.1599 4 23.2208 4 21V28.75C4 30.6932 8.02199 32.3899 14 33.2976V26.1973Z" fill="currentColor"/>
  <path class="icon-light" d="M24 27C20.3571 27 16.9417 26.7078 14 26.1973V33.2976C16.9417 33.7443 20.3571 34 24 34V27Z" fill="currentColor"/>
  <path class="icon-light" d="M34 26.1973C31.0583 26.7078 27.6429 27 24 27V34C27.6429 34 31.0583 33.7443 34 33.2976V26.1973Z" fill="currentColor"/>
  <path class="icon-light" d="M44 21C44 23.2208 39.978 25.1599 34 26.1973V33.2976C39.978 32.3899 44 30.6932 44 28.75V21Z" fill="currentColor"/>
  <path class="icon-dark" d="M44 21C44 24.3137 35.0457 27 24 27M44 21C44 17.6863 35.0457 15 24 15C12.9543 15 4 17.6863 4 21M44 21V28.75C44 30.6932 39.978 32.3899 34 33.2976M44 21C44 23.2208 39.978 25.1599 34 26.1973M24 27C12.9543 27 4 24.3137 4 21M24 27V34M24 27C20.3571 27 16.9417 26.7078 14 26.1973M24 27C27.6429 27 31.0583 26.7078 34 26.1973M4 21V28.75C4 30.6932 8.02199 32.3899 14 33.2976M4 21C4 23.2208 8.02199 25.1599 14 26.1973M24 34C27.6429 34 31.0583 33.7443 34 33.2976M24 34C20.3571 34 16.9417 33.7443 14 33.2976M34 33.2976V26.1973M14 33.2976V26.1973" stroke="currentColor" stroke-width="2"/>
  <circle cx="36" cy="36" r="8" fill="white"/>
  <path d="M42 36C42 32.6863 39.3137 30 36 30C32.6863 30 30 32.6863 30 36C30 39.3137 32.6863 42 36 42C39.3137 42 42 39.3137 42 36Z" fill="#A3E7CB"/>
  <path d="M34.7071 35.7929C34.3166 35.4024 33.6834 35.4024 33.2929 35.7929C32.9024 36.1834 32.9024 36.8166 33.2929 37.2071L34 36.5L34.7071 35.7929ZM35.5 38L34.7929 38.7071C35.0007 38.915 35.2895 39.0208 35.5825 38.9966C35.8754 38.9723 36.1429 38.8204 36.3137 38.5812L35.5 38ZM38.8137 35.0812C39.1347 34.6318 39.0307 34.0073 38.5812 33.6863C38.1318 33.3653 37.5073 33.4693 37.1863 33.9188L38 34.5L38.8137 35.0812ZM42 36H43C43 32.134 39.866 29 36 29V30V31C38.7614 31 41 33.2386 41 36H42ZM36 30V29C32.134 29 29 32.134 29 36H30H31C31 33.2386 33.2386 31 36 31V30ZM30 36H29C29 39.866 32.134 43 36 43V42V41C33.2386 41 31 38.7614 31 36H30ZM36 42V43C39.866 43 43 39.866 43 36H42H41C41 38.7614 38.7614 41 36 41V42ZM34 36.5L33.2929 37.2071L34.7929 38.7071L35.5 38L36.2071 37.2929L34.7071 35.7929L34 36.5ZM35.5 38L36.3137 38.5812L38.8137 35.0812L38 34.5L37.1863 33.9188L34.6863 37.4188L35.5 38Z" fill="#00814D"/>
</svg>