<svg viewBox="0 0 16 16" fill="none" xmlns="http://www.w3.org/2000/svg">
<path fill-rule="evenodd" clip-rule="evenodd" d="M1 2.5C1 1.67157 1.67157 1 2.5 1H4C4.55228 1 5 1.44772 5 2C5 2.55228 4.55228 3 4 3H3V4C3 4.55228 2.55228 5 2 5C1.44772 5 1 4.55228 1 4V2.5ZM6 2C6 1.44772 6.44772 1 7 1H9C9.55228 1 10 1.44772 10 2C10 2.55228 9.55228 3 9 3H7C6.44772 3 6 2.55228 6 2ZM11 1.99963C11.0002 1.44735 11.4481 0.999798 12.0004 1L13.5005 1.00055C14.3288 1.00085 15 1.67234 15 2.50055V4C15 4.55228 14.5523 5 14 5C13.4477 5 13 4.55228 13 4V3.00037L11.9996 3C11.4473 2.9998 10.9998 2.55192 11 1.99963ZM2 6.00073C2.55228 6.00073 3 6.44845 3 7.00073V9.00073C3 9.55302 2.55228 10.0007 2 10.0007C1.44772 10.0007 1 9.55302 1 9.00073V7.00073C1 6.44845 1.44772 6.00073 2 6.00073ZM2 11C2.55228 11 3 11.4477 3 12V13H4C4.55228 13 5 13.4477 5 14C5 14.5523 4.55228 15 4 15H2.5C1.67157 15 1 14.3284 1 13.5V12C1 11.4477 1.44772 11 2 11Z" fill="currentColor" class="icon-dark"/>
<path d="M15 12C15 13.6569 13.6569 15 12 15C10.3431 15 9 13.6569 9 12C9 10.3431 10.3431 9 12 9C13.6569 9 15 10.3431 15 12Z" fill="currentColor" class="icon-light"/>
<path d="M10.125 13.875L13.875 10.125M15 12C15 13.6569 13.6569 15 12 15C10.3431 15 9 13.6569 9 12C9 10.3431 10.3431 9 12 9C13.6569 9 15 10.3431 15 12Z" stroke="currentColor" class="icon-dark" stroke-width="2"/>
</svg>
