<svg viewBox="0 0 16 16" fill="none" xmlns="http://www.w3.org/2000/svg">
<g clip-path="url(#clip0_1689_11187)">
<path d="M7.75789 4.38879C7.75789 4.44177 7.70492 4.44177 7.70492 4.44177H7.65194C7.59897 4.44177 7.59897 4.38879 7.54599 4.33582C7.54599 4.33582 7.49302 4.28284 7.49302 4.22987C7.49302 4.17689 7.49302 4.17689 7.54599 4.17689L7.65194 4.22987C7.70492 4.28284 7.75789 4.33582 7.75789 4.38879ZM6.80434 3.85904C6.80434 3.59417 6.69839 3.43525 6.53947 3.43525C6.53947 3.43525 6.53947 3.48822 6.48649 3.48822V3.59417H6.64542C6.64542 3.70012 6.69839 3.75309 6.69839 3.85904H6.80434ZM8.65846 3.59417C8.76441 3.59417 8.81739 3.70012 8.87036 3.85904H8.97631C8.92334 3.80607 8.92334 3.75309 8.92334 3.70012C8.92334 3.64714 8.92334 3.59417 8.87036 3.54119C8.81739 3.48822 8.76441 3.43525 8.71144 3.43525C8.71144 3.43525 8.65846 3.48822 8.60549 3.48822C8.60549 3.54119 8.65846 3.54119 8.65846 3.59417ZM7.06922 4.44177C7.01624 4.44177 7.01624 4.44177 7.01624 4.38879C7.01624 4.33582 7.01624 4.28284 7.06922 4.22987C7.17517 4.22987 7.22814 4.17689 7.22814 4.17689C7.28112 4.17689 7.28112 4.22987 7.28112 4.22987C7.28112 4.28284 7.22814 4.33582 7.12219 4.44177H7.06922ZM6.48649 4.38879C6.27459 4.28284 6.22162 4.12392 6.22162 3.85904C6.22162 3.70012 6.22162 3.59417 6.32757 3.48822C6.38054 3.38227 6.48649 3.3293 6.59244 3.3293C6.69839 3.3293 6.75137 3.38227 6.85732 3.48822C6.91029 3.64714 6.96327 3.80607 6.96327 3.96499V4.01797V4.07094H7.01624V4.01797C7.06922 4.01797 7.06922 3.91202 7.06922 3.70012C7.06922 3.54119 7.06922 3.38227 6.96327 3.22335C6.85732 3.06442 6.75137 2.95847 6.53947 2.95847C6.38054 2.95847 6.22162 3.06442 6.16864 3.22335C6.0627 3.43525 6.04151 3.59417 6.04151 3.85904C6.04151 4.07094 6.11567 4.28284 6.32757 4.49474C6.38054 4.44177 6.43352 4.44177 6.48649 4.38879ZM13.1084 11.8582C13.1613 11.8582 13.1613 11.8371 13.1613 11.7894C13.1613 11.6728 13.1084 11.5351 12.9494 11.3815C12.7905 11.2226 12.5256 11.1219 12.2078 11.0795C12.1548 11.0742 12.1018 11.0742 12.1018 11.0742C12.0489 11.0636 12.0489 11.0636 11.9959 11.0636C11.9429 11.0583 11.837 11.0477 11.784 11.0371C11.9429 10.5445 11.9959 10.1101 11.9959 9.72866C11.9959 9.19891 11.8899 8.82809 11.678 8.51024C11.4661 8.19239 11.2542 8.03346 10.9894 7.98049C10.9364 8.03346 10.9364 8.03346 10.9364 8.08644C11.2013 8.19239 11.4661 8.40429 11.6251 8.72214C11.784 9.09296 11.837 9.41081 11.837 9.78163C11.837 10.0783 11.784 10.518 11.5721 11.0795C11.3602 11.1643 11.1483 11.3603 10.9894 11.6675C10.9894 11.7152 10.9894 11.7417 11.0423 11.7417C11.0423 11.7417 11.0953 11.694 11.1483 11.604C11.2542 11.5139 11.3072 11.4239 11.4132 11.3338C11.5721 11.2437 11.678 11.1961 11.837 11.1961C12.1018 11.1961 12.3667 11.2331 12.5256 11.3073C12.7375 11.3762 12.8435 11.4503 12.8965 11.5351C12.9494 11.6146 13.0024 11.6887 13.0554 11.7576C13.0554 11.8265 13.1084 11.8582 13.1084 11.8582V11.8582ZM8.23466 4.17689C8.18169 4.12392 8.18169 4.01797 8.18169 3.91202C8.18169 3.70012 8.18169 3.59417 8.28764 3.43525C8.39359 3.3293 8.49954 3.27632 8.60549 3.27632C8.76441 3.27632 8.87036 3.38227 8.97631 3.48822C9.02929 3.64714 9.08226 3.75309 9.08226 3.91202C9.08226 4.17689 8.97631 4.33582 8.76441 4.38879C8.76441 4.38879 8.81739 4.44177 8.87036 4.44177C8.97631 4.44177 9.02929 4.49474 9.13524 4.54772C9.18821 4.22987 9.24119 4.01797 9.24119 3.75309C9.24119 3.43525 9.18821 3.22335 9.08226 3.06442C8.92334 2.9055 8.76441 2.85252 8.55251 2.85252C8.39359 2.85252 8.23466 2.9055 8.07574 3.01145C7.96979 3.17037 7.91682 3.27632 7.91682 3.43525C7.91682 3.70012 7.96979 3.91202 8.07574 4.12392C8.12871 4.12392 8.18169 4.17689 8.23466 4.17689ZM8.87036 5.02449C8.18169 5.50126 7.65194 5.71316 7.22814 5.71316C6.85732 5.71316 6.48649 5.55424 6.16864 5.28937C6.22162 5.39532 6.27459 5.50126 6.32757 5.55424L6.64542 5.87209C6.85732 6.08399 7.12219 6.18994 7.38707 6.18994C7.75789 6.18994 8.18169 5.97804 8.71144 5.60721L9.18821 5.28937C9.29416 5.18342 9.40011 5.07747 9.40011 4.91854C9.40011 4.86557 9.40011 4.81259 9.34714 4.81259C9.29416 4.70664 9.02929 4.54772 8.49954 4.38879C8.02276 4.17689 7.65194 4.07094 7.44004 4.07094C7.28112 4.07094 7.01624 4.17689 6.64542 4.38879C6.32757 4.60069 6.11567 4.81259 6.11567 5.02449C6.11567 5.02449 6.16864 5.07747 6.22162 5.18342C6.53947 5.44829 6.85732 5.60721 7.17517 5.60721C7.59897 5.60721 8.12871 5.39532 8.81739 4.86557V4.97152C8.87036 4.97152 8.87036 5.02449 8.87036 5.02449ZM10.0888 15.7254C10.3007 16.1238 10.6715 16.324 11.0953 16.324C11.2013 16.324 11.3072 16.3081 11.4132 16.2764C11.5191 16.2552 11.6251 16.2181 11.678 16.1757C11.731 16.1386 11.784 16.1015 11.837 16.0592C11.9429 16.0221 11.9429 15.9956 11.9959 15.9691L12.8965 15.1904C13.1084 15.0214 13.3203 14.8736 13.5851 14.7454C13.797 14.6182 14.0089 14.5335 14.1149 14.4858C14.2738 14.4434 14.3797 14.3799 14.4857 14.2951C14.5387 14.2156 14.5916 14.115 14.5916 13.9878C14.5916 13.8342 14.4857 13.7177 14.3797 13.6329C14.2738 13.5481 14.1678 13.4899 14.0619 13.4528C13.956 13.4157 13.85 13.331 13.6911 13.1879C13.5851 13.0502 13.4792 12.8595 13.4262 12.6105L13.3732 12.3032C13.3203 12.1602 13.3203 12.0543 13.2673 11.996C13.2673 11.9801 13.2673 11.9748 13.2143 11.9748C13.1613 11.9748 13.0554 12.0225 13.0024 12.1125C12.8965 12.2026 12.7905 12.3032 12.6846 12.4092C12.6316 12.5151 12.4727 12.6105 12.3667 12.7005C12.2078 12.7906 12.0489 12.8383 11.9429 12.8383C11.5191 12.8383 11.3072 12.7217 11.1483 12.4939C11.0423 12.3244 10.9894 12.1284 10.9364 11.9059C10.8304 11.8159 10.7775 11.7682 10.6715 11.7682C10.4066 11.7682 10.3007 12.0437 10.3007 12.5999V12.7747V13.3892V13.8607V14.0885V14.2474C10.3007 14.2951 10.2477 14.401 10.2477 14.5653C10.1947 14.7295 10.1947 14.916 10.1947 15.1268L10.0888 15.7148V15.7238V15.7254ZM2.40743 15.4436C2.9001 15.5156 3.46693 15.6698 4.10792 15.905C4.74892 16.1381 5.14093 16.2599 5.28396 16.2599C5.65479 16.2599 5.96204 16.0957 6.21632 15.7784C6.2693 15.6756 6.2693 15.5548 6.2693 15.416C6.2693 14.9154 5.96734 14.2824 5.36343 13.5142L5.0032 13.0322C4.92903 12.9315 4.83898 12.7779 4.72243 12.5713C4.61118 12.3647 4.51053 12.2058 4.43107 12.0945C4.3622 11.9727 4.25095 11.8508 4.10792 11.729C3.97019 11.6071 3.81126 11.5277 3.63645 11.4853C3.41395 11.5277 3.26032 11.6019 3.18616 11.7025C3.11199 11.8032 3.06961 11.9144 3.05902 12.0309C3.04313 12.1422 3.01134 12.2164 2.95837 12.2534C2.90539 12.2852 2.81534 12.3117 2.69349 12.3382C2.66701 12.3382 2.61933 12.3382 2.55046 12.3435H2.40743C2.12666 12.3435 1.93595 12.3753 1.8353 12.4283C1.70286 12.5819 1.634 12.7567 1.634 12.9421C1.634 13.0269 1.65519 13.1699 1.69757 13.3712C1.73995 13.5672 1.76114 13.7261 1.76114 13.8374C1.76114 14.0546 1.69757 14.2718 1.56513 14.489C1.43269 14.7168 1.36382 14.8863 1.36382 15.0071C1.4168 15.2126 1.76643 15.3572 2.40743 15.442V15.4436ZM4.17149 10.6266C4.17149 10.2611 4.26685 9.85845 4.46285 9.38167C4.65356 8.9049 4.84427 8.58705 5.02969 8.37515C5.01909 8.32218 4.9926 8.32218 4.95022 8.32218L4.89725 8.2692C4.74362 8.42813 4.55821 8.79895 4.33571 9.3287C4.11322 9.80547 3.99668 10.2452 3.99668 10.5683C3.99668 10.8067 4.05495 11.0133 4.1609 11.1934C4.27744 11.3682 4.55821 11.6225 5.0032 11.9457L5.56473 12.3112C6.16335 12.8303 6.4812 13.1906 6.4812 13.4025C6.4812 13.5137 6.42822 13.625 6.2693 13.7468C6.16335 13.8739 6.02032 13.9375 5.89847 13.9375C5.88788 13.9375 5.88258 13.9481 5.88258 13.9746C5.88258 13.9799 5.93556 14.0858 6.0468 14.2924C6.2693 14.5944 6.74607 14.7427 7.38177 14.7427C8.54722 14.7427 9.44779 14.266 10.1365 13.3124C10.1365 13.0475 10.1365 12.8833 10.0835 12.8144V12.6184C10.0835 12.2741 10.1365 12.0145 10.2424 11.845C10.3484 11.6755 10.4543 11.596 10.6132 11.596C10.7192 11.596 10.8251 11.6331 10.9311 11.7126C10.9841 11.3047 10.9841 10.9497 10.9841 10.6319C10.9841 10.1498 10.9841 9.7525 10.8781 9.38167C10.8251 9.06382 10.7192 8.79895 10.6132 8.58705C10.5073 8.42813 10.4013 8.2692 10.2954 8.11028C10.1894 7.95135 10.1365 7.79243 10.0305 7.6335C9.97754 7.4216 9.92456 7.26268 9.92456 6.9978C9.76564 6.73293 9.65969 6.46806 9.50076 6.20318C9.39481 5.93831 9.28886 5.67343 9.18291 5.46153L8.70614 5.83236C8.17639 6.20318 7.75259 6.36211 7.38177 6.36211C7.06392 6.36211 6.79905 6.30913 6.64012 6.09723L6.32227 5.83236C6.32227 5.99128 6.2693 6.20318 6.16335 6.41508L5.82961 7.05078C5.68128 7.4216 5.60181 7.6335 5.58592 7.79243C5.56473 7.89838 5.54884 8.00433 5.53824 8.00433L5.14093 8.79895C4.71184 9.59357 4.49464 10.3299 4.49464 10.9391C4.49464 11.061 4.50523 11.1881 4.52642 11.3153C4.28804 11.151 4.17149 10.9232 4.17149 10.6266V10.6266ZM7.96449 15.638C7.27582 15.638 6.74607 15.7312 6.37525 15.9161V15.9002C6.11037 16.2181 5.81371 16.3823 5.40051 16.3823C5.14093 16.3823 4.73303 16.2817 4.18209 16.0803C3.62585 15.8896 3.13318 15.7434 2.70409 15.647C2.66171 15.6348 2.56635 15.6168 2.41273 15.5924C2.2644 15.5686 2.12666 15.5442 2.00482 15.5199C1.89357 15.496 1.76643 15.46 1.6287 15.4113C1.49626 15.3694 1.39031 15.3149 1.31085 15.2486C1.23774 15.1819 1.20172 15.1067 1.20172 15.0224C1.20172 14.9377 1.21973 14.8471 1.25576 14.7507C1.28966 14.6924 1.32674 14.6341 1.36382 14.5812C1.40091 14.5229 1.43269 14.4699 1.45388 14.4169C1.48567 14.3693 1.50686 14.3216 1.52805 14.2686C1.54924 14.2209 1.57043 14.1733 1.58102 14.115C1.59162 14.062 1.60221 14.009 1.60221 13.9561C1.60221 13.9031 1.58102 13.7442 1.53864 13.4634C1.49626 13.1879 1.47507 13.0131 1.47507 12.9389C1.47507 12.7058 1.52805 12.5204 1.64459 12.388C1.76114 12.2556 1.87238 12.1867 1.98893 12.1867H2.59814C2.64582 12.1867 2.71998 12.1602 2.83123 12.0966C2.86831 12.0119 2.9001 11.943 2.92129 11.8794C2.94777 11.8159 2.95837 11.7682 2.96896 11.747C2.97956 11.7152 2.99015 11.6834 3.00075 11.6569C3.02194 11.6199 3.04842 11.5775 3.08551 11.5351C3.04313 11.4821 3.02194 11.4133 3.02194 11.3285C3.02194 11.2702 3.02194 11.2173 3.03253 11.1855C3.03253 10.9948 3.12259 10.7246 3.3133 10.3697L3.49871 10.0359C3.65234 9.74985 3.76888 9.53795 3.85364 9.32605C3.9437 9.11415 4.03906 8.7963 4.145 8.3725C4.22976 8.00168 4.43107 7.63085 4.74892 7.26003L5.14623 6.78326C5.4217 6.46541 5.60181 6.20053 5.70247 5.98863C5.80312 5.77673 5.85609 5.51186 5.85609 5.29996C5.85609 5.19401 5.82961 4.87616 5.77133 4.34641C5.71836 3.81666 5.69187 3.28692 5.69187 2.81014C5.69187 2.43932 5.72366 2.17444 5.79252 1.90957C5.86139 1.64469 5.98323 1.37982 6.16335 1.16792C6.32227 0.956022 6.53417 0.744122 6.85202 0.638173C7.16987 0.532223 7.54069 0.479248 7.96449 0.479248C8.12342 0.479248 8.28234 0.479248 8.44127 0.532223C8.60019 0.532223 8.81209 0.585198 9.07696 0.691148C9.28886 0.797097 9.50076 0.903047 9.65969 1.06197C9.87159 1.2209 10.0305 1.48577 10.1894 1.75064C10.2954 2.06849 10.4013 2.38634 10.4543 2.81014C10.5073 3.07502 10.5073 3.33989 10.5603 3.71071C10.5603 4.02856 10.6132 4.24046 10.6132 4.39939C10.6662 4.55831 10.6662 4.77021 10.7192 5.03509C10.7722 5.24699 10.8251 5.45888 10.9311 5.61781C11.037 5.82971 11.143 6.04161 11.3019 6.25351C11.4608 6.51838 11.6727 6.78326 11.8846 7.10111C12.3614 7.63085 12.7322 8.21358 12.9441 8.7963C13.209 9.32605 13.3679 10.0147 13.3679 10.7511C13.3679 11.1166 13.315 11.4715 13.209 11.8159C13.315 11.8159 13.3679 11.8582 13.4209 11.9324C13.4739 12.0066 13.5269 12.1655 13.5798 12.4145L13.6328 12.8065C13.6858 12.923 13.7388 13.0343 13.8977 13.1296C14.0036 13.225 14.1096 13.3045 14.2685 13.368C14.3745 13.421 14.5334 13.4952 14.6393 13.5905C14.7453 13.6965 14.7983 13.8077 14.7983 13.9243C14.7983 14.1044 14.7453 14.2368 14.6393 14.3322C14.5334 14.4381 14.4274 14.5123 14.2685 14.56C14.1626 14.6129 13.9507 14.7189 13.6328 14.8683C13.3679 15.0251 13.1031 15.2153 12.8382 15.4404L12.3084 15.8912C12.0965 16.0978 11.8846 16.2462 11.7257 16.3362C11.5668 16.4316 11.3549 16.4792 11.143 16.4792L10.7722 16.4369C10.3484 16.3256 10.0835 16.1137 9.92456 15.7906C9.07696 15.6878 8.38829 15.6369 7.96449 15.6369" fill="currentColor"/>
</g>
<defs>
<clipPath id="clip0_1689_11187">
<rect width="16" height="16" fill="currentColor"/>
</clipPath>
</defs>
</svg>
