<svg viewBox="0 0 24 24" fill="none" xmlns="http://www.w3.org/2000/svg">
  <path
    d="M19.0711 4.92828C18.0771 3.93421 16.4798 3.91981 15.5035 4.89612C15.1815 5.21811 14.9672 5.60765 14.8604 6.02081L12.8839 4.04434C12.1029 3.26329 10.8365 3.26329 10.0555 4.04434L8.76235 5.33747C8.94253 5.44494 9.11265 5.57638 9.26803 5.73176C10.2621 6.72583 10.2765 8.32314 9.30019 9.29945C8.32388 10.2758 6.72656 10.2614 5.73249 9.26729C5.57711 9.11191 5.44567 8.9418 5.3382 8.76162L4.04507 10.0547C3.26402 10.8358 3.26402 12.1021 4.04507 12.8832L6.02154 14.8596C5.60838 14.9665 5.21884 15.1807 4.89685 15.5027C3.92054 16.479 3.93494 18.0763 4.92901 19.0704C5.92308 20.0645 7.5204 20.0789 8.49671 19.1026C8.81869 18.7806 9.03291 18.391 9.13978 17.9779L11.1161 19.9542C11.8972 20.7353 13.1635 20.7353 13.9446 19.9542L15.2377 18.6611C15.0575 18.5537 14.8875 18.4223 14.7321 18.2669C13.7381 17.2729 13.7237 15.6755 14.7 14.6992C15.6763 13.7229 17.2736 13.7373 18.2677 14.7314C18.423 14.8867 18.5544 15.0568 18.6619 15.2369L19.955 13.9438C20.736 13.1628 20.736 11.8965 19.955 11.1154L17.9786 9.13905C18.3918 9.03218 18.7813 8.81796 19.1033 8.49597C20.0796 7.51966 20.0652 5.92235 19.0711 4.92828Z"
    fill="currentColor"
    stroke="currentColor"
    class="icon-dark-stroke icon-light-fill"
    stroke-width="2"
    stroke-linecap="round"
    stroke-linejoin="round"
  />
</svg>
