<svg viewBox="0 0 16 16" fill="none" xmlns="http://www.w3.org/2000/svg">
  <path
    d="M13.6569 2.34321C12.8759 1.56216 11.6095 1.56216 10.8285 2.34321C10.5709 2.6008 10.3983 2.91118 10.3106 3.23952L8.70717 1.6361C8.12138 1.05031 7.17163 1.05031 6.58585 1.6361L5.48063 2.74131C5.62272 2.82523 5.75666 2.92823 5.87874 3.05031C6.65979 3.83136 6.65979 5.09769 5.87874 5.87874C5.09769 6.65979 3.83136 6.65979 3.05031 5.87874C2.92823 5.75666 2.82523 5.62272 2.74131 5.48063L1.6361 6.58585C1.05031 7.17163 1.05031 8.12138 1.6361 8.70717L3.23952 10.3106C2.91118 10.3983 2.6008 10.5709 2.34321 10.8285C1.56216 11.6095 1.56216 12.8759 2.34321 13.6569C3.12425 14.438 4.39058 14.438 5.17163 13.6569C5.42922 13.3993 5.60185 13.0889 5.68953 12.7606L7.29287 14.3639C7.87865 14.9497 8.8284 14.9497 9.41419 14.3639L10.5194 13.2587C10.3773 13.1748 10.2434 13.0719 10.1214 12.9498C9.34033 12.1688 9.34033 10.9024 10.1214 10.1214C10.9024 9.34033 12.1688 9.34033 12.9498 10.1214C13.0719 10.2434 13.1748 10.3773 13.2587 10.5194L14.3639 9.41419C14.9497 8.8284 14.9497 7.87865 14.3639 7.29287L12.7606 5.68953C13.0889 5.60185 13.3993 5.42922 13.6569 5.17163C14.438 4.39058 14.438 3.12425 13.6569 2.34321Z"
    fill="currentColor"
    stroke="currentColor"
    class="icon-dark-stroke icon-light-fill"
    stroke-width="2"
    stroke-linecap="round"
    stroke-linejoin="round"
  />
</svg>