<svg viewBox="0 0 16 16" fill="none" xmlns="http://www.w3.org/2000/svg">
  <path fill="#D0D2E0" fill-rule="evenodd" clip-rule="evenodd" d="M8 1.33334C8 1.33334 5.33333 2.66668 2 3.33334V10.8572C3 13.7143 8 14.6667 8 14.6667V1.33334Z" class="icon-light" />
  <path stroke="currentColor" d="M6 10L8 8M10 6.00001L8 8M8 8L6 6M8 8L10 10M14 3.33334C10.6667 2.66668 8 1.33334 8 1.33334C8 1.33334 5.33333 2.66668 2 3.33334V10.8572C3 13.7143 8 14.6667 8 14.6667C8 14.6667 13 13.7143 14 10.8572V3.33334Z" stroke-width="2" stroke-linecap="round" stroke-linejoin="round" class="icon-dark" />
</svg>
