<svg viewBox="0 0 12 12" fill="none" xmlns="http://www.w3.org/2000/svg">
  <path fill="currentColor" fill-rule="evenodd" clip-rule="evenodd" d="M6 1C6 1 4 2 1.5 2.5V8.14286C2.25 10.2857 6 11 6 11V1Z" class="icon-light" />
  <path stroke="currentColor" d="M4.5 7.49999L6 5.99999M7.5 4.5L6 5.99999M6 5.99999L4.5 4.49999M6 5.99999L7.5 7.49999M10.5 2.5C8 2 6 1 6 1C6 1 4 2 1.5 2.5V8.14286C2.25 10.2857 6 11 6 11C6 11 9.75 10.2857 10.5 8.14286V2.5Z" stroke-width="2" stroke-linecap="round" stroke-linejoin="round" class="icon-dark" />
</svg>
