<svg viewBox="0 0 16 16" fill="none" xmlns="http://www.w3.org/2000/svg">
<path d="M11 5.25V8.5C11 9.60457 11.8954 10.5 13 10.5C13.9095 10.5 14.6771 9.89298 14.92 9.06199C14.9727 8.71568 15 8.36103 15 8C15 4.13401 11.866 1 8 1C4.13401 1 1 4.13401 1 8C1 11.866 4.13401 15 8 15C9.48725 15 10.8662 14.5362 12 13.7453M10.5 8C10.5 9.65685 9.15685 11 7.5 11C5.84315 11 4.5 9.65685 4.5 8C4.5 6.34315 5.84315 5 7.5 5C9.15685 5 10.5 6.34315 10.5 8Z" stroke="currentColor" class="icon-dark" stroke-width="2" stroke-linecap="round"/>
</svg>
