<svg width="12" height="12" viewBox="0 0 12 12" fill="none" xmlns="http://www.w3.org/2000/svg">
  <path d="M0 9V3C0 1.34315 1.34315 0 3 0H9C10.6569 0 12 1.34315 12 3V9C12 10.6569 10.6569 12 9 12H3C1.34315 12 0 10.6569 0 9Z" fill="#F3ECB3"/>
  <path d="M8.69687 10.5895L10.8868 6.45368C11.0378 6.16859 11.0378 5.83141 10.8868 5.54632L8.69687 1.41045C8.40709 0.863182 7.59297 0.863182 7.30319 1.41045L6.56138 2.81141L7.84905 5.36485C8.05032 5.76397 8.05032 6.23603 7.84905 6.63515L6.56138 9.18859L7.30319 10.5895C7.59297 11.1368 8.40709 11.1368 8.69687 10.5895Z" fill="#E45770"/>
  <path d="M4.69684 10.5895C4.40706 11.1368 3.59294 11.1368 3.30316 10.5895L1.11321 6.45368C0.962262 6.16859 0.962262 5.83141 1.11321 5.54632L3.30316 1.41045C3.59294 0.863182 4.40706 0.863182 4.69684 1.41045L6.88679 5.54632C7.03774 5.83141 7.03774 6.16859 6.88679 6.45368L4.69684 10.5895Z" fill="#1FA971"/>
</svg>
