<svg width="24" height="24" viewBox="0 0 24 24" fill="none" xmlns="http://www.w3.org/2000/svg">
  <path d="M2 18V6C2 3.79086 3.79086 2 6 2H18C20.2091 2 22 3.79086 22 6V18C22 20.2091 20.2091 22 18 22H6C3.79086 22 2 20.2091 2 18Z" fill="#F3ECB3"/>
  <path d="M14.6969 16.5895L16.8868 12.4537C17.0378 12.1686 17.0378 11.8314 16.8868 11.5463L14.6969 7.41045C14.4071 6.86318 13.593 6.86318 13.3032 7.41045L12.5614 8.81141L13.849 11.3649C14.0503 11.764 14.0503 12.236 13.849 12.6351L12.5614 15.1886L13.3032 16.5895C13.593 17.1368 14.4071 17.1368 14.6969 16.5895Z" fill="#E45770"/>
  <path d="M10.6968 16.5895C10.4071 17.1368 9.59294 17.1368 9.30316 16.5895L7.11321 12.4537C6.96226 12.1686 6.96226 11.8314 7.11321 11.5463L9.30316 7.41045C9.59294 6.86318 10.4071 6.86318 10.6968 7.41045L12.8868 11.5463C13.0377 11.8314 13.0377 12.1686 12.8868 12.4537L10.6968 16.5895Z" fill="#1FA971"/>
</svg>
