<svg viewBox="0 0 16 16" fill="none" xmlns="http://www.w3.org/2000/svg">
  <path d="M1 12V4C1 2.34315 2.34315 1 4 1H12C13.6569 1 15 2.34315 15 4V12C15 13.6569 13.6569 15 12 15H4C2.34315 15 1 13.6569 1 12Z" fill="#F3ECB3" />
  <path d="M10.6969 12.5895L12.8868 8.45368C13.0378 8.16859 13.0378 7.83141 12.8868 7.54632L10.6969 3.41045C10.4071 2.86318 9.59297 2.86318 9.30319 3.41045L8.56138 4.81141L9.84905 7.36485C10.0503 7.76397 10.0503 8.23603 9.84905 8.63515L8.56138 11.1886L9.30319 12.5895C9.59297 13.1368 10.4071 13.1368 10.6969 12.5895Z" fill="#E45770"/>
  <path d="M6.69684 12.5895C6.40706 13.1368 5.59294 13.1368 5.30316 12.5895L3.11321 8.45368C2.96226 8.16859 2.96226 7.83141 3.11321 7.54632L5.30316 3.41045C5.59294 2.86318 6.40706 2.86318 6.69684 3.41045L8.88679 7.54632C9.03774 7.83141 9.03774 8.16859 8.88679 8.45368L6.69684 12.5895Z" fill="#1FA971"/>
</svg>
