<svg viewBox="0 0 10 10" fill="none" xmlns="http://www.w3.org/2000/svg">
  <path d="M7.69687 9.58955L9.88682 5.45368C10.0378 5.16859 10.0378 4.83141 9.88682 4.54632L7.69687 0.410453C7.40709 -0.136818 6.59297 -0.136818 6.30319 0.410453L5.56138 1.81141L6.84905 4.36485C7.05032 4.76397 7.05032 5.23603 6.84905 5.63515L5.56138 8.18859L6.30319 9.58955C6.59297 10.1368 7.40709 10.1368 7.69687 9.58955Z" fill="#E45770"/>
  <path d="M3.69684 9.58955C3.40706 10.1368 2.59294 10.1368 2.30316 9.58955L0.113213 5.45368C-0.0377378 5.16859 -0.0377378 4.83141 0.113213 4.54632L2.30316 0.410453C2.59294 -0.136818 3.40706 -0.136818 3.69684 0.410453L5.88679 4.54632C6.03774 4.83141 6.03774 5.16859 5.88679 5.45368L3.69684 9.58955Z" fill="#1FA971"/>
</svg>
