<svg viewBox="0 0 12 12" fill="none" xmlns="http://www.w3.org/2000/svg">
  <path d="M2 3C2 2.44772 2.44772 2 3 2H9C9.55228 2 10 2.44772 10 3V5H2V3Z" fill="#D0D2E0"
    class="icon-light" />
  <path fill-rule="evenodd" clip-rule="evenodd"
    d="M3 0C1.34315 0 0 1.34315 0 3V4.57143V9C0 10.6569 1.34315 12 3 12H9C10.6569 12 12 10.6569 12 9V4.57143V3C12 1.34315 10.6569 0 9 0H3ZM2 3C2 2.44772 2.44772 2 3 2H9C9.55229 2 10 2.44772 10 3V4.57143V4.75H2V4.57143V3ZM2 5.5V9C2 9.55229 2.44772 10 3 10H9C9.55229 10 10 9.55229 10 9V5.5H2ZM3.00701 3.85193C3.21412 3.85193 3.38201 3.68403 3.38201 3.47693C3.38201 3.26982 3.21412 3.10193 3.00701 3.10193C2.79991 3.10193 2.63201 3.26982 2.63201 3.47693C2.63201 3.68403 2.79991 3.85193 3.00701 3.85193ZM4.50701 3.85193C4.71412 3.85193 4.88201 3.68403 4.88201 3.47693C4.88201 3.26982 4.71412 3.10193 4.50701 3.10193C4.29991 3.10193 4.13201 3.26982 4.13201 3.47693C4.13201 3.68403 4.29991 3.85193 4.50701 3.85193ZM6.38201 3.47693C6.38201 3.68403 6.21412 3.85193 6.00701 3.85193C5.79991 3.85193 5.63201 3.68403 5.63201 3.47693C5.63201 3.26982 5.79991 3.10193 6.00701 3.10193C6.21412 3.10193 6.38201 3.26982 6.38201 3.47693Z"
    fill="currentColor" class="icon-dark" />
</svg>
  