<svg viewBox="0 0 48 48" fill="none" xmlns="http://www.w3.org/2000/svg">
  <path d="M40 8H8C6.34315 8 5 9.34315 5 11V16H43V11C43 9.34315 41.6569 8 40 8Z" fill="#D0D2E0" />
  <path fill-rule="evenodd" clip-rule="evenodd"
    d="M8 8C6.34315 8 5 9.34315 5 11V16H43V11C43 9.34315 41.6569 8 40 8H8Z" fill="#D0D2E0"
    class="icon-light" />
  <path
    d="M19 12H39M43 11V37C43 38.6569 41.6569 40 40 40H24H16H8C6.34315 40 5 38.6569 5 37V11M43 11C43 9.34315 41.6569 8 40 8H8C6.34315 8 5 9.34315 5 11M43 11V16H5V11"
    stroke="currentColor" class="icon-dark" stroke-width="2" stroke-linecap="round"
    stroke-linejoin="round" />
  <path
    d="M10 12C10 12.5523 9.55228 13 9 13C8.44772 13 8 12.5523 8 12C8 11.4477 8.44772 11 9 11C9.55228 11 10 11.4477 10 12Z"
    fill="currentColor" class="icon-dark" />
  <path
    d="M13 12C13 12.5523 12.5523 13 12 13C11.4477 13 11 12.5523 11 12C11 11.4477 11.4477 11 12 11C12.5523 11 13 11.4477 13 12Z"
    fill="currentColor" class="icon-dark" />
  <path
    d="M16 12C16 12.5523 15.5523 13 15 13C14.4477 13 14 12.5523 14 12C14 11.4477 14.4477 11 15 11C15.5523 11 16 11.4477 16 12Z"
    fill="currentColor" class="icon-dark" />
  <path
    d="M30 27.9993C30 24.6856 27.3137 21.9993 24 21.9993C20.6863 21.9993 18 24.6856 18 27.9993C18 31.313 20.6863 33.9993 24 33.9993C27.3137 33.9993 30 31.313 30 27.9993Z"
    fill="#69D3A7" class="icon-light-secondary" />
  <path
    d="M22.7071 27.7922C22.3166 27.4016 21.6834 27.4016 21.2929 27.7922C20.9024 28.1827 20.9024 28.8159 21.2929 29.2064L22.7071 27.7922ZM23.5 29.9993L22.7929 30.7064C23.0007 30.9142 23.2895 31.0201 23.5825 30.9959C23.8754 30.9716 24.1429 30.8197 24.3137 30.5805L23.5 29.9993ZM26.8137 27.0805C27.1347 26.6311 27.0307 26.0065 26.5812 25.6855C26.1318 25.3645 25.5073 25.4686 25.1863 25.918L26.8137 27.0805ZM31 27.9993C31 24.1333 27.866 20.9993 24 20.9993V22.9993C26.7614 22.9993 29 25.2378 29 27.9993H31ZM24 20.9993C20.134 20.9993 17 24.1333 17 27.9993H19C19 25.2378 21.2386 22.9993 24 22.9993V20.9993ZM17 27.9993C17 31.8653 20.134 34.9993 24 34.9993V32.9993C21.2386 32.9993 19 30.7607 19 27.9993H17ZM24 34.9993C27.866 34.9993 31 31.8653 31 27.9993H29C29 30.7607 26.7614 32.9993 24 32.9993V34.9993ZM21.2929 29.2064L22.7929 30.7064L24.2071 29.2922L22.7071 27.7922L21.2929 29.2064ZM24.3137 30.5805L26.8137 27.0805L25.1863 25.918L22.6863 29.418L24.3137 30.5805Z"
    fill="#00814D" class="icon-dark-secondary" />
</svg>
  