<svg viewBox="0 0 24 24" fill="none" xmlns="http://www.w3.org/2000/svg">
    <path d="M10 5L8.29289 3.29289C8.10536 3.10536 7.851 3 7.58579 3H3C1.89543 3 1 3.89543 1 5V7H7.58579C7.851 7 8.10536 6.89464 8.29289 6.70711L10 5Z" fill="currentColor" class="icon-light" />
    <path d="M10 5H21C22.1046 5 23 5.89543 23 7V19C23 20.1046 22.1046 21 21 21H20M10 5L8.29289 3.29289C8.10536 3.10536 7.851 3 7.58579 3H3C1.89543 3 1 3.89543 1 5V5V7M10 5L8.29289 6.70711C8.10536 6.89464 7.851 7 7.58579 7H1M1 7V19C1 20.1046 1.89543 21 3 21H7" stroke="currentColor" stroke-width="2" class="icon-dark"/>
    <path fill-rule="evenodd" clip-rule="evenodd" d="M10 23H17V18L15 18H12H10V23Z" fill="currentColor" class="icon-light-secondary" />
    <path d="M12 18H10V23H17V18L15 18M12 18V16.5C12 15.6716 12.6716 15 13.5 15V15C14.3284 15 15 15.6716 15 16.5V18M12 18H15M13.5 20.49V20.5" stroke="currentColor" class="icon-dark-secondary" stroke-width="2" stroke-linecap="round" stroke-linejoin="round"/>
</svg>
