<svg viewBox="0 0 16 16" fill="none" xmlns="http://www.w3.org/2000/svg">
    <path d="M2.5 12C2.5 12.5523 2.94772 13 3.5 13C4.05229 13 4.5 12.5523 4.5 12L2.5 12ZM4.5 4C4.5 3.44772 4.05229 3 3.5 3C2.94772 3 2.5 3.44772 2.5 4L4.5 4ZM11.5 12C11.5 12.5523 11.9477 13 12.5 13C13.0523 13 13.5 12.5523 13.5 12L11.5 12ZM7.5 4L6.79289 3.29289C6.60536 3.48043 6.5 3.73478 6.5 4C6.5 4.26522 6.60536 4.51957 6.79289 4.70711L7.5 4ZM9 2.5L10 2.5C10 2.09554 9.75636 1.7309 9.38268 1.57612C9.00901 1.42134 8.57889 1.5069 8.29289 1.79289L9 2.5ZM9 5.5L8.29289 6.20711C8.57889 6.4931 9.00901 6.57866 9.38268 6.42388C9.75636 6.2691 10 5.90446 10 5.5L9 5.5ZM11.5 4L11.5 5L11.5 4ZM4.5 12L4.5 4L2.5 4L2.5 12L4.5 12ZM13.5 12L13.5 5L11.5 5L11.5 12L13.5 12ZM11.5 3L7.5 3L7.5 5L11.5 5L11.5 3ZM8.20711 4.70711L9.70711 3.20711L8.29289 1.79289L6.79289 3.29289L8.20711 4.70711ZM6.79289 4.70711L8.29289 6.20711L9.70711 4.79289L8.20711 3.29289L6.79289 4.70711ZM8 2.5L8 5.5L10 5.5L10 2.5L8 2.5ZM13.5 5C13.5 3.89543 12.6046 3 11.5 3L11.5 5L13.5 5Z" fill="currentColor" class="icon-dark"/>
    <path d="M5 4C5 4.82843 4.32843 5.5 3.5 5.5C2.67157 5.5 2 4.82843 2 4C2 3.17157 2.67157 2.5 3.5 2.5C4.32843 2.5 5 3.17157 5 4ZM5 12C5 12.8284 4.32843 13.5 3.5 13.5C2.67157 13.5 2 12.8284 2 12C2 11.1716 2.67157 10.5 3.5 10.5C4.32843 10.5 5 11.1716 5 12ZM14 12C14 12.8284 13.3284 13.5 12.5 13.5C11.6716 13.5 11 12.8284 11 12C11 11.1716 11.6716 10.5 12.5 10.5C13.3284 10.5 14 11.1716 14 12Z" fill="#D0D2E0" class="icon-light-fill icon-dark-stroke" stroke="currentColor" />
</svg>
