<svg viewBox="0 0 16 16" fill="none" xmlns="http://www.w3.org/2000/svg">
  <path d="M3.96918 15.501C3.74391 13.6908 2.30917 12.2561 0.499007 12.0308C0.224978 11.9967 0 12.2239 0 12.5V14.5C0 15.3284 0.671573 16 1.5 16H3.5C3.77614 16 4.00328 15.775 3.96918 15.501Z" fill="currentColor" class="icon-dark" />
  <path d="M6 15C6 12.2386 3.76142 10 1 10C0.447715 10 0 9.55228 0 9C0 8.44772 0.447715 8 1 8C4.86599 8 8 11.134 8 15C8 15.5523 7.55228 16 7 16C6.44772 16 6 15.5523 6 15ZM10 15C10 10.0294 5.97056 6 1 6C0.447715 6 0 5.55228 0 5C0 4.44772 0.447715 4 1 4C7.07513 4 12 8.92487 12 15C12 15.5523 11.5523 16 11 16C10.4477 16 10 15.5523 10 15ZM14 15C14 7.8203 8.1797 2 1 2C0.447715 2 0 1.55228 0 1C0 0.447715 0.447715 0 1 0C9.28427 0 16 6.71573 16 15C16 15.5523 15.5523 16 15 16C14.4477 16 14 15.5523 14 15Z" fill="currentColor" class="icon-dark" />
</svg>