<svg viewBox="0 0 48 48" fill="none" xmlns="http://www.w3.org/2000/svg">
<rect fill="currentColor"/>
<path d="M43 37V16H5V37C5 38.6569 6.34315 40 8 40H40C41.6569 40 43 38.6569 43 37Z" fill="#E1E3ED" class="icon-light"/>
<path d="M13 27.9993C12.4477 27.9993 12 28.447 12 28.9993C12 29.5516 12.4477 29.9993 13 29.9993V27.9993ZM11 30.9993C10.4477 30.9993 10 31.447 10 31.9993C10 32.5516 10.4477 32.9993 11 32.9993V30.9993ZM13 24.9993C12.4477 24.9993 12 25.447 12 25.9993C12 26.5516 12.4477 26.9993 13 26.9993V24.9993ZM11 21.9993C10.4477 21.9993 10 22.447 10 22.9993C10 23.5516 10.4477 23.9993 11 23.9993V21.9993ZM24 23.9993C24.5523 23.9993 25 23.5516 25 22.9993C25 22.447 24.5523 21.9993 24 21.9993V23.9993ZM19 20.9993C19.5523 20.9993 20 20.5516 20 19.9993C20 19.447 19.5523 18.9993 19 18.9993V20.9993ZM9 18.9993C8.44772 18.9993 8 19.447 8 19.9993C8 20.5516 8.44772 20.9993 9 20.9993V18.9993ZM23.01 32.9993C23.5623 32.9993 24.01 32.5516 24.01 31.9993C24.01 31.447 23.5623 30.9993 23.01 30.9993V32.9993ZM29 26.9993C29.5523 26.9993 30 26.5516 30 25.9993C30 25.447 29.5523 24.9993 29 24.9993V26.9993ZM9 33.9993C8.44772 33.9993 8 34.447 8 34.9993C8 35.5516 8.44772 35.9993 9 35.9993V33.9993ZM26 29.9993C26.5523 29.9993 27 29.5516 27 28.9993C27 28.447 26.5523 27.9993 26 27.9993V29.9993ZM18 35.9993C18.5523 35.9993 19 35.5516 19 34.9993C19 34.447 18.5523 33.9993 18 33.9993V35.9993ZM8 9H40V7H8V9ZM42 11V37H44V11H42ZM6 37V11H4V37H6ZM8 39C6.89543 39 6 38.1046 6 37H4C4 39.2091 5.79086 41 8 41V39ZM42 37C42 38.1046 41.1046 39 40 39V41C42.2091 41 44 39.2091 44 37H42ZM40 9C41.1046 9 42 9.89543 42 11H44C44 8.79086 42.2091 7 40 7V9ZM8 7C5.79086 7 4 8.79086 4 11H6C6 9.89543 6.89543 9 8 9V7ZM4 11V16H6V11H4ZM44 16V11H42V16H44ZM44 37V16H42V37H44ZM4 16V37H6V16H4ZM5 17H43V15H5V17ZM40 39H8V41H40V39ZM13 29.9993H17V27.9993H13V29.9993ZM16 30.9993H11V32.9993H16V30.9993ZM16 26.9993H24V24.9993H16V26.9993ZM13 26.9993H15V24.9993H13V26.9993ZM11 23.9993H16V21.9993H11V23.9993ZM24 21.9993H17.01V23.9993H24V21.9993ZM19 18.9993H13V20.9993H19V18.9993ZM9 20.9993H12V18.9993H9V20.9993ZM17 32.9993H23.01V30.9993H17V32.9993ZM25 26.9993H29V24.9993H25V26.9993ZM18 29.9993H23V27.9993H18V29.9993ZM14 33.9993H9V35.9993H14V33.9993ZM24 29.9993H26V27.9993H24V29.9993ZM15 35.9993H18V33.9993H15V35.9993Z" fill="#747994" class="icon-dark"/>

<path d="M10 12C10 12.5523 9.55228 13 9 13C8.44772 13 8 12.5523 8 12C8 11.4477 8.44772 11 9 11C9.55228 11 10 11.4477 10 12Z" fill="#747994" class="icon-dark"/>
<path d="M13 12C13 12.5523 12.5523 13 12 13C11.4477 13 11 12.5523 11 12C11 11.4477 11.4477 11 12 11C12.5523 11 13 11.4477 13 12Z" fill="#747994" class="icon-dark"/>
<path d="M16 12C16 12.5523 15.5523 13 15 13C14.4477 13 14 12.5523 14 12C14 11.4477 14.4477 11 15 11C15.5523 11 16 11.4477 16 12Z" fill="#747994" class="icon-dark"/>
<path d="M33.9999 36.998C33.9999 37.5503 33.5521 37.998 32.9999 37.998C32.4476 37.998 31.9999 37.5503 31.9999 36.998C31.9999 36.4458 32.4476 35.998 32.9999 35.998C33.5521 35.998 33.9999 36.4458 33.9999 36.998Z" fill="#F8C4CD" class="icon-light-secondary"/>
<path fill-rule="evenodd" clip-rule="evenodd" d="M30.9999 31.498C30.9999 31.2219 31.2237 30.998 31.4999 30.998H34.4999C34.776 30.998 34.9999 31.2219 34.9999 31.498V32.6674C34.9999 33.0523 35.4164 33.2928 35.7497 33.1005L36.7631 32.5158C37.0022 32.3778 37.3079 32.4598 37.446 32.6989L38.946 35.2971C39.0841 35.5362 39.0021 35.842 38.763 35.9801L37.7499 36.565C37.4165 36.7575 37.4165 37.2386 37.7499 37.4311L38.763 38.016C39.0021 38.1541 39.0841 38.4599 38.946 38.699L37.446 41.2971C37.3079 41.5362 37.0021 41.6182 36.763 41.4801L35.7499 40.8952C35.4165 40.7027 34.9999 40.9433 34.9999 41.3282V42.498C34.9999 42.7742 34.776 42.998 34.4999 42.998H31.4999C31.2237 42.998 30.9999 42.7742 30.9999 42.498V41.3287C30.9999 40.9438 30.5833 40.7033 30.25 40.8956L29.2367 41.4803C28.9975 41.6183 28.6918 41.5363 28.5538 41.2972L27.0537 38.699C26.9156 38.4599 26.9976 38.1541 27.2367 38.016L28.2499 37.4311C28.5832 37.2386 28.5832 36.7575 28.2499 36.565L27.2367 35.9801C26.9976 35.842 26.9156 35.5362 27.0537 35.2971L28.5538 32.6989C28.6918 32.4598 28.9975 32.3778 29.2367 32.5158L30.25 33.1005C30.5833 33.2928 30.9999 33.0523 30.9999 32.6674V31.498ZM32.9999 37.998C33.5521 37.998 33.9999 37.5503 33.9999 36.998C33.9999 36.4458 33.5521 35.998 32.9999 35.998C32.4476 35.998 31.9999 36.4458 31.9999 36.998C31.9999 37.5503 32.4476 37.998 32.9999 37.998Z" fill="#F8C4CD" class="icon-light-secondary"/>

<path d="M33.9999 36.998C33.9999 37.5503 33.5521 37.998 32.9999 37.998C32.4476 37.998 31.9999 37.5503 31.9999 36.998C31.9999 36.4458 32.4476 35.998 32.9999 35.998C33.5521 35.998 33.9999 36.4458 33.9999 36.998Z" stroke="#C62B49" class="icon-dark-secondary" stroke-width="2" stroke-linejoin="round"/>

<path fill-rule="evenodd" clip-rule="evenodd" d="M30.9999 31.498C30.9999 31.2219 31.2237 30.998 31.4999 30.998H34.4999C34.776 30.998 34.9999 31.2219 34.9999 31.498V32.6674C34.9999 33.0523 35.4164 33.2928 35.7497 33.1005L36.7631 32.5158C37.0022 32.3778 37.3079 32.4598 37.446 32.6989L38.946 35.2971C39.0841 35.5362 39.0021 35.842 38.763 35.9801L37.7499 36.565C37.4165 36.7575 37.4165 37.2386 37.7499 37.4311L38.763 38.016C39.0021 38.1541 39.0841 38.4599 38.946 38.699L37.446 41.2971C37.3079 41.5362 37.0021 41.6182 36.763 41.4801L35.7499 40.8952C35.4165 40.7027 34.9999 40.9433 34.9999 41.3282V42.498C34.9999 42.7742 34.776 42.998 34.4999 42.998H31.4999C31.2237 42.998 30.9999 42.7742 30.9999 42.498V41.3287C30.9999 40.9438 30.5833 40.7033 30.25 40.8956L29.2367 41.4803C28.9975 41.6183 28.6918 41.5363 28.5538 41.2972L27.0537 38.699C26.9156 38.4599 26.9976 38.1541 27.2367 38.016L28.2499 37.4311C28.5832 37.2386 28.5832 36.7575 28.2499 36.565L27.2367 35.9801C26.9976 35.842 26.9156 35.5362 27.0537 35.2971L28.5538 32.6989C28.6918 32.4598 28.9975 32.3778 29.2367 32.5158L30.25 33.1005C30.5833 33.2928 30.9999 33.0523 30.9999 32.6674V31.498ZM32.9999 37.998C33.5521 37.998 33.9999 37.5503 33.9999 36.998C33.9999 36.4458 33.5521 35.998 32.9999 35.998C32.4476 35.998 31.9999 36.4458 31.9999 36.998C31.9999 37.5503 32.4476 37.998 32.9999 37.998Z" stroke="#C62B49" class="icon-dark-secondary" stroke-width="2" stroke-linejoin="round"/>

</svg>
