<svg viewBox="0 0 48 48" fill="none" xmlns="http://www.w3.org/2000/svg">
  <rect
    x="5"
    y="4.99927"
    width="38"
    height="38"
    rx="4"
    fill="#F3F4FA"
    stroke="currentColor"
    stroke-width="2"
    class="icon-dark-stroke icon-light-fill"
  />
  <path
    d="M33.4284 22.8853L19.2942 20.0585C19.1542 20.0305 19.0308 20.1539 19.0588 20.2938L21.8857 34.428C21.923 34.6148 22.1755 34.6486 22.2607 34.4783L24.8759 29.2478C24.937 29.1257 25.0997 29.0993 25.1962 29.1958L29.3586 33.3582C29.4367 33.4363 29.5633 33.4363 29.6414 33.3582L32.3586 30.6411C32.4367 30.563 32.4367 30.4363 32.3586 30.3582L28.1962 26.1958C28.0997 26.0993 28.1261 25.9366 28.2482 25.8755L33.4786 23.2603C33.649 23.1752 33.6151 22.9227 33.4284 22.8853Z"
    fill="white"
    stroke="currentColor"
    stroke-width="2"
    class="icon-dark-stroke icon-light-secondary-fill"
  />
  <path
    fill-rule="evenodd"
    clip-rule="evenodd"
    d="M22 12.9996C22.5523 12.9996 23 13.4473 23 13.9996V15.4996C23 16.0519 22.5523 16.4996 22 16.4996C21.4477 16.4996 21 16.0519 21 15.4996V13.9996C21 13.4473 21.4477 12.9996 22 12.9996ZM30.2071 16.2067L29.1464 17.2674C28.7559 17.6579 28.1228 17.6579 27.7322 17.2674C27.3417 16.8769 27.3417 16.2437 27.7322 15.8532L28.7929 14.7925C29.1834 14.402 29.8166 14.402 30.2071 14.7925C30.5976 15.1831 30.5976 15.8162 30.2071 16.2067ZM16.7071 29.7067C17.0976 29.3162 17.0976 28.6831 16.7071 28.2925C16.3166 27.902 15.6834 27.902 15.2929 28.2925L14.2322 29.3532C13.8417 29.7437 13.8417 30.3769 14.2322 30.7674C14.6228 31.1579 15.2559 31.1579 15.6464 30.7674L16.7071 29.7067ZM13.7929 14.7925C14.1834 14.402 14.8166 14.402 15.2071 14.7925L16.2678 15.8532C16.6583 16.2437 16.6583 16.8769 16.2678 17.2674C15.8772 17.6579 15.2441 17.6579 14.8536 17.2674L13.7929 16.2067C13.4024 15.8162 13.4024 15.1831 13.7929 14.7925ZM13 21.9996C12.4477 21.9996 12 22.4473 12 22.9996C12 23.5519 12.4477 23.9996 13 23.9996H14.5C15.0523 23.9996 15.5 23.5519 15.5 22.9996C15.5 22.4473 15.0523 21.9996 14.5 21.9996H13Z"
    fill="currentColor"
    class="icon-dark"
  />
</svg>
