<svg viewBox="0 0 17 17" fill="none" xmlns="http://www.w3.org/2000/svg">
  <path d="M1 13C1 14.1046 1.89543 15 3 15H13C14.1046 15 15 14.1046 15 13V6L12.0437 8.9563C12.0169 8.98308 11.9773 8.99243 11.9414 8.98046L9.07246 8.02415C9.02968 8.00989 8.98265 8.02603 8.95763 8.06355L7.04237 10.9364C7.01735 10.974 6.97032 10.9901 6.92754 10.9758L4.05863 10.0195C4.0227 10.0076 3.98308 10.0169 3.9563 10.0437L1 13Z" fill="#F3F4FA" class="icon-light"/>
  <path d="M1 13V13C1 14.1046 1.89543 15 3 15H13C14.1046 15 15 14.1046 15 13V6M1 13V8V3C1 1.89543 1.89543 1 3 1H13C14.1046 1 15 1.89543 15 3V6M1 13L3.9563 10.0437C3.98308 10.0169 4.0227 10.0076 4.05863 10.0195L6.92754 10.9758C6.97032 10.9901 7.01735 10.974 7.04237 10.9364L8.95763 8.06355C8.98265 8.02603 9.02968 8.00989 9.07246 8.02415L11.9414 8.98046C11.9773 8.99243 12.0169 8.98308 12.0437 8.9563L15 6" stroke="#9095AD" stroke-width="2" class="icon-dark" />
  <path d="M2 3C2 2.44772 2.44772 2 3 2H13C13.5523 2 14 2.44772 14 3V4H2V3Z" fill="#D0D2E0" class="icon-light" />
  <path d="M14 4V5H2V4H14Z" fill="#9095AD" class="icon-dark" />
  <circle cx="14" cy="14" r="2.5" fill="#E45770" stroke="white" class="icon-light-secondary-fill" />
</svg>
