<svg viewBox="0 0 48 48" fill="none" xmlns="http://www.w3.org/2000/svg">
  <rect x="5" y="4.99927" width="38" height="38" rx="4" fill="currentColor" stroke="currentColor" stroke-width="2" class="icon-dark-stroke icon-light-fill"/>
  <path d="M33.4284 21.8852L19.2942 19.0583C19.1542 19.0304 19.0308 19.1537 19.0588 19.2937L21.8857 33.4279C21.923 33.6147 22.1755 33.6485 22.2607 33.4781L24.8759 28.2477C24.937 28.1256 25.0997 28.0992 25.1962 28.1957L29.3586 32.3581C29.4367 32.4362 29.5633 32.4362 29.6414 32.3581L32.3586 29.6409C32.4367 29.5628 32.4367 29.4362 32.3586 29.3581L28.1962 25.1957C28.0997 25.0992 28.1261 24.9365 28.2482 24.8754L33.4786 22.2602C33.649 22.175 33.6151 21.9225 33.4284 21.8852Z" fill="currentColor" stroke="currentColor" stroke-width="2" class="icon-dark-stroke icon-light-secondary-fill"/>
  <path fill-rule="evenodd" clip-rule="evenodd" d="M22 11.9995C22.5523 11.9995 23 12.4472 23 12.9995V14.4995C23 15.0518 22.5523 15.4995 22 15.4995C21.4477 15.4995 21 15.0518 21 14.4995V12.9995C21 12.4472 21.4477 11.9995 22 11.9995ZM30.2071 15.2066L29.1464 16.2673C28.7559 16.6578 28.1228 16.6578 27.7322 16.2673C27.3417 15.8768 27.3417 15.2436 27.7322 14.8531L28.7929 13.7924C29.1834 13.4019 29.8166 13.4019 30.2071 13.7924C30.5976 14.1829 30.5976 14.8161 30.2071 15.2066ZM16.7071 28.7066C17.0976 28.3161 17.0976 27.6829 16.7071 27.2924C16.3166 26.9019 15.6834 26.9019 15.2929 27.2924L14.2322 28.3531C13.8417 28.7436 13.8417 29.3768 14.2322 29.7673C14.6228 30.1578 15.2559 30.1578 15.6464 29.7673L16.7071 28.7066ZM13.7929 13.7924C14.1834 13.4019 14.8166 13.4019 15.2071 13.7924L16.2678 14.8531C16.6583 15.2436 16.6583 15.8768 16.2678 16.2673C15.8772 16.6578 15.2441 16.6578 14.8536 16.2673L13.7929 15.2066C13.4024 14.8161 13.4024 14.1829 13.7929 13.7924ZM13 20.9995C12.4477 20.9995 12 21.4472 12 21.9995C12 22.5518 12.4477 22.9995 13 22.9995H14.5C15.0523 22.9995 15.5 22.5518 15.5 21.9995C15.5 21.4472 15.0523 20.9995 14.5 20.9995H13Z" fill="currentColor" class="icon-dark"/>
  <circle cx="40" cy="40" r="8" fill="currentColor" class="icon-light-secondary"/>
  <path d="M46 40.001C46 36.6873 43.3137 34.001 40 34.001C36.6863 34.001 34 36.6873 34 40.001C34 43.3147 36.6863 46.001 40 46.001C43.3137 46.001 46 43.3147 46 40.001Z" fill="currentColor" class="icon-light"/>
  <path d="M35.7412 44.2274L44.2656 35.7814M46 40.001C46 36.6873 43.3137 34.001 40 34.001C36.6863 34.001 34 36.6873 34 40.001C34 43.3147 36.6863 46.001 40 46.001C43.3137 46.001 46 43.3147 46 40.001Z" stroke="currentColor" stroke-width="2" stroke-linecap="round" class="icon-dark"/>
</svg>
