<svg viewBox="0 0 48 48" fill="none" xmlns="http://www.w3.org/2000/svg">
  <rect
    x="5"
    y="4.99902"
    width="38"
    height="38"
    rx="19"
    fill="#F3F4FA"
    stroke="currentColor"
    stroke-width="2"
    class="icon-dark-stroke icon-light-fill"
  />
  <path
    fill-rule="evenodd"
    clip-rule="evenodd"
    d="M24 18C25.3807 18 26.5 16.8807 26.5 15.5C26.5 14.1193 25.3807 13 24 13C22.6193 13 21.5 14.1193 21.5 15.5C21.5 16.8807 22.6193 18 24 18ZM17.2425 18.0299C16.7067 17.8959 16.1638 18.2217 16.0298 18.7575C15.8959 19.2933 16.2217 19.8362 16.7575 19.9701L23 21.5308V25.6667L17.95 32.4C17.6186 32.8418 17.7082 33.4686 18.15 33.8C18.5918 34.1314 19.2186 34.0418 19.55 33.6L24 27.6667L28.45 33.6C28.7814 34.0418 29.4082 34.1314 29.85 33.8C30.2918 33.4686 30.3814 32.8418 30.05 32.4L25 25.6667V21.5308L31.2425 19.9701C31.7783 19.8362 32.1041 19.2933 31.9701 18.7575C31.8362 18.2217 31.2933 17.8959 30.7575 18.0299L24 19.7192L17.2425 18.0299Z"
    fill="currentColor"
    class="icon-dark"
  />
</svg>
