<svg viewBox="0 0 24 24" fill="none" xmlns="http://www.w3.org/2000/svg">
<path d="M18 10.4996C18 12.5707 17.1605 14.4457 15.8033 15.8029C14.4461 17.1602 12.5711 17.9996 10.5 17.9996C6.35786 17.9996 3 14.6418 3 10.4996C3 6.3575 6.35786 2.99963 10.5 2.99963C14.6421 2.99963 18 6.3575 18 10.4996Z" fill="#D0D2E0" class="icon-light" />
<path d="M15.8033 15.8029C17.1605 14.4457 18 12.5707 18 10.4996C18 6.3575 14.6421 2.99963 10.5 2.99963C6.35786 2.99963 3 6.3575 3 10.4996C3 14.6418 6.35786 17.9996 10.5 17.9996C12.5711 17.9996 14.4461 17.1602 15.8033 15.8029ZM15.8033 15.8029L21 20.9996" stroke="#1B1E2E" stroke-width="2" stroke-linecap="round" stroke-linejoin="round" class="icon-dark" />
<path d="M8.5 12.5L10.5 10.5M12.5 8.5L10.5 10.5M10.5 10.5L8.5 8.5M10.5 10.5L12.5 12.5" stroke="#E45770" stroke-width="2" stroke-linecap="round" stroke-linejoin="round" class="icon-dark" />
</svg>
