<svg  viewBox="0 0 48 49" fill="none" xmlns="http://www.w3.org/2000/svg">
  <rect x="5" y="5.49927" width="38" height="38" rx="19" fill="currentColor" stroke="currentColor" stroke-width="2" class="icon-dark-stroke icon-light-fill" />
  <path fill-rule="evenodd" clip-rule="evenodd" d="M24.0002 19.5C25.381 19.5 26.5002 18.3807 26.5002 17C26.5002 15.6193 25.381 14.5 24.0002 14.5C22.6195 14.5 21.5002 15.6193 21.5002 17C21.5002 18.3807 22.6195 19.5 24.0002 19.5ZM17.2428 19.5299C16.707 19.3959 16.164 19.7217 16.0301 20.2575C15.8961 20.7933 16.2219 21.3362 16.7577 21.4701L23.0002 23.0308V27.1667L17.9502 33.9C17.6189 34.3418 17.7084 34.9686 18.1502 35.3C18.5921 35.6314 19.2189 35.5418 19.5502 35.1L24.0002 29.1667L28.4502 35.1C28.7816 35.5418 29.4084 35.6314 29.8502 35.3C30.2921 34.9686 30.3816 34.3418 30.0502 33.9L25.0002 27.1667V23.0308L31.2428 21.4701C31.7786 21.3362 32.1043 20.7933 31.9704 20.2575C31.8364 19.7217 31.2935 19.3959 30.7577 19.5299L24.0002 21.2192L17.2428 19.5299Z" fill="currentColor" class="icon-dark"/>
  <circle cx="37" cy="37.5" r="8" fill="currentColor" class="icon-light-secondary"/>
  <path d="M43 37.501C43 34.1873 40.3137 31.501 37 31.501C33.6863 31.501 31 34.1873 31 37.501C31 40.8147 33.6863 43.501 37 43.501C40.3137 43.501 43 40.8147 43 37.501Z" fill="currentColor" class="icon-light"/>
  <path d="M32.7412 41.7274L41.2656 33.2814M43 37.501C43 34.1873 40.3137 31.501 37 31.501C33.6863 31.501 31 34.1873 31 37.501C31 40.8147 33.6863 43.501 37 43.501C40.3137 43.501 43 40.8147 43 37.501Z" stroke="currentColor" stroke-width="2" stroke-linecap="round" class="icon-dark" />
</svg>
