<svg width="16" height="16" viewBox="0 0 16 16" fill="none" xmlns="http://www.w3.org/2000/svg">
  <path d="M2 3C2 2.44772 2.44772 2 3 2H13C13.5523 2 14 2.44772 14 3V5H2V3Z" fill="#D0D2E0"
    class="icon-light" />
  <path fill-rule="evenodd" clip-rule="evenodd"
    d="M0 3C0 1.34315 1.34315 0 3 0H13C14.6569 0 16 1.34315 16 3V6V13C16 14.6569 14.6569 16 13 16H3C1.34315 16 0 14.6569 0 13V6V3ZM3 2C2.44772 2 2 2.44772 2 3V5H14V3C14 2.44772 13.5523 2 13 2H3ZM14 6H2V13C2 13.5523 2.44772 14 3 14H13C13.5523 14 14 13.5523 14 13V6ZM8 7C8.55228 7 9 7.44772 9 8V9H10C10.5523 9 11 9.44772 11 10C11 10.5523 10.5523 11 10 11H9V12C9 12.5523 8.55228 13 8 13C7.44772 13 7 12.5523 7 12V11H6C5.44772 11 5 10.5523 5 10C5 9.44772 5.44772 9 6 9H7V8C7 7.44772 7.44772 7 8 7ZM3.5 4C3.77614 4 4 3.77614 4 3.5C4 3.22386 3.77614 3 3.5 3C3.22386 3 3 3.22386 3 3.5C3 3.77614 3.22386 4 3.5 4ZM5.5 4C5.77614 4 6 3.77614 6 3.5C6 3.22386 5.77614 3 5.5 3C5.22386 3 5 3.22386 5 3.5C5 3.77614 5.22386 4 5.5 4ZM8 3.5C8 3.77614 7.77614 4 7.5 4C7.22386 4 7 3.77614 7 3.5C7 3.22386 7.22386 3 7.5 3C7.77614 3 8 3.22386 8 3.5Z"
    fill="currentColor" class="icon-dark" />
</svg>
  