<svg width="12" height="12" viewBox="0 0 12 12" fill="none" xmlns="http://www.w3.org/2000/svg">
  <path d="M2 3C2 2.44772 2.44772 2 3 2H10C10.5523 2 11 2.44772 11 3V4H2V3Z" fill="#D0D2E0"
    class="icon-light" />
  <path fill-rule="evenodd" clip-rule="evenodd"
    d="M3 0C1.34315 0 0 1.34315 0 3V4.57143V9C0 10.6569 1.34315 12 3 12H4.57143C5.12371 12 5.57143 11.5523 5.57143 11C5.57143 10.4477 5.12371 10 4.57143 10H3C2.44772 10 2 9.55228 2 9V4.6H10.0004C10.0155 5.13907 10.4573 5.57143 11 5.57143C11.5523 5.57143 12 5.12371 12 4.57143V3.85714V3C12 1.34315 10.6569 0 9 0H3ZM10 3.88V3.85714V3C10 2.44772 9.55229 2 9 2H3C2.44772 2 2 2.44772 2 3V3.88H10ZM3 3.36C3.19882 3.36 3.36 3.19882 3.36 3C3.36 2.80118 3.19882 2.64 3 2.64C2.80118 2.64 2.64 2.80118 2.64 3C2.64 3.19882 2.80118 3.36 3 3.36ZM4.36 3.36C4.55882 3.36 4.72 3.19882 4.72 3C4.72 2.80118 4.55882 2.64 4.36 2.64C4.16118 2.64 4 2.80118 4 3C4 3.19882 4.16118 3.36 4.36 3.36ZM6 3C6 3.19882 5.83882 3.36 5.64 3.36C5.44118 3.36 5.28 3.19882 5.28 3C5.28 2.80118 5.44118 2.64 5.64 2.64C5.83882 2.64 6 2.80118 6 3Z"
    fill="currentColor" class="icon-dark" />
  <path d="M8 10L9 11L11 8" stroke="#1FA971" stroke-width="2" stroke-linecap="round"
    stroke-linejoin="round" class="icon-dark-secondary" />
</svg>