<svg viewBox="0 0 16 16" fill="none" xmlns="http://www.w3.org/2000/svg">
  <path d="M2 6H14V13C14 13.5523 13.5523 14 13 14H3C2.44772 14 2 13.5523 2 13V6Z" fill="#D0D2E0"
    class="icon-light" />
  <path fill-rule="evenodd" clip-rule="evenodd"
    d="M3 0C1.34315 0 0 1.34315 0 3V6V13C0 14.6569 1.34315 16 3 16H13C14.6569 16 16 14.6569 16 13V6V3C16 1.34315 14.6569 0 13 0H3ZM2 3C2 2.44772 2.44772 2 3 2H13C13.5523 2 14 2.44772 14 3V5H2V3ZM14 6H2V13C2 13.5523 2.44772 14 3 14H13C13.5523 14 14 13.5523 14 13V6ZM3.5 4C3.77614 4 4 3.77614 4 3.5C4 3.22386 3.77614 3 3.5 3C3.22386 3 3 3.22386 3 3.5C3 3.77614 3.22386 4 3.5 4ZM5.5 4C5.77614 4 6 3.77614 6 3.5C6 3.22386 5.77614 3 5.5 3C5.22386 3 5 3.22386 5 3.5C5 3.77614 5.22386 4 5.5 4ZM8 3.5C8 3.77614 7.77614 4 7.5 4C7.22386 4 7 3.77614 7 3.5C7 3.22386 7.22386 3 7.5 3C7.77614 3 8 3.22386 8 3.5Z"
    fill="currentColor" class="icon-dark" />
</svg>
  