<svg viewBox="0 0 16 16" fill="none" xmlns="http://www.w3.org/2000/svg">
  <path d="M5.96918 13.501C5.74391 11.6908 4.30917 10.2561 2.49901 10.0308C2.22498 9.99672 2 10.2239 2 10.5V12.5C2 13.3284 2.67157 14 3.5 14H5.5C5.77614 14 6.00328 13.775 5.96918 13.501Z" fill="currentColor" class="icon-dark" />
  <path d="M8 13C8 10.2386 5.76142 8 3 8C2.44772 8 2 7.55228 2 7C2 6.44772 2.44772 6 3 6C6.86599 6 10 9.13401 10 13C10 13.5523 9.55228 14 9 14C8.44772 14 8 13.5523 8 13ZM12 13C12 8.02944 7.97056 4 3 4C2.44772 4 2 3.55228 2 3C2 2.44772 2.44772 2 3 2C9.07513 2 14 6.92487 14 13C14 13.5523 13.5523 14 13 14C12.4477 14 12 13.5523 12 13Z" fill="currentColor" class="icon-dark" />
</svg>
