<svg viewBox="0 0 48 48" fill="none" xmlns="http://www.w3.org/2000/svg">
  <path
    d="M34.6667 21.3326C34.6667 25.0145 33.1743 28.3478 30.7614 30.7607C28.3486 33.1736 25.0152 34.6659 21.3333 34.6659C13.9695 34.6659 8 28.6964 8 21.3326C8 13.9688 13.9695 7.99927 21.3333 7.99927C28.6971 7.99927 34.6667 13.9688 34.6667 21.3326Z"
    fill="transparent" class="icon-light" />
  <path
    d="M30.7614 30.7607C33.1743 28.3478 34.6667 25.0145 34.6667 21.3326C34.6667 13.9688 28.6971 7.99927 21.3333 7.99927C13.9695 7.99927 8 13.9688 8 21.3326C8 28.6964 13.9695 34.6659 21.3333 34.6659C25.0152 34.6659 28.3486 33.1736 30.7614 30.7607ZM30.7614 30.7607L40 39.9993"
    stroke="currentColor" stroke-width="2" stroke-linecap="round" stroke-linejoin="round"
    class="icon-dark" />
  <path
    d="M17.5 25.4993L21.5 21.4993M25.5 17.4993L21.5 21.4993M21.5 21.4993L17.5 17.4993M21.5 21.4993L25.5 25.4993"
    stroke="#E45770" stroke-width="2" stroke-linecap="round" stroke-linejoin="round"
    class="icon-dark-secondary" />
</svg>