<svg viewBox="0 0 25 24" fill="none" xmlns="http://www.w3.org/2000/svg">
<path d="M20 2H4C2.34315 2 1 3.34315 1 5H23C23 3.34315 21.6569 2 20 2Z" fill="currentColor" class="icon-light"/>
<path fill-rule="evenodd" clip-rule="evenodd" d="M4 2C2.34315 2 1 3.34315 1 5H23C23 3.34315 21.6569 2 20 2H4Z" fill="currentColor" class="icon-light"/>
<path d="M11 15L8 13L4 19H19C19.5523 19 20 18.5523 20 18V11L17 13L14 12L11 15Z" fill="currentColor" class="icon-light"/>
<path d="M1 5V19C1 20.6569 2.34315 22 4 22C4 22 6.4379 22 8 22H16H20C21.6569 22 23 20.6569 23 19V5M1 5H23M1 5C1 3.34315 2.34315 2 4 2H20C21.6569 2 23 3.34315 23 5M20 11V18C20 18.5523 19.5523 19 19 19H4M20 11V9C20 8.44772 19.5523 8 19 8H5C4.44772 8 4 8.44772 4 9V17V19M20 11L17 13L14 12L11 15L8 13L4 19" stroke="currentColor" stroke-width="2" stroke-linecap="round" stroke-linejoin="round" class="icon-dark"/>
<circle cx="21" cy="20" r="3.5" fill="currentColor" stroke="white" class="icon-light-secondary-fill"/>
</svg>
