<svg viewBox="0 0 16 16" fill="none" xmlns="http://www.w3.org/2000/svg">
  <path d="M2 3C2 2.44772 2.41041 2 2.91667 2H12.0833C12.5896 2 13 2.44772 13 3V4H2V3Z" fill="currentColor" class="icon-light"/>
  <path d="M13 4V5H2V4H13Z" fill="currentColor" class="icon-dark"/>
  <path d="M1 12C1 13.1046 1.89543 14 3 14H12C13.1046 14 14 13.1046 14 12V6L10.0494 8.96292C10.0191 8.98564 9.9786 8.9893 9.94472 8.97236L8.06447 8.03223C8.02597 8.01298 7.97947 8.02053 7.94903 8.05097L6.05097 9.94903C6.02053 9.97947 5.97403 9.98702 5.93553 9.96777L4.06447 9.03223C4.02597 9.01298 3.97947 9.02053 3.94903 9.05097L1 12Z" fill="currentColor" class="icon-light" />
  <path d="M1 12V12C1 13.1046 1.89543 14 3 14H12C13.1046 14 14 13.1046 14 12V6M1 12V7.5V3C1 1.89543 1.89543 1 3 1H12C13.1046 1 14 1.89543 14 3V6M1 12L3.94903 9.05097C3.97947 9.02053 4.02597 9.01298 4.06447 9.03223L5.93553 9.96777C5.97403 9.98702 6.02053 9.97947 6.05097 9.94903L7.94903 8.05097C7.97947 8.02053 8.02597 8.01298 8.06447 8.03223L9.94472 8.97236C9.9786 8.9893 10.0191 8.98564 10.0494 8.96292L14 6" stroke="currentColor" stroke-width="2" class="icon-dark"/>
  <circle cx="13" cy="13" r="2.5" fill="currentColor" stroke="white" class="icon-light-secondary-fill"/>
</svg>
