<svg
  viewBox="0 0 48 48"
  fill="none"
  xmlns="http://www.w3.org/2000/svg"
>
  <path
    d="M40 8H8C6.34315 8 5 9.34315 5 11V16H24H43V11C43 9.34315 41.6569 8 40 8Z"
    fill="#D0D2E0"
    class="icon-light"
  />
  <path
    fillRule="evenodd"
    clipRule="evenodd"
    d="M8 8C6.34315 8 5 9.34315 5 11V16H24H43V11C43 9.34315 41.6569 8 40 8H8Z"
    fill="#D0D2E0"
    class="icon-light"
  />
  <path
    d="M43 37V16H24V40H40C41.6569 40 43 38.6569 43 37Z"
    fill="#69D3A7"
    class="icon-light-secondary"
  />
  <path d="M5 16V37C5 38.6569 6.34315 40 8 40H24V16H5Z" fill="#D0D2E0" class="icon-light" />
  <path
    d="M10 27.9993C9.44772 27.9993 9 28.447 9 28.9993C9 29.5516 9.44772 29.9993 10 29.9993V27.9993ZM9 30.9993C8.44772 30.9993 8 31.447 8 31.9993C8 32.5516 8.44772 32.9993 9 32.9993V30.9993ZM20 26.9993C20.5523 26.9993 21 26.5516 21 25.9993C21 25.447 20.5523 24.9993 20 24.9993V26.9993ZM11 24.9993C10.4477 24.9993 10 25.447 10 25.9993C10 26.5516 10.4477 26.9993 11 26.9993V24.9993ZM10 21.9993C9.44772 21.9993 9 22.447 9 22.9993C9 23.5516 9.44772 23.9993 10 23.9993V21.9993ZM17 23.9993C17.5523 23.9993 18 23.5516 18 22.9993C18 22.447 17.5523 21.9993 17 21.9993V23.9993ZM16 20.9993C16.5523 20.9993 17 20.5516 17 19.9993C17 19.447 16.5523 18.9993 16 18.9993V20.9993ZM9 18.9993C8.44772 18.9993 8 19.447 8 19.9993C8 20.5516 8.44772 20.9993 9 20.9993V18.9993ZM14.01 32.9993C14.5623 32.9993 15.01 32.5516 15.01 31.9993C15.01 31.447 14.5623 30.9993 14.01 30.9993V32.9993ZM18 29.9993C18.5523 29.9993 19 29.5516 19 28.9993C19 28.447 18.5523 27.9993 18 27.9993V29.9993ZM29 27.9993C28.4477 27.9993 28 28.447 28 28.9993C28 29.5516 28.4477 29.9993 29 29.9993V27.9993ZM28 30.9993C27.4477 30.9993 27 31.447 27 31.9993C27 32.5516 27.4477 32.9993 28 32.9993V30.9993ZM39 26.9993C39.5523 26.9993 40 26.5516 40 25.9993C40 25.447 39.5523 24.9993 39 24.9993V26.9993ZM30 24.9993C29.4477 24.9993 29 25.447 29 25.9993C29 26.5516 29.4477 26.9993 30 26.9993V24.9993ZM29 21.9993C28.4477 21.9993 28 22.447 28 22.9993C28 23.5516 28.4477 23.9993 29 23.9993V21.9993ZM36 23.9993C36.5523 23.9993 37 23.5516 37 22.9993C37 22.447 36.5523 21.9993 36 21.9993V23.9993ZM35 20.9993C35.5523 20.9993 36 20.5516 36 19.9993C36 19.447 35.5523 18.9993 35 18.9993V20.9993ZM28 18.9993C27.4477 18.9993 27 19.447 27 19.9993C27 20.5516 27.4477 20.9993 28 20.9993V18.9993ZM33.01 32.9993C33.5623 32.9993 34.01 32.5516 34.01 31.9993C34.01 31.447 33.5623 30.9993 33.01 30.9993V32.9993ZM37 29.9993C37.5523 29.9993 38 29.5516 38 28.9993C38 28.447 37.5523 27.9993 37 27.9993V29.9993ZM8 9H40V7H8V9ZM42 11V37H44V11H42ZM6 37V11H4V37H6ZM8 39C6.89543 39 6 38.1046 6 37H4C4 39.2091 5.79086 41 8 41V39ZM42 37C42 38.1046 41.1046 39 40 39V41C42.2091 41 44 39.2091 44 37H42ZM40 9C41.1046 9 42 9.89543 42 11H44C44 8.79086 42.2091 7 40 7V9ZM8 7C5.79086 7 4 8.79086 4 11H6C6 9.89543 6.89543 9 8 9V7ZM4 11V16H6V11H4ZM44 16V11H42V16H44ZM5 17H24V15H5V17ZM24 17H43V15H24V17ZM40 39H24V41H40V39ZM24 39H8V41H24V39ZM23 16V40H25V16H23ZM10 29.9993H12V27.9993H10V29.9993ZM11 30.9993H9V32.9993H11V30.9993ZM14 26.9993H20V24.9993H14V26.9993ZM11 26.9993H13V24.9993H11V26.9993ZM10 23.9993H15V21.9993H10V23.9993ZM16.01 23.9993H17V21.9993H16.01V23.9993ZM16 18.9993H12V20.9993H16V18.9993ZM9 20.9993H11V18.9993H9V20.9993ZM12 32.9993H14.01V30.9993H12V32.9993ZM44 37V16H42V37H44ZM4 16V37H6V16H4ZM13 29.9993H18V27.9993H13V29.9993ZM29 29.9993H31V27.9993H29V29.9993ZM30 30.9993H28V32.9993H30V30.9993ZM33 26.9993H39V24.9993H33V26.9993ZM30 26.9993H32V24.9993H30V26.9993ZM29 23.9993H34V21.9993H29V23.9993ZM35.01 23.9993H36V21.9993H35.01V23.9993ZM35 18.9993H31V20.9993H35V18.9993ZM28 20.9993H30V18.9993H28V20.9993ZM31 32.9993H33.01V30.9993H31V32.9993ZM32 29.9993H37V27.9993H32V29.9993Z"
    fill="currentColor"
    class="icon-dark"
  />
  <path
    d="M10 12C10 12.5523 9.55228 13 9 13C8.44772 13 8 12.5523 8 12C8 11.4477 8.44772 11 9 11C9.55228 11 10 11.4477 10 12Z"
    fill="currentColor"
    class="icon-dark"
  />
  <path
    d="M13 12C13 12.5523 12.5523 13 12 13C11.4477 13 11 12.5523 11 12C11 11.4477 11.4477 11 12 11C12.5523 11 13 11.4477 13 12Z"
    fill="currentColor"
    class="icon-dark"
  />
  <path
    d="M16 12C16 12.5523 15.5523 13 15 13C14.4477 13 14 12.5523 14 12C14 11.4477 14.4477 11 15 11C15.5523 11 16 11.4477 16 12Z"
    fill="currentColor"
    class="icon-dark"
  />
</svg>