<svg viewBox="0 0 16 16" fill="none" xmlns="http://www.w3.org/2000/svg">
<path d="M2 3C2 2.44772 2.44772 2 3 2H13C13.5523 2 14 2.44772 14 3V5H2V3Z" fill="#D0D2E0" class="icon-light"/>
<path fill-rule="evenodd" clip-rule="evenodd" d="M3 0C1.34315 0 0 1.34315 0 3V6V13C0 14.6569 1.34315 16 3 16H6C6.55228 16 7 15.5523 7 15C7 14.4477 6.55228 14 6 14H3C2.44772 14 2 13.5523 2 13V6H14C14 6.55228 14.4477 7 15 7C15.5523 7 16 6.55228 16 6V5V3C16 1.34315 14.6569 0 13 0H3ZM14 5V3C14 2.44772 13.5523 2 13 2H3C2.44772 2 2 2.44772 2 3V5H14ZM3.5 4C3.77614 4 4 3.77614 4 3.5C4 3.22386 3.77614 3 3.5 3C3.22386 3 3 3.22386 3 3.5C3 3.77614 3.22386 4 3.5 4ZM5.5 4C5.77614 4 6 3.77614 6 3.5C6 3.22386 5.77614 3 5.5 3C5.22386 3 5 3.22386 5 3.5C5 3.77614 5.22386 4 5.5 4ZM8 3.5C8 3.77614 7.77614 4 7.5 4C7.22386 4 7 3.77614 7 3.5C7 3.22386 7.22386 3 7.5 3C7.77614 3 8 3.22386 8 3.5Z" fill="currentColor" class="icon-dark"/>
<path d="M10 10L12.5 12.5M15 15L12.5 12.5M12.5 12.5L15 10M12.5 12.5L10 15" stroke="currentColor" stroke-width="2" stroke-linecap="round" stroke-linejoin="round" class="icon-dark"/>
</svg>
