<svg viewBox="0 0 16 16" fill="none"
  xmlns="http://www.w3.org/2000/svg">
  <path d="M2 6.00073H14V13.0007C14 13.553 13.5523 14.0007 13 14.0007H3C2.44772 14.0007 2 13.553 2 13.0007V6.00073Z" fill="#D0D2E0" class="icon-light"/>
  <path fill-rule="evenodd" clip-rule="evenodd" d="M3 0.000732422C1.34315 0.000732422 0 1.34388 0 3.00073V6.00073V13.0007C0 14.6576 1.34315 16.0007 3 16.0007H13C14.6569 16.0007 16 14.6576 16 13.0007V6.00073V3.00073C16 1.34388 14.6569 0.000732422 13 0.000732422H3ZM2 3.00073C2 2.44845 2.44772 2.00073 3 2.00073H13C13.5523 2.00073 14 2.44845 14 3.00073V5.00073H2V3.00073ZM14 6.00073H2V13.0007C2 13.553 2.44772 14.0007 3 14.0007H13C13.5523 14.0007 14 13.553 14 13.0007V6.00073ZM3.5 4.00073C3.77614 4.00073 4 3.77687 4 3.50073C4 3.22459 3.77614 3.00073 3.5 3.00073C3.22386 3.00073 3 3.22459 3 3.50073C3 3.77687 3.22386 4.00073 3.5 4.00073ZM5.5 4.00073C5.77614 4.00073 6 3.77687 6 3.50073C6 3.22459 5.77614 3.00073 5.5 3.00073C5.22386 3.00073 5 3.22459 5 3.50073C5 3.77687 5.22386 4.00073 5.5 4.00073ZM8 3.50073C8 3.77687 7.77614 4.00073 7.5 4.00073C7.22386 4.00073 7 3.77687 7 3.50073C7 3.22459 7.22386 3.00073 7.5 3.00073C7.77614 3.00073 8 3.22459 8 3.50073Z" fill="currentColor" class="icon-dark"/>
</svg>
