<svg viewBox="0 0 24 24" fill="none" xmlns="http://www.w3.org/2000/svg">
  <path d="M3 4C3 3.44772 3.44772 3 4 3H20C20.5523 3 21 3.44772 21 4V8H3V4Z" fill="#D0D2E0"
    class="icon-light" />
  <path fill-rule="evenodd" clip-rule="evenodd"
    d="M4 1C2.34315 1 1 2.34315 1 4V9V20C1 21.6569 2.34315 23 4 23H20C21.6569 23 23 21.6569 23 20V9V4C23 2.34315 21.6569 1 20 1H4ZM3 4C3 3.44772 3.44772 3 4 3H20C20.5523 3 21 3.44772 21 4V7.5H3V4ZM21 9H3V20C3 20.5523 3.44772 21 4 21H20C20.5523 21 21 20.5523 21 20V9ZM5.25 6C5.66421 6 6 5.66421 6 5.25C6 4.83579 5.66421 4.5 5.25 4.5C4.83579 4.5 4.5 4.83579 4.5 5.25C4.5 5.66421 4.83579 6 5.25 6ZM8.25 6C8.66421 6 9 5.66421 9 5.25C9 4.83579 8.66421 4.5 8.25 4.5C7.83579 4.5 7.5 4.83579 7.5 5.25C7.5 5.66421 7.83579 6 8.25 6ZM12 5.25C12 5.66421 11.6642 6 11.25 6C10.8358 6 10.5 5.66421 10.5 5.25C10.5 4.83579 10.8358 4.5 11.25 4.5C11.6642 4.5 12 4.83579 12 5.25Z"
    fill="currentColor" class="icon-dark" />
</svg>
  