<svg
  viewBox="0 0 16 16"
  fill="none"
  xmlns="http://www.w3.org/2000/svg"
>
  <path
    d="M6 7C6 6.44772 6.44772 6 7 6H13C13.5523 6 14 6.44772 14 7V9H6V7Z"
    fill="#E1E3ED"
    class="icon-light"
  />
  <path
    d="M2 3C2 2.44772 2.44772 2 3 2H9C9.55228 2 10 2.44772 10 3V5H2V3Z"
    fill="#E1E3ED"
    class="icon-light"
  />
  <path
    d="M9 0C10.6569 0 12 1.34315 12 3V4H13L13.1543 4.00391C14.7394 4.08421 16 5.39489 16 7V13C16 14.6569 14.6569 16 13 16H7C5.34315 16 4 14.6569 4 13V12H3C1.34315 12 1.08296e-07 10.6569 0 9V3C4.69118e-07 1.34315 1.34315 1.61064e-08 3 0H9ZM6 13C6 13.5523 6.44772 14 7 14H13C13.5523 14 14 13.5523 14 13V9.5H6V13ZM2 5.5V9C2 9.55229 2.44772 10 3 10H4V7C4 6.45287 4.14941 5.94164 4.40527 5.5H2ZM7 6C6.44772 6 6 6.44772 6 7V8.75H14V7C14 6.48232 13.6067 6.05621 13.1025 6.00488L13 6H7ZM7.00684 7.10156C7.21383 7.10156 7.38165 7.26961 7.38184 7.47656C7.38184 7.68367 7.21394 7.85156 7.00684 7.85156C6.79981 7.85147 6.63184 7.68361 6.63184 7.47656C6.63202 7.26967 6.79992 7.10166 7.00684 7.10156ZM8.50684 7.10156C8.71383 7.10156 8.88165 7.26961 8.88184 7.47656C8.88184 7.68367 8.71394 7.85156 8.50684 7.85156C8.29981 7.85147 8.13184 7.68361 8.13184 7.47656C8.13202 7.26967 8.29992 7.10166 8.50684 7.10156ZM10.0068 7.10156C10.2138 7.10156 10.3817 7.26961 10.3818 7.47656C10.3818 7.68367 10.2139 7.85156 10.0068 7.85156C9.79981 7.85147 9.63184 7.68361 9.63184 7.47656C9.63202 7.26967 9.79992 7.10166 10.0068 7.10156ZM3 2C2.44772 2 2 2.44772 2 3V4.75H5.02051C5.54902 4.28467 6.24048 4 7 4H10V3C10 2.44772 9.55228 2 9 2H3ZM3.00684 3.10156C3.21383 3.10156 3.38165 3.26961 3.38184 3.47656C3.38184 3.68367 3.21394 3.85156 3.00684 3.85156C2.79981 3.85147 2.63184 3.68361 2.63184 3.47656C2.63202 3.26967 2.79992 3.10166 3.00684 3.10156ZM4.50684 3.10156C4.71383 3.10156 4.88165 3.26961 4.88184 3.47656C4.88184 3.68367 4.71394 3.85156 4.50684 3.85156C4.29981 3.85147 4.13184 3.68361 4.13184 3.47656C4.13202 3.26967 4.29992 3.10166 4.50684 3.10156ZM6.00684 3.10156C6.21383 3.10156 6.38165 3.26961 6.38184 3.47656C6.38184 3.68367 6.21394 3.85156 6.00684 3.85156C5.79981 3.85147 5.63184 3.68361 5.63184 3.47656C5.63202 3.26967 5.79992 3.10166 6.00684 3.10156Z"
    fill="currentColor"
    class="icon-dark"
  />
</svg>
