<svg
  viewBox="0 0 48 48"
  fill="none"
  xmlns="http://www.w3.org/2000/svg"
>
  <path d="M5 39V9C5 6.79086 6.79086 5 9 5H39C41.2091 5 43 6.79086 43 9V39C43 41.2091 41.2091 43 39 43H9C6.79086 43 5 41.2091 5 39Z" fill="currentColor" stroke="currentColor" stroke-width="2" stroke-linecap="round" stroke-linejoin="round" class="icon-dark-stroke icon-light-fill"/>
  <path d="M24.9777 14.0229C22.6131 13.7958 20.2448 14.4179 18.2971 15.7778C16.3493 17.1377 14.9493 19.1466 14.3477 21.4446C13.7461 23.7427 13.9823 26.1799 15.0139 28.3197C16.0454 30.4595 17.8051 32.1622 19.9777 33.1229C21.2359 33.6919 22.597 33.9981 23.9777 34.0229C26.1757 34.0231 28.3125 33.2991 30.0577 31.9629C30.2683 31.8023 30.4066 31.5647 30.4422 31.3022C30.4778 31.0397 30.4079 30.7738 30.2477 30.5629C30.1681 30.4572 30.0683 30.3683 29.9541 30.3014C29.8399 30.2346 29.7135 30.191 29.5824 30.1734C29.4512 30.1557 29.3179 30.1642 29.19 30.1985C29.0622 30.2327 28.9424 30.292 28.8377 30.3729C27.8006 31.1563 26.5882 31.6752 25.3054 31.8847C24.0227 32.0942 22.7082 31.9881 21.4757 31.5754C20.2432 31.1627 19.1298 30.4559 18.2319 29.5162C17.3339 28.5765 16.6785 27.4321 16.3222 26.1822C15.9659 24.9322 15.9196 23.6142 16.1872 22.3423C16.4548 21.0704 17.0282 19.8829 17.858 18.8824C18.6877 17.8819 19.7487 17.0987 20.9491 16.6005C22.1496 16.1022 23.4534 15.904 24.7477 16.0229C26.7564 16.2554 28.6075 17.2245 29.943 18.7429C31.2785 20.2613 32.0035 22.2209 31.9777 24.2429V24.9229C31.9765 25.1526 31.9291 25.3798 31.8382 25.5908C31.7473 25.8018 31.6149 25.9923 31.4487 26.151C31.2826 26.3096 31.0862 26.4332 30.8713 26.5143C30.6563 26.5954 30.4272 26.6323 30.1977 26.6229C29.7399 26.5726 29.3182 26.3507 29.0176 26.0018C28.7169 25.653 28.5597 25.2031 28.5777 24.7429V20.4229C28.5777 20.1577 28.4723 19.9033 28.2848 19.7158C28.0972 19.5283 27.8429 19.4229 27.5777 19.4229C27.3335 19.4208 27.097 19.5082 26.9128 19.6684C26.7286 19.8287 26.6094 20.0508 26.5777 20.2929C25.647 19.4165 24.416 18.9298 23.1377 18.9329C22.2689 18.9394 21.4162 19.1682 20.6608 19.5975C19.9054 20.0268 19.2725 20.6424 18.8223 21.3855C18.3722 22.1286 18.1197 22.9746 18.089 23.8429C18.0583 24.7112 18.2504 25.5729 18.647 26.346C19.0435 27.119 19.6314 27.7777 20.3545 28.2593C21.0777 28.7409 21.9121 29.0293 22.7783 29.0972C23.6445 29.1651 24.5136 29.0101 25.303 28.647C26.0923 28.2839 26.7756 27.7248 27.2877 27.0229C27.5779 27.4719 27.9646 27.8507 28.4195 28.1316C28.8744 28.4125 29.3862 28.5886 29.9177 28.647C30.4492 28.7054 30.987 28.6447 31.4921 28.4693C31.9972 28.2939 32.4568 28.0082 32.8377 27.6329C33.2042 27.2842 33.4947 26.8634 33.6909 26.397C33.8871 25.9307 33.9847 25.4288 33.9777 24.9229V24.2429C34 21.7299 33.0939 19.2971 31.433 17.411C29.7721 15.525 27.4734 14.3185 24.9777 14.0229ZM23.1577 27.1129C22.5465 27.1129 21.9491 26.9317 21.441 26.5921C20.9328 26.2526 20.5368 25.77 20.3029 25.2054C20.069 24.6408 20.0078 24.0195 20.1271 23.4201C20.2463 22.8207 20.5406 22.2701 20.9727 21.8379C21.4049 21.4058 21.9554 21.1115 22.5549 20.9923C23.1543 20.873 23.7755 20.9342 24.3402 21.1681C24.9048 21.402 25.3874 21.798 25.7269 22.3062C26.0665 22.8143 26.2477 23.4118 26.2477 24.0229C26.245 24.8416 25.9186 25.626 25.3397 26.2049C24.7608 26.7839 23.9764 27.1103 23.1577 27.1129Z" fill="currentColor" class="icon-dark" />
</svg>
