<svg viewBox="0 0 16 16" fill="none" xmlns="http://www.w3.org/2000/svg">
<path d="M2 3C2 2.44772 2.44772 2 3 2H13C13.5523 2 14 2.44772 14 3V5H2V3Z" fill="#D0D2E0" class="icon-light"/>
<path fill-rule="evenodd" clip-rule="evenodd" d="M0 3C0 1.34315 1.34315 0 3 0H13C14.6569 0 16 1.34315 16 3V5V6C16 6.55228 15.5523 7 15 7C14.4477 7 14 6.55228 14 6H2V13C2 13.5523 2.44772 14 3 14H6C6.55228 14 7 14.4477 7 15C7 15.5523 6.55228 16 6 16H3C1.34315 16 0 14.6569 0 13V6V3ZM2 5H14V3C14 2.44772 13.5523 2 13 2H3C2.44772 2 2 2.44772 2 3V5ZM12.5179 10.0679C11.8507 9.88969 11.1092 10.0623 10.5858 10.5858C10.0623 11.1092 9.88969 11.8507 10.0679 12.5179L12.5179 10.0679ZM13.9321 11.4821L11.4821 13.9321C12.1493 14.1103 12.8908 13.9377 13.4142 13.4142C13.9377 12.8908 14.1103 12.1493 13.9321 11.4821ZM9.17157 9.17157C10.7337 7.60948 13.2663 7.60948 14.8284 9.17157C16.3905 10.7337 16.3905 13.2663 14.8284 14.8284C13.2663 16.3905 10.7337 16.3905 9.17157 14.8284C7.60948 13.2663 7.60948 10.7337 9.17157 9.17157ZM3.5 4C3.77614 4 4 3.77614 4 3.5C4 3.22386 3.77614 3 3.5 3C3.22386 3 3 3.22386 3 3.5C3 3.77614 3.22386 4 3.5 4ZM5.5 4C5.77614 4 6 3.77614 6 3.5C6 3.22386 5.77614 3 5.5 3C5.22386 3 5 3.22386 5 3.5C5 3.77614 5.22386 4 5.5 4ZM8 3.5C8 3.77614 7.77614 4 7.5 4C7.22386 4 7 3.77614 7 3.5C7 3.22386 7.22386 3 7.5 3C7.77614 3 8 3.22386 8 3.5Z" fill="currentColor" class="icon-dark"/>
</svg>
