<svg viewBox="0 0 16 16" fill="none" xmlns="http://www.w3.org/2000/svg">
  <path d="M15 8C15 11.866 11.866 15 8 15C4.13401 15 1 11.866 1 8C1 4.13401 4.13401 1 8 1C11.866 1 15 4.13401 15 8Z" fill="currentColor" class="icon-light"/>
  <path d="M9.37598 14.8633L12.9834 5.50098H11.5254L10.3887 8.71777L9.23145 5.50098H7.6875L9.61719 10.4766L8.25293 13.9951L7.90039 14.9971C8.2207 14.9947 9.01758 14.9069 9.37598 14.8633Z" fill="currentColor" class="icon-dark" />
  <path d="M5.54004 5.41602C4.14661 5.41602 3.0166 6.52957 3.0166 7.90332C3.01682 9.27689 4.14674 10.3906 5.54004 10.3906C6.12919 10.3905 6.67124 10.1912 7.10059 9.85742C7.16948 9.80386 7.23601 9.74675 7.29883 9.68652C7.54327 9.45215 7.73961 9.16904 7.87207 8.85352L6.5332 8.38965C6.36424 8.77519 6.00114 9.04198 5.58008 9.04199C4.9979 9.04199 4.52559 8.53224 4.52539 7.90332C4.52539 7.27422 4.99778 6.76367 5.58008 6.76367L5.73535 6.77637C6.08908 6.8328 6.38539 7.07887 6.5332 7.41602L7.87207 6.95215C7.73005 6.61388 7.51453 6.31303 7.24512 6.06934C7.13292 5.96785 7.0113 5.87623 6.88184 5.7959C6.49329 5.55487 6.03298 5.41609 5.54004 5.41602Z" fill="currentColor" class="icon-dark"/>
</svg>