<svg viewBox="0 0 16 16" fill="none" xmlns="http://www.w3.org/2000/svg">
<path fill-rule="evenodd" clip-rule="evenodd" d="M13.5 9.5C13.5 12.5376 11.0376 15 8 15C4.96243 15 2.5 12.5376 2.5 9.5C2.5 7.98122 3.11561 6.60622 4.11091 5.61091C5.10622 4.61561 6.48122 4 8 4C9.51878 4 10.8938 4.61561 11.8891 5.61091C12.8844 6.60622 13.5 7.98122 13.5 9.5ZM8 9.99304C8.27614 9.99304 8.5 9.76918 8.5 9.49304C8.5 9.35674 8.44546 9.23318 8.35702 9.14299C8.26627 9.05045 8.13984 8.99304 8 8.99304C7.72385 8.99304 7.5 9.2169 7.5 9.49304C7.5 9.76918 7.72385 9.99304 8 9.99304Z" fill="#D0D2E0" class="icon-light"/>
<path d="M8 4V1M8 4C9.51878 4 10.8938 4.61561 11.8891 5.61091M8 4C6.48122 4 5.10622 4.61561 4.11091 5.61091M8 1H10M8 1H6M11.8891 5.61091C12.8844 6.60622 13.5 7.98122 13.5 9.5C13.5 12.5376 11.0376 15 8 15C4.96243 15 2.5 12.5376 2.5 9.5C2.5 7.98122 3.11561 6.60622 4.11091 5.61091M11.8891 5.61091L13 4.5M4.11091 5.61091L3 4.5M8 9.5L8.35702 9.14299M10 7.5L8.35702 9.14299M8.35702 9.14299C8.44546 9.23318 8.5 9.35674 8.5 9.49304C8.5 9.76918 8.27614 9.99304 8 9.99304C7.72385 9.99304 7.5 9.76918 7.5 9.49304C7.5 9.21689 7.72385 8.99304 8 8.99304C8.13984 8.99304 8.26627 9.05045 8.35702 9.14299Z" stroke="currentColor" class="icon-dark" stroke-width="2" stroke-linecap="round" stroke-linejoin="round"/>
</svg>
