<svg viewBox="0 0 24 24" fill="none" xmlns="http://www.w3.org/2000/svg">
<path d="M12 3C7.02944 3 3 7.02944 3 12C3 14.5178 4.03387 16.7941 5.70024 18.4275C6.13456 16.2897 7.62974 14.5373 9.61229 13.7437C8.71731 13.0374 8.14286 11.9429 8.14286 10.7143C8.14286 8.58404 9.86976 6.85714 12 6.85714C14.1302 6.85714 15.8571 8.58404 15.8571 10.7143C15.8571 11.9429 15.2827 13.0374 14.3877 13.7437C16.3703 14.5373 17.8654 16.2897 18.2998 18.4275C19.9661 16.7941 21 14.5178 21 12C21 7.02944 16.9706 3 12 3Z" fill="#D0D2E0" class="icon-light"/>
<path d="M9.61229 13.7437C10.269 14.2621 11.0984 14.5714 12 14.5714C12.9016 14.5714 13.731 14.2621 14.3877 13.7437M9.61229 13.7437C8.71731 13.0374 8.14286 11.9429 8.14286 10.7143C8.14286 8.58404 9.86976 6.85714 12 6.85714C14.1302 6.85714 15.8571 8.58404 15.8571 10.7143C15.8571 11.9429 15.2827 13.0374 14.3877 13.7437M9.61229 13.7437C7.62974 14.5373 6.13456 16.2897 5.70024 18.4275M14.3877 13.7437C16.3703 14.5373 17.8654 16.2897 18.2998 18.4275M18.2998 18.4275C19.9661 16.7941 21 14.5178 21 12C21 7.02944 16.9706 3 12 3C7.02944 3 3 7.02944 3 12C3 14.5178 4.03387 16.7941 5.70024 18.4275M18.2998 18.4275C16.6764 20.0188 14.4528 21 12 21C9.54721 21 7.32359 20.0188 5.70024 18.4275"  stroke="currentColor" stroke-width="2" class="icon-dark"/>
</svg>
