<svg viewBox="0 0 16 16" fill="none" xmlns="http://www.w3.org/2000/svg">
  <mask id="path-1-inside-1_1679_185774" fill="white" class="icon-dark">
    <path fill-rule="evenodd" clip-rule="evenodd" d="M8 0C6.38986 0 4.92831 0.94111 4.26203 2.40693L0.310658 11.0999C0.105927 11.5504 0 12.0394 0 12.5341C0 14.4483 1.55172 16 3.46587 16H8H12.5341C14.4483 16 16 14.4483 16 12.5341C16 12.0394 15.8941 11.5504 15.6893 11.0999L11.738 2.40693C11.0717 0.94111 9.61014 0 8 0ZM6.08276 3.23454C6.4245 2.4827 7.17414 2 8 2C8.82586 2 9.5755 2.4827 9.91724 3.23454L13.8686 11.9275C13.9552 12.118 14 12.3249 14 12.5341C14 13.3437 13.3437 14 12.5341 14H8H3.46587C2.65629 14 2 13.3437 2 12.5341C2 12.3249 2.0448 12.118 2.13139 11.9275L6.08276 3.23454ZM9 6C9 5.44772 8.55229 5 8 5C7.44772 5 7 5.44772 7 6V9C7 9.55228 7.44772 10 8 10C8.55229 10 9 9.55228 9 9V6ZM8 13C8.55229 13 9 12.5523 9 12C9 11.4477 8.55229 11 8 11C7.44772 11 7 11.4477 7 12C7 12.5523 7.44772 13 8 13Z"/>
  </mask>
  <path fill-rule="evenodd" clip-rule="evenodd" d="M8 0C6.38986 0 4.92831 0.94111 4.26203 2.40693L0.310658 11.0999C0.105927 11.5504 0 12.0394 0 12.5341C0 14.4483 1.55172 16 3.46587 16H8H12.5341C14.4483 16 16 14.4483 16 12.5341C16 12.0394 15.8941 11.5504 15.6893 11.0999L11.738 2.40693C11.0717 0.94111 9.61014 0 8 0ZM6.08276 3.23454C6.4245 2.4827 7.17414 2 8 2C8.82586 2 9.5755 2.4827 9.91724 3.23454L13.8686 11.9275C13.9552 12.118 14 12.3249 14 12.5341C14 13.3437 13.3437 14 12.5341 14H8H3.46587C2.65629 14 2 13.3437 2 12.5341C2 12.3249 2.0448 12.118 2.13139 11.9275L6.08276 3.23454ZM9 6C9 5.44772 8.55229 5 8 5C7.44772 5 7 5.44772 7 6V9C7 9.55228 7.44772 10 8 10C8.55229 10 9 9.55228 9 9V6ZM8 13C8.55229 13 9 12.5523 9 12C9 11.4477 8.55229 11 8 11C7.44772 11 7 11.4477 7 12C7 12.5523 7.44772 13 8 13Z" fill="currentColor" class="icon-dark" />
  <path d="M4.26203 2.40693L5.17239 2.82073L4.26203 2.40693ZM0.310658 11.0999L1.22102 11.5137H1.22102L0.310658 11.0999ZM15.6893 11.0999L14.779 11.5137V11.5137L15.6893 11.0999ZM11.738 2.40693L12.6483 1.99313V1.99313L11.738 2.40693ZM6.08276 3.23454L6.99313 3.64834V3.64834L6.08276 3.23454ZM9.91724 3.23454L10.8276 2.82073V2.82073L9.91724 3.23454ZM13.8686 11.9275L12.9582 12.3414L12.9582 12.3414L13.8686 11.9275ZM2.13139 11.9275L1.22102 11.5137L1.22102 11.5137L2.13139 11.9275ZM5.17239 2.82073C5.67641 1.71191 6.782 1 8 1V-1C5.99771 -1 4.18021 0.170313 3.35166 1.99313L5.17239 2.82073ZM1.22102 11.5137L5.17239 2.82073L3.35166 1.99313L-0.599708 10.6861L1.22102 11.5137ZM1 12.5341C1 12.1821 1.07536 11.8342 1.22102 11.5137L-0.599708 10.6861C-0.863511 11.2665 -1 11.8966 -1 12.5341H1ZM3.46587 15C2.10401 15 1 13.896 1 12.5341H-1C-1 15.0006 0.999438 17 3.46587 17V15ZM8 15H3.46587V17H8V15ZM12.5341 15H8V17H12.5341V15ZM15 12.5341C15 13.896 13.896 15 12.5341 15V17C15.0006 17 17 15.0006 17 12.5341H15ZM14.779 11.5137C14.9246 11.8342 15 12.1821 15 12.5341H17C17 11.8966 16.8635 11.2665 16.5997 10.6861L14.779 11.5137ZM10.8276 2.82073L14.779 11.5137L16.5997 10.6861L12.6483 1.99313L10.8276 2.82073ZM8 1C9.218 1 10.3236 1.71191 10.8276 2.82073L12.6483 1.99313C11.8198 0.170313 10.0023 -1 8 -1V1ZM8 1C6.782 1 5.67641 1.71191 5.17239 2.82073L6.99313 3.64834C7.1726 3.2535 7.56629 3 8 3V1ZM10.8276 2.82073C10.3236 1.71191 9.218 1 8 1V3C8.43371 3 8.8274 3.2535 9.00687 3.64834L10.8276 2.82073ZM14.779 11.5137L10.8276 2.82073L9.00687 3.64834L12.9582 12.3414L14.779 11.5137ZM15 12.5341C15 12.1821 14.9246 11.8342 14.779 11.5137L12.9582 12.3414C12.9858 12.4019 13 12.4676 13 12.5341H15ZM12.5341 15C13.896 15 15 13.896 15 12.5341H13C13 12.7914 12.7914 13 12.5341 13V15ZM8 15H12.5341V13H8V15ZM3.46587 15H8V13H3.46587V15ZM1 12.5341C1 13.896 2.10401 15 3.46587 15V13C3.20858 13 3 12.7914 3 12.5341H1ZM1.22102 11.5137C1.07536 11.8342 1 12.1821 1 12.5341H3C3 12.4676 3.01424 12.4019 3.04176 12.3414L1.22102 11.5137ZM5.17239 2.82073L1.22102 11.5137L3.04176 12.3414L6.99313 3.64834L5.17239 2.82073ZM8 6H10C10 4.89543 9.10457 4 8 4V6ZM8 6V4C6.89543 4 6 4.89543 6 6H8ZM8 9V6H6V9H8ZM8 9H6C6 10.1046 6.89543 11 8 11V9ZM8 9V11C9.10457 11 10 10.1046 10 9H8ZM8 6V9H10V6H8ZM8 12V14C9.10457 14 10 13.1046 10 12H8ZM8 12H10C10 10.8954 9.10457 10 8 10V12ZM8 12V10C6.89543 10 6 10.8954 6 12H8ZM8 12H6C6 13.1046 6.89543 14 8 14V12Z" fill="currentColor" class="icon-dark" mask="url(#path-1-inside-1_1679_185774)"/>
</svg>
