<svg viewBox="0 0 24 24" fill="none" xmlns="http://www.w3.org/2000/svg">
  <path d="M7.96056 4.60105C8.68058 3.01701 10.26 2 12 2C13.74 2 15.3194 3.01701 16.0394 4.60105L21.4639 16.535C21.8172 17.3122 22 18.156 22 19.0097C22 20.6612 20.6612 22 19.0097 22H4.99027C3.33879 22 2 20.6612 2 19.0097C2 18.156 2.18278 17.3122 2.53606 16.535L7.96056 4.60105Z" fill="currentColor" class="icon-light"/>
  <path d="M12 7V14M12 18V18.01M22 19.0097V19.0097C22 20.6612 20.6612 22 19.0097 22H4.99027C3.33879 22 2 20.6612 2 19.0097V19.0097C2 18.156 2.18278 17.3122 2.53606 16.535L7.96056 4.60105C8.68058 3.01701 10.26 2 12 2V2C13.74 2 15.3194 3.01701 16.0394 4.60105L21.4639 16.535C21.8172 17.3122 22 18.156 22 19.0097Z" stroke="currentColor" stroke-width="2" stroke-linecap="round" stroke-linejoin="round" class="icon-dark"/>
</svg>
