<svg viewBox="0 0 16 16" fill="none" xmlns="http://www.w3.org/2000/svg">
  <path d="M5.17239 2.82073C5.67641 1.71191 6.782 1 8 1V1C9.218 1 10.3236 1.71191 10.8276 2.82073L14.779 11.5137C14.9246 11.8342 15 12.1821 15 12.5341V12.5341C15 13.896 13.896 15 12.5341 15H3.46587C2.10401 15 1 13.896 1 12.5341V12.5341C1 12.1821 1.07536 11.8342 1.22102 11.5137L5.17239 2.82073Z" fill="currentColor" class="icon-light" />
  <path d="M8 6V9M8 12V11.999M15 12.5341V12.5341C15 13.896 13.896 15 12.5341 15H3.46587C2.10401 15 1 13.896 1 12.5341V12.5341C1 12.1821 1.07536 11.8342 1.22102 11.5137L5.17239 2.82073C5.67641 1.71191 6.782 1 8 1V1C9.218 1 10.3236 1.71191 10.8276 2.82073L14.779 11.5137C14.9246 11.8342 15 12.1821 15 12.5341Z" stroke="currentColor" stroke-width="2" stroke-linecap="round" stroke-linejoin="round" class="icon-dark" />
</svg>
