<svg viewBox="0 0 48 48" fill="none" xmlns="http://www.w3.org/2000/svg">
  <path
    d="M16.729 10.6819C18.025 7.83061 20.868 6 24 6C27.132 6 29.975 7.83061 31.271 10.6819L41.4317 33.0353C41.8062 33.8594 42 34.754 42 35.6592C42 39.1611 39.1611 42 35.6592 42H12.3408C8.83887 42 6 39.1611 6 35.6592C6 34.754 6.19379 33.8594 6.56835 33.0353L16.729 10.6819Z"
    fill="currentColor" class="icon-light" />
  <path
    d="M24 14V32M24 36.01V36M42 35.6592C42 34.754 41.8062 33.8594 41.4317 33.0353L31.271 10.6819C29.975 7.83061 27.132 6 24 6C20.868 6 18.025 7.83061 16.729 10.6819L6.56835 33.0353C6.19379 33.8594 6 34.754 6 35.6592C6 39.1611 8.83887 42 12.3408 42H35.6592C39.1611 42 42 39.1611 42 35.6592Z"
    stroke="currentColor" stroke-width="2" stroke-linecap="round" stroke-linejoin="round" class="icon-dark" />
</svg>