<svg width="16" height="16" viewBox="0 0 16 16" fill="none"
  xmlns="http://www.w3.org/2000/svg">
  <path d="M1 5C1 3.89543 1.89543 3 3 3H9C10.1046 3 11 3.89543 11 5V6V11C11 12.1046 10.1046 13 9 13H3C1.89543 13 1 12.1046 1 11V5Z" fill="#D0D2E0" class="icon-light" />
  <path d="M11 6V10L14.3787 10.8447C14.6943 10.9236 15 10.6849 15 10.3596V5.64039C15 5.3151 14.6943 5.07642 14.3787 5.15532L11 6Z" fill="#D0D2E0" class="icon-light" />
  <path d="M11 6V5C11 3.89543 10.1046 3 9 3H3C1.89543 3 1 3.89543 1 5V11C1 12.1046 1.89543 13 3 13H9C10.1046 13 11 12.1046 11 11V6ZM11 6L14.3787 5.15532C14.6943 5.07642 15 5.3151 15 5.64039V10.3596C15 10.6849 14.6943 10.9236 14.3787 10.8447L11 10V6Z" stroke="currentColor" class="icon-dark" stroke-width="2"/>
</svg>
