<svg viewBox="0 0 16 16" fill="none" xmlns="http://www.w3.org/2000/svg">
<g clip-path="url(#clip0_4607_8473)">
<path d="M0 8C0 12.4183 3.58172 16 8 16L11.4648 10.0001C10.7732 11.1957 9.48052 12 8 12C6.51727 12 5.22296 11.1932 4.53209 9.99474L1.07026 4C1.03455 4.06173 0.999647 4.12397 0.965557 4.18673C0.349778 5.32027 0 6.61929 0 8Z" fill="#0F9D58" class="icon-light"/>
<path d="M8 16C12.4183 16 16 12.4183 16 8C16 6.54285 15.6104 5.17669 14.9297 4H8C10.2091 4 12 5.79086 12 8C12 8.72651 11.8065 9.40753 11.4679 9.99474L11.4648 10.0001L8 16Z" fill="#FFCD40" class="icon-light"/>
<path fill-rule="evenodd" clip-rule="evenodd" d="M1.07026 4C2.4535 1.60879 5.03887 0 8 0C10.9611 0 13.5465 1.60879 14.9297 4H8C5.79086 4 4 5.79086 4 8C4 8.72641 4.19363 9.40758 4.53209 9.99474L1.07026 4Z" fill="#DB4437" class="icon-light"/>
<circle cx="8.00006" cy="8" r="4" fill="white" class="icon-light"/>
<circle cx="7.99999" cy="8.00005" r="3.2" fill="#4285F4" class="icon-light"/>
</g>
<defs>
<clipPath id="clip0_4607_8473">
<rect width="16" height="16" fill="white" class="icon-light"/>
</clipPath>
</defs>
</svg>
