<svg viewBox="0 0 16 16" fill="none" xmlns="http://www.w3.org/2000/svg">
<path d="M10.5 7.99996C10.5 6.16662 10.2483 4.4979 9.83634 3.24996C9.37962 1.86634 8.72595 1 8 1C7.27405 1 6.62036 1.86634 6.16364 3.24996C5.7517 4.4979 5.49999 6.16662 5.49999 7.99996C5.49999 8.29978 5.50672 8.59521 5.51979 8.8851C6.31689 8.96025 7.14711 8.99996 8 8.99996C8.85288 8.99996 9.6831 8.96025 10.4802 8.88511C10.4933 8.59521 10.5 8.29978 10.5 7.99996Z" fill="#E1E3ED" class="icon-light"/>
<path d="M8 1C5.96734 1 4.13704 1.86638 2.85821 3.25C1.71079 4.49145 1.00735 6.14931 1.00006 7.97139C2.29195 8.40785 3.8316 8.72595 5.51979 8.8851C5.50672 8.59521 5.49999 8.29978 5.49999 7.99996C5.49999 6.16662 5.7517 4.4979 6.16364 3.24996C6.62036 1.86634 7.27405 1 8 1Z" fill="#E1E3ED" class="icon-light"/>
<path d="M1 8C1 9.83333 1.70479 11.5021 2.85821 12.75C4.13704 14.1336 5.96734 15 8 15C7.27405 15 6.62036 14.1336 6.16364 12.75C5.81907 11.7061 5.58661 10.3678 5.51979 8.8851C3.8316 8.72595 2.29195 8.40785 1.00006 7.97139L1 8Z" fill="#E1E3ED" class="icon-light"/>
<path d="M6.16364 12.75C6.62036 14.1336 7.27405 15 8 15C8.72595 15 9.37962 14.1336 9.83634 12.75C10.1809 11.7061 10.4134 10.3678 10.4802 8.88511C9.6831 8.96025 8.85288 8.99996 8 8.99996C7.14711 8.99996 6.31689 8.96025 5.51979 8.8851C5.58661 10.3678 5.81907 11.7061 6.16364 12.75Z" fill="#E1E3ED" class="icon-light"/>
<path d="M8 15C10.0327 15 11.863 14.1336 13.1418 12.75C14.2952 11.5021 15 9.83333 15 8L14.9999 7.97139C13.7081 8.40785 12.1684 8.72596 10.4802 8.88511C10.4134 10.3678 10.1809 11.7061 9.83634 12.75C9.37962 14.1336 8.72595 15 8 15Z" fill="#E1E3ED" class="icon-light"/>
<path d="M13.1418 3.25C11.863 1.86638 10.0327 1 8 1C8.72595 1 9.37962 1.86634 9.83634 3.24996C10.2483 4.4979 10.5 6.16662 10.5 7.99996C10.5 8.29978 10.4933 8.59521 10.4802 8.88511C12.1684 8.72596 13.7081 8.40785 14.9999 7.97139C14.9927 6.14931 14.2892 4.49145 13.1418 3.25Z" fill="#E1E3ED" class="icon-light"/>
<path d="M15 8C15 9.83333 14.2952 11.5021 13.1418 12.75C11.863 14.1336 10.0327 15 8 15M15 8C15 7.99046 15 7.98092 14.9999 7.97139M15 8L14.9999 7.97139M8 1C10.0327 1 11.863 1.86638 13.1418 3.25C14.2892 4.49145 14.9927 6.14931 14.9999 7.97139M8 1C5.96734 1 4.13704 1.86638 2.85821 3.25C1.71079 4.49145 1.00735 6.14931 1.00006 7.97139M8 1C8.72595 1 9.37962 1.86634 9.83634 3.24996C10.2483 4.4979 10.5 6.16662 10.5 7.99996C10.5 8.29978 10.4933 8.59521 10.4802 8.88511M8 1C7.27405 1 6.62036 1.86634 6.16364 3.24996C5.7517 4.4979 5.49999 6.16662 5.49999 7.99996C5.49999 8.29978 5.50672 8.59521 5.51979 8.8851M1 8C1 9.83333 1.70479 11.5021 2.85821 12.75C4.13704 14.1336 5.96734 15 8 15M1 8C1 7.99046 1.00002 7.98092 1.00006 7.97139M1 8L1.00006 7.97139M8 15C7.27405 15 6.62036 14.1336 6.16364 12.75C5.81907 11.7061 5.58661 10.3678 5.51979 8.8851M8 15C8.72595 15 9.37962 14.1336 9.83634 12.75C10.1809 11.7061 10.4134 10.3678 10.4802 8.88511M14.9999 7.97139C13.7081 8.40785 12.1684 8.72596 10.4802 8.88511M1.00006 7.97139C2.29195 8.40785 3.8316 8.72595 5.51979 8.8851M5.51979 8.8851C6.31689 8.96025 7.14711 8.99996 8 8.99996C8.85288 8.99996 9.6831 8.96025 10.4802 8.88511" stroke="currentColor" stroke-width="2"/>
</svg>
