<svg viewBox="0 0 16 16" fill="none" xmlns="http://www.w3.org/2000/svg">
<g clip-path="url(#clip0_4607_8481)">
<path d="M14.9296 5.36804C14.5927 4.55734 13.9092 3.68201 13.374 3.4053C13.7557 4.14436 14.0206 4.93806 14.1593 5.75819L14.1607 5.77119C13.284 3.58637 11.7978 2.70404 10.5834 0.785322C10.522 0.688285 10.4605 0.591049 10.4007 0.48841C10.3665 0.429788 10.3391 0.376968 10.3153 0.32835C10.2649 0.230824 10.2261 0.127756 10.1996 0.0212349C10.1997 0.0163195 10.1979 0.011563 10.1947 0.00787289C10.1914 0.00418273 10.1869 0.00181715 10.182 0.00122741C10.1773 -8.36157e-05 10.1722 -8.36157e-05 10.1674 0.00122741C10.1664 0.00122741 10.1648 0.00302809 10.1636 0.00342824C10.1624 0.00382839 10.1598 0.00562906 10.158 0.00642936L10.161 0.00122741C8.2133 1.14166 7.55206 3.25245 7.49203 4.30884C6.71393 4.36219 5.96998 4.64882 5.35723 5.13135C5.29333 5.07722 5.22654 5.0266 5.15716 4.9797C4.98049 4.36125 4.97296 3.70673 5.13535 3.08438C4.42005 3.43087 3.78448 3.92208 3.26885 4.52693H3.26525C2.95793 4.13738 2.97954 2.8529 2.99715 2.5846C2.90623 2.62113 2.81945 2.66721 2.73825 2.72205C2.46695 2.91567 2.21334 3.13293 1.98037 3.37129C1.71488 3.64045 1.47241 3.93138 1.25549 4.24102V4.24222V4.24082C0.757014 4.94741 0.403414 5.74573 0.215104 6.5897L0.2047 6.64092C0.190095 6.70914 0.137475 7.05087 0.128472 7.1251C0.128472 7.1309 0.127271 7.1363 0.126671 7.14211C0.0587954 7.49491 0.0167348 7.85219 0.000823975 8.21111V8.25112C0.00425093 10.1916 0.735017 12.0602 2.04886 13.4882C3.36271 14.9162 5.16416 15.7997 7.0976 15.9644C9.03104 16.129 10.956 15.5629 12.4924 14.3777C14.0288 13.1925 15.0651 11.4743 15.3966 9.56241C15.4096 9.46238 15.4202 9.36334 15.4318 9.2623C15.5915 7.94219 15.4186 6.60309 14.9288 5.36684L14.9296 5.36804ZM5.99227 11.4383C6.02849 11.4557 6.0625 11.4745 6.09971 11.4911L6.10511 11.4945C6.0675 11.4765 6.02989 11.4578 5.99227 11.4383ZM14.1609 5.77339V5.76599L14.1623 5.77419L14.1609 5.77339Z" fill="url(#paint0_linear_4607_8481)"/>
<path d="M14.9296 5.36801C14.5927 4.55731 13.9093 3.68198 13.3741 3.40527C13.7557 4.14433 14.0206 4.93803 14.1593 5.75816V5.76556L14.1608 5.77376C14.7585 7.48422 14.6721 9.35953 13.9195 11.0077C13.0307 12.9146 10.8803 14.8692 7.51306 14.7731C3.87569 14.6701 0.670492 11.9701 0.0722676 8.43476C-0.0367733 7.87715 0.0722676 7.59445 0.127088 7.14128C0.0523102 7.49328 0.01058 7.85151 0.00244141 8.21128V8.25129C0.00586836 10.1917 0.736634 12.0604 2.05048 13.4883C3.36433 14.9163 5.16578 15.7999 7.09922 15.9645C9.03266 16.1292 10.9576 15.5631 12.494 14.3778C14.0304 13.1926 15.0667 11.4745 15.3982 9.56258C15.4112 9.46255 15.4218 9.36351 15.4334 9.26247C15.5932 7.94236 15.4202 6.60326 14.9304 5.36701L14.9296 5.36801Z" fill="url(#paint1_radial_4607_8481)"/>
<path d="M14.9296 5.36801C14.5927 4.55731 13.9093 3.68198 13.3741 3.40527C13.7557 4.14433 14.0206 4.93803 14.1593 5.75816V5.76556L14.1608 5.77376C14.7585 7.48422 14.6721 9.35953 13.9195 11.0077C13.0307 12.9146 10.8803 14.8692 7.51306 14.7731C3.87569 14.6701 0.670492 11.9701 0.0722676 8.43476C-0.0367733 7.87715 0.0722676 7.59445 0.127088 7.14128C0.0523102 7.49328 0.01058 7.85151 0.00244141 8.21128V8.25129C0.00586836 10.1917 0.736634 12.0604 2.05048 13.4883C3.36433 14.9163 5.16578 15.7999 7.09922 15.9645C9.03266 16.1292 10.9576 15.5631 12.494 14.3778C14.0304 13.1926 15.0667 11.4745 15.3982 9.56258C15.4112 9.46255 15.4218 9.36351 15.4334 9.26247C15.5932 7.94236 15.4202 6.60326 14.9304 5.36701L14.9296 5.36801Z" fill="url(#paint2_radial_4607_8481)"/>
<path d="M11.1602 6.27835C11.177 6.29016 11.1926 6.30196 11.2084 6.31377C11.0137 5.96838 10.7712 5.65215 10.4882 5.37442C8.07727 2.96351 9.85654 0.148456 10.1564 0.00440165L10.1594 0C8.21172 1.14043 7.55047 3.25122 7.49045 4.30762C7.58088 4.30141 7.67052 4.29381 7.76295 4.29381C8.45398 4.29515 9.13233 4.47944 9.72904 4.82794C10.3258 5.17644 10.8196 5.67674 11.1602 6.27795V6.27835Z" fill="url(#paint3_radial_4607_8481)"/>
<path d="M7.76693 6.76058C7.75413 6.95345 7.07267 7.6187 6.83438 7.6187C4.62956 7.6187 4.27142 8.9526 4.27142 8.9526C4.36906 10.0758 5.15175 11.0014 6.09791 11.4896C6.14112 11.512 6.18494 11.5322 6.22876 11.552C6.30465 11.5856 6.38055 11.6167 6.45644 11.6452C6.78116 11.7601 7.12126 11.8257 7.46542 11.8399C11.3309 12.0212 12.0792 7.21815 9.2899 5.82363C9.94786 5.73802 10.6142 5.8998 11.1596 6.2776C10.8189 5.67638 10.3251 5.17609 9.72843 4.82759C9.13171 4.47908 8.45336 4.29479 7.76233 4.29346C7.6703 4.29346 7.58026 4.30106 7.48983 4.30726C6.71173 4.36061 5.96777 4.64724 5.35503 5.12977C5.47327 5.22981 5.60672 5.36346 5.88783 5.64056C6.41403 6.15896 7.76353 6.69596 7.76653 6.75898L7.76693 6.76058Z" fill="url(#paint4_radial_4607_8481)"/>
<path d="M7.76693 6.76058C7.75413 6.95345 7.07267 7.6187 6.83438 7.6187C4.62956 7.6187 4.27142 8.9526 4.27142 8.9526C4.36906 10.0758 5.15175 11.0014 6.09791 11.4896C6.14112 11.512 6.18494 11.5322 6.22876 11.552C6.30465 11.5856 6.38055 11.6167 6.45644 11.6452C6.78116 11.7601 7.12126 11.8257 7.46542 11.8399C11.3309 12.0212 12.0792 7.21815 9.2899 5.82363C9.94786 5.73802 10.6142 5.8998 11.1596 6.2776C10.8189 5.67638 10.3251 5.17609 9.72843 4.82759C9.13171 4.47908 8.45336 4.29479 7.76233 4.29346C7.6703 4.29346 7.58026 4.30106 7.48983 4.30726C6.71173 4.36061 5.96777 4.64724 5.35503 5.12977C5.47327 5.22981 5.60672 5.36346 5.88783 5.64056C6.41403 6.15896 7.76353 6.69596 7.76653 6.75898L7.76693 6.76058Z" fill="url(#paint5_radial_4607_8481)"/>
<path d="M4.9939 4.87379C5.05673 4.9138 5.10855 4.94862 5.15396 4.98003C4.9773 4.36158 4.96976 3.70706 5.13216 3.08472C4.41686 3.43121 3.78128 3.92242 3.26566 4.52726C3.30347 4.52626 4.42829 4.50605 4.9939 4.87379Z" fill="url(#paint6_radial_4607_8481)"/>
<path d="M0.070848 8.43524C0.669272 11.9706 3.87427 14.6716 7.51164 14.7736C10.8789 14.8689 13.0297 12.9141 13.918 11.0082C14.6707 9.36001 14.7571 7.4847 14.1593 5.77424V5.76684C14.1593 5.76104 14.1581 5.75764 14.1593 5.75944L14.1607 5.77244C14.4358 7.56851 13.5223 9.30777 12.094 10.4862L12.0896 10.4962C9.30651 12.7631 6.64351 11.8635 6.10531 11.4966C6.0677 11.4786 6.03008 11.4598 5.99247 11.4404C4.37006 10.6649 3.69961 9.18752 3.84366 7.91905C3.45854 7.92473 3.08003 7.8186 2.754 7.61353C2.42797 7.40845 2.16841 7.11322 2.00677 6.76361C2.43269 6.5027 2.91833 6.35521 3.41741 6.33517C3.91649 6.31514 4.41238 6.42324 4.85784 6.64917C5.77604 7.06595 6.82085 7.10702 7.76894 6.76361C7.76593 6.70059 6.41643 6.16339 5.89023 5.64519C5.60912 5.36809 5.47567 5.23464 5.35743 5.1344C5.29353 5.08027 5.22674 5.02965 5.15736 4.98274C5.11134 4.95133 5.05952 4.91732 4.9973 4.8765C4.43168 4.50877 3.30686 4.52897 3.26965 4.52998H3.26605C2.95873 4.14043 2.98034 2.85595 2.99795 2.58765C2.90703 2.62418 2.82025 2.67026 2.73905 2.7251C2.46775 2.91872 2.21413 3.13598 1.98116 3.37434C1.71473 3.64275 1.47126 3.933 1.25329 4.24207V4.24327V4.24187C0.754811 4.94846 0.401211 5.74678 0.212901 6.59075C0.2091 6.60655 -0.0664035 7.81101 0.0694474 8.43564L0.070848 8.43524Z" fill="url(#paint7_radial_4607_8481)"/>
<path d="M10.488 5.37394C10.771 5.65198 11.0135 5.96855 11.2082 6.31429C11.2508 6.3465 11.2907 6.37851 11.3245 6.40952C13.0825 8.03013 12.1614 10.321 12.0928 10.4831C13.5209 9.30641 14.4336 7.56596 14.1595 5.76929C13.2824 3.58247 11.7946 2.70013 10.5822 0.781415C10.5208 0.684379 10.4593 0.587142 10.3995 0.484504C10.3653 0.425882 10.3379 0.373062 10.3141 0.324444C10.2637 0.226918 10.2249 0.123849 10.1984 0.0173287C10.1985 0.0124133 10.1967 0.00765679 10.1935 0.00396663C10.1902 0.000276476 10.1857 -0.0020891 10.1808 -0.00267884C10.1761 -0.00398987 10.171 -0.00398987 10.1662 -0.00267884C10.1652 -0.00267884 10.1636 -0.000878165 10.1624 -0.000478015C10.1612 -7.78651e-05 10.1586 0.00172281 10.1568 0.00252311C9.85691 0.144776 8.07805 2.96163 10.489 5.37054L10.488 5.37394Z" fill="url(#paint8_radial_4607_8481)"/>
<path d="M11.3243 6.41047C11.2905 6.37946 11.2506 6.34745 11.208 6.31523C11.1922 6.30343 11.1766 6.29163 11.1598 6.27982C10.6144 5.90202 9.94807 5.74024 9.29011 5.82585C12.0792 7.22037 11.3309 12.0222 7.46563 11.8421C7.12147 11.828 6.78137 11.7623 6.45665 11.6474C6.38075 11.619 6.30486 11.5879 6.22896 11.5542C6.18515 11.5342 6.14133 11.5142 6.09811 11.4918L6.10352 11.4952C6.64252 11.8631 9.30472 12.7621 12.0878 10.4948L12.0922 10.4848C12.1616 10.3227 13.0827 8.03188 11.3239 6.41127L11.3243 6.41047Z" fill="url(#paint9_radial_4607_8481)"/>
<path d="M4.27162 8.95143C4.27162 8.95143 4.62956 7.61753 6.83458 7.61753C7.07287 7.61753 7.75493 6.95228 7.76713 6.75941C6.81905 7.10282 5.77424 7.06174 4.85604 6.64496C4.41058 6.41903 3.91469 6.31093 3.41561 6.33097C2.91653 6.351 2.43089 6.4985 2.00497 6.75941C2.16661 7.10901 2.42617 7.40424 2.7522 7.60932C3.07823 7.8144 3.45674 7.92052 3.84186 7.91484C3.69821 9.18272 4.36846 10.6599 5.99067 11.4362C6.02688 11.4536 6.06089 11.4724 6.09811 11.489C5.15115 10.9998 4.36926 10.0747 4.27162 8.95203V8.95143Z" fill="url(#paint10_radial_4607_8481)"/>
<path d="M14.9296 5.36804C14.5927 4.55734 13.9092 3.68201 13.374 3.4053C13.7557 4.14436 14.0206 4.93806 14.1593 5.75819L14.1607 5.77119C13.284 3.58637 11.7979 2.70404 10.5834 0.785322C10.522 0.688285 10.4605 0.591049 10.4007 0.48841C10.3665 0.429788 10.3391 0.376968 10.3153 0.32835C10.2649 0.230824 10.2261 0.127756 10.1997 0.0212349C10.1997 0.0163195 10.1979 0.011563 10.1947 0.00787289C10.1914 0.00418273 10.1869 0.00181715 10.182 0.00122741C10.1773 -8.36157e-05 10.1722 -8.36157e-05 10.1674 0.00122741C10.1664 0.00122741 10.1648 0.00302809 10.1636 0.00342824C10.1624 0.00382839 10.1598 0.00562906 10.158 0.00642936L10.161 0.00122741C8.2133 1.14166 7.55206 3.25245 7.49203 4.30884C7.58247 4.30264 7.6721 4.29504 7.76454 4.29504C8.45556 4.29637 9.13392 4.48066 9.73063 4.82917C10.3273 5.17767 10.8211 5.67796 11.1618 6.27918C10.6164 5.90138 9.95007 5.7396 9.29211 5.82521C12.0812 7.21974 11.3329 12.0215 7.46762 11.8415C7.12347 11.8273 6.78336 11.7617 6.45865 11.6468C6.38275 11.6184 6.30686 11.5873 6.23096 11.5536C6.18714 11.5336 6.14333 11.5135 6.10011 11.4911L6.10551 11.4945C6.0679 11.4765 6.03028 11.4578 5.99267 11.4383C6.02888 11.4557 6.0629 11.4745 6.10011 11.4911C5.15316 11.0018 4.37126 10.0766 4.27363 8.95419C4.27363 8.95419 4.63156 7.62029 6.83659 7.62029C7.07488 7.62029 7.75693 6.95504 7.76914 6.76216C7.76614 6.69914 6.41663 6.16194 5.89043 5.64374C5.60933 5.36664 5.47588 5.23319 5.35763 5.13295C5.29373 5.07882 5.22694 5.0282 5.15756 4.9813C4.98089 4.36285 4.97336 3.70833 5.13575 3.08598C4.42045 3.43247 3.78488 3.92369 3.26925 4.52853H3.26565C2.95833 4.13898 2.97994 2.8545 2.99755 2.5862C2.90663 2.62274 2.81985 2.66881 2.73865 2.72365C2.46735 2.91727 2.21373 3.13453 1.98076 3.37289C1.71528 3.64205 1.47281 3.93298 1.25589 4.24262V4.24382V4.24242C0.757411 4.94901 0.403811 5.74733 0.215501 6.5913L0.205097 6.64252C0.190492 6.71074 0.125067 7.05727 0.115664 7.1317C0.0558214 7.48941 0.0176043 7.8504 0.0012207 8.21271V8.25272C0.00464766 10.1932 0.735414 12.0618 2.04926 13.4898C3.36311 14.9178 5.16456 15.8013 7.098 15.966C9.03144 16.1306 10.9564 15.5645 12.4928 14.3793C14.0292 13.1941 15.0655 11.4759 15.397 9.56401C15.41 9.46398 15.4206 9.36494 15.4322 9.2639C15.5919 7.94379 15.419 6.60469 14.9292 5.36844L14.9296 5.36804ZM14.1603 5.76639L14.1617 5.77459L14.1603 5.76639Z" fill="url(#paint11_linear_4607_8481)"/>
</g>
<defs>
<linearGradient id="paint0_linear_4607_8481" x1="13.9032" y1="2.47814" x2="1.02981" y2="14.8988" gradientUnits="userSpaceOnUse">
<stop offset="0.048" stop-color="#FFF44F"/>
<stop offset="0.111" stop-color="#FFE847"/>
<stop offset="0.225" stop-color="#FFC830"/>
<stop offset="0.368" stop-color="#FF980E"/>
<stop offset="0.401" stop-color="#FF8B16"/>
<stop offset="0.462" stop-color="#FF672A"/>
<stop offset="0.534" stop-color="#FF3647"/>
<stop offset="0.705" stop-color="#E31587"/>
</linearGradient>
<radialGradient id="paint1_radial_4607_8481" cx="0" cy="0" r="1" gradientUnits="userSpaceOnUse" gradientTransform="translate(13.4051 1.80067) scale(16.1661 16.1661)">
<stop offset="0.129" stop-color="#FFBD4F"/>
<stop offset="0.186" stop-color="#FFAC31"/>
<stop offset="0.247" stop-color="#FF9D17"/>
<stop offset="0.283" stop-color="#FF980E"/>
<stop offset="0.403" stop-color="#FF563B"/>
<stop offset="0.467" stop-color="#FF3750"/>
<stop offset="0.71" stop-color="#F5156C"/>
<stop offset="0.782" stop-color="#EB0878"/>
<stop offset="0.86" stop-color="#E50080"/>
</radialGradient>
<radialGradient id="paint2_radial_4607_8481" cx="0" cy="0" r="1" gradientUnits="userSpaceOnUse" gradientTransform="translate(7.40282 8.40315) scale(16.1661 16.1661)">
<stop offset="0.3" stop-color="#960E18"/>
<stop offset="0.351" stop-color="#B11927" stop-opacity="0.74"/>
<stop offset="0.435" stop-color="#DB293D" stop-opacity="0.343"/>
<stop offset="0.497" stop-color="#F5334B" stop-opacity="0.094"/>
<stop offset="0.53" stop-color="#FF3750" stop-opacity="0"/>
</radialGradient>
<radialGradient id="paint3_radial_4607_8481" cx="0" cy="0" r="1" gradientUnits="userSpaceOnUse" gradientTransform="translate(9.40357 -1.80068) scale(11.7104 11.7104)">
<stop offset="0.132" stop-color="#FFF44F"/>
<stop offset="0.252" stop-color="#FFDC3E"/>
<stop offset="0.506" stop-color="#FF9D12"/>
<stop offset="0.526" stop-color="#FF980E"/>
</radialGradient>
<radialGradient id="paint4_radial_4607_8481" cx="0" cy="0" r="1" gradientUnits="userSpaceOnUse" gradientTransform="translate(5.60212 12.6048) scale(7.69689)">
<stop offset="0.353" stop-color="#3A8EE6"/>
<stop offset="0.472" stop-color="#5C79F0"/>
<stop offset="0.669" stop-color="#9059FF"/>
<stop offset="1" stop-color="#C139E6"/>
</radialGradient>
<radialGradient id="paint5_radial_4607_8481" cx="0" cy="0" r="1" gradientUnits="userSpaceOnUse" gradientTransform="translate(8.18469 7.01548) rotate(-13.5916) scale(4.08155 4.77848)">
<stop offset="0.206" stop-color="#9059FF" stop-opacity="0"/>
<stop offset="0.278" stop-color="#8C4FF3" stop-opacity="0.064"/>
<stop offset="0.747" stop-color="#7716A8" stop-opacity="0.45"/>
<stop offset="0.975" stop-color="#6E008B" stop-opacity="0.6"/>
</radialGradient>
<radialGradient id="paint6_radial_4607_8481" cx="0" cy="0" r="1" gradientUnits="userSpaceOnUse" gradientTransform="translate(7.20273 1.20041) scale(5.53808 5.53808)">
<stop stop-color="#FFE226"/>
<stop offset="0.121" stop-color="#FFDB27"/>
<stop offset="0.295" stop-color="#FFC82A"/>
<stop offset="0.502" stop-color="#FFA930"/>
<stop offset="0.732" stop-color="#FF7E37"/>
<stop offset="0.792" stop-color="#FF7139"/>
</radialGradient>
<radialGradient id="paint7_radial_4607_8481" cx="0" cy="0" r="1" gradientUnits="userSpaceOnUse" gradientTransform="translate(11.6044 -2.40083) scale(23.6289 23.6289)">
<stop offset="0.113" stop-color="#FFF44F"/>
<stop offset="0.456" stop-color="#FF980E"/>
<stop offset="0.622" stop-color="#FF5634"/>
<stop offset="0.716" stop-color="#FF3647"/>
<stop offset="0.904" stop-color="#E31587"/>
</radialGradient>
<radialGradient id="paint8_radial_4607_8481" cx="0" cy="0" r="1" gradientUnits="userSpaceOnUse" gradientTransform="translate(9.64043 -1.09089) rotate(83.976) scale(17.3156 11.3641)">
<stop stop-color="#FFF44F"/>
<stop offset="0.06" stop-color="#FFE847"/>
<stop offset="0.168" stop-color="#FFC830"/>
<stop offset="0.304" stop-color="#FF980E"/>
<stop offset="0.356" stop-color="#FF8B16"/>
<stop offset="0.455" stop-color="#FF672A"/>
<stop offset="0.57" stop-color="#FF3647"/>
<stop offset="0.737" stop-color="#E31587"/>
</radialGradient>
<radialGradient id="paint9_radial_4607_8481" cx="0" cy="0" r="1" gradientUnits="userSpaceOnUse" gradientTransform="translate(7.20273 3.20127) scale(14.7495)">
<stop offset="0.137" stop-color="#FFF44F"/>
<stop offset="0.48" stop-color="#FF980E"/>
<stop offset="0.592" stop-color="#FF5634"/>
<stop offset="0.655" stop-color="#FF3647"/>
<stop offset="0.904" stop-color="#E31587"/>
</radialGradient>
<radialGradient id="paint10_radial_4607_8481" cx="0" cy="0" r="1" gradientUnits="userSpaceOnUse" gradientTransform="translate(11.0041 4.00157) scale(16.144 16.1441)">
<stop offset="0.094" stop-color="#FFF44F"/>
<stop offset="0.231" stop-color="#FFE141"/>
<stop offset="0.509" stop-color="#FFAF1E"/>
<stop offset="0.626" stop-color="#FF980E"/>
</radialGradient>
<linearGradient id="paint11_linear_4607_8481" x1="13.7472" y1="2.41211" x2="2.79507" y2="13.3662" gradientUnits="userSpaceOnUse">
<stop offset="0.167" stop-color="#FFF44F" stop-opacity="0.8"/>
<stop offset="0.266" stop-color="#FFF44F" stop-opacity="0.634"/>
<stop offset="0.489" stop-color="#FFF44F" stop-opacity="0.217"/>
<stop offset="0.6" stop-color="#FFF44F" stop-opacity="0"/>
</linearGradient>
<clipPath id="clip0_4607_8481">
<rect width="15.4898" height="16" fill="white"/>
</clipPath>
</defs>
</svg>
