<svg viewBox="0 0 16 16" fill="none" xmlns="http://www.w3.org/2000/svg">
<path d="M7.99998 16C12.4183 16 16 12.4183 16 8C16 3.58172 12.4183 0 7.99998 0C3.58171 0 -1.52588e-05 3.58172 -1.52588e-05 8C-1.52588e-05 12.4183 3.58171 16 7.99998 16Z" fill="#2B2E3A" class="icon-dark"/>
<path d="M6.28136 4.48063C4.65605 4.18463 3.37092 4.49444 2.85874 5.38156C2.47655 6.04356 2.5858 6.92125 3.12374 7.85944C3.13436 7.87892 3.14876 7.89609 3.16611 7.90994C3.18345 7.92378 3.20339 7.93402 3.22475 7.94006C3.2461 7.94609 3.26845 7.94781 3.29047 7.94509C3.3125 7.94238 3.33376 7.93529 3.35301 7.92425C3.37227 7.91321 3.38912 7.89844 3.40258 7.8808C3.41605 7.86316 3.42586 7.843 3.43143 7.82152C3.43701 7.80004 3.43824 7.77766 3.43505 7.7557C3.43186 7.73374 3.42431 7.71264 3.41286 7.69363C2.92836 6.8485 2.83405 6.09106 3.14742 5.54825C3.57292 4.81131 4.71917 4.53494 6.22161 4.80856C6.26478 4.81575 6.30905 4.80567 6.34486 4.7805C6.38066 4.75532 6.40513 4.71708 6.41297 4.67402C6.42082 4.63096 6.41141 4.58654 6.38679 4.55036C6.36216 4.51417 6.3243 4.48913 6.28136 4.48063ZM3.96892 8.99981C4.62611 9.722 5.47992 10.3994 6.45367 10.9616C8.81136 12.3228 11.3214 12.6866 12.5584 11.8432C12.5769 11.831 12.5928 11.8153 12.6051 11.797C12.6175 11.7786 12.6261 11.758 12.6304 11.7363C12.6347 11.7145 12.6346 11.6922 12.6302 11.6705C12.6257 11.6488 12.617 11.6282 12.6046 11.6099C12.5921 11.5917 12.5761 11.576 12.5575 11.564C12.539 11.552 12.5182 11.5437 12.4964 11.5398C12.4746 11.5359 12.4523 11.5363 12.4307 11.5412C12.409 11.546 12.3886 11.555 12.3705 11.5678C11.2634 12.3227 8.87917 11.9771 6.62036 10.6729C5.67574 10.1276 4.84892 9.47156 4.21548 8.77544C4.20078 8.75915 4.183 8.74593 4.16317 8.73653C4.14334 8.72713 4.12185 8.72174 4.09994 8.72066C4.07802 8.71958 4.0561 8.72285 4.03545 8.73026C4.0148 8.73768 3.99581 8.74909 3.97958 8.76386C3.96335 8.77863 3.95019 8.79646 3.94087 8.81633C3.93155 8.83619 3.92624 8.8577 3.92525 8.87963C3.92426 8.90155 3.92761 8.92345 3.9351 8.94407C3.9426 8.9647 3.95409 8.98364 3.96892 8.99981Z" fill="#9FEAF9" class="icon-dark"/>
<path d="M12.1637 8.79706C13.228 7.53981 13.5996 6.27531 13.0884 5.39006C12.7124 4.73862 11.9173 4.39469 10.8606 4.38094C10.8168 4.381 10.7748 4.3983 10.7437 4.42908C10.7125 4.45987 10.6948 4.50168 10.6942 4.54547C10.6936 4.58925 10.7103 4.63151 10.7406 4.66309C10.771 4.69467 10.8125 4.71305 10.8563 4.71425C11.8066 4.72662 12.4916 5.02293 12.7998 5.55675C13.2243 6.29206 12.8929 7.41969 11.9093 8.58169C11.8949 8.59835 11.8839 8.61772 11.877 8.63866C11.8701 8.6596 11.8674 8.6817 11.8691 8.70368C11.8708 8.72566 11.8769 8.74709 11.8869 8.76672C11.897 8.78634 11.9108 8.80379 11.9276 8.81803C11.9444 8.83227 11.9639 8.84304 11.9849 8.8497C12.006 8.85636 12.0281 8.85879 12.0501 8.85684C12.072 8.85489 12.0934 8.8486 12.1129 8.83834C12.1324 8.82808 12.1497 8.81405 12.1637 8.79706ZM9.42868 4.53612C8.46643 4.74231 7.44218 5.14544 6.45855 5.71331C4.02468 7.1185 2.43699 9.19056 2.65749 10.693C2.66043 10.7149 2.66768 10.7359 2.67882 10.755C2.68996 10.774 2.70477 10.7906 2.72239 10.8039C2.74001 10.8172 2.76009 10.8268 2.78146 10.8323C2.80284 10.8377 2.82508 10.8389 2.84691 10.8357C2.86874 10.8325 2.88971 10.825 2.90861 10.8136C2.92751 10.8022 2.94397 10.7872 2.95703 10.7695C2.97009 10.7517 2.97949 10.7315 2.98469 10.71C2.98988 10.6886 2.99077 10.6663 2.9873 10.6446C2.79149 9.31056 4.29649 7.3465 6.62524 6.002C7.57943 5.45106 8.57118 5.06075 9.49849 4.86206C9.52019 4.85778 9.54082 4.84923 9.55919 4.8369C9.57755 4.82456 9.59327 4.8087 9.60544 4.79023C9.61761 4.77176 9.62599 4.75105 9.63007 4.72931C9.63416 4.70757 9.63388 4.68524 9.62924 4.66361C9.62461 4.64198 9.61572 4.62149 9.60309 4.60333C9.59046 4.58517 9.57434 4.56971 9.55567 4.55784C9.537 4.54598 9.51616 4.53795 9.49436 4.53422C9.47255 4.53049 9.45023 4.53114 9.42868 4.53612Z" fill="#9FEAF9" class="icon-dark"/>
<path d="M5.48561 11.7346C6.04211 13.2883 6.95242 14.245 7.97605 14.245C8.72261 14.245 9.4133 13.7361 9.95192 12.8401C9.96358 12.8214 9.97139 12.8005 9.9749 12.7786C9.97841 12.7568 9.97754 12.7345 9.97236 12.7131C9.96718 12.6916 9.95778 12.6713 9.9447 12.6535C9.93163 12.6357 9.91515 12.6207 9.89621 12.6093C9.87728 12.5979 9.85627 12.5904 9.8344 12.5872C9.81254 12.584 9.79027 12.5852 9.76887 12.5907C9.74747 12.5962 9.72737 12.6059 9.70975 12.6192C9.69213 12.6326 9.67734 12.6493 9.66623 12.6684C9.18217 13.4736 8.58761 13.9116 7.97605 13.9116C7.12573 13.9116 6.3138 13.0584 5.79948 11.6222C5.79244 11.6012 5.78127 11.5818 5.76663 11.5651C5.75199 11.5485 5.73417 11.5349 5.71422 11.5252C5.69427 11.5156 5.67259 11.5099 5.65045 11.5087C5.6283 11.5075 5.60614 11.5108 5.58526 11.5183C5.56438 11.5257 5.5452 11.5373 5.52885 11.5523C5.51249 11.5672 5.49929 11.5853 5.49002 11.6055C5.48074 11.6256 5.47558 11.6474 5.47484 11.6696C5.47409 11.6917 5.47771 11.7138 5.48561 11.7346ZM10.5682 11.4306C10.8564 10.5101 11.011 9.44824 11.011 8.34168C11.011 5.58049 10.0446 3.20024 8.66811 2.58906C8.6279 2.57221 8.58269 2.5718 8.54217 2.58789C8.50166 2.60399 8.46906 2.63532 8.45137 2.67516C8.43368 2.71501 8.4323 2.7602 8.44753 2.80105C8.46277 2.8419 8.4934 2.87515 8.53286 2.89368C9.76055 3.43887 10.6777 5.69781 10.6777 8.34168C10.6777 9.41524 10.5279 10.4436 10.2502 11.3311C10.2433 11.352 10.2406 11.3742 10.2424 11.3962C10.2441 11.4182 10.2502 11.4397 10.2603 11.4593C10.2704 11.479 10.2843 11.4964 10.3012 11.5106C10.3181 11.5249 10.3377 11.5356 10.3587 11.5422C10.3798 11.5488 10.402 11.5511 10.424 11.5491C10.446 11.547 10.4674 11.5406 10.4869 11.5302C10.5064 11.5199 10.5236 11.5057 10.5376 11.4886C10.5516 11.4715 10.5619 11.4518 10.5682 11.4306ZM13.7072 11.2674C13.7072 10.8268 13.3501 10.4697 12.9095 10.4697C12.469 10.4697 12.1119 10.8268 12.1119 11.2674C12.1119 11.7079 12.469 12.0651 12.9095 12.0651C13.3501 12.0651 13.7072 11.7079 13.7072 11.2674ZM13.3739 11.2674C13.3739 11.3284 13.3619 11.3887 13.3386 11.4451C13.3152 11.5014 13.281 11.5526 13.2379 11.5957C13.1948 11.6389 13.1436 11.6731 13.0873 11.6964C13.0309 11.7197 12.9705 11.7317 12.9095 11.7317C12.8486 11.7317 12.7882 11.7197 12.7318 11.6964C12.6755 11.6731 12.6243 11.6389 12.5812 11.5957C12.5381 11.5526 12.5039 11.5014 12.4805 11.4451C12.4572 11.3887 12.4452 11.3284 12.4452 11.2674C12.4452 11.1442 12.4941 11.0261 12.5812 10.939C12.6683 10.8519 12.7864 10.803 12.9095 10.803C13.0327 10.803 13.1508 10.8519 13.2379 10.939C13.325 11.0261 13.3739 11.1442 13.3739 11.2674ZM3.03105 12.0651C3.47167 12.0651 3.8288 11.7079 3.8288 11.2674C3.8288 10.8268 3.47161 10.4697 3.03105 10.4697C2.59055 10.4697 2.23336 10.8268 2.23336 11.2674C2.23336 11.7079 2.59055 12.0651 3.03105 12.0651ZM3.03105 11.7317C2.90789 11.7317 2.78977 11.6828 2.70269 11.5957C2.6156 11.5086 2.56667 11.3905 2.56667 11.2674C2.56667 11.1442 2.6156 11.0261 2.70269 10.939C2.78977 10.8519 2.90789 10.803 3.03105 10.803C3.15421 10.803 3.27232 10.8519 3.35941 10.939C3.4465 11.0261 3.49542 11.1442 3.49542 11.2674C3.49542 11.3905 3.4465 11.5086 3.35941 11.5957C3.27232 11.6828 3.15421 11.7317 3.03105 11.7317Z" fill="#9FEAF9" class="icon-dark"/>
<path d="M7.97605 3.40275C8.41661 3.40275 8.77374 3.04562 8.77374 2.60506C8.77374 2.1645 8.41661 1.80737 7.97605 1.80737C7.53549 1.80737 7.17836 2.1645 7.17836 2.60506C7.17836 3.04562 7.53549 3.40275 7.97605 3.40275ZM7.97605 3.06944C7.85289 3.06944 7.73477 3.02051 7.64769 2.93342C7.5606 2.84634 7.51167 2.72822 7.51167 2.60506C7.51167 2.4819 7.5606 2.36378 7.64769 2.2767C7.73477 2.18961 7.85289 2.14069 7.97605 2.14069C8.09921 2.14069 8.21733 2.18961 8.30441 2.2767C8.3915 2.36378 8.44042 2.4819 8.44042 2.60506C8.44042 2.72822 8.3915 2.84634 8.30441 2.93342C8.21733 3.02051 8.09921 3.06944 7.97605 3.06944ZM8.09786 8.90581C7.7863 8.97312 7.47936 8.77512 7.41192 8.46356C7.37963 8.31395 7.40808 8.15763 7.49101 8.02899C7.57395 7.90035 7.70457 7.80991 7.85417 7.77756C8.16574 7.71025 8.47268 7.90825 8.54018 8.21981C8.60749 8.53137 8.40949 8.83837 8.09786 8.90581Z" fill="#9FEAF9" class="icon-dark"/>
</svg>
