<svg viewBox="0 0 16 16" fill="none" xmlns="http://www.w3.org/2000/svg">
<path d="M16 8C16 10.1217 15.1571 12.1566 13.6569 13.6569C12.1566 15.1571 10.1217 16 8 16C5.87827 16 3.84344 15.1571 2.34315 13.6569C0.842855 12.1566 7.34912e-08 10.1217 0 8C7.34912e-08 5.87827 0.842855 3.84344 2.34315 2.34315C3.84344 0.842855 5.87827 7.34912e-08 8 0C10.1217 7.34912e-08 12.1566 0.842855 13.6569 2.34315C15.1571 3.84344 16 5.87827 16 8Z" fill="url(#paint0_radial_4665_8423)"/>
<path d="M7.99998 0.417236C7.93536 0.417236 7.88334 0.469252 7.88334 0.533871V1.87924C7.88334 1.94386 7.93536 1.99587 7.99998 1.99587C8.0646 1.99587 8.11662 1.94386 8.11662 1.87924V0.533871C8.11662 0.469252 8.0646 0.417236 7.99998 0.417236ZM7.23694 0.465463C7.22921 0.464632 7.22126 0.464632 7.21322 0.46556C7.14895 0.472266 7.10261 0.5294 7.10932 0.59367L7.16811 1.15651C7.17482 1.22078 7.23196 1.26713 7.29623 1.26041C7.3605 1.25371 7.40685 1.19657 7.40013 1.1323L7.34138 0.569464C7.33551 0.513227 7.29102 0.470714 7.23693 0.465463H7.23694ZM8.76835 0.466017C8.71426 0.471226 8.66976 0.513734 8.66385 0.569963L8.60465 1.13276C8.59789 1.19702 8.64424 1.25421 8.7085 1.26097C8.77277 1.26773 8.8299 1.22143 8.83666 1.15717L8.89586 0.59433C8.90262 0.530065 8.85627 0.472921 8.79201 0.466165C8.78397 0.465334 8.77608 0.465334 8.76835 0.466021V0.466017ZM6.45311 0.579125C6.44535 0.579186 6.43745 0.579957 6.42956 0.58162C6.36634 0.595004 6.32621 0.656686 6.3396 0.719903L6.61823 2.03607C6.63161 2.09929 6.69329 2.13941 6.75651 2.12603C6.81972 2.11264 6.85985 2.05101 6.84647 1.98779L6.56784 0.671579C6.55612 0.616262 6.50745 0.57863 6.45312 0.579054L6.45311 0.579125ZM9.55213 0.580237C9.49779 0.579683 9.44911 0.617351 9.43736 0.672657L9.15777 1.98867C9.14433 2.05188 9.18443 2.11358 9.24763 2.127C9.31084 2.14044 9.37254 2.10035 9.38596 2.03715L9.66555 0.721129C9.67899 0.657923 9.63889 0.596225 9.57569 0.5828C9.56779 0.581137 9.5599 0.580305 9.55214 0.580305L9.55213 0.580237ZM5.70507 0.790045C5.68996 0.788659 5.67437 0.790324 5.659 0.795423C5.59755 0.815402 5.56413 0.880906 5.58411 0.942361L5.75898 1.48059C5.77896 1.54205 5.84452 1.57546 5.90597 1.55549C5.96743 1.53551 6.0008 1.46996 5.98083 1.4085L5.80595 0.870279C5.79099 0.824186 5.75037 0.793888 5.70507 0.790036V0.790045ZM10.2959 0.790324C10.2506 0.794175 10.21 0.824472 10.1951 0.870562L10.0201 1.40874C10.0001 1.47019 10.0335 1.53575 10.0949 1.55573C10.1564 1.57571 10.222 1.54232 10.2419 1.48088L10.4169 0.942649C10.4369 0.881194 10.4035 0.815636 10.3421 0.79566C10.3267 0.790672 10.311 0.789036 10.2959 0.790311V0.790324ZM4.96533 1.06075C4.95018 1.06102 4.93484 1.06435 4.92008 1.07091C4.86107 1.09716 4.83463 1.1658 4.86088 1.22485L5.40732 2.45423C5.43356 2.51328 5.5022 2.53968 5.56125 2.51343C5.62026 2.48719 5.64675 2.41854 5.6205 2.35949L5.07402 1.13011C5.05434 1.08583 5.01079 1.05986 4.96533 1.06075ZM11.044 1.06487C10.9986 1.06404 10.955 1.08984 10.9353 1.13409L10.3872 2.36272C10.3608 2.42173 10.3871 2.49043 10.4462 2.51675C10.5052 2.54308 10.5739 2.51677 10.6002 2.45776L11.1483 1.22913C11.1746 1.17012 11.1483 1.10142 11.0893 1.07509C11.0745 1.06853 11.0592 1.0652 11.044 1.06487V1.06487ZM4.27871 1.42405C4.25632 1.42238 4.23324 1.42737 4.21226 1.4395C4.1563 1.47181 4.13726 1.54287 4.16957 1.59883L4.45253 2.08893C4.48484 2.1449 4.55589 2.16393 4.61186 2.13162C4.66782 2.09931 4.68685 2.02826 4.65454 1.97229L4.37159 1.4822C4.35139 1.44722 4.31603 1.42666 4.27871 1.42405V1.42405ZM11.7212 1.42405C11.6839 1.42654 11.6486 1.44721 11.6284 1.48219L11.3454 1.97229C11.3131 2.02825 11.3322 2.0993 11.3882 2.13161C11.4441 2.16392 11.5152 2.14488 11.5475 2.08892L11.8304 1.59882C11.8627 1.54286 11.8437 1.4718 11.7877 1.4395C11.7668 1.42739 11.7436 1.42248 11.7212 1.42404V1.42405ZM3.61197 1.83989C3.58952 1.84072 3.56705 1.84793 3.54743 1.86215C3.49513 1.90009 3.48357 1.97274 3.52152 2.02504L4.31149 3.11403C4.34944 3.16633 4.42214 3.1779 4.47444 3.13996C4.52675 3.10202 4.53831 3.02937 4.50035 2.97706L3.71033 1.88808C3.68661 1.85539 3.64935 1.83863 3.61197 1.8399V1.83989ZM12.3963 1.84582C12.359 1.84444 12.3217 1.8612 12.2979 1.89385L11.5065 2.98178C11.4684 3.03403 11.4799 3.10671 11.5322 3.14473C11.5844 3.18274 11.6571 3.1713 11.6951 3.11906L12.4865 2.03114C12.5246 1.97888 12.5131 1.9062 12.4608 1.86819C12.4412 1.85394 12.4188 1.84663 12.3963 1.84582ZM3.016 2.3397C2.98623 2.33804 2.95585 2.34798 2.93184 2.3696C2.88381 2.41283 2.87995 2.48629 2.92319 2.53431L3.30184 2.95495C3.34507 3.00297 3.41852 3.00683 3.46655 2.96359C3.51458 2.92036 3.51844 2.84686 3.4752 2.79883L3.0966 2.37825C3.07499 2.35422 3.04578 2.34125 3.016 2.33969V2.3397ZM12.9848 2.34053C12.955 2.34219 12.9258 2.35508 12.9042 2.37909L12.5256 2.79962C12.4823 2.84765 12.4861 2.92115 12.5342 2.96438C12.5822 3.00762 12.6557 3.00375 12.6989 2.95574L13.0776 2.53521C13.1208 2.48718 13.117 2.41368 13.0689 2.37045C13.0449 2.34883 13.0146 2.33898 12.9848 2.34054L12.9848 2.34053ZM2.44481 2.88837C2.41503 2.89003 2.38588 2.90292 2.36426 2.92693C2.32103 2.97496 2.3249 3.04841 2.37291 3.09164L3.37279 3.99175C3.42082 4.03499 3.49427 4.03112 3.5375 3.98311C3.58073 3.93508 3.57692 3.86163 3.52888 3.81839L2.52895 2.91828C2.50492 2.89667 2.47456 2.88682 2.44478 2.88838L2.44481 2.88837ZM13.5588 2.8923C13.529 2.89064 13.4986 2.90056 13.4746 2.92216L12.4741 3.82157C12.426 3.86476 12.4221 3.93822 12.4653 3.98628C12.5085 4.03433 12.582 4.03823 12.63 3.99503L13.6306 3.09562C13.6786 3.05242 13.6825 2.97897 13.6393 2.93091C13.6177 2.90689 13.5885 2.89389 13.5588 2.8923H13.5588ZM1.9698 3.49915C1.93241 3.49776 1.89513 3.51461 1.8714 3.54727C1.83341 3.59955 1.84493 3.67218 1.89722 3.71017L2.35505 4.04281C2.40733 4.08079 2.47996 4.06932 2.51795 4.01704C2.55593 3.96476 2.54444 3.89207 2.49218 3.85409L2.03434 3.52145C2.01475 3.50721 1.99225 3.49994 1.96981 3.49914L1.9698 3.49915ZM14.0333 3.50339C14.0109 3.50422 13.9884 3.51139 13.9688 3.52563L13.5107 3.85798C13.4584 3.89593 13.4469 3.96862 13.4848 4.02093C13.5228 4.07323 13.5954 4.08474 13.6477 4.04681L14.1058 3.71447C14.1581 3.67652 14.1696 3.60387 14.1317 3.55157C14.108 3.51888 14.0707 3.50211 14.0333 3.50339V3.50339ZM1.52592 4.15065C1.4886 4.15314 1.45329 4.17381 1.43309 4.20879C1.40078 4.26475 1.41982 4.3358 1.47578 4.36811L2.64088 5.04079C2.69684 5.0731 2.76789 5.05406 2.8002 4.9981C2.83251 4.94214 2.81348 4.87109 2.75752 4.83878L1.59241 4.1661C1.57143 4.15399 1.54831 4.14908 1.52592 4.15063V4.15065ZM14.474 4.15065C14.4516 4.14898 14.4285 4.15397 14.4075 4.16611L13.2424 4.83879C13.1865 4.8711 13.1674 4.94216 13.1998 4.99812C13.2321 5.05408 13.3031 5.07311 13.3591 5.0408L14.5242 4.36812C14.5802 4.33581 14.5992 4.26476 14.5669 4.2088C14.5467 4.17382 14.5114 4.15327 14.474 4.15066V4.15065ZM1.1903 4.84507C1.14485 4.84396 1.10126 4.86998 1.08152 4.91424C1.05519 4.97325 1.0815 5.04195 1.14052 5.06827L1.6574 5.29883C1.71642 5.32515 1.78512 5.29885 1.81144 5.23983C1.83776 5.18082 1.8114 5.11212 1.75239 5.0858L1.23556 4.85524C1.22082 4.84865 1.20545 4.84538 1.1903 4.84507ZM14.8119 4.84987C14.7968 4.85014 14.7814 4.85347 14.7666 4.86004L14.2496 5.09018C14.1906 5.11648 14.1642 5.18514 14.1905 5.24417C14.2168 5.3032 14.2855 5.3296 14.3445 5.30332L14.8615 5.07312C14.9205 5.04685 14.9469 4.97817 14.9206 4.91913C14.9009 4.87486 14.8574 4.84896 14.8119 4.84987ZM0.891191 5.57088C0.845888 5.57467 0.805277 5.60493 0.790264 5.65102C0.770257 5.71245 0.803557 5.77804 0.86501 5.79806L2.14418 6.21486C2.20562 6.23487 2.2712 6.20153 2.29122 6.14011C2.31123 6.07867 2.27792 6.01309 2.21647 5.99307L0.937303 5.57626C0.921952 5.57124 0.90629 5.56961 0.891191 5.57088V5.57088ZM15.1105 5.57586C15.0954 5.57448 15.0798 5.57614 15.0644 5.58124L13.7849 5.99714C13.7235 6.01712 13.6901 6.08268 13.7101 6.14413C13.7301 6.20558 13.7956 6.23896 13.8571 6.21899L15.1365 5.80308C15.198 5.7831 15.2314 5.71755 15.2114 5.65609C15.1964 5.61 15.1558 5.5797 15.1105 5.57586V5.57586ZM0.704837 6.33276C0.650498 6.33221 0.601762 6.36993 0.590008 6.42523C0.576569 6.48844 0.616668 6.55013 0.679865 6.56357L1.23345 6.68121C1.29665 6.69465 1.35834 6.65455 1.37178 6.59135C1.38521 6.52814 1.34512 6.46645 1.28193 6.45302L0.728397 6.33538C0.720499 6.33372 0.712596 6.33288 0.704837 6.33288V6.33276ZM15.2954 6.33387C15.2876 6.33394 15.2798 6.33498 15.2719 6.33636L14.7183 6.45396C14.6551 6.4674 14.615 6.52903 14.6284 6.59224C14.6419 6.65545 14.7036 6.69557 14.7668 6.68215L15.3203 6.56456C15.3835 6.55112 15.4236 6.48943 15.4102 6.42622C15.3985 6.37092 15.3497 6.33329 15.2954 6.33375L15.2954 6.33387ZM0.563785 7.09913C0.509695 7.10431 0.465171 7.14675 0.45923 7.20297C0.452441 7.26723 0.498671 7.32445 0.562931 7.33124L1.90084 7.47269C1.9651 7.47948 2.02232 7.43321 2.02911 7.36894C2.0359 7.30468 1.98962 7.24747 1.92536 7.24068L0.587446 7.09923C0.57941 7.0984 0.571516 7.0984 0.563785 7.09913V7.09913ZM15.4374 7.10918C15.4297 7.10835 15.4217 7.10835 15.4137 7.10928L14.0756 7.24893C14.0114 7.25563 13.965 7.31277 13.9717 7.37704C13.9784 7.44131 14.0356 7.48765 14.0999 7.48094L15.4379 7.3413C15.5022 7.33459 15.5485 7.27745 15.5418 7.21318C15.5359 7.15695 15.4915 7.11444 15.4374 7.10918L15.4374 7.10918ZM0.54113 7.8836C0.476511 7.8836 0.4245 7.93562 0.4245 8.00024C0.4245 8.06486 0.476511 8.11687 0.54113 8.11687H1.10705C1.17167 8.11687 1.22373 8.06486 1.22373 8.00024C1.22373 7.93562 1.17167 7.8836 1.10705 7.8836H0.54113ZM14.8929 7.8836C14.8283 7.8836 14.7763 7.93562 14.7763 8.00024C14.7763 8.06486 14.8283 8.11687 14.8929 8.11687H15.4588C15.5234 8.11687 15.5755 8.06486 15.5755 8.00024C15.5755 7.93562 15.5234 7.8836 15.4588 7.8836H14.8929ZM1.9238 8.51943C1.91607 8.5186 1.90817 8.5186 1.90013 8.51953L0.562017 8.65917C0.497747 8.66588 0.451422 8.72302 0.458122 8.78729C0.464828 8.85156 0.52196 8.8979 0.586228 8.89119L1.92435 8.75155C1.98862 8.74484 2.03495 8.6877 2.02824 8.62343C2.02237 8.5672 1.97788 8.52469 1.92379 8.51943H1.9238ZM14.0755 8.52769C14.0214 8.53288 13.9768 8.57532 13.9709 8.63155C13.9641 8.6958 14.0103 8.75302 14.0746 8.75981L15.4125 8.90126C15.4768 8.90805 15.534 8.86177 15.5408 8.79751C15.5476 8.73326 15.5013 8.67604 15.437 8.66925L14.0992 8.5278C14.0911 8.52697 14.0832 8.52697 14.0754 8.5277L14.0755 8.52769ZM1.2568 9.31565C1.24904 9.31572 1.24115 9.31648 1.23325 9.31814L0.679671 9.43574C0.616462 9.44917 0.576391 9.51086 0.589813 9.57407C0.603253 9.63728 0.664942 9.67735 0.728151 9.66392L1.28173 9.54638C1.34494 9.53294 1.38501 9.47126 1.37158 9.40805C1.35983 9.35274 1.31115 9.31512 1.25681 9.31558L1.2568 9.31565ZM14.743 9.31676C14.6887 9.31621 14.64 9.35388 14.6282 9.40918C14.6148 9.47239 14.6548 9.53408 14.718 9.54752L15.2716 9.66516C15.3348 9.6786 15.3965 9.63855 15.4099 9.57535C15.4234 9.51214 15.3833 9.4504 15.3201 9.43697L14.7666 9.31932C14.7587 9.31766 14.7508 9.31683 14.743 9.31683L14.743 9.31676ZM2.18898 9.77616C2.17388 9.77477 2.15829 9.77643 2.14292 9.78153L0.863454 10.1974C0.801999 10.2174 0.768622 10.283 0.788598 10.3444C0.808577 10.4059 0.874132 10.4392 0.935587 10.4193L2.21501 10.0034C2.27647 9.9834 2.30989 9.91783 2.28991 9.85638C2.27492 9.81029 2.23428 9.77999 2.18898 9.77614V9.77616ZM13.8097 9.78028C13.7644 9.78408 13.7238 9.81434 13.7088 9.86042C13.6888 9.92186 13.7221 9.98745 13.7835 10.0075L15.0627 10.4243C15.1241 10.4443 15.1897 10.4109 15.2097 10.3495C15.2298 10.2881 15.1964 10.2225 15.135 10.2025L13.8558 9.78567C13.8405 9.78065 13.8248 9.77902 13.8097 9.7803V9.78028ZM1.70075 10.6871C1.68559 10.6874 1.67025 10.6906 1.65549 10.6972L1.13846 10.9274C1.07942 10.9537 1.05307 11.0224 1.07935 11.0814C1.10565 11.1404 1.17431 11.1668 1.23334 11.1405L1.75038 10.9103C1.80941 10.8841 1.83576 10.8154 1.80948 10.7564C1.78978 10.7121 1.7462 10.6862 1.70075 10.6871V10.6871ZM14.2973 10.6915C14.2519 10.6904 14.2083 10.7164 14.1886 10.7607C14.1622 10.8197 14.1885 10.8884 14.2476 10.9147L14.7644 11.1453C14.8234 11.1716 14.8921 11.1453 14.9184 11.0863C14.9448 11.0273 14.9184 10.9586 14.8594 10.9322L14.3426 10.7017C14.3279 10.6951 14.3125 10.6918 14.2973 10.6915V10.6915ZM2.70738 10.9443C2.68499 10.9426 2.66186 10.9476 2.64088 10.9597L1.47578 11.6324C1.41982 11.6647 1.40078 11.7358 1.43309 11.7917C1.4654 11.8477 1.53645 11.8667 1.59241 11.8344L2.75752 11.1618C2.81348 11.1295 2.83251 11.0584 2.8002 11.0024C2.78 10.9675 2.7447 10.9469 2.70738 10.9443V10.9443ZM13.2926 10.9443C13.2553 10.9468 13.22 10.9674 13.1998 11.0024C13.1674 11.0584 13.1865 11.1295 13.2424 11.1618L14.4075 11.8344C14.4635 11.8667 14.5346 11.8477 14.5669 11.7917C14.5992 11.7358 14.5802 11.6647 14.5242 11.6324L13.3591 10.9597C13.3381 10.9476 13.315 10.9427 13.2926 10.9443V10.9443ZM2.41677 11.9314C2.39432 11.9323 2.37185 11.9395 2.35223 11.9537L1.89419 12.2861C1.84189 12.324 1.83032 12.3967 1.86826 12.449C1.90621 12.5013 1.97886 12.5128 2.03116 12.4749L2.48924 12.1425C2.54155 12.1046 2.55312 12.0319 2.51518 11.9796C2.49146 11.947 2.45416 11.9301 2.41677 11.9314V11.9314ZM13.5804 11.9354C13.543 11.934 13.5057 11.9508 13.482 11.9835C13.444 12.0358 13.4555 12.1085 13.5078 12.1464L13.9657 12.4791C14.0179 12.5171 14.0906 12.5055 14.1286 12.4532C14.1665 12.401 14.1551 12.3283 14.1028 12.2903L13.645 11.9577C13.6254 11.9435 13.6029 11.9361 13.5804 11.9353L13.5804 11.9354ZM3.45415 11.9756C3.42438 11.974 3.39402 11.9839 3.36999 12.0055L2.36945 12.9049C2.3214 12.9481 2.31749 13.0215 2.36069 13.0696C2.40389 13.1177 2.47735 13.1216 2.5254 13.0784L3.52594 12.1789C3.57399 12.1358 3.5779 12.0623 3.5347 12.0142C3.51311 11.9902 3.48393 11.9772 3.45415 11.9756ZM12.543 11.9788C12.5133 11.9805 12.4841 11.9934 12.4624 12.0174C12.4192 12.0654 12.4231 12.1389 12.4711 12.1821L13.471 13.0822C13.519 13.1255 13.5925 13.1216 13.6357 13.0736C13.679 13.0256 13.6751 12.9521 13.6271 12.9089L12.6271 12.0088C12.6031 11.9871 12.5728 11.9773 12.543 11.9789V11.9788ZM4.40335 12.8333C4.36596 12.8319 4.32864 12.8487 4.30488 12.8813L3.51346 13.9693C3.47544 14.0215 3.48688 14.0942 3.53911 14.1322C3.59137 14.1702 3.66405 14.1588 3.70206 14.1065L4.49349 13.0186C4.53151 12.9663 4.52007 12.8937 4.46784 12.8556C4.44825 12.8414 4.42578 12.8341 4.40335 12.8333ZM11.5901 12.8382C11.5677 12.839 11.5452 12.8462 11.5256 12.8604C11.4733 12.8984 11.4617 12.971 11.4996 13.0233L12.2896 14.1123C12.3275 14.1646 12.4002 14.1762 12.4525 14.1383C12.5048 14.1003 12.5164 14.0277 12.4784 13.9754L11.6885 12.8864C11.6648 12.8537 11.6275 12.8369 11.5901 12.8382V12.8382ZM3.38166 13.0062C3.35189 13.0079 3.32269 13.0208 3.30107 13.0448L2.92242 13.4653C2.87918 13.5133 2.88301 13.5868 2.93104 13.6301C2.97906 13.6733 3.05251 13.6694 3.09575 13.6214L3.47445 13.2009C3.51769 13.1528 3.51382 13.0793 3.46581 13.0361C3.44178 13.0145 3.41146 13.0046 3.38168 13.0062L3.38166 13.0062ZM12.6176 13.0068C12.5878 13.0051 12.5575 13.0151 12.5335 13.0367C12.4854 13.0799 12.4816 13.1533 12.5248 13.2014L12.9034 13.622C12.9466 13.67 13.0201 13.6739 13.0681 13.6307C13.1161 13.5874 13.12 13.5139 13.0768 13.4659L12.6982 13.0453C12.6765 13.0213 12.6473 13.0083 12.6176 13.0068L12.6176 13.0068ZM5.50855 13.4733C5.46309 13.4722 5.41956 13.4982 5.39982 13.5425L4.85167 14.7711C4.82535 14.8301 4.85166 14.8988 4.91067 14.9251C4.96968 14.9515 5.03838 14.9252 5.06471 14.8661L5.61285 13.6375C5.63917 13.5785 5.61286 13.5098 5.55385 13.4835C5.53911 13.4769 5.5237 13.4736 5.50855 13.4733ZM10.484 13.4767C10.4689 13.477 10.4535 13.4802 10.4387 13.4868C10.3797 13.513 10.3533 13.5817 10.3795 13.6407L10.9259 14.8701C10.9522 14.9291 11.0209 14.9556 11.0799 14.9293C11.1389 14.9031 11.1654 14.8344 11.1391 14.7754L10.5927 13.546C10.573 13.5017 10.5295 13.4758 10.484 13.4767ZM4.54536 13.8532C4.50804 13.8557 4.47272 13.8763 4.45253 13.9113L4.16957 14.4014C4.13726 14.4574 4.1563 14.5284 4.21226 14.5607C4.26822 14.5931 4.33928 14.574 4.37159 14.5181L4.65454 14.028C4.68685 13.972 4.66782 13.9009 4.61186 13.8686C4.59088 13.8565 4.56775 13.8516 4.54536 13.8532V13.8532ZM11.4546 13.8532C11.4322 13.8515 11.4091 13.8565 11.3882 13.8686C11.3322 13.9009 11.3132 13.972 11.3455 14.028L11.6284 14.5181C11.6607 14.574 11.7318 14.5931 11.7877 14.5607C11.8437 14.5284 11.8627 14.4574 11.8304 14.4014L11.5475 13.9113C11.5273 13.8763 11.4919 13.8558 11.4546 13.8532V13.8532ZM6.72881 13.8707C6.67448 13.8702 6.62579 13.9079 6.61404 13.9632L6.33446 15.2792C6.32102 15.3424 6.36112 15.4041 6.42431 15.4175C6.48752 15.431 6.54922 15.3909 6.56264 15.3277L6.84223 14.0116C6.85567 13.9484 6.81557 13.8867 6.75237 13.8733C6.74447 13.8717 6.73658 13.8708 6.72882 13.8708L6.72881 13.8707ZM9.26701 13.8716C9.25926 13.8716 9.25141 13.8724 9.24351 13.8741C9.1803 13.8874 9.14017 13.9491 9.15355 14.0123L9.43218 15.3285C9.44557 15.3917 9.50724 15.4319 9.57046 15.4185C9.63368 15.4051 9.6738 15.3434 9.66042 15.2802L9.38174 13.9641C9.37002 13.9088 9.32136 13.8711 9.26702 13.8715L9.26701 13.8716ZM7.99998 14.0043C7.93536 14.0043 7.88334 14.0563 7.88334 14.121V15.4663C7.88334 15.5309 7.93536 15.583 7.99998 15.583C8.0646 15.583 8.11662 15.5309 8.11662 15.4663V14.121C8.11662 14.0563 8.0646 14.0043 7.99998 14.0043ZM5.85895 14.439C5.81366 14.4429 5.77301 14.4732 5.75803 14.5193L5.5831 15.0575C5.56312 15.119 5.59651 15.1845 5.65795 15.2045C5.71941 15.2245 5.78496 15.191 5.80494 15.1296L5.97987 14.5914C5.99985 14.53 5.96646 14.4644 5.90502 14.4444C5.88967 14.4394 5.87406 14.4378 5.85895 14.4391V14.439ZM10.1401 14.4393C10.125 14.4379 10.1094 14.4396 10.094 14.4447C10.0326 14.4647 9.99916 14.5302 10.0191 14.5917L10.194 15.1299C10.214 15.1913 10.2795 15.2247 10.341 15.2047C10.4025 15.1848 10.4359 15.1193 10.4159 15.0578L10.241 14.5196C10.226 14.4735 10.1854 14.4432 10.1401 14.4393V14.4393ZM7.26785 14.7391C7.21376 14.7443 7.1692 14.7868 7.16329 14.843L7.10414 15.4058C7.09738 15.4701 7.14368 15.5272 7.20794 15.534C7.27221 15.5408 7.3294 15.4945 7.33616 15.4302L7.3953 14.8674C7.40206 14.8031 7.35577 14.746 7.29151 14.7392C7.28347 14.7384 7.27557 14.7384 7.26784 14.7391L7.26785 14.7391ZM8.72743 14.7396C8.7197 14.7388 8.71174 14.7388 8.70371 14.7397C8.63944 14.7465 8.59309 14.8036 8.5998 14.8679L8.6586 15.4307C8.66531 15.495 8.72245 15.5413 8.78672 15.5346C8.85098 15.5279 8.89733 15.4708 8.89062 15.4065L8.83187 14.8436C8.826 14.7874 8.7815 14.7449 8.72741 14.7396L8.72743 14.7396Z" fill="#F4F2F3"/>
<g opacity="0.409" filter="url(#filter0_f_4665_8423)">
<path d="M13.4669 3.33447L7.08548 7.0421L3.05069 13.394L8.95326 9.02204L13.4669 3.33447Z" fill="black"/>
</g>
<path d="M8.91456 8.95777L7.08544 7.04226L13.574 2.6774L8.91456 8.95777Z" fill="#FF5150"/>
<path d="M8.91458 8.95792L7.08546 7.04241L2.42601 13.3228L8.91458 8.95792Z" fill="#F1F1F1"/>
<path opacity="0.243" d="M2.42599 13.3227L8.91456 8.95786L13.574 2.67749L2.42599 13.3227Z" fill="black"/>
<defs>
<filter id="filter0_f_4665_8423" x="2.37736" y="2.66115" width="11.7629" height="11.4062" filterUnits="userSpaceOnUse" color-interpolation-filters="sRGB">
<feFlood flood-opacity="0" result="BackgroundImageFix"/>
<feBlend mode="normal" in="SourceGraphic" in2="BackgroundImageFix" result="shape"/>
<feGaussianBlur stdDeviation="0.336663" result="effect1_foregroundBlur_4665_8423"/>
</filter>
<radialGradient id="paint0_radial_4665_8423" cx="0" cy="0" r="1" gradientUnits="userSpaceOnUse" gradientTransform="translate(8.03642 6.83361) scale(8.68021 8.68021)">
<stop stop-color="#06C2E7"/>
<stop offset="0.25" stop-color="#0DB8EC"/>
<stop offset="0.5" stop-color="#12AEF1"/>
<stop offset="0.75" stop-color="#1F86F9"/>
<stop offset="1" stop-color="#107DDD"/>
</radialGradient>
</defs>
</svg>
