<svg viewBox="0 0 16 16" fill="none" xmlns="http://www.w3.org/2000/svg">
<path d="M7.99998 16C12.4183 16 16 12.4183 16 8C16 3.58172 12.4183 0 7.99998 0C3.58171 0 -1.52588e-05 3.58172 -1.52588e-05 8C-1.52588e-05 12.4183 3.58171 16 7.99998 16Z" fill="white"/>
<path fill-rule="evenodd" clip-rule="evenodd" d="M6.18749 4.19908C4.4452 3.88179 3.06749 4.21367 2.51833 5.16492C2.10854 5.8745 2.22562 6.81554 2.80229 7.82117C2.82596 7.86218 2.86492 7.89216 2.91064 7.90453C2.95635 7.91691 3.00511 7.91068 3.04624 7.88721C3.08726 7.86353 3.11723 7.82457 3.12961 7.77886C3.14199 7.73314 3.13576 7.68439 3.11229 7.64325C2.59291 6.737 2.49187 5.92512 2.8277 5.34325C3.28604 4.55325 4.5127 4.257 6.12354 4.55033C6.17012 4.55866 6.21812 4.54822 6.25703 4.52129C6.29595 4.49436 6.32263 4.45312 6.33124 4.40658C6.33957 4.35999 6.32913 4.312 6.3022 4.27309C6.27527 4.23417 6.23403 4.2077 6.18749 4.19908ZM3.70833 9.04158C4.41291 9.81575 5.32812 10.542 6.37208 11.1447C8.90166 12.6041 11.5923 12.9957 12.9167 12.0916C12.9557 12.0648 12.9826 12.0236 12.9913 11.9771C13.0001 11.9306 12.9901 11.8824 12.9635 11.8432C12.9367 11.8042 12.8956 11.7774 12.849 11.7686C12.8025 11.7598 12.7544 11.7698 12.7152 11.7964C11.5283 12.6055 8.97229 12.2351 6.54854 10.837C5.53604 10.2524 4.64958 9.54908 3.97041 8.80283C3.93844 8.76788 3.89393 8.747 3.84661 8.74478C3.79929 8.74255 3.75302 8.75916 3.71791 8.79096C3.68295 8.82293 3.66208 8.86744 3.65985 8.91476C3.65763 8.96208 3.67423 9.00835 3.70604 9.04346L3.70833 9.04158ZM12.4954 8.82637C13.6362 7.47846 14.0346 6.12304 13.4867 5.17429C13.0835 4.47596 12.2312 4.10721 11.0983 4.09262C11.051 4.09212 11.0054 4.11038 10.9714 4.1434C10.9375 4.17643 10.9181 4.22154 10.9173 4.26887C10.9168 4.31622 10.935 4.36183 10.9681 4.39575C11.0011 4.42968 11.0462 4.44915 11.0935 4.44992C12.1144 4.46325 12.8467 4.78075 13.1769 5.35304C13.6321 6.14137 13.2769 7.35012 12.2223 8.59596C12.1918 8.63217 12.1768 8.679 12.1807 8.72619C12.1846 8.77339 12.2071 8.81713 12.2431 8.84783C12.2793 8.87836 12.3262 8.8933 12.3734 8.88939C12.4206 8.88549 12.4643 8.86306 12.495 8.827L12.4954 8.82637ZM9.56333 4.25825C8.53208 4.47908 7.43374 4.91137 6.37937 5.52012C3.7702 7.02637 2.06812 9.24992 2.30416 10.8582C2.31117 10.9051 2.33642 10.9472 2.3744 10.9755C2.41238 11.0037 2.46001 11.0158 2.50687 11.0091C2.55369 11.0021 2.59584 10.9768 2.6241 10.9388C2.65236 10.9009 2.66444 10.8532 2.6577 10.8064C2.44791 9.37637 4.06124 7.27096 6.5577 5.82721C7.57854 5.23658 8.64374 4.81825 9.63791 4.60512C9.68417 4.59508 9.72458 4.56714 9.7503 4.5274C9.77602 4.48766 9.78498 4.43936 9.7752 4.39304C9.76516 4.34678 9.73722 4.30638 9.69748 4.28065C9.65774 4.25493 9.60944 4.24597 9.56312 4.25575L9.56333 4.25825Z" fill="#47848F"/>
<path fill-rule="evenodd" clip-rule="evenodd" d="M5.33645 11.9753C5.93291 13.641 6.90874 14.6666 8.00624 14.6666C8.80666 14.6666 9.54707 14.1208 10.1244 13.1603C10.1487 13.1197 10.1559 13.0711 10.1444 13.0251C10.133 12.9792 10.1038 12.9396 10.0633 12.9151C10.0227 12.8908 9.97407 12.8836 9.92813 12.8951C9.88218 12.9065 9.84263 12.9357 9.81812 12.9762C9.29728 13.8393 8.66186 14.3089 8.00624 14.3089C7.09478 14.3089 6.22437 13.3922 5.67291 11.8547C5.65681 11.8102 5.62373 11.7738 5.58091 11.7536C5.53808 11.7334 5.48899 11.7309 5.44437 11.7468C5.39982 11.7629 5.36347 11.796 5.34324 11.8388C5.32302 11.8816 5.32058 11.9307 5.33645 11.9753ZM10.785 11.6495C11.0937 10.6626 11.2596 9.5245 11.2596 8.33804C11.2596 5.37804 10.2235 2.82638 8.74791 2.17138C8.70457 2.15228 8.65544 2.15111 8.61125 2.16813C8.56705 2.18515 8.5314 2.21898 8.51207 2.26221C8.49297 2.30554 8.49181 2.35468 8.50883 2.39887C8.52585 2.44306 8.55967 2.47872 8.60291 2.49804C9.91916 3.08221 10.9021 5.50409 10.9021 8.33825C10.9021 9.48909 10.7417 10.5916 10.4437 11.543C10.4297 11.5883 10.4341 11.6372 10.4561 11.6792C10.478 11.7211 10.5157 11.7527 10.5608 11.767C10.606 11.781 10.655 11.7766 10.697 11.7547C10.7389 11.7327 10.7705 11.6951 10.7848 11.6499L10.785 11.6495ZM14.15 11.4745C14.15 11.0022 13.7671 10.6193 13.2948 10.6193C12.8225 10.6193 12.4375 10.9999 12.4375 11.4745C12.4375 11.9491 12.8204 12.3297 13.2927 12.3297C13.765 12.3297 14.1479 11.9468 14.1479 11.4745H14.15ZM13.7927 11.4745C13.7926 11.6065 13.7402 11.733 13.6469 11.8264C13.5535 11.9197 13.427 11.9722 13.295 11.9722C13.163 11.9722 13.0364 11.9197 12.9431 11.8264C12.8498 11.733 12.7973 11.6065 12.7973 11.4745C12.7973 11.3425 12.8498 11.216 12.9431 11.1226C13.0364 11.0293 13.163 10.9768 13.295 10.9768C13.427 10.9768 13.5535 11.0293 13.6469 11.1226C13.7402 11.216 13.7926 11.3425 13.7927 11.4745Z" fill="#47848F"/>
<path fill-rule="evenodd" clip-rule="evenodd" d="M2.70499 12.3297C3.17728 12.3297 3.5602 11.9468 3.5602 11.4745C3.5602 11.0022 3.17728 10.6193 2.70499 10.6193C2.47818 10.6193 2.26066 10.7094 2.1003 10.8699C1.93994 11.0303 1.84986 11.2478 1.84989 11.4746C1.84992 11.7014 1.94004 11.9189 2.10045 12.0793C2.26085 12.2397 2.47818 12.3297 2.70499 12.3297ZM2.70499 11.9724C2.57301 11.9724 2.44645 11.9199 2.35312 11.8266C2.25979 11.7333 2.20734 11.6067 2.20728 11.4747C2.20734 11.3427 2.25979 11.2162 2.35312 11.1228C2.44645 11.0295 2.57301 10.9771 2.70499 10.977C2.83698 10.9771 2.96354 11.0295 3.05686 11.1228C3.15019 11.2162 3.20265 11.3427 3.2027 11.4747C3.20265 11.6067 3.15019 11.7333 3.05686 11.8266C2.96354 11.9199 2.83698 11.9724 2.70499 11.9724ZM8.00624 3.04159C8.47853 3.04159 8.86145 2.65867 8.86145 2.18638C8.86145 1.71409 8.47832 1.33325 8.00624 1.33325C7.53416 1.33325 7.15103 1.71617 7.15103 2.18846C7.15103 2.66075 7.53395 3.04159 8.00624 3.04159ZM8.00624 2.68429C7.87426 2.68424 7.7477 2.63178 7.65437 2.53846C7.56104 2.44513 7.50859 2.31857 7.50853 2.18659C7.50859 2.0546 7.56104 1.92804 7.65437 1.83471C7.7477 1.74139 7.87426 1.68893 8.00624 1.68888C8.13823 1.68893 8.26479 1.74139 8.35811 1.83471C8.45144 1.92804 8.50389 2.0546 8.50395 2.18659C8.50389 2.31857 8.45144 2.44513 8.35811 2.53846C8.26479 2.63178 8.13823 2.68424 8.00624 2.68429ZM8.13666 8.94263C8.05702 8.96036 7.97466 8.96217 7.89432 8.94795C7.81398 8.93373 7.73725 8.90376 7.66853 8.85977C7.59982 8.81578 7.54049 8.75863 7.49395 8.69162C7.44741 8.62461 7.41458 8.54905 7.39736 8.4693C7.38013 8.38955 7.37885 8.30718 7.39358 8.22693C7.40832 8.14668 7.43878 8.07014 7.48321 8.00171C7.52764 7.93329 7.58517 7.87432 7.65248 7.82821C7.71979 7.7821 7.79555 7.74976 7.87541 7.73304C7.95505 7.71531 8.03741 7.7135 8.11775 7.72772C8.19809 7.74194 8.27482 7.77191 8.34353 7.8159C8.41225 7.85989 8.47158 7.91704 8.51812 7.98405C8.56466 8.05106 8.59749 8.12662 8.61471 8.20637C8.63194 8.28612 8.63322 8.36849 8.61848 8.44874C8.60375 8.52899 8.57329 8.60553 8.52886 8.67396C8.48443 8.74238 8.4269 8.80135 8.35959 8.84746C8.29228 8.89357 8.21652 8.92591 8.13666 8.94263Z" fill="#47848F"/>
</svg>
