<svg viewBox="0 0 16 16" fill="none" xmlns="http://www.w3.org/2000/svg">
<g clip-path="url(#clip0_4665_8432)">
<path d="M14.4406 11.9089C14.2273 12.0204 14.0073 12.1188 13.7819 12.2033C13.0643 12.4717 12.3042 12.6085 11.5381 12.607C8.58062 12.607 6.00437 10.5726 6.00437 7.962C6.00816 7.61185 6.10532 7.26906 6.28584 6.96901C6.46635 6.66896 6.72368 6.42252 7.03125 6.25513C4.35625 6.36763 3.66875 9.15513 3.66875 10.7883C3.66875 15.4058 7.92437 15.8739 8.84125 15.8739C9.33562 15.8739 10.0812 15.7301 10.5287 15.5889L10.6106 15.5614C12.3327 14.9661 13.8007 13.8022 14.7731 12.2614C14.8029 12.2145 14.8162 12.1589 14.8109 12.1036C14.8056 12.0483 14.782 11.9963 14.7439 11.9559C14.7058 11.9154 14.6552 11.8889 14.6003 11.8804C14.5454 11.8718 14.4892 11.8819 14.4406 11.9089Z" fill="url(#paint0_linear_4665_8432)"/>
<path opacity="0.35" d="M14.4406 11.9089C14.2273 12.0204 14.0073 12.1188 13.7819 12.2033C13.0643 12.4717 12.3042 12.6085 11.5381 12.607C8.58062 12.607 6.00437 10.5726 6.00437 7.962C6.00816 7.61185 6.10532 7.26906 6.28584 6.96901C6.46635 6.66896 6.72368 6.42252 7.03125 6.25513C4.35625 6.36763 3.66875 9.15513 3.66875 10.7883C3.66875 15.4058 7.92437 15.8739 8.84125 15.8739C9.33562 15.8739 10.0812 15.7301 10.5287 15.5889L10.6106 15.5614C12.3327 14.9661 13.8007 13.8022 14.7731 12.2614C14.8029 12.2145 14.8162 12.1589 14.8109 12.1036C14.8056 12.0483 14.782 11.9963 14.7439 11.9559C14.7058 11.9154 14.6552 11.8889 14.6003 11.8804C14.5454 11.8718 14.4892 11.8819 14.4406 11.9089Z" fill="url(#paint1_radial_4665_8432)"/>
<path d="M6.60687 15.0888C6.04941 14.7428 5.5663 14.2894 5.18562 13.755C4.75174 13.1606 4.45317 12.4784 4.31085 11.7564C4.16853 11.0343 4.1859 10.2898 4.36176 9.57522C4.53762 8.86058 4.8677 8.19308 5.32885 7.61953C5.79 7.04597 6.37105 6.58025 7.03125 6.25504C7.22625 6.16317 7.55937 5.99692 8.0025 6.00504C8.31469 6.00731 8.62212 6.08185 8.90068 6.22282C9.17925 6.36378 9.42139 6.56734 9.60812 6.81754C9.86051 7.15453 9.99967 7.56281 10.0056 7.98379C10.0056 7.97067 11.5344 3.00879 5.00562 3.00879C2.26187 3.00879 0.00562106 5.61254 0.00562106 7.89692C-0.00520149 9.10532 0.253354 10.301 0.762496 11.3969C1.59458 13.1723 3.04966 14.5803 4.85143 15.3535C6.6532 16.1267 8.67619 16.2113 10.5362 15.5913C9.88497 15.7966 9.1969 15.8583 8.51949 15.772C7.84209 15.6856 7.19146 15.4534 6.6125 15.0913L6.60687 15.0888Z" fill="url(#paint2_linear_4665_8432)"/>
<path opacity="0.41" d="M6.60687 15.0888C6.04941 14.7428 5.5663 14.2894 5.18562 13.755C4.75174 13.1606 4.45317 12.4784 4.31085 11.7564C4.16853 11.0343 4.1859 10.2898 4.36176 9.57522C4.53762 8.86058 4.8677 8.19308 5.32885 7.61953C5.79 7.04597 6.37105 6.58025 7.03125 6.25504C7.22625 6.16317 7.55937 5.99692 8.0025 6.00504C8.31469 6.00731 8.62212 6.08185 8.90068 6.22282C9.17925 6.36378 9.42139 6.56734 9.60812 6.81754C9.86051 7.15453 9.99967 7.56281 10.0056 7.98379C10.0056 7.97067 11.5344 3.00879 5.00562 3.00879C2.26187 3.00879 0.00562106 5.61254 0.00562106 7.89692C-0.00520149 9.10532 0.253354 10.301 0.762496 11.3969C1.59458 13.1723 3.04966 14.5803 4.85143 15.3535C6.6532 16.1267 8.67619 16.2113 10.5362 15.5913C9.88497 15.7966 9.1969 15.8583 8.51949 15.772C7.84209 15.6856 7.19146 15.4534 6.6125 15.0913L6.60687 15.0888Z" fill="url(#paint3_radial_4665_8432)"/>
<path d="M9.51937 9.30375C9.46875 9.36938 9.31312 9.46 9.31312 9.6575C9.31312 9.82063 9.41937 9.9775 9.60812 10.1094C10.5069 10.7344 12.2013 10.6519 12.2056 10.6519C12.8716 10.6503 13.5249 10.4701 14.0975 10.13C14.6751 9.79273 15.1545 9.31028 15.4882 8.73053C15.8218 8.15079 15.998 7.49389 15.9994 6.825C16.0156 5.42438 15.4994 4.49312 15.2906 4.08063C13.9663 1.49 11.1075 3.91652e-08 7.99875 3.91652e-08C5.89637 -0.000207848 3.8784 0.827187 2.3813 2.30323C0.884202 3.77928 0.0283135 5.78532 -0.00125122 7.8875C0.0287488 5.60375 2.29875 3.75938 4.99875 3.75938C5.2175 3.75938 6.465 3.78063 7.62375 4.38875C8.645 4.925 9.18 5.5725 9.55188 6.21438C9.93813 6.88125 10.0069 7.72375 10.0069 8.05937C10.0069 8.395 9.83562 8.8925 9.51937 9.30375Z" fill="url(#paint4_radial_4665_8432)"/>
<path d="M9.51937 9.30375C9.46875 9.36938 9.31312 9.46 9.31312 9.6575C9.31312 9.82063 9.41937 9.9775 9.60812 10.1094C10.5069 10.7344 12.2013 10.6519 12.2056 10.6519C12.8716 10.6503 13.5249 10.4701 14.0975 10.13C14.6751 9.79273 15.1545 9.31028 15.4882 8.73053C15.8218 8.15079 15.998 7.49389 15.9994 6.825C16.0156 5.42438 15.4994 4.49312 15.2906 4.08063C13.9663 1.49 11.1075 3.91652e-08 7.99875 3.91652e-08C5.89637 -0.000207848 3.8784 0.827187 2.3813 2.30323C0.884202 3.77928 0.0283135 5.78532 -0.00125122 7.8875C0.0287488 5.60375 2.29875 3.75938 4.99875 3.75938C5.2175 3.75938 6.465 3.78063 7.62375 4.38875C8.645 4.925 9.18 5.5725 9.55188 6.21438C9.93813 6.88125 10.0069 7.72375 10.0069 8.05937C10.0069 8.395 9.83562 8.8925 9.51937 9.30375Z" fill="url(#paint5_radial_4665_8432)"/>
</g>
<defs>
<linearGradient id="paint0_linear_4665_8432" x1="3.66875" y1="11.0658" x2="14.815" y2="11.0658" gradientUnits="userSpaceOnUse">
<stop stop-color="#0C59A4"/>
<stop offset="1" stop-color="#114A8B"/>
</linearGradient>
<radialGradient id="paint1_radial_4665_8432" cx="0" cy="0" r="1" gradientUnits="userSpaceOnUse" gradientTransform="translate(9.825 11.1536) scale(5.96125 5.66319)">
<stop offset="0.72" stop-opacity="0"/>
<stop offset="0.95" stop-opacity="0.53"/>
<stop offset="1"/>
</radialGradient>
<linearGradient id="paint2_linear_4665_8432" x1="9.545" y1="6.23067" x2="2.58312" y2="13.8138" gradientUnits="userSpaceOnUse">
<stop stop-color="#1B9DE2"/>
<stop offset="0.16" stop-color="#1595DF"/>
<stop offset="0.67" stop-color="#0680D7"/>
<stop offset="1" stop-color="#0078D4"/>
</linearGradient>
<radialGradient id="paint3_radial_4665_8432" cx="0" cy="0" r="1" gradientUnits="userSpaceOnUse" gradientTransform="translate(4.4109 12.4381) rotate(-81.3844) scale(8.96413 7.24212)">
<stop offset="0.76" stop-opacity="0"/>
<stop offset="0.95" stop-opacity="0.5"/>
<stop offset="1"/>
</radialGradient>
<radialGradient id="paint4_radial_4665_8432" cx="0" cy="0" r="1" gradientUnits="userSpaceOnUse" gradientTransform="translate(1.61515 2.96105) rotate(92.2906) scale(12.662 26.9674)">
<stop stop-color="#35C1F1"/>
<stop offset="0.11" stop-color="#34C1ED"/>
<stop offset="0.23" stop-color="#2FC2DF"/>
<stop offset="0.31" stop-color="#2BC3D2"/>
<stop offset="0.67" stop-color="#36C752"/>
</radialGradient>
<radialGradient id="paint5_radial_4665_8432" cx="0" cy="0" r="1" gradientUnits="userSpaceOnUse" gradientTransform="translate(15.0033 4.83788) rotate(73.7398) scale(6.08375 4.94731)">
<stop stop-color="#66EB6E"/>
<stop offset="1" stop-color="#66EB6E" stop-opacity="0"/>
</radialGradient>
<clipPath id="clip0_4665_8432">
<rect width="16" height="16" fill="white"/>
</clipPath>
</defs>
</svg>
