<svg viewBox="0 0 16 16" fill="none" xmlns="http://www.w3.org/2000/svg">
<path d="M10 5C10 5.55228 10.4477 6 11 6C11.5523 6 12 5.55228 12 5H10ZM4 14L3.21065 13.3861C2.90954 13.7732 2.93363 14.3216 3.26754 14.6808C3.60146 15.0401 4.14662 15.1041 4.5547 14.8321L4 14ZM12.5547 14.8321C13.0142 14.5257 13.1384 13.9048 12.8321 13.4453C12.5257 12.9858 11.9048 12.8616 11.4453 13.1679L12.5547 14.8321ZM4 8.00005C3.44772 8.00005 3 8.44777 3 9.00005C3 9.55234 3.44772 10.0001 4 10.0001V8.00005ZM9 10.0001C9.55228 10.0001 10 9.55234 10 9.00005C10 8.44777 9.55228 8.00005 9 8.00005V10.0001ZM6 5C6 3.89543 6.89543 3 8 3V1C5.79086 1 4 2.79086 4 5H6ZM8 3C9.10457 3 10 3.89543 10 5H12C12 2.79086 10.2091 1 8 1V3ZM4 14C4.5547 14.8321 4.55421 14.8324 4.55372 14.8327C4.55356 14.8328 4.55307 14.8331 4.55276 14.8333C4.55214 14.8338 4.55153 14.8342 4.55095 14.8345C4.54978 14.8353 4.5487 14.836 4.5477 14.8367C4.5457 14.838 4.54402 14.8391 4.54268 14.8399C4.54 14.8416 4.53862 14.8425 4.53854 14.8425C4.53839 14.8426 4.54338 14.8396 4.5534 14.834C4.57347 14.8229 4.61338 14.802 4.67216 14.7764C4.78977 14.7253 4.98174 14.6561 5.24139 14.6089C5.75131 14.5162 6.56004 14.501 7.62861 14.9285L8.37139 13.0715C6.93996 12.499 5.74869 12.4838 4.88361 12.6411C4.45576 12.7189 4.11648 12.8372 3.87471 12.9423C3.75381 12.9949 3.657 13.0443 3.58527 13.084C3.54939 13.1038 3.51972 13.1213 3.49637 13.1355C3.48469 13.1426 3.47459 13.149 3.46608 13.1544C3.46182 13.1571 3.45796 13.1596 3.4545 13.1619C3.45276 13.163 3.45113 13.1641 3.4496 13.1651C3.44883 13.1656 3.44809 13.1661 3.44737 13.1666C3.44702 13.1668 3.4465 13.1672 3.44632 13.1673C3.44581 13.1676 3.4453 13.1679 4 14ZM7.62861 14.9285C9.06004 15.501 10.2513 15.5162 11.1164 15.3589C11.5442 15.2811 11.8835 15.1628 12.1253 15.0577C12.2462 15.0051 12.343 14.9557 12.4147 14.916C12.4506 14.8962 12.4803 14.8787 12.5036 14.8645C12.5153 14.8574 12.5254 14.851 12.5339 14.8456C12.5382 14.8429 12.542 14.8404 12.5455 14.8381C12.5472 14.837 12.5489 14.8359 12.5504 14.8349C12.5512 14.8344 12.5519 14.8339 12.5526 14.8334C12.553 14.8332 12.5535 14.8328 12.5537 14.8327C12.5542 14.8324 12.5547 14.8321 12 14C11.4453 13.1679 11.4458 13.1676 11.4463 13.1673C11.4464 13.1672 11.4469 13.1669 11.4472 13.1667C11.4479 13.1662 11.4485 13.1658 11.449 13.1655C11.4502 13.1647 11.4513 13.164 11.4523 13.1633C11.4543 13.162 11.456 13.1609 11.4573 13.1601C11.46 13.1584 11.4614 13.1575 11.4615 13.1575C11.4616 13.1574 11.4566 13.1604 11.4466 13.166C11.4265 13.1771 11.3866 13.198 11.3278 13.2236C11.2102 13.2747 11.0183 13.3439 10.7586 13.3911C10.2487 13.4838 9.43996 13.499 8.37139 13.0715L7.62861 14.9285ZM4.78935 14.6139C6.55936 12.3382 6.9883 10.529 6.83694 8.90714L4.8456 9.09297C4.94099 10.1152 4.73087 11.4315 3.21065 13.3861L4.78935 14.6139ZM6.83694 8.90714C6.75643 8.04444 6.51227 7.27527 6.3269 6.65258C6.13138 5.9958 6 5.49838 6 5H4C4 5.82654 4.2197 6.58385 4.41004 7.22322C4.61052 7.89668 4.787 8.46507 4.8456 9.09297L6.83694 8.90714ZM4 10.0001H5.84127V8.00005H4V10.0001ZM5.84127 10.0001H9V8.00005H5.84127V10.0001Z" fill="currentColor" class="icon-dark"/>
</svg>
