<svg viewBox="0 0 16 16" fill="none" xmlns="http://www.w3.org/2000/svg">
<path d="M6.52372 13.2137L7.08908 12.3888H7.08908L6.52372 13.2137ZM12.6695 13.5432C13.0798 13.1735 13.1126 12.5412 12.7428 12.1309C12.373 11.7207 11.7407 11.6879 11.3305 12.0576L12.6695 13.5432ZM11.3305 3.94235C11.7407 4.31212 12.373 4.27931 12.7428 3.86908C13.1126 3.45885 13.0798 2.82653 12.6695 2.45677L11.3305 3.94235ZM2.5 5.50073C1.94772 5.50073 1.5 5.94845 1.5 6.50073C1.5 7.05302 1.94772 7.50073 2.5 7.50073V5.50073ZM10.1947 7.50073C10.747 7.50073 11.1947 7.05302 11.1947 6.50073C11.1947 5.94845 10.747 5.50073 10.1947 5.50073V7.50073ZM2.5 8.50073C1.94772 8.50073 1.5 8.94845 1.5 9.50073C1.5 10.053 1.94772 10.5007 2.5 10.5007V8.50073ZM8.55416 10.5007C9.10645 10.5007 9.55416 10.053 9.55416 9.50073C9.55416 8.94845 9.10645 8.50073 8.55416 8.50073V10.5007ZM9 13C8.31706 13 7.66654 12.7846 7.08908 12.3888L5.95836 14.0385C6.841 14.6435 7.88106 15 9 15V13ZM7.08908 12.3888C5.88493 11.5635 5 9.94275 5 8H3C3 10.5224 4.14736 12.7972 5.95836 14.0385L7.08908 12.3888ZM5 8C5 5.06012 6.95383 3 9 3V1C5.52332 1 3 4.31247 3 8H5ZM11.3305 12.0576C10.6565 12.6651 9.85022 13 9 13V15C10.401 15 11.6722 14.4422 12.6695 13.5432L11.3305 12.0576ZM9 3C9.85022 3 10.6565 3.33488 11.3305 3.94235L12.6695 2.45677C11.6722 1.55779 10.401 1 9 1V3ZM2.5 7.50073H10.1947V5.50073H2.5V7.50073ZM2.5 10.5007H8.55416V8.50073H2.5V10.5007Z" fill="currentColor" class="icon-dark"/>
</svg>
