<svg viewBox="0 0 16 16" fill="none" xmlns="http://www.w3.org/2000/svg">
<path d="M15 3C15 2.44772 14.5523 2 14 2H2C1.44772 2 1 2.44772 1 3V10C1 10.5523 1.44772 11 2 11H8H14C14.5523 11 15 10.5523 15 10V3Z" fill="#D0D2E0" class="icon-light" />
<path d="M8 11H2C1.44772 11 1 10.5523 1 10V3C1 2.44772 1.44772 2 2 2H14C14.5523 2 15 2.44772 15 3V10C15 10.5523 14.5523 11 14 11H8ZM8 11V13C8 13.5523 8.44772 14 9 14H12H4" stroke="currentColor" class="icon-dark" stroke-width="2" stroke-linecap="round" stroke-linejoin="round" />
</svg>
