<svg width="8" height="8" viewBox="0 0 8 8" fill="none" xmlns="http://www.w3.org/2000/svg">
<path d="M2.70711 1.29289C2.31658 0.902369 1.68342 0.902369 1.29289 1.29289C0.902369 1.68342 0.902369 2.31658 1.29289 2.70711L2.70711 1.29289ZM5.29289 6.70711C5.68342 7.09763 6.31658 7.09763 6.70711 6.70711C7.09763 6.31658 7.09763 5.68342 6.70711 5.29289L5.29289 6.70711ZM6.70711 2.70711C7.09763 2.31658 7.09763 1.68342 6.70711 1.29289C6.31658 0.902369 5.68342 0.902369 5.29289 1.29289L6.70711 2.70711ZM1.29289 5.29289C0.902369 5.68342 0.902369 6.31658 1.29289 6.70711C1.68342 7.09763 2.31658 7.09763 2.70711 6.70711L1.29289 5.29289ZM1.29289 2.70711L5.29289 6.70711L6.70711 5.29289L2.70711 1.29289L1.29289 2.70711ZM5.29289 1.29289L1.29289 5.29289L2.70711 6.70711L6.70711 2.70711L5.29289 1.29289Z" fill="#E45770"/>
</svg>
