<svg width="24" height="24" viewBox="0 0 24 24" fill="none"
  xmlns="http://www.w3.org/2000/svg">
  <path d="M6 13.5L3 15.5L8.5 21L10.5 18L6 13.5Z" fill="#D0D2E0"/>
  <path d="M3.63462 11.1346L5 12.5L10.2308 7.26923H7.5L3.63462 11.1346Z" fill="#D0D2E0"/>
  <path d="M11.5 19L12.8654 20.3654L16.7308 16.5V13.7692L11.5 19Z" fill="#D0D2E0"/>
  <path d="M16.7308 13.7692V16.5L12.8654 20.3654L11.5 19M16.7308 13.7692L11.5 19M16.7308 13.7692L19.8284 10.6716C20.5786 9.92143 21 8.90401 21 7.84315V3H16.1569C15.096 3 14.0786 3.42143 13.3284 4.17157L10.2308 7.26923M10.2308 7.26923H7.5L3.63462 11.1346L5 12.5M10.2308 7.26923L5 12.5M5 12.5L11.5 19M6 13.5L3 15.5L8.5 21L10.5 18L6 13.5Z" stroke="#1B1E2E" stroke-width="2" stroke-linejoin="round"/>
  <path opacity="0.4" d="M0.146447 19.6464C-0.0488155 19.8417 -0.0488155 20.1583 0.146447 20.3536C0.341709 20.5488 0.658291 20.5488 0.853553 20.3536L0.146447 19.6464ZM0.146447 23.1464C-0.0488155 23.3417 -0.0488155 23.6583 0.146447 23.8536C0.341709 24.0488 0.658291 24.0488 0.853553 23.8536L0.146447 23.1464ZM3.64645 23.1464C3.45118 23.3417 3.45118 23.6583 3.64645 23.8536C3.84171 24.0488 4.15829 24.0488 4.35355 23.8536L3.64645 23.1464ZM2.14645 17.6464L0.146447 19.6464L0.853553 20.3536L2.85355 18.3536L2.14645 17.6464ZM3.89645 19.3964L0.146447 23.1464L0.853553 23.8536L4.60355 20.1036L3.89645 19.3964ZM5.64645 21.1464L3.64645 23.1464L4.35355 23.8536L6.35355 21.8536L5.64645 21.1464Z" fill="#1B1E2E"/>
  <path d="M13.5 16.5L7.5 10.5" stroke="#1B1E2E" stroke-linecap="round"/>
  <circle cx="16.5" cy="7.5" r="1.5" fill="#D0D2E0" stroke="#1B1E2E"/>
</svg>
