<svg viewBox="0 0 12 12" fill="none" xmlns="http://www.w3.org/2000/svg">
<circle cx="6" cy="6" r="4" fill="#1B1E2E" stroke="currentColor" stroke-width="2" class="icon-dark-stroke icon-light-fill"/>
<path fill-rule="evenodd" clip-rule="evenodd" d="M5.42556 3.44242C5.54582 3.07811 5.68122 2.8176 5.80836 2.65847C5.87075 2.58039 5.9218 2.53853 5.95608 2.51786C5.97248 2.50796 5.98373 2.50369 5.98989 2.50185C5.99569 2.50012 5.99868 2.5 6.00011 2.5C6.00154 2.5 6.00453 2.50012 6.01033 2.50185C6.01648 2.50369 6.02773 2.50796 6.04414 2.51786C6.07841 2.53853 6.12946 2.58039 6.19185 2.65847C6.31899 2.81759 6.45439 3.07811 6.57465 3.44242C6.78979 4.0942 6.92868 4.99295 6.92868 5.99998C6.92868 6.0142 6.92865 6.0284 6.92859 6.04258C6.62615 6.06154 6.31603 6.0714 6 6.0714C5.68404 6.0714 5.37399 6.06154 5.07162 6.04259C5.07156 6.02841 5.07153 6.0142 5.07153 5.99998C5.07153 4.99295 5.21041 4.0942 5.42556 3.44242ZM4.07167 5.94364C3.36044 5.84627 2.71422 5.69717 2.16007 5.50995L1.50281 5.28789L1.50004 5.98164L1.50003 5.98264L1.5 5.99899L1.5 5.99999L1.99434 6.00048L1.84 6.45734C2.50832 6.68313 3.2778 6.85382 4.11087 6.95721C4.17073 7.67292 4.29695 8.32868 4.47596 8.87099C4.61669 9.29732 4.79855 9.67966 5.02712 9.96573C5.25205 10.2472 5.5778 10.5 6.00011 10.5C6.42242 10.5 6.74817 10.2472 6.9731 9.96573C7.20166 9.67966 7.38352 9.29732 7.52425 8.87099C7.70326 8.32867 7.82948 7.67291 7.88934 6.95719C8.72233 6.85379 9.49173 6.68311 10.16 6.45734L10.0057 6.00049L10.5 5.99999L10.5 5.99898L10.5 5.98264L10.5 5.98164L10.4972 5.28789L9.83993 5.50995C9.28583 5.69715 8.63969 5.84624 7.92854 5.94361C7.9235 4.87697 7.77547 3.89001 7.52425 3.12896C7.38352 2.70263 7.20166 2.3203 6.97309 2.03424C6.74815 1.75273 6.4224 1.5 6.00011 1.5C5.57782 1.5 5.25206 1.75273 5.02713 2.03424C4.79855 2.3203 4.61669 2.70263 4.47596 3.12896C4.22474 3.89002 4.07671 4.87699 4.07167 5.94364ZM6.87675 7.04737C6.81766 7.6282 6.71138 8.14331 6.57465 8.55754C6.45439 8.92185 6.31899 9.18238 6.19184 9.34152C6.12945 9.41961 6.0784 9.46147 6.04412 9.48214C6.02772 9.49204 6.01647 9.49631 6.01031 9.49815C6.00452 9.49988 6.00153 9.5 6.00011 9.5C5.99868 9.5 5.9957 9.49988 5.9899 9.49815C5.98375 9.49631 5.9725 9.49204 5.95609 9.48214C5.92182 9.46147 5.87076 9.41961 5.80837 9.34151C5.68122 9.18238 5.54582 8.92185 5.42556 8.55753C5.28883 8.14331 5.18255 7.62821 5.12346 7.04738C5.41037 7.06323 5.70296 7.0714 6 7.0714C6.29711 7.0714 6.58978 7.06322 6.87675 7.04737Z" fill="#1B1E2E" class="icon-dark"/>
</svg>
