<svg viewBox="0 0 16 16" fill="none" xmlns="http://www.w3.org/2000/svg">
  <path d="M10.5 7.99996C10.5 6.16662 10.2483 4.4979 9.83634 3.24996C9.37962 1.86634 8.72595 1 8 1C7.27405 1 6.62036 1.86634 6.16364 3.24996C5.7517 4.4979 5.49999 6.16662 5.49999 7.99996C5.49999 8.29978 5.50672 8.59521 5.51979 8.8851C6.31689 8.96025 7.14711 8.99996 8 8.99996C8.85288 8.99996 9.6831 8.96025 10.4802 8.88511C10.4933 8.59521 10.5 8.29978 10.5 7.99996Z" class="icon-light" fill="#D0D2E0" />
  <path d="M8 1C5.96734 1 4.13704 1.86638 2.85821 3.25C1.71079 4.49145 1.00735 6.14931 1.00006 7.97139C2.29195 8.40785 3.8316 8.72595 5.51979 8.8851C5.50672 8.59521 5.49999 8.29978 5.49999 7.99996C5.49999 6.16662 5.7517 4.4979 6.16364 3.24996C6.62036 1.86634 7.27405 1 8 1Z" class="icon-light" fill="#D0D2E0" />
  <path d="M1 8C1 9.83333 1.70479 11.5021 2.85821 12.75C4.13704 14.1336 5.96734 15 8 15C7.27405 15 6.62036 14.1336 6.16364 12.75C5.81907 11.7061 5.58661 10.3678 5.51979 8.8851C3.8316 8.72595 2.29195 8.40785 1.00006 7.97139L1 8Z" class="icon-light" fill="#D0D2E0" />
  <path d="M6.16364 12.75C6.62036 14.1336 7.27405 15 8 15C8.72595 15 9.37962 14.1336 9.83634 12.75C10.1809 11.7061 10.4134 10.3678 10.4802 8.88511C9.6831 8.96025 8.85288 8.99996 8 8.99996C7.14711 8.99996 6.31689 8.96025 5.51979 8.8851C5.58661 10.3678 5.81907 11.7061 6.16364 12.75Z" class="icon-light" fill="#D0D2E0" />
  <path d="M8 15C10.0327 15 11.863 14.1336 13.1418 12.75C14.2952 11.5021 15 9.83333 15 8L14.9999 7.97139C13.7081 8.40785 12.1684 8.72596 10.4802 8.88511C10.4134 10.3678 10.1809 11.7061 9.83634 12.75C9.37962 14.1336 8.72595 15 8 15Z" class="icon-light" fill="#D0D2E0" />
  <path d="M13.1418 3.25C11.863 1.86638 10.0327 1 8 1C8.72595 1 9.37962 1.86634 9.83634 3.24996C10.2483 4.4979 10.5 6.16662 10.5 7.99996C10.5 8.29978 10.4933 8.59521 10.4802 8.88511C12.1684 8.72596 13.7081 8.40785 14.9999 7.97139C14.9927 6.14931 14.2892 4.49145 13.1418 3.25Z" class="icon-light" fill="#D0D2E0" />
  <path d="M13.1418 3.25L12.4074 3.92875V3.92875L13.1418 3.25ZM2.85821 3.25L3.59258 3.92875L2.85821 3.25ZM2.85821 12.75L3.59259 12.0713L2.85821 12.75ZM13.1418 12.75L12.4074 12.0713L13.1418 12.75ZM9.83634 3.24996L8.88674 3.56341V3.56341L9.83634 3.24996ZM6.16364 3.24996L7.11324 3.56341L6.16364 3.24996ZM6.16364 12.75L5.21404 13.0634L6.16364 12.75ZM9.83634 12.75L10.7859 13.0634V13.0634L9.83634 12.75ZM14.9999 7.97139L15.9999 7.96739L14.9999 7.97139ZM1.00006 7.97139L6.52075e-05 7.96739L1.00006 7.97139ZM8 2C9.74229 2 11.3099 2.74133 12.4074 3.92875L13.8762 2.57125C12.416 0.991423 10.323 0 8 0V2ZM3.59258 3.92875C4.69006 2.74133 6.25771 2 8 2V0C5.67698 0 3.58401 0.991423 2.12384 2.57125L3.59258 3.92875ZM0 8C0 10.0947 0.806383 12.0033 2.12384 13.4287L3.59259 12.0713C2.6032 11.0008 2 9.57197 2 8H0ZM8 14C6.25771 14 4.69006 13.2587 3.59259 12.0713L2.12384 13.4287C3.58401 15.0086 5.67698 16 8 16V14ZM8 16C10.323 16 12.416 15.0086 13.8762 13.4287L12.4074 12.0713C11.3099 13.2587 9.74229 14 8 14V16ZM14 8C14 9.57197 13.3968 11.0008 12.4074 12.0713L13.8762 13.4287C15.1936 12.0033 16 10.0947 16 8H14ZM11.5 7.99996C11.5 6.08543 11.2384 4.3071 10.7859 2.9365L8.88674 3.56341C9.25819 4.6887 9.49999 6.24781 9.49999 7.99996H11.5ZM8 2C7.93322 2 8.0208 1.95865 8.23789 2.23035C8.44772 2.49295 8.67885 2.93362 8.88674 3.56341L10.7859 2.9365C10.5371 2.18267 10.2131 1.49836 9.80037 0.981887C9.39497 0.474516 8.79274 0 8 0V2ZM5.21404 2.9365C4.76161 4.3071 4.49999 6.08543 4.49999 7.99996H6.49999C6.49999 6.24781 6.74179 4.6887 7.11324 3.56341L5.21404 2.9365ZM7.11324 3.56341C7.32113 2.93362 7.55227 2.49296 7.76209 2.23036C7.9792 1.95866 8.06678 2 8 2V0C7.20727 0 6.60504 0.474512 6.19963 0.981882C5.78694 1.49836 5.46287 2.18267 5.21404 2.9365L7.11324 3.56341ZM8 14C8.06682 14 7.97923 14.0414 7.76211 13.7696C7.55227 13.507 7.32113 13.0663 7.11324 12.4365L5.21404 13.0634C5.46287 13.8172 5.78693 14.5016 6.19961 15.0181C6.605 15.5254 7.20724 16 8 16V14ZM8 16C8.79277 16 9.395 15.5254 9.80039 15.0181C10.2131 14.5016 10.5371 13.8172 10.7859 13.0634L8.88674 12.4365C8.67885 13.0663 8.44771 13.507 8.23788 13.7696C8.02076 14.0414 7.93318 14 8 14V16ZM16 8C16 7.98912 16 7.97825 15.9999 7.96739L14 7.97539C14 7.98359 14 7.99179 14 8H16ZM15.9999 7.96739C15.9916 5.88541 15.1867 3.98924 13.8762 2.57125L12.4074 3.92875C13.3917 4.99366 13.9937 6.4132 14 7.97539L15.9999 7.96739ZM2.12384 2.57125C0.813257 3.98924 0.00839525 5.88541 6.52075e-05 7.96739L2.00005 7.97539C2.0063 6.4132 2.60833 4.99366 3.59258 3.92875L2.12384 2.57125ZM6.52075e-05 7.96739C2.17557e-05 7.97825 0 7.98912 0 8H2C2 7.99179 2.00002 7.98359 2.00005 7.97539L6.52075e-05 7.96739ZM4.49999 7.99996C4.49999 8.31473 4.50706 8.62516 4.5208 8.93012L6.51877 8.84008C6.50639 8.56525 6.49999 8.28484 6.49999 7.99996H4.49999ZM5.42593 9.88069C6.25468 9.95882 7.11623 9.99996 8 9.99996V7.99996C7.17799 7.99996 6.3791 7.96168 5.61365 7.88952L5.42593 9.88069ZM8 9.99996C8.88376 9.99996 9.7453 9.95882 10.5741 9.88069L10.3863 7.88952C9.62089 7.96168 8.822 7.99996 8 7.99996V9.99996ZM11.4792 8.93013C11.4929 8.62516 11.5 8.31473 11.5 7.99996H9.49999C9.49999 8.28484 9.4936 8.56525 9.48121 8.84009L11.4792 8.93013ZM10.5741 9.88069C12.3263 9.7155 13.9434 9.38386 15.32 8.91878L14.6799 7.024C13.4727 7.43185 12.0105 7.73641 10.3863 7.88952L10.5741 9.88069ZM9.48121 8.84009C9.41754 10.2529 9.19664 11.4977 8.88674 12.4365L10.7859 13.0634C11.1652 11.9145 11.4092 10.4828 11.4792 8.93012L9.48121 8.84009ZM5.61365 7.88952C3.98948 7.7364 2.52733 7.43185 1.32013 7.024L0.679983 8.91878C2.05657 9.38386 3.67371 9.7155 5.42593 9.88069L5.61365 7.88952ZM4.5208 8.93012C4.59077 10.4828 4.8348 11.9145 5.21404 13.0634L7.11324 12.4365C6.80334 11.4977 6.58244 10.2529 6.51877 8.84009L4.5208 8.93012ZM5.9247e-05 7.96939L2.02656e-06 7.998L2 8.002L2.00006 7.97339L5.9247e-05 7.96939ZM16 7.998L15.9999 7.96939L13.9999 7.97339L14 8.002L16 7.998Z" class="icon-dark" fill="#1B1E2E" />
</svg>
  