<svg viewBox="0 0 24 24" fill="none" xmlns="http://www.w3.org/2000/svg">
  <path
    d="M19 18C20.6569 18 22 16.6569 22 15V11C22 9.34315 20.6569 8 19 8H13C11.3431 8 10 9.34315 10 11V15C10 16.6569 11.3431 18 13 18H14L17.9146 19.9573C18.4133 20.2066 19 19.844 19 19.2865V18Z"
    fill="#F3F4FA" class="icon-light-secondary" />
  <path
    d="M20 18C21.1046 18 22 17.1046 22 16V10C22 8.89543 21.1046 8 20 8H12C10.8954 8 10 8.89543 10 10V16C10 17.1046 10.8954 18 12 18H14L19 20.5V18H20Z"
    stroke="#1B1E2E" stroke-width="2" stroke-linejoin="round" class="icon-dark" />
  <path
    d="M17 7C17 5.34315 15.6569 4 14 4H5C3.34315 4 2 5.34315 2 7V11C2 12.6569 3.34315 14 5 14V15.2865C5 15.844 5.58674 16.2066 6.08541 15.9573L10 14H14C15.6569 14 17 12.6569 17 11V7Z"
    fill="#BFC2D4" class="icon-light" />
  <path
    d="M17 6C17 4.89543 16.1046 4 15 4H4C2.89543 4 2 4.89543 2 6V12C2 13.1046 2.89543 14 4 14H5V16.5L10 14H15C16.1046 14 17 13.1046 17 12V6Z"
    stroke="#1B1E2E" stroke-width="2" stroke-linejoin="round" class="icon-dark" />
  <path
    d="M7 9C7 9.55228 6.55228 10 6 10C5.44772 10 5 9.55228 5 9C5 8.44772 5.44772 8 6 8C6.55228 8 7 8.44772 7 9Z"
    fill="#1B1E2E" class="icon-dark" />
  <path
    d="M10.5 9C10.5 9.55228 10.0523 10 9.5 10C8.94772 10 8.5 9.55228 8.5 9C8.5 8.44772 8.94772 8 9.5 8C10.0523 8 10.5 8.44772 10.5 9Z"
    fill="#1B1E2E" class="icon-dark" />
  <path
    d="M14 9C14 9.55228 13.5523 10 13 10C12.4477 10 12 9.55228 12 9C12 8.44772 12.4477 8 13 8C13.5523 8 14 8.44772 14 9Z"
    fill="#1B1E2E" class="icon-dark" />
</svg>
  