<svg viewBox="0 0 16 16" fill="none" version="1.1" xmlns="http://www.w3.org/2000/svg">
  <path d="M 8.589 1.066 C 12.804 5.224 12.804 10.804 8.589 14.96 M 2.589 12.425 C 5.831 10.112 10.183 10.112 13.425 12.425 M 7.547 1 C 3.302 5.184 3.302 10.804 7.547 14.989 M 7.971 1.007 C 2.585 1.035 -0.751 6.882 1.965 11.533 C 4.683 16.183 11.415 16.149 14.084 11.47 C 16.737 6.82 13.397 1.035 8.043 1.007 L 7.971 1.007 Z M 8.007 1.007 L 8.007 15 M 15.003 8.003 L 1.01 8.003 M 2.589 3.793 C 5.831 6.107 10.183 6.107 13.425 3.793 M 13.425 12.309" stroke="#1B1E2E" class="icon-dark" />
</svg>