<svg viewBox="0 0 16 16" fill="none" xmlns="http://www.w3.org/2000/svg">
<path d="M14.5 3H1.5C1.36767 3 1.24734 3.05141 1.1579 3.13535C1.06071 3.22656 1 3.35619 1 3.5V12.5C1 12.7761 1.22386 13 1.5 13H14.5C14.7761 13 15 12.7761 15 12.5V3.5C15 3.35619 14.9393 3.22656 14.8421 3.13535C14.7527 3.05141 14.6323 3 14.5 3Z" fill="#D0D2E0" class="icon-light"/>
<path d="M14.8421 3.13535L8 9L1.1579 3.13535M14.8421 3.13535C14.7527 3.05141 14.6323 3 14.5 3H1.5C1.36767 3 1.24734 3.05141 1.1579 3.13535M14.8421 3.13535C14.9393 3.22656 15 3.35619 15 3.5V12.5C15 12.7761 14.7761 13 14.5 13H1.5C1.22386 13 1 12.7761 1 12.5V3.5C1 3.35619 1.06071 3.22656 1.1579 3.13535" stroke="currentColor" stroke-width="2" stroke-linejoin="round" class="icon-dark"/>
</svg>
