<svg viewBox="0 0 16 16" fill="none" xmlns="http://www.w3.org/2000/svg">
<path fill-rule="evenodd" clip-rule="evenodd" d="M6 6C4.89543 6 4 6.89543 4 8V8V10V12C4 12 5.00002 15 8.00001 15C11 15 12 12 12 12L12 10V8V8C12 6.89543 11.1046 6 10 6H6Z" fill="#D0D2E0" class="icon-light" />
<path d="M12 12C12 12 11 15 8.00001 15C5.00002 15 4 12 4 12M12 12L12 10M12 12V12C13.6569 12 15 13.3431 15 15V15M4 12V10M4 12V12C2.34315 12 1 13.3431 1 15V15M12 10H15M12 10V8M4 10H1M4 10V8M12 8V8C12 6.89543 11.1046 6 10 6H6C4.89543 6 4 6.89543 4 8V8M12 8V8C13.6569 8 15 6.65685 15 5V5M4 8V8C2.34315 8 1 6.65685 1 5V5" stroke="currentColor" stroke-width="2" stroke-linecap="round" stroke-linejoin="round" class="icon-dark" />
<path fill-rule="evenodd" clip-rule="evenodd" d="M8 1C6.61929 1 5.5 2.11929 5.5 3.5V6H10.5V3.5C10.5 2.11929 9.38071 1 8 1V1Z" fill="#D0D2E0" stroke="currentColor" stroke-width="2" stroke-linecap="round" stroke-linejoin="round" class="icon-dark" />
</svg>
