<svg viewBox="0 0 24 24" fill="none" xmlns="http://www.w3.org/2000/svg">
  <path d="M15 10V7C15 5.34315 13.6569 4 12 4C10.3431 4 9 5.34315 9 7V10H15Z" fill="#D0D2E0"
    class="icon-light" />
  <path
    d="M15 10H9C8.05573 10.3148 7.31476 11.0557 7 12V14V16C7.29434 18.0604 8.94536 19.6606 11.0139 19.8904L11.6989 19.9665C11.899 19.9888 12.101 19.9888 12.3011 19.9665L12.9861 19.8904C15.0546 19.6606 16.7057 18.0604 17 16V14V12C16.6852 11.0557 15.9443 10.3148 15 10Z"
    fill="#D0D2E0" class="icon-light" />
  <path
    d="M17 12V14M17 12L17.2649 11.9117C18.8983 11.3672 20 9.83868 20 8.11696V7M17 12V12C16.6852 11.0557 15.9443 10.3148 15 10V10M15 10V7C15 5.34315 13.6569 4 12 4V4C10.3431 4 9 5.34315 9 7V10M15 10H9M9 10V10C8.05573 10.3148 7.31476 11.0557 7 12V12M7 12V14M7 12L6.73509 11.9117C5.10172 11.3672 4 9.83868 4 8.11696V7M17 14H20M17 14V16M7 14H4M7 14V16M17 16V16C16.7057 18.0604 15.0546 19.6606 12.9861 19.8904L12.3011 19.9665C12.101 19.9888 11.899 19.9888 11.6989 19.9665L11.0139 19.8904C8.94536 19.6606 7.29434 18.0604 7 16V16M17 16L17.2649 16.0883C18.8983 16.6328 20 18.1613 20 19.883V21M7 16L6.73509 16.0883C5.10172 16.6328 4 18.1613 4 19.883V21"
    stroke="currentColor" stroke-width="2" stroke-linecap="round" class="icon-dark" />
</svg>
  