<svg viewBox="0 0 16 16" fill="none" xmlns="http://www.w3.org/2000/svg">
    <path fill-rule="evenodd" clip-rule="evenodd" d="M6 7H5V9V11C5 11 6 13 8 13C10 13 11 11 11 11V9V7H10H6Z" fill="#D0D2E0" class="icon-light" />
    <path d="M6 5V7H10V5C10 3.89543 9.10457 3 8 3C6.89543 3 6 3.89543 6 5Z" fill="#D0D2E0" class="icon-light" />
    <path d="M13 10C13.5523 10 14 9.55228 14 9C14 8.44772 13.5523 8 13 8V10ZM3 8C2.44772 8 2 8.44772 2 9C2 9.55228 2.44772 10 3 10V8ZM14 5C14 4.44772 13.5523 4 13 4C12.4477 4 12 4.44772 12 5H14ZM4 5C4 4.44772 3.55228 4 3 4C2.44772 4 2 4.44772 2 5H4ZM12 13C12 13.5523 12.4477 14 13 14C13.5523 14 14 13.5523 14 13H12ZM2 13C2 13.5523 2.44772 14 3 14C3.55228 14 4 13.5523 4 13H2ZM5 8H6V6H5V8ZM7 7V5H5V7H7ZM6 8H10V6H6V8ZM10 8H11V6H10V8ZM9 5V7H11V5H9ZM10 7V9H12V7H10ZM11 10H13V8H11V10ZM6 9V7H4V9H6ZM5 8H3V10H5V8ZM10 9V11H12V9H10ZM11 11C10.1056 10.5528 10.1057 10.5524 10.1059 10.5521C10.106 10.552 10.1061 10.5517 10.1062 10.5515C10.1064 10.5511 10.1066 10.5507 10.1068 10.5503C10.1072 10.5496 10.1074 10.5491 10.1077 10.5486C10.1082 10.5476 10.1084 10.5471 10.1084 10.5471C10.1085 10.547 10.1077 10.5486 10.1059 10.5519C10.1024 10.5584 10.0954 10.5713 10.0849 10.5898C10.0637 10.6268 10.0288 10.6852 9.98045 10.7578C9.88255 10.9046 9.73568 11.1001 9.54289 11.2929C9.15189 11.6839 8.64124 12 8 12V14C9.35876 14 10.3481 13.3161 10.9571 12.7071C11.2643 12.3999 11.4924 12.0954 11.6446 11.8672C11.7212 11.7523 11.78 11.6544 11.8214 11.5821C11.8421 11.5458 11.8585 11.5158 11.8706 11.493C11.8767 11.4817 11.8817 11.4721 11.8857 11.4644C11.8877 11.4605 11.8894 11.4572 11.8908 11.4543C11.8916 11.4529 11.8922 11.4516 11.8928 11.4504C11.8931 11.4498 11.8934 11.4492 11.8937 11.4487C11.8938 11.4484 11.894 11.4481 11.8941 11.4479C11.8942 11.4476 11.8944 11.4472 11 11ZM6 11V9H4V11H6ZM8 12C7.35876 12 6.84811 11.6839 6.45711 11.2929C6.26432 11.1001 6.11745 10.9046 6.01955 10.7578C5.97116 10.6852 5.93629 10.6268 5.91512 10.5898C5.90457 10.5713 5.89755 10.5584 5.89407 10.5519C5.89234 10.5486 5.89149 10.547 5.89155 10.5471C5.89158 10.5471 5.89183 10.5476 5.89231 10.5486C5.89255 10.5491 5.89285 10.5496 5.8932 10.5503C5.89338 10.5507 5.89357 10.5511 5.89377 10.5515C5.89387 10.5517 5.89404 10.552 5.89409 10.5521C5.89426 10.5524 5.89443 10.5528 5 11C4.10557 11.4472 4.10575 11.4476 4.10593 11.4479C4.106 11.4481 4.10619 11.4484 4.10632 11.4487C4.10659 11.4492 4.10687 11.4498 4.10717 11.4504C4.10776 11.4516 4.10843 11.4529 4.10915 11.4543C4.11061 11.4572 4.11233 11.4605 4.11431 11.4644C4.11827 11.4721 4.12329 11.4817 4.12937 11.493C4.14151 11.5158 4.15793 11.5458 4.17863 11.5821C4.21996 11.6544 4.27884 11.7523 4.35545 11.8672C4.50755 12.0954 4.73568 12.3999 5.04289 12.7071C5.65189 13.3161 6.64124 14 8 14V12ZM8 4C8.55228 4 9 4.44772 9 5H11C11 3.34315 9.65685 2 8 2V4ZM7 5C7 4.44772 7.44772 4 8 4V2C6.34315 2 5 3.34315 5 5H7ZM12 5C12 5.55228 11.5523 6 11 6V8C12.6569 8 14 6.65685 14 5H12ZM5 6C4.44772 6 4 5.55228 4 5H2C2 6.65685 3.34315 8 5 8V6ZM11 12C11.5523 12 12 12.4477 12 13H14C14 11.3431 12.6569 10 11 10V12ZM4 13C4 12.4477 4.44772 12 5 12V10C3.34315 10 2 11.3431 2 13H4Z" fill="currentColor" class="icon-dark" />
</svg>
