<svg viewBox="0 0 16 16" fill="none" xmlns="http://www.w3.org/2000/svg">
<g clip-path="url(#clip0_4655_8441)">
<path d="M13.6096 5.4544C13.5168 5.5264 11.8784 6.4496 11.8784 8.5024C11.8784 10.8768 13.9632 11.7168 14.0256 11.7376C14.016 11.7888 13.6944 12.888 12.9264 14.008C12.2416 14.9936 11.5264 15.9776 10.4384 15.9776C9.3504 15.9776 9.0704 15.3456 7.8144 15.3456C6.5904 15.3456 6.1552 15.9984 5.16 15.9984C4.1648 15.9984 3.4704 15.0864 2.672 13.9664C1.7472 12.6512 1 10.608 1 8.6688C1 5.5584 3.0224 3.9088 5.0128 3.9088C6.0704 3.9088 6.952 4.6032 7.616 4.6032C8.248 4.6032 9.2336 3.8672 10.4368 3.8672C10.8928 3.8672 12.5312 3.9088 13.6096 5.4544ZM9.8656 2.5504C10.3632 1.96 10.7152 1.1408 10.7152 0.3216C10.7152 0.208 10.7056 0.0928 10.6848 0C9.8752 0.0304 8.912 0.5392 8.3312 1.2128C7.8752 1.7312 7.4496 2.5504 7.4496 3.3808C7.4496 3.5056 7.4704 3.6304 7.48 3.6704C7.5312 3.68 7.6144 3.6912 7.6976 3.6912C8.424 3.6912 9.3376 3.2048 9.8656 2.5504Z" fill="currentColor" class="icon-dark"/>
</g>
<defs>
<clipPath id="clip0_4655_8441">
<rect width="16" height="16" fill="currentColor" class="icon-light"/>
</clipPath>
</defs>
</svg>
