<svg viewBox="0 0 24 24" fill="none" xmlns="http://www.w3.org/2000/svg">
<path fill-rule="evenodd" clip-rule="evenodd" d="M10.0378 2.47456C8.84972 1.70234 7.28339 1.86664 6.28146 2.86857L2.86854 6.28148C1.86661 7.28341 1.70231 8.84974 2.47453 10.0378L5.25144 14.3099C6.19757 15.7655 8.17792 16.1166 9.56677 15.075L11 14L12.5 17.5L14 16.5L15.5 20L17 19C17 19 18 20.7 18.5 21C21 22.5 22 19 22 19L14 11L15.0749 9.56679C16.1166 8.17795 15.7655 6.19759 14.3099 5.25146L10.0378 2.47456ZM8.00001 9.00003C8.55229 9.00003 9.00001 8.55231 9.00001 8.00003C9.00001 7.44774 8.55229 7.00003 8.00001 7.00003C7.44772 7.00003 7.00001 7.44774 7.00001 8.00003C7.00001 8.55231 7.44772 9.00003 8.00001 9.00003Z" fill="#D0D2E0" class="icon-light-fill icon-dark-stroke" stroke="currentColor" stroke-width="2" stroke-linejoin="round"/>
</svg>
