<svg viewBox="0 0 16 16" fill="none"
  xmlns="http://www.w3.org/2000/svg">
  <path fill-rule="evenodd" clip-rule="evenodd" d="M14.3815 10.8811C13.9327 10.9593 13.4711 11 13 11C8.58172 11 5 7.41826 5 2.99998C5 2.52888 5.04072 2.06728 5.11884 1.61853C2.69 2.71685 1 5.16106 1 7.99999C1 11.866 4.13401 15 8 15C10.8389 15 13.2831 13.31 14.3815 10.8811Z" fill="#D0D2E0" class="icon-light"/>
  <path d="M14.3815 10.8811L15.2926 11.2932C15.4453 10.9557 15.3988 10.5614 15.1719 10.2686C14.945 9.97584 14.5749 9.83244 14.21 9.89596L14.3815 10.8811ZM5.11884 1.61853L6.10402 1.79002C6.16754 1.42509 6.02414 1.05495 5.73134 0.828065C5.43854 0.601184 5.04432 0.554738 4.7068 0.70736L5.11884 1.61853ZM14.21 9.89596C13.8176 9.96426 13.4134 9.99998 13 9.99998V12C13.5288 12 14.0478 11.9543 14.553 11.8663L14.21 9.89596ZM13 9.99998C9.13401 9.99998 6 6.86597 6 2.99998H4C4 7.97054 8.02944 12 13 12V9.99998ZM6 2.99998C6 2.58661 6.03572 2.18239 6.10402 1.79002L4.13365 1.44704C4.04572 1.95218 4 2.47115 4 2.99998H6ZM2 7.99999C2 5.56816 3.44682 3.47211 5.53087 2.5297L4.7068 0.70736C1.93319 1.96159 0 4.75396 0 7.99999H2ZM8 14C4.68629 14 2 11.3137 2 7.99999H0C0 12.4183 3.58172 16 8 16V14ZM13.4703 10.4691C12.5279 12.5532 10.4318 14 8 14V16C11.246 16 14.0384 14.0668 15.2926 11.2932L13.4703 10.4691Z" fill="currentColor" class="icon-dark"/>
</svg>
