<svg width="24" height="24" viewBox="0 0 24 24" fill="none"
  xmlns="http://www.w3.org/2000/svg">
  <path d="M6.67274 3C5.30404 3.00156 3.99186 3.55191 3.02405 4.53031L3.01375 4.52406C2.04451 5.5039 1.5 6.83285 1.5 8.21855C1.5 9.60425 2.04451 10.9332 3.01375 11.913L11.9914 20.9889L11.9945 20.9858L12.0086 21L20.9862 11.9241C21.9555 10.9443 22.5 9.61535 22.5 8.22965C22.5 6.84395 21.9555 5.515 20.9863 4.53516C20.5065 4.0491 19.9367 3.66339 19.3095 3.4001C18.6822 3.1368 18.0097 3.00107 17.3305 3.00069C16.6513 3.0003 15.9787 3.13525 15.3511 3.39784C14.7236 3.66042 14.1534 4.04547 13.6731 4.53099L12.0034 6.21892L10.3248 4.52198C9.35485 3.54579 8.04143 2.99844 6.67274 3Z" fill="#D0D2E0" stroke="currentStroke" class="icon-dark-stroke icon-light-fill" stroke-width="2" stroke-linejoin="round"/>
</svg>
