<svg viewBox="0 0 16 16" fill="none"
  xmlns="http://www.w3.org/2000/svg">
  <path d="M11 8C11 9.65685 9.65685 11 8 11C6.34315 11 5 9.65685 5 8C5 6.34315 6.34315 5 8 5C9.65685 5 11 6.34315 11 8Z" fill="#D0D2E0" class="icon-light" />
  <path d="M3.75736 2.34315C3.36683 1.95262 2.73367 1.95262 2.34315 2.34315C1.95262 2.73367 1.95262 3.36684 2.34315 3.75736L3.75736 2.34315ZM13.6569 3.75736C14.0474 3.36684 14.0474 2.73367 13.6569 2.34315C13.2663 1.95262 12.6332 1.95262 12.2426 2.34315L13.6569 3.75736ZM12.2426 13.6569C12.6332 14.0474 13.2663 14.0474 13.6569 13.6569C14.0474 13.2663 14.0474 12.6332 13.6569 12.2426L12.2426 13.6569ZM2.34315 12.2426C1.95262 12.6332 1.95262 13.2663 2.34315 13.6569C2.73367 14.0474 3.36683 14.0474 3.75736 13.6569L2.34315 12.2426ZM9 1C9 0.447715 8.55228 0 8 0C7.44772 0 7 0.447715 7 1H9ZM15 9C15.5523 9 16 8.55228 16 8C16 7.44772 15.5523 7 15 7V9ZM7 15C7 15.5523 7.44772 16 8 16C8.55228 16 9 15.5523 9 15H7ZM1 7C0.447715 7 0 7.44772 0 8C0 8.55228 0.447715 9 1 9V7ZM2.34315 3.75736L3.75736 5.17157L5.17157 3.75736L3.75736 2.34315L2.34315 3.75736ZM12.2426 2.34315L10.8284 3.75736L12.2426 5.17157L13.6569 3.75736L12.2426 2.34315ZM10.8284 12.2426L12.2426 13.6569L13.6569 12.2426L12.2426 10.8284L10.8284 12.2426ZM3.75736 10.8284L2.34315 12.2426L3.75736 13.6569L5.17157 12.2426L3.75736 10.8284ZM9 3V1H7V3H9ZM13 9H15V7H13V9ZM7 13V15H9V13H7ZM3 7H1V9H3V7ZM10 8C10 9.10457 9.10457 10 8 10V12C10.2091 12 12 10.2091 12 8H10ZM8 10C6.89543 10 6 9.10457 6 8H4C4 10.2091 5.79086 12 8 12V10ZM6 8C6 6.89543 6.89543 6 8 6V4C5.79086 4 4 5.79086 4 8H6ZM8 6C9.10457 6 10 6.89543 10 8H12C12 5.79086 10.2091 4 8 4V6Z" fill="currentColor" class="icon-dark" />
</svg>