<svg viewBox="0 0 16 16" fill="none" xmlns="http://www.w3.org/2000/svg">
<path d="M13.5447 3.06862C12.5249 2.61559 11.4313 2.28181 10.2879 2.09065C10.2671 2.08696 10.2463 2.09618 10.2356 2.11462C10.0949 2.3568 9.93915 2.67275 9.83006 2.92109C8.60027 2.74283 7.37679 2.74283 6.17221 2.92109C6.0631 2.66723 5.90166 2.3568 5.76038 2.11462C5.74966 2.09679 5.72886 2.08757 5.70803 2.09065C4.56527 2.2812 3.47171 2.61498 2.45129 3.06862C2.44246 3.07231 2.43488 3.07846 2.42986 3.08644C0.355594 6.08675 -0.212633 9.01331 0.0661201 11.9036C0.0673814 11.9177 0.0755799 11.9313 0.086932 11.9398C1.45547 12.9129 2.78114 13.5036 4.08219 13.8952C4.10301 13.9013 4.12507 13.894 4.13832 13.8773C4.44608 13.4704 4.72043 13.0414 4.95565 12.5902C4.96953 12.5638 4.95628 12.5324 4.92791 12.522C4.49275 12.3621 4.0784 12.1673 3.67982 11.946C3.64829 11.9282 3.64577 11.8845 3.67477 11.8636C3.75865 11.8028 3.84255 11.7394 3.92264 11.6755C3.93713 11.6638 3.95732 11.6614 3.97435 11.6688C6.59286 12.8262 9.4277 12.8262 12.0153 11.6688C12.0323 11.6608 12.0525 11.6632 12.0677 11.6749C12.1478 11.7388 12.2316 11.8028 12.3161 11.8636C12.3451 11.8845 12.3433 11.9282 12.3117 11.946C11.9131 12.1716 11.4988 12.3621 11.063 12.5213C11.0346 12.5318 11.022 12.5638 11.0359 12.5902C11.2762 13.0408 11.5505 13.4698 11.8526 13.8767C11.8652 13.894 11.8879 13.9013 11.9087 13.8952C13.2161 13.5036 14.5417 12.9129 15.9103 11.9398C15.9223 11.9313 15.9298 11.9183 15.9311 11.9042C16.2647 8.56272 15.3723 5.66016 13.5655 3.08706C13.5611 3.07846 13.5535 3.07231 13.5447 3.06862ZM5.34668 10.1437C4.55833 10.1437 3.90876 9.44298 3.90876 8.5824C3.90876 7.72183 4.54574 7.02109 5.34668 7.02109C6.15392 7.02109 6.79721 7.72798 6.78459 8.5824C6.78459 9.44298 6.14761 10.1437 5.34668 10.1437ZM10.6632 10.1437C9.87484 10.1437 9.22526 9.44298 9.22526 8.5824C9.22526 7.72183 9.86222 7.02109 10.6632 7.02109C11.4704 7.02109 12.1137 7.72798 12.1011 8.5824C12.1011 9.44298 11.4704 10.1437 10.6632 10.1437Z" fill="currentColor" class="icon-dark"/>
</svg>
