<svg viewBox="0 0 16 16" fill="none" xmlns="http://www.w3.org/2000/svg">
<path d="M16 1.17647V14.8235C16 15.1355 15.8761 15.4348 15.6554 15.6554C15.4348 15.8761 15.1355 16 14.8235 16H1.17647C0.864451 16 0.565211 15.8761 0.34458 15.6554C0.123949 15.4348 0 15.1355 0 14.8235L0 1.17647C0 0.864451 0.123949 0.565211 0.34458 0.34458C0.565211 0.123949 0.864451 0 1.17647 0L14.8235 0C15.1355 0 15.4348 0.123949 15.6554 0.34458C15.8761 0.565211 16 0.864451 16 1.17647ZM4.70588 6.11765H2.35294V13.6471H4.70588V6.11765ZM4.91765 3.52941C4.91889 3.35143 4.88506 3.17495 4.81809 3.01004C4.75113 2.84513 4.65233 2.69503 4.52736 2.56831C4.40238 2.44158 4.25366 2.34071 4.0897 2.27146C3.92574 2.20221 3.74975 2.16594 3.57176 2.16471H3.52941C3.16747 2.16471 2.82035 2.30849 2.56442 2.56442C2.30849 2.82035 2.16471 3.16747 2.16471 3.52941C2.16471 3.89135 2.30849 4.23847 2.56442 4.4944C2.82035 4.75034 3.16747 4.89412 3.52941 4.89412C3.70741 4.8985 3.88452 4.86776 4.05063 4.80367C4.21674 4.73957 4.36859 4.64338 4.49751 4.52057C4.62643 4.39777 4.72989 4.25077 4.80198 4.08797C4.87407 3.92517 4.91337 3.74976 4.91765 3.57176V3.52941ZM13.6471 9.07294C13.6471 6.80941 12.2071 5.92941 10.7765 5.92941C10.3081 5.90596 9.8417 6.00572 9.42389 6.21876C9.00607 6.43179 8.65142 6.75065 8.39529 7.14353H8.32941V6.11765H6.11765V13.6471H8.47059V9.64235C8.43658 9.2322 8.56577 8.8252 8.83011 8.50975C9.09445 8.19431 9.47258 7.99591 9.88235 7.95765H9.97176C10.72 7.95765 11.2753 8.42824 11.2753 9.61412V13.6471H13.6282L13.6471 9.07294Z" fill="currentColor" class="icon-dark"/>
</svg>
