<svg viewBox="0 0 16 16" fill="none" xmlns="http://www.w3.org/2000/svg">
<path fill-rule="evenodd" clip-rule="evenodd" d="M14.2509 2.57465C14.9398 2.75905 15.4811 3.30037 15.6655 3.98921C15.9987 5.2365 16.0001 7.84039 16.0001 7.84039C16.0001 7.84039 16.0001 10.4443 15.6655 11.6916C15.4811 12.3804 14.9398 12.9217 14.2509 13.1061C13.0037 13.4407 8 13.4407 8 13.4407C8 13.4407 2.99639 13.4407 1.7491 13.1061C1.06026 12.9217 0.518935 12.3804 0.334542 11.6916C0 10.4443 0 7.84039 0 7.84039C0 7.84039 0 5.2365 0.334542 3.98921C0.518935 3.30037 1.06026 2.75905 1.7491 2.57465C2.99639 2.24011 8 2.24011 8 2.24011C8 2.24011 13.0037 2.24011 14.2509 2.57465ZM10.5552 7.84055L6.39844 10.2403V5.4408L10.5552 7.84055Z" fill="currentColor" class="icon-dark"/>
</svg>
