<svg viewBox="0 0 24 24" fill="none"
  xmlns="http://www.w3.org/2000/svg">
  <path d="M9.70711 8.29289C9.31658 7.90237 8.68342 7.90237 8.29289 8.29289C7.90237 8.68342 7.90237 9.31658 8.29289 9.70711L9.70711 8.29289ZM14.2929 15.7071C14.6834 16.0976 15.3166 16.0976 15.7071 15.7071C16.0976 15.3166 16.0976 14.6834 15.7071 14.2929L14.2929 15.7071ZM15.7071 9.70711C16.0976 9.31658 16.0976 8.68342 15.7071 8.29289C15.3166 7.90237 14.6834 7.90237 14.2929 8.29289L15.7071 9.70711ZM8.29289 14.2929C7.90237 14.6834 7.90237 15.3166 8.29289 15.7071C8.68342 16.0976 9.31658 16.0976 9.70711 15.7071L8.29289 14.2929ZM8.29289 9.70711L11.2929 12.7071L12.7071 11.2929L9.70711 8.29289L8.29289 9.70711ZM11.2929 12.7071L14.2929 15.7071L15.7071 14.2929L12.7071 11.2929L11.2929 12.7071ZM14.2929 8.29289L11.2929 11.2929L12.7071 12.7071L15.7071 9.70711L14.2929 8.29289ZM11.2929 11.2929L8.29289 14.2929L9.70711 15.7071L12.7071 12.7071L11.2929 11.2929ZM20 12C20 16.4183 16.4183 20 12 20V22C17.5228 22 22 17.5228 22 12H20ZM12 20C7.58172 20 4 16.4183 4 12H2C2 17.5228 6.47715 22 12 22V20ZM4 12C4 7.58172 7.58172 4 12 4V2C6.47715 2 2 6.47715 2 12H4ZM12 4C16.4183 4 20 7.58172 20 12H22C22 6.47715 17.5228 2 12 2V4Z" fill="#E45770" class="icon-dark"/>
</svg>
