<svg viewBox="0 0 16 16" fill="none" xmlns="http://www.w3.org/2000/svg">
<path d="M1 14C1 14.5523 1.44772 15 2 15H14C14.5523 15 15 14.5523 15 14V12L12.5 9.5L10 12L5.5 7.5L1 12V14Z" fill="#D0D2E0" class="icon-light"/>
<path d="M12 5C12 5.55228 11.5523 6 11 6C10.4477 6 10 5.55228 10 5C10 4.44772 10.4477 4 11 4C11.5523 4 12 4.44772 12 5Z" fill="#D0D2E0" class="icon-light"/>
<path d="M5.5 7.5L6.20711 6.79289C5.81658 6.40237 5.18342 6.40237 4.79289 6.79289L5.5 7.5ZM10 12L9.29289 12.7071C9.68342 13.0976 10.3166 13.0976 10.7071 12.7071L10 12ZM12.5 9.5L13.2071 8.79289C12.8166 8.40237 12.1834 8.40237 11.7929 8.79289L12.5 9.5ZM14 0H2V2H14V0ZM2 14V12H0V14H2ZM2 12V2H0V12H2ZM1.70711 12.7071L6.20711 8.20711L4.79289 6.79289L0.292893 11.2929L1.70711 12.7071ZM4.79289 8.20711L9.29289 12.7071L10.7071 11.2929L6.20711 6.79289L4.79289 8.20711ZM10.7071 12.7071L13.2071 10.2071L11.7929 8.79289L9.29289 11.2929L10.7071 12.7071ZM16 14V12H14V14H16ZM16 12V2H14V12H16ZM11.7929 10.2071L14.2929 12.7071L15.7071 11.2929L13.2071 8.79289L11.7929 10.2071ZM2 16H14V14H2V16ZM11 5V7C12.1046 7 13 6.10457 13 5H11ZM11 5H9C9 6.10457 9.89543 7 11 7V5ZM11 5V3C9.89543 3 9 3.89543 9 5H11ZM11 5H13C13 3.89543 12.1046 3 11 3V5ZM14 2V2H16C16 0.89543 15.1046 0 14 0V2ZM14 14V16C15.1046 16 16 15.1046 16 14H14ZM2 0C0.895432 0 0 0.895429 0 2H2L2 2V0ZM0 14C0 15.1046 0.895431 16 2 16V14H0Z" fill="currentColor" class="icon-dark"/>
</svg>
