<svg viewBox="0 0 48 48" fill="none" xmlns="http://www.w3.org/2000/svg">
  <path d="M 38.5 15 L 38.5 14 M 9.5 38 L 7.5 38 C 5.843 38 4.5 36.657 4.5 35 L 4.5 34 M 38.5 10 L 38.5 9 C 38.5 7.343 37.157 6 35.5 6 L 34.5 6 M 4.5 10 L 4.5 9 C 4.5 7.343 5.843 6 7.5 6 L 8.5 6 M 4.5 30 L 4.5 27.5 M 4.5 23.5 L 4.5 20.5 M 4.5 16.5 L 4.5 14 M 12.5 6 L 16 6 M 20 6 L 23 6 M 27 6 L 30.5 6" stroke="rgba(0,0,0,0.2)" class="icon-dark-secondary" stroke-width="2" stroke-linecap="round" stroke-linejoin="round" />
  <path d="M 26.086 15.586 C 25.711 15.211 25.202 15 24.672 15 L 13.5 15 C 12.948 15 12.5 15.448 12.5 16 L 12.5 21 L 24.672 21 C 25.202 21 25.711 20.789 26.086 20.414 L 28.5 18 L 26.086 15.586 Z" fill="#69D3A7" class="icon-light" />
  <path class="icon-dark" d="M 12.5 21 L 11.5 21 L 12.5 21 Z M 26.086 20.414 L 26.793 21.121 L 26.086 20.414 Z M 24.672 15 L 24.672 14 L 24.672 15 Z M 26.086 15.586 L 26.793 14.879 L 26.086 15.586 Z M 13.5 15 L 13.5 16 L 13.5 15 Z M 24.207 28.707 C 24.598 28.317 24.598 27.683 24.207 27.293 C 23.817 26.902 23.183 26.902 22.793 27.293 L 24.207 28.707 Z M 21 30.5 L 20.293 29.793 C 19.902 30.183 19.902 30.817 20.293 31.207 L 21 30.5 Z M 22.793 33.707 C 23.183 34.098 23.817 34.098 24.207 33.707 C 24.598 33.317 24.598 32.683 24.207 32.293 L 22.793 33.707 Z M 32.207 27.293 C 31.817 26.902 31.183 26.902 30.793 27.293 C 30.402 27.683 30.402 28.317 30.793 28.707 L 32.207 27.293 Z M 34 30.5 L 34.707 31.207 C 35.098 30.817 35.098 30.183 34.707 29.793 L 34 30.5 Z M 30.793 32.293 C 30.402 32.683 30.402 33.317 30.793 33.707 C 31.183 34.098 31.817 34.098 32.207 33.707 L 30.793 32.293 Z M 25.524 34.783 C 25.404 35.322 25.744 35.856 26.283 35.976 C 26.822 36.096 27.356 35.756 27.476 35.217 L 25.524 34.783 Z M 29.476 26.217 C 29.596 25.678 29.256 25.144 28.717 25.024 C 28.178 24.904 27.644 25.244 27.524 25.783 L 29.476 26.217 Z M 41.5 20 L 41.5 39 L 43.5 39 L 43.5 20 L 41.5 20 Z M 40.5 40 L 14.5 40 L 14.5 42 L 40.5 42 L 40.5 40 Z M 13.5 16 L 24.672 16 L 24.672 14 L 13.5 14 L 13.5 16 Z M 25.379 16.293 L 27.793 18.707 L 29.207 17.293 L 26.793 14.879 L 25.379 16.293 Z M 28.5 19 L 40.5 19 L 40.5 17 L 28.5 17 L 28.5 19 Z M 27.793 17.293 L 25.379 19.707 L 26.793 21.121 L 29.207 18.707 L 27.793 17.293 Z M 13.5 39 L 13.5 21 L 11.5 21 L 11.5 39 L 13.5 39 Z M 13.5 21 L 13.5 16 L 11.5 16 L 11.5 21 L 13.5 21 Z M 24.672 20 L 12.5 20 L 12.5 22 L 24.672 22 L 24.672 20 Z M 25.379 19.707 C 25.191 19.895 24.937 20 24.672 20 L 24.672 22 C 25.467 22 26.23 21.684 26.793 21.121 L 25.379 19.707 Z M 24.672 16 C 24.937 16 25.191 16.105 25.379 16.293 L 26.793 14.879 C 26.23 14.316 25.467 14 24.672 14 L 24.672 16 Z M 14.5 40 C 13.948 40 13.5 39.552 13.5 39 L 11.5 39 C 11.5 40.657 12.843 42 14.5 42 L 14.5 40 Z M 41.5 39 C 41.5 39.552 41.052 40 40.5 40 L 40.5 42 C 42.157 42 43.5 40.657 43.5 39 L 41.5 39 Z M 43.5 20 C 43.5 18.343 42.157 17 40.5 17 L 40.5 19 C 41.052 19 41.5 19.448 41.5 20 L 43.5 20 Z M 13.5 14 C 12.395 14 11.5 14.895 11.5 16 L 13.5 16 L 13.5 14 Z M 22.793 27.293 L 20.293 29.793 L 21.707 31.207 L 24.207 28.707 L 22.793 27.293 Z M 20.293 31.207 L 22.793 33.707 L 24.207 32.293 L 21.707 29.793 L 20.293 31.207 Z M 30.793 28.707 L 33.293 31.207 L 34.707 29.793 L 32.207 27.293 L 30.793 28.707 Z M 33.293 29.793 L 30.793 32.293 L 32.207 33.707 L 34.707 31.207 L 33.293 29.793 Z M 27.476 35.217 L 29.476 26.217 L 27.524 25.783 L 25.524 34.783 L 27.476 35.217 Z" fill="currentColor" />
</svg>