<svg viewBox="0 0 24 24" fill="none"
	xmlns="http://www.w3.org/2000/svg">
	<path d="M3 19C3 19.5523 3.44772 20 4 20H20C20.5523 20 21 19.5523 21 19V17L18 14L15 17L9 11L3 17V19Z" class="icon-light" />
	<path d="M18 9C18 10.1046 17.1046 11 16 11C14.8954 11 14 10.1046 14 9C14 7.89543 14.8954 7 16 7C17.1046 7 18 7.89543 18 9Z" class="icon-light" />
	<path d="M9 11L9.70711 10.2929C9.31658 9.90237 8.68342 9.90237 8.29289 10.2929L9 11ZM15 17L14.2929 17.7071C14.6834 18.0976 15.3166 18.0976 15.7071 17.7071L15 17ZM18 14L18.7071 13.2929C18.3166 12.9024 17.6834 12.9024 17.2929 13.2929L18 14ZM20 3H4V5H20V3ZM4 19V17H2V19H4ZM4 17V5H2V17H4ZM3.70711 17.7071L9.70711 11.7071L8.29289 10.2929L2.29289 16.2929L3.70711 17.7071ZM8.29289 11.7071L14.2929 17.7071L15.7071 16.2929L9.70711 10.2929L8.29289 11.7071ZM15.7071 17.7071L18.7071 14.7071L17.2929 13.2929L14.2929 16.2929L15.7071 17.7071ZM22 19V17H20V19H22ZM22 17V5H20V17H22ZM17.2929 14.7071L20.2929 17.7071L21.7071 16.2929L18.7071 13.2929L17.2929 14.7071ZM4 21H20V19H4V21ZM17 9C17 9.55228 16.5523 10 16 10V12C17.6569 12 19 10.6569 19 9H17ZM16 10C15.4477 10 15 9.55228 15 9H13C13 10.6569 14.3431 12 16 12V10ZM15 9C15 8.44772 15.4477 8 16 8V6C14.3431 6 13 7.34315 13 9H15ZM16 8C16.5523 8 17 8.44772 17 9H19C19 7.34315 17.6569 6 16 6V8ZM20 5V5H22C22 3.89543 21.1046 3 20 3V5ZM20 19V21C21.1046 21 22 20.1046 22 19H20ZM4 3C2.89543 3 2 3.89543 2 5H4L4 5V3ZM2 19C2 20.1046 2.89543 21 4 21V19H2Z" fill="currentColor" class="icon-dark" />
</svg>

