<svg viewBox="0 0 16 16" fill="none" xmlns="http://www.w3.org/2000/svg">
<path d="M7 5V6H9V5H7ZM9 11V10H7V11H9ZM5 7C3.89543 7 3 6.10457 3 5H1C1 7.20914 2.79086 9 5 9V7ZM3 5C3 3.89543 3.89543 3 5 3V1C2.79086 1 1 2.79086 1 5H3ZM5 3C6.10457 3 7 3.89543 7 5H9C9 2.79086 7.20914 1 5 1V3ZM13 11C13 12.1046 12.1046 13 11 13V15C13.2091 15 15 13.2091 15 11H13ZM11 13C9.89543 13 9 12.1046 9 11H7C7 13.2091 8.79086 15 11 15V13ZM11 9C12.1046 9 13 9.89543 13 11H15C15 8.79086 13.2091 7 11 7V9ZM11 7H5V9H11V7Z" fill="currentColor" class="icon-dark" />
</svg>
