<svg viewBox="0 0 16 16" fill="none" xmlns="http://www.w3.org/2000/svg">
<path d="M15 3C15 1.89543 14.1046 1 13 1H3C1.89543 1 1 1.89543 1 3V4H15V3Z" fill="#D0D2E0" class="icon-light"/>
<path fill-rule="evenodd" clip-rule="evenodd" d="M15 3C15 1.89543 14.1046 1 13 1H3C1.89543 1 1 1.89543 1 3V4H15V3Z" fill="#D0D2E0" class="icon-light"/>
<path d="M1 4V13C1 14.1046 1.89543 15 3 15H13C14.1046 15 15 14.1046 15 13V4M1 4V3C1 1.89543 1.89543 1 3 1H13C14.1046 1 15 1.89543 15 3V4M1 4H15" class="icon-dark" stroke="currentColor" stroke-width="2" stroke-linecap="round" stroke-linejoin="round"/>
<path d="M4.5 7C4.22386 7 4 7.22386 4 7.5C4 7.77614 4.22386 8 4.5 8V7ZM5.5 8H6V7H5.5V8ZM4.5 9C4.22386 9 4 9.22386 4 9.5C4 9.77614 4.22386 10 4.5 10V9ZM6 10H6.5V9H6V10ZM4.5 11C4.22386 11 4 11.2239 4 11.5C4 11.7761 4.22386 12 4.5 12V11ZM7.5 12H8V11H7.5V12ZM7.5 9H7V10H7.5V9ZM9 10C9.27614 10 9.5 9.77614 9.5 9.5C9.5 9.22386 9.27614 9 9 9V10ZM9 11H8.5V12H9V11ZM11 12C11.2761 12 11.5 11.7761 11.5 11.5C11.5 11.2239 11.2761 11 11 11V12ZM7 7H6.5V8H7V7ZM8 8H8.5V7H8V8ZM9.5 7H9V8H9.5V7ZM11.5 8C11.7761 8 12 7.77614 12 7.5C12 7.22386 11.7761 7 11.5 7V8ZM4.5 8H5.5V7H4.5V8ZM4.5 10H6V9H4.5V10ZM4.5 12H7.5V11H4.5V12ZM7.5 10H9V9H7.5V10ZM9 12H11V11H9V12ZM7 8H8V7H7V8ZM9.5 8H11.5V7H9.5V8Z" fill="currentColor" class="icon-dark"/>
</svg>
