<svg viewBox="0 0 24 24" fill="none" xmlns="http://www.w3.org/2000/svg">
<path d="M21.4284 9.8847L7.29417 7.05786C7.15423 7.02987 7.03085 7.15325 7.05883 7.2932L9.8857 21.4274C9.923 21.6142 10.1755 21.648 10.2607 21.4777L12.8759 16.2472C12.937 16.1251 13.0997 16.0987 13.1962 16.1952L17.3586 20.3576C17.4367 20.4357 17.5633 20.4357 17.6414 20.3576L20.3586 17.6404C20.4367 17.5623 20.4367 17.4357 20.3586 17.3576L16.1962 13.1952C16.0997 13.0987 16.1261 12.936 16.2482 12.8749L21.4786 10.2597C21.649 10.1745 21.6151 9.9221 21.4284 9.8847Z" fill="#E1E3ED" stroke="currentColor" stroke-width="2" class="icon-dark" />
<path fill-rule="evenodd" clip-rule="evenodd" d="M10 -0.000976562C10.5523 -0.000976562 11 0.44674 11 0.99902V2.49902C11 3.05131 10.5523 3.49902 10 3.49902C9.4477 3.49902 9 3.05131 9 2.49902V0.99902C9 0.44674 9.4477 -0.000976562 10 -0.000976562ZM18.2071 3.20613L17.1464 4.26679C16.7559 4.65731 16.1228 4.65731 15.7322 4.26679C15.3417 3.87627 15.3417 3.2431 15.7322 2.85258L16.7929 1.79192C17.1834 1.40139 17.8166 1.40139 18.2071 1.79192C18.5976 2.18244 18.5976 2.81561 18.2071 3.20613ZM4.70711 16.7061C5.09763 16.3156 5.09763 15.6824 4.70711 15.2919C4.31658 14.9014 3.68342 14.9014 3.29289 15.2919L2.23223 16.3526C1.84171 16.7431 1.84171 17.3763 2.23223 17.7668C2.62276 18.1573 3.25592 18.1573 3.64645 17.7668L4.70711 16.7061ZM1.79289 1.79192C2.18342 1.40139 2.81658 1.40139 3.20711 1.79192L4.26777 2.85258C4.65829 3.2431 4.65829 3.87627 4.26777 4.26679C3.87724 4.65731 3.24408 4.65731 2.85355 4.26679L1.79289 3.20613C1.40237 2.81561 1.40237 2.18244 1.79289 1.79192ZM1 8.99902C0.44772 8.99902 0 9.4467 0 9.999C0 10.5513 0.44772 10.999 1 10.999H2.5C3.05228 10.999 3.5 10.5513 3.5 9.999C3.5 9.4467 3.05228 8.99902 2.5 8.99902H1Z" fill="currentColor" class="icon-dark" />
</svg>
