<svg width="18" height="19" viewBox="0 0 18 19" fill="none" xmlns="http://www.w3.org/2000/svg">
  <path d="M12 6.99927V3.99927C12 2.34241 10.6569 0.999268 9 0.999268C7.34315 0.999268 6 2.34241 6 3.99927V6.99927H12Z" class="icon-light" fill="#D0D2E0"/>
  <path d="M12 6.99927H6C5.05573 7.31402 4.31476 8.055 4 8.99927V10.9993V12.9993C4.29434 15.0596 5.94536 16.6599 8.01391 16.8897L8.69889 16.9658C8.89901 16.988 9.10099 16.988 9.30111 16.9658L9.98609 16.8897C12.0546 16.6599 13.7057 15.0596 14 12.9993V10.9993V8.99927C13.6852 8.055 12.9443 7.31402 12 6.99927Z" class="icon-light" fill="#D0D2E0"/>
  <path d="M14 8.99927V10.9993M14 8.99927L14.2649 8.91096C15.8983 8.36651 17 6.83795 17 5.11623V3.99927M14 8.99927V8.99927C13.6852 8.055 12.9443 7.31402 12 6.99927V6.99927M12 6.99927V3.99927C12 2.34241 10.6569 0.999268 9 0.999268V0.999268C7.34315 0.999268 6 2.34241 6 3.99927V6.99927M12 6.99927H6M6 6.99927V6.99927C5.05573 7.31402 4.31476 8.055 4 8.99927V8.99927M4 8.99927V10.9993M4 8.99927L3.73509 8.91096C2.10172 8.36651 1 6.83795 1 5.11623V3.99927M14 10.9993H17M14 10.9993V12.9993M4 10.9993H1M4 10.9993V12.9993M14 12.9993V12.9993C13.7057 15.0596 12.0546 16.6599 9.98609 16.8897L9.30111 16.9658C9.10099 16.988 8.89901 16.988 8.69889 16.9658L8.01391 16.8897C5.94536 16.6599 4.29434 15.0596 4 12.9993V12.9993M14 12.9993L14.2649 13.0876C15.8983 13.632 17 15.1606 17 16.8823V17.9993M4 12.9993L3.73509 13.0876C2.10172 13.632 1 15.1606 1 16.8823V17.9993" class="icon-dark" stroke="currentColor" stroke-width="2" stroke-linecap="round"/>
</svg>
