<svg viewBox="0 0 24 24" fill="none" xmlns="http://www.w3.org/2000/svg">
  <path
    d="M12 10.999L16 9.99902M12 10.999L8 9.99902M12 10.999V13.999M12 13.999L9 17.999M12 13.999L15 17.999M23 11.999C23 18.0742 18.0751 22.999 12 22.999C5.92487 22.999 1 18.0742 1 11.999C1 5.92389 5.92487 0.999023 12 0.999023C18.0751 0.999023 23 5.92389 23 11.999ZM12 7.99902C12.5523 7.99902 13 7.55131 13 6.99902C13 6.44674 12.5523 5.99902 12 5.99902C11.4477 5.99902 11 6.44674 11 6.99902C11 7.55131 11.4477 7.99902 12 7.99902Z"
    stroke="currentColor" fill="#E1E3ED" stroke-width="2" stroke-linecap="round"
    class="icon-dark-stroke icon-light-fill" />
</svg>