<svg viewBox="0 0 24 24" fill="none" xmlns="http://www.w3.org/2000/svg">
<path d="M13 15V14H11V15H13ZM11 9V10H13V9H11ZM7.5 11C5.567 11 4 9.433 4 7.5H2C2 10.5376 4.46243 13 7.5 13V11ZM4 7.5C4 5.567 5.567 4 7.5 4V2C4.46243 2 2 4.46243 2 7.5H4ZM7.5 4C9.433 4 11 5.567 11 7.5H13C13 4.46243 10.5376 2 7.5 2V4ZM20 16.5C20 18.433 18.433 20 16.5 20V22C19.5376 22 22 19.5376 22 16.5H20ZM16.5 20C14.567 20 13 18.433 13 16.5H11C11 19.5376 13.4624 22 16.5 22V20ZM16.5 13C18.433 13 20 14.567 20 16.5H22C22 13.4624 19.5376 11 16.5 11V13ZM16.5 11H7.5V13H16.5V11ZM13 16.5V15H11V16.5H13ZM11 7.5V9H13V7.5H11Z" fill="currentColor" class="icon-dark"/>
</svg>
