<svg viewBox="0 0 16 16" fill="none" xmlns="http://www.w3.org/2000/svg">
<path fill-rule="evenodd" clip-rule="evenodd" d="M14 4C14 2.89543 13.1046 2 12 2H4C2.89543 2 2 2.89543 2 4V6H14V4Z" fill="#D0D2E0" class="icon-light"/>
<path d="M14 6V4C14 2.89543 13.1046 2 12 2H4C2.89543 2 2 2.89543 2 4V6M14 6V12C14 13.1046 13.1046 14 12 14H4C2.89543 14 2 13.1046 2 12V6M14 6H2M5 1V3M11 1V3M5 9V10H6V9H5Z" stroke="currentColor" class="icon-dark" stroke-width="2" stroke-linecap="round" stroke-linejoin="round"/>
</svg>
