<svg width="24" height="24" viewBox="0 0 24 24" fill="none"
	xmlns="http://www.w3.org/2000/svg">
	<path d="M12 3C16.9706 3 21 7.02944 21 12H12V3Z" fill="#D0D2E0" class="icon-light"/>
	<path d="M21 12C21 16.9706 16.9706 21 12 21C9.51472 21 7.26472 19.9926 5.63604 18.364M21 12C21 7.02944 16.9706 3 12 3M21 12H12M12 3C9.51472 3 7.26472 4.00736 5.63604 5.63604C4.00736 7.26472 3 9.51472 3 12C3 14.4853 4.00736 16.7353 5.63604 18.364M12 3V12M5.63604 18.364L12 12" stroke="currentColor" class="icon-dark" stroke-width="2" stroke-linecap="round" stroke-linejoin="round"/>
</svg>
