<svg viewBox="0 0 24 24" fill="none" xmlns="http://www.w3.org/2000/svg">
  <path
    d="M20.9692 12.7498C20.5882 17.3695 16.7181 21 12 21C9.78442 21 7.75582 20.1994 6.18772 18.8717C5.8716 18.6041 5.87348 18.1265 6.16637 17.8336L11.7071 12.2929C11.8946 12.1054 12.149 12 12.4142 12H20.25C20.6642 12 21.0033 12.337 20.9692 12.7498Z"
    fill="#D0D2E0" class="icon-light" />
  <path
    d="M5.12826 17.8123C3.80059 16.2442 3 14.2156 3 12C3 9.51472 4.00736 7.26472 5.63604 5.63604C7.09937 4.17271 9.06426 3.21095 11.2507 3.03075C11.6635 2.99672 12 3.33579 12 3.75V11.5858C12 11.851 11.8946 12.1054 11.7071 12.2929L6.16637 17.8336C5.87348 18.1265 5.39591 18.1284 5.12826 17.8123Z"
    fill="#BFC2D4" class="icon-light-secondary" />
  <path
    d="M12 3.75C12 3.33579 12.337 2.99674 12.7498 3.03079C17.1223 3.3914 20.6086 6.8777 20.9692 11.2502C21.0033 11.663 20.6642 12 20.25 12H12.75C12.3358 12 12 11.6642 12 11.25V3.75Z"
    fill="#9095AD" class="icon-dark-secondary" />
  <path
    d="M21 12C21 16.9706 16.9706 21 12 21C9.51472 21 7.26472 19.9926 5.63604 18.364M21 12C21 7.02944 16.9706 3 12 3M21 12H12M12 3C7.02944 3 3 7.02944 3 12C3 14.4853 4.00736 16.7353 5.63604 18.364M12 3V12M12 12L5.63604 18.364"
    stroke="#1B1E2E" class="icon-dark" stroke-width="2" />
</svg>
  